%FSTAX23Y23*%
%MOIN*%
%SFA1B1*%

%IPPOS*%
%ADD15C,0.010000*%
%ADD16R,0.027560X0.037400*%
%ADD17R,0.037400X0.027560*%
%ADD18C,0.078740*%
%ADD19R,0.019680X0.023620*%
%ADD20O,0.015750X0.064960*%
%ADD37C,0.019680*%
%ADD38O,0.078740X0.068900*%
%ADD39O,0.078740X0.059060*%
%ADD40O,0.157480X0.078740*%
%ADD41C,0.062990*%
%ADD42C,0.049210*%
%ADD43R,0.059060X0.059060*%
%ADD44C,0.059060*%
%ADD45C,0.027560*%
%LNmidi_stick-1*%
%LPD*%
G36*
X04601Y02555D02*
X0283D01*
Y02627*
X02834Y02629*
X02835Y02628*
X02843Y02623*
X02847Y02622*
Y02645*
Y02668*
X02843Y02668*
X02835Y02662*
X02834Y02662*
X0283Y02663*
Y02793*
X02834Y02794*
X02835Y02793*
X02843Y02788*
X02847Y02787*
Y02811*
Y02834*
X02843Y02833*
X02835Y02828*
X02834Y02827*
X0283Y02828*
Y02958*
X02834Y02959*
X02835Y02959*
X02843Y02953*
X02847Y02953*
Y02976*
Y02999*
X02843Y02998*
X02835Y02993*
X02834Y02992*
X0283Y02994*
Y03315*
X03904*
X03906Y0331*
X03887Y03291*
X03882Y03293*
X0387Y03294*
X03857Y03293*
X03845Y03288*
X03834Y0328*
X03826Y03269*
X03822Y03259*
X03817*
X03813Y03269*
X03805Y0328*
X03794Y03288*
X03782Y03293*
X03775Y03294*
Y03245*
X03765*
Y03294*
X03757Y03293*
X03745Y03288*
X03734Y0328*
X03726Y03269*
X03722Y03259*
X03717*
X03713Y03269*
X03705Y0328*
X03694Y03288*
X03682Y03293*
X0367Y03294*
X03657Y03293*
X03645Y03288*
X03634Y0328*
X03626Y03269*
X03622Y03259*
X03617*
X03613Y03269*
X03605Y0328*
X03594Y03288*
X03582Y03293*
X0357Y03294*
X03557Y03293*
X03545Y03288*
X03534Y0328*
X03526Y03269*
X03521Y03257*
X0352Y03245*
X03521Y03232*
X03526Y0322*
X03534Y03209*
X03545Y03201*
X03554Y03197*
Y03185*
X03555Y03179*
X03559Y03174*
X03589Y03144*
X03594Y0314*
X036Y03139*
X03778*
X03804Y03114*
X03802Y03109*
X03801Y03109*
X03795Y03105*
X03789Y03109*
X03782Y0311*
X03775Y03109*
X0377Y03105*
X03764Y03109*
X03762Y03109*
Y03067*
X03752*
Y03109*
X0375Y03109*
X03744Y03105*
X03738Y03109*
X03731Y0311*
X03724Y03109*
X03718Y03105*
X03713Y03109*
X03706Y0311*
X03699Y03109*
X03693Y03105*
X03687Y03109*
X0368Y0311*
X03673Y03109*
X03667Y03105*
X03661Y03109*
X03654Y0311*
X03647Y03109*
X03642Y03105*
X03636Y03109*
X03629Y0311*
X03622Y03109*
X03616Y03105*
X0361Y03109*
X03603Y0311*
X03596Y03109*
X0359Y03105*
X03587Y03099*
X03582Y03097*
X03533Y03146*
X03528Y03149*
X03522Y0315*
X03443*
Y03159*
X03425*
Y03176*
X03434*
Y03233*
X03388*
X03386*
X03383*
X03381*
X03335*
Y0322*
X03274*
X03273Y0323*
X03269Y03239*
X03263Y03248*
X03254Y03254*
X03245Y03258*
X03235Y03259*
X03224Y03258*
X03215Y03254*
X03206Y03248*
X032Y03239*
X03196Y0323*
X03195Y0322*
X03196Y03209*
X032Y032*
X03206Y03191*
X03215Y03185*
X03224Y03181*
X03235Y0318*
X03245Y03181*
X03254Y03185*
X0326Y03189*
X03335*
Y03176*
X03381*
X03383*
X03386*
X03388*
X03395*
Y03159*
X03386*
Y0315*
X03374*
Y03161*
X03335*
Y03117*
X03374*
Y0312*
X03386*
Y03111*
Y03108*
Y0306*
X03443*
Y03064*
X0351*
X03535Y03039*
X03536Y03035*
X03538Y03032*
Y02995*
X03528*
Y03003*
X03482*
X03481*
X03477*
X03476*
X03458*
Y02975*
Y02946*
X03476*
X03477*
X03481*
X03482*
X03528*
Y02954*
X03916*
Y02895*
X03826*
X03818Y02893*
X03811Y02889*
X03794Y02871*
X03789Y02865*
X03788Y02857*
Y02827*
X03784Y02824*
X03782Y02825*
X03775Y02823*
X0377Y02819*
X03764Y02823*
X03757Y02825*
X0375Y02823*
X03744Y02819*
X03738Y02823*
X03731Y02825*
X03724Y02823*
X03718Y02819*
X03713Y02823*
X03711Y02824*
Y02782*
Y0274*
X03711Y0274*
X03716Y02737*
Y02724*
X03702*
Y02676*
Y02673*
Y02654*
X03731*
Y02644*
X03702*
Y0263*
X03161*
X03135Y02656*
Y02773*
X03139Y02775*
X0314Y02774*
X0315Y02772*
X03159Y02774*
X03164Y02778*
X03169Y02775*
Y02685*
X0317Y02679*
X03174Y02674*
X03194Y02654*
X03199Y0265*
X03205Y02649*
X0364*
X03645Y0265*
X0365Y02654*
X03691Y02694*
X03694Y02699*
X03695Y02705*
Y02737*
X037Y0274*
X03701Y0274*
Y02782*
Y02824*
X03699Y02823*
X03693Y02819*
X03687Y02823*
X0368Y02825*
X03673Y02823*
X03667Y02819*
X03661Y02823*
X03654Y02825*
X03647Y02823*
X03642Y02819*
X03636Y02823*
X03629Y02825*
X03622Y02823*
X03616Y02819*
X0361Y02823*
X03603Y02825*
X03596Y02823*
X0359Y02819*
X03586Y02813*
X03585Y02806*
Y02782*
X03581Y02779*
X03579Y02781*
X0357Y02782*
X0356Y02781*
X03554Y02776*
X03549Y02778*
X03549Y02779*
Y02788*
X03531*
X0353Y02793*
X0353Y02793*
X03536Y02801*
X03537Y02806*
X0349*
X03491Y02801*
X03496Y02793*
X03496Y02793*
X03495Y02788*
X03479*
Y0276*
X03474*
Y02755*
X0345*
Y02731*
X03446Y0273*
X03361*
X0335Y02741*
Y02831*
X03363*
Y02877*
Y02878*
Y02882*
Y02883*
Y02929*
X0335*
Y02941*
X03363*
Y02987*
Y02988*
Y02992*
Y02993*
Y03039*
X03306*
Y03031*
X03288*
Y03039*
X03246*
X03243Y03044*
X03246Y03049*
X03247Y03054*
X03201*
X03202Y03049*
X03205Y03044*
X03202Y03039*
X03163*
X0316Y03044*
X03164Y03049*
X03164Y03054*
X03146*
Y03035*
X03148Y03036*
X03152Y03032*
X03152Y0303*
X0315Y0303*
X03145Y03026*
X03134Y03015*
X0313Y0301*
X03129Y03004*
Y02962*
X03125Y0296*
X031Y02985*
X03095Y02988*
X0309Y02989*
X03068*
X03066Y02994*
X03059Y03002*
X03051Y03008*
X03042Y03012*
X03031Y03014*
X03012*
X03001Y03012*
X02992Y03008*
X02983Y03002*
X02977Y02994*
X02973Y02984*
X02972Y02974*
X02973Y02964*
X02977Y02954*
X02983Y02946*
X02992Y02939*
X02997Y02937*
Y02932*
X02992Y0293*
X02983Y02923*
X02977Y02915*
X02973Y02905*
X02972Y02895*
X02973Y02885*
X02977Y02875*
X02983Y02867*
X02992Y02861*
X03001Y02857*
X03012Y02855*
X03031*
X03042Y02857*
X03051Y02861*
X03059Y02867*
X03066Y02875*
X03068Y0288*
X03073*
X03084Y02868*
Y02741*
X03079Y0274*
X03076Y02745*
X03068Y0275*
X03064Y02751*
Y02728*
Y02705*
X03068Y02705*
X03076Y02711*
X03079Y02716*
X03084Y02714*
Y0264*
X03085Y02634*
X03089Y02629*
X03134Y02584*
X03139Y0258*
X03145Y02579*
X03775*
X0378Y0258*
X03785Y02584*
X038Y02599*
X03804Y02604*
X03805Y0261*
Y0273*
X03804Y02735*
X03805Y02737*
X03807Y02739*
X03808Y02739*
X03815Y0274*
X03821Y02744*
X03827Y0274*
X03833Y02739*
X0384Y0274*
X03846Y02744*
X03852Y0274*
X03859Y02739*
X03864Y0274*
X03869Y02737*
Y02725*
X03862Y02717*
X0386Y02717*
X0385Y02716*
X03842Y0271*
X03837Y02702*
X03835Y02693*
X03837Y02684*
X03842Y02676*
X0385Y02671*
X0386Y02669*
X03869Y02671*
X03877Y02676*
X03882Y02684*
X03884Y02693*
X03883Y02695*
X03895Y02708*
X03899Y02713*
X039Y02718*
Y02737*
X03905Y0274*
X03905Y0274*
Y02782*
Y02824*
X03903Y02823*
X03897Y02819*
X03892Y02823*
X03885Y02825*
X03878Y02823*
X03872Y02819*
X03866Y02823*
X03859Y02825*
X03852Y02823*
X03846Y02819*
X0384Y02823*
X03833Y02825*
X03832Y02824*
X03828Y02827*
Y02849*
X03834Y02854*
X03916*
Y02827*
X03915Y02827*
Y02782*
Y02736*
X03916Y02736*
Y02724*
X03907*
Y02678*
Y02676*
Y02673*
Y02671*
Y02654*
X03936*
X03965*
Y02671*
Y02673*
Y02676*
Y02678*
Y02724*
X03956*
Y02782*
Y02854*
X04005*
X04013Y02856*
X04019Y0286*
X04029Y0287*
X04053*
X04056*
X04113*
Y02872*
X04118Y02875*
X04124Y02871*
X04128Y0287*
Y02893*
Y02916*
X04124Y02916*
X04118Y02912*
X04113Y02914*
Y02918*
Y02921*
Y02923*
Y0294*
X04085*
Y02945*
X0408*
Y02969*
X04058*
X04055*
X04051*
X0403*
Y02945*
X04025*
Y0294*
X03996*
Y02923*
Y02921*
Y02918*
Y02916*
Y02895*
X03956*
Y02956*
X03957Y02956*
X03964Y0296*
X04044Y0304*
X04048Y03047*
X0405Y03055*
Y03275*
X04048Y03282*
X04044Y03289*
X04023Y0331*
X04025Y03315*
X04601*
Y02555*
G37*
G36*
X03626Y0322D02*
X03634Y03209D01*
X03645Y03201*
X03657Y03196*
X03662Y03196*
X03683Y03174*
X03681Y0317*
X03606*
X03585Y03191*
Y03197*
X03594Y03201*
X03605Y03209*
X03613Y0322*
X03617Y0323*
X03622*
X03626Y0322*
G37*
G36*
X03826D02*
X03834Y03209D01*
X03845Y03201*
X03849Y03199*
Y03179*
X03851Y03171*
X03855Y03165*
X0387Y0315*
Y03128*
X03865Y03125*
X03805Y03185*
X038Y03189*
X03795Y0319*
X03771*
X0377Y03195*
X03782Y03196*
X03794Y03201*
X03805Y03209*
X03813Y0322*
X03817Y0323*
X03822*
X03826Y0322*
G37*
G36*
X04008Y03208D02*
X04009Y03208D01*
Y03063*
X03941Y02995*
X03804*
X03801Y02999*
X03802Y03*
X03804Y0301*
X03802Y03019*
X03801Y03021*
X03804Y03025*
X03808Y03024*
X03815Y03026*
X03821Y0303*
X03827Y03026*
X03833Y03024*
X0384Y03026*
X03846Y0303*
X03852Y03026*
X03859Y03024*
X03866Y03026*
X03872Y0303*
X03878Y03026*
X03885Y03024*
X03892Y03026*
X03897Y0303*
X03903Y03026*
X0391Y03024*
X03917Y03026*
X03923Y0303*
X03929Y03026*
X03936Y03024*
X03943Y03026*
X03949Y0303*
X03953Y03036*
X03954Y03043*
Y03092*
X03953Y03099*
X03951Y03101*
Y03105*
X03956Y03109*
X03959Y03114*
X0396Y0312*
Y03126*
X03969*
Y03157*
X0398Y03168*
X03984Y03173*
X03985Y03179*
Y03197*
X03994Y03201*
X04004Y03209*
X04008Y03208*
G37*
G36*
X03231Y02993D02*
Y02992D01*
Y02988*
Y02987*
Y02941*
X03244*
Y02929*
X03231*
Y02883*
Y02882*
Y02878*
Y02877*
Y02831*
X03244*
Y02749*
X03239Y02746*
X03233Y0275*
X03229Y02751*
Y02728*
X03219*
Y02751*
X03215Y0275*
X03207Y02745*
X03205Y02742*
X032Y02744*
Y02831*
X03213*
Y02878*
Y02882*
Y02929*
X032*
Y02941*
X03213*
Y02988*
Y02992*
Y03*
X03231*
Y02993*
G37*
G36*
X03306D02*
Y02992D01*
Y02988*
Y02987*
Y02941*
X03319*
Y02929*
X03306*
Y02883*
Y02882*
Y02878*
Y02877*
Y02831*
X03319*
Y02735*
X0332Y02729*
X03324Y02724*
X03338Y02709*
X03336Y02705*
X03296*
X03275Y02726*
Y02831*
X03288*
Y02877*
Y02878*
Y02882*
Y02883*
Y02929*
X03275*
Y02941*
X03288*
Y02987*
Y02988*
Y02992*
Y02993*
Y03*
X03306*
Y02993*
G37*
%LNmidi_stick-2*%
%LPC*%
G36*
X04552Y03247D02*
Y03229D01*
X0457*
X04569Y03233*
X04564Y03241*
X04556Y03246*
X04552Y03247*
G37*
G36*
X04542D02*
X04537Y03246D01*
X0453Y03241*
X04524Y03233*
X04523Y03229*
X04542*
Y03247*
G37*
G36*
X04469D02*
Y03229D01*
X04487*
X04486Y03233*
X04481Y03241*
X04473Y03246*
X04469Y03247*
G37*
G36*
X04459D02*
X04455Y03246D01*
X04447Y03241*
X04442Y03233*
X04441Y03229*
X04459*
Y03247*
G37*
G36*
X04386D02*
Y03229D01*
X04405*
X04404Y03233*
X04399Y03241*
X04391Y03246*
X04386Y03247*
G37*
G36*
X04376D02*
X04372Y03246D01*
X04364Y03241*
X04359Y03233*
X04358Y03229*
X04376*
Y03247*
G37*
G36*
X04304D02*
Y03229D01*
X04322*
X04321Y03233*
X04316Y03241*
X04308Y03246*
X04304Y03247*
G37*
G36*
X04294D02*
X04289Y03246D01*
X04282Y03241*
X04276Y03233*
X04275Y03229*
X04294*
Y03247*
G37*
G36*
X04221D02*
Y03229D01*
X04239*
X04238Y03233*
X04233Y03241*
X04225Y03246*
X04221Y03247*
G37*
G36*
X04211D02*
X04207Y03246D01*
X04199Y03241*
X04194Y03233*
X04193Y03229*
X04211*
Y03247*
G37*
G36*
X04138D02*
Y03229D01*
X04157*
X04156Y03233*
X04151Y03241*
X04143Y03246*
X04138Y03247*
G37*
G36*
X04128D02*
X04124Y03246D01*
X04116Y03241*
X04111Y03233*
X0411Y03229*
X04128*
Y03247*
G37*
G36*
X03477D02*
Y03229D01*
X03495*
X03494Y03233*
X03489Y03241*
X03481Y03246*
X03477Y03247*
G37*
G36*
X03467D02*
X03463Y03246D01*
X03455Y03241*
X0345Y03233*
X03449Y03229*
X03467*
Y03247*
G37*
G36*
X03064D02*
Y03229D01*
X03082*
X03081Y03233*
X03076Y03241*
X03068Y03246*
X03064Y03247*
G37*
G36*
X03054D02*
X03049Y03246D01*
X03041Y03241*
X03036Y03233*
X03035Y03229*
X03054*
Y03247*
G37*
G36*
X03174Y03259D02*
X0314D01*
Y03225*
X03174*
Y03259*
G37*
G36*
X0313D02*
X03095D01*
Y03225*
X0313*
Y03259*
G37*
G36*
X0457Y03219D02*
X04552D01*
Y03201*
X04556Y03202*
X04564Y03207*
X04569Y03215*
X0457Y03219*
G37*
G36*
X04542D02*
X04523D01*
X04524Y03215*
X0453Y03207*
X04537Y03202*
X04542Y03201*
Y03219*
G37*
G36*
X04487D02*
X04469D01*
Y03201*
X04473Y03202*
X04481Y03207*
X04486Y03215*
X04487Y03219*
G37*
G36*
X04459D02*
X04441D01*
X04442Y03215*
X04447Y03207*
X04455Y03202*
X04459Y03201*
Y03219*
G37*
G36*
X04405D02*
X04386D01*
Y03201*
X04391Y03202*
X04399Y03207*
X04404Y03215*
X04405Y03219*
G37*
G36*
X04376D02*
X04358D01*
X04359Y03215*
X04364Y03207*
X04372Y03202*
X04376Y03201*
Y03219*
G37*
G36*
X04322D02*
X04304D01*
Y03201*
X04308Y03202*
X04316Y03207*
X04321Y03215*
X04322Y03219*
G37*
G36*
X04294D02*
X04275D01*
X04276Y03215*
X04282Y03207*
X04289Y03202*
X04294Y03201*
Y03219*
G37*
G36*
X04239D02*
X04221D01*
Y03201*
X04225Y03202*
X04233Y03207*
X04238Y03215*
X04239Y03219*
G37*
G36*
X04211D02*
X04193D01*
X04194Y03215*
X04199Y03207*
X04207Y03202*
X04211Y03201*
Y03219*
G37*
G36*
X04157D02*
X04138D01*
Y03201*
X04143Y03202*
X04151Y03207*
X04156Y03215*
X04157Y03219*
G37*
G36*
X04128D02*
X0411D01*
X04111Y03215*
X04116Y03207*
X04124Y03202*
X04128Y03201*
Y03219*
G37*
G36*
X03495D02*
X03477D01*
Y03201*
X03481Y03202*
X03489Y03207*
X03494Y03215*
X03495Y03219*
G37*
G36*
X03467D02*
X03449D01*
X0345Y03215*
X03455Y03207*
X03463Y03202*
X03467Y03201*
Y03219*
G37*
G36*
X03082D02*
X03064D01*
Y03201*
X03068Y03202*
X03076Y03207*
X03081Y03215*
X03082Y03219*
G37*
G36*
X03054D02*
X03035D01*
X03036Y03215*
X03041Y03207*
X03049Y03202*
X03054Y03201*
Y03219*
G37*
G36*
X03174Y03215D02*
X0314D01*
Y0318*
X03174*
Y03215*
G37*
G36*
X0313D02*
X03095D01*
Y0318*
X0313*
Y03215*
G37*
G36*
X02978Y03215D02*
X02944D01*
Y0317*
X03027*
X03026Y03178*
X03021Y0319*
X03013Y032*
X03003Y03208*
X02991Y03213*
X02978Y03215*
G37*
G36*
X02934D02*
X02899D01*
X02886Y03213*
X02874Y03208*
X02864Y032*
X02856Y0319*
X02851Y03178*
X0285Y0317*
X02934*
Y03215*
G37*
G36*
X0451Y03164D02*
Y03146D01*
X04529*
X04528Y03151*
X04523Y03158*
X04515Y03164*
X0451Y03164*
G37*
G36*
X045D02*
X04496Y03164D01*
X04488Y03158*
X04483Y03151*
X04482Y03146*
X045*
Y03164*
G37*
G36*
X04428D02*
Y03146D01*
X04446*
X04445Y03151*
X0444Y03158*
X04432Y03164*
X04428Y03164*
G37*
G36*
X04418D02*
X04413Y03164D01*
X04406Y03158*
X044Y03151*
X04399Y03146*
X04418*
Y03164*
G37*
G36*
X04345D02*
Y03146D01*
X04363*
X04362Y03151*
X04357Y03158*
X04349Y03164*
X04345Y03164*
G37*
G36*
X04335D02*
X04331Y03164D01*
X04323Y03158*
X04318Y03151*
X04317Y03146*
X04335*
Y03164*
G37*
G36*
X04262D02*
Y03146D01*
X04281*
X0428Y03151*
X04275Y03158*
X04267Y03164*
X04262Y03164*
G37*
G36*
X04252D02*
X04248Y03164D01*
X0424Y03158*
X04235Y03151*
X04234Y03146*
X04252*
Y03164*
G37*
G36*
X0418D02*
Y03146D01*
X04198*
X04197Y03151*
X04192Y03158*
X04184Y03164*
X0418Y03164*
G37*
G36*
X0417D02*
X04165Y03164D01*
X04158Y03158*
X04152Y03151*
X04151Y03146*
X0417*
Y03164*
G37*
G36*
X04097D02*
Y03146D01*
X04115*
X04114Y03151*
X04109Y03158*
X04101Y03164*
X04097Y03164*
G37*
G36*
X04087D02*
X04083Y03164D01*
X04075Y03158*
X0407Y03151*
X04069Y03146*
X04087*
Y03164*
G37*
G36*
X0327D02*
Y03146D01*
X03289*
X03288Y03151*
X03282Y03158*
X03275Y03164*
X0327Y03164*
G37*
G36*
X0326D02*
X03256Y03164D01*
X03248Y03158*
X03243Y03151*
X03242Y03146*
X0326*
Y03164*
G37*
G36*
X03188D02*
Y03146D01*
X03206*
X03205Y03151*
X032Y03158*
X03192Y03164*
X03188Y03164*
G37*
G36*
X03178D02*
X03173Y03164D01*
X03165Y03158*
X0316Y03151*
X03159Y03146*
X03178*
Y03164*
G37*
G36*
X03105D02*
Y03146D01*
X03123*
X03122Y03151*
X03117Y03158*
X03109Y03164*
X03105Y03164*
G37*
G36*
X03095D02*
X03091Y03164D01*
X03083Y03158*
X03078Y03151*
X03077Y03146*
X03095*
Y03164*
G37*
G36*
X04446Y03136D02*
X04399D01*
X044Y03132*
X04402Y0313*
X04402Y03128*
X04399Y03125*
X0439Y03126*
X04379Y03125*
X04369Y03121*
X0436Y03114*
X04353Y03105*
X04349Y03095*
X04348Y03085*
X04349Y03074*
X04353Y03064*
X0436Y03055*
X04369Y03048*
X04379Y03044*
X0439Y03043*
X044Y03044*
X0441Y03048*
X04419Y03055*
X04426Y03064*
X0443Y03074*
X04431Y03085*
X0443Y03095*
X04426Y03105*
X0442Y03112*
X04422Y03115*
X04423Y03117*
X04432Y03119*
X0444Y03124*
X04445Y03132*
X04446Y03136*
G37*
G36*
X04363D02*
X04345D01*
Y03118*
X04349Y03119*
X04357Y03124*
X04362Y03132*
X04363Y03136*
G37*
G36*
X04335D02*
X04317D01*
X04318Y03132*
X04323Y03124*
X04331Y03119*
X04335Y03118*
Y03136*
G37*
G36*
X04281D02*
X04262D01*
Y03118*
X04267Y03119*
X04275Y03124*
X0428Y03132*
X04281Y03136*
G37*
G36*
X04252D02*
X04234D01*
X04235Y03132*
X0424Y03124*
X04248Y03119*
X04252Y03118*
Y03136*
G37*
G36*
X04198D02*
X0418D01*
Y03118*
X04184Y03119*
X04192Y03124*
X04197Y03132*
X04198Y03136*
G37*
G36*
X0417D02*
X04151D01*
X04152Y03132*
X04158Y03124*
X04165Y03119*
X0417Y03118*
Y03136*
G37*
G36*
X04115D02*
X04097D01*
Y03118*
X04101Y03119*
X04109Y03124*
X04114Y03132*
X04115Y03136*
G37*
G36*
X04087D02*
X04069D01*
X0407Y03132*
X04075Y03124*
X04083Y03119*
X04087Y03118*
Y03136*
G37*
G36*
X03289D02*
X0327D01*
Y03118*
X03275Y03119*
X03282Y03124*
X03288Y03132*
X03289Y03136*
G37*
G36*
X0326D02*
X03242D01*
X03243Y03132*
X03248Y03124*
X03256Y03119*
X0326Y03118*
Y03136*
G37*
G36*
X03206D02*
X03188D01*
Y03118*
X03192Y03119*
X032Y03124*
X03205Y03132*
X03206Y03136*
G37*
G36*
X03178D02*
X03159D01*
X0316Y03132*
X03165Y03124*
X03173Y03119*
X03178Y03118*
Y03136*
G37*
G36*
X03123D02*
X03105D01*
Y03118*
X03109Y03119*
X03117Y03124*
X03122Y03132*
X03123Y03136*
G37*
G36*
X03095D02*
X03077D01*
X03078Y03132*
X03083Y03124*
X03091Y03119*
X03095Y03118*
Y03136*
G37*
G36*
X03027Y0316D02*
X02944D01*
Y03115*
X02978*
X02991Y03117*
X03003Y03122*
X03013Y0313*
X03021Y0314*
X03026Y03152*
X03027Y0316*
G37*
G36*
X02934D02*
X0285D01*
X02851Y03152*
X02856Y0314*
X02864Y0313*
X02874Y03122*
X02886Y03117*
X02899Y03115*
X02934*
Y0316*
G37*
G36*
X03374Y03102D02*
X0336D01*
Y03085*
X03374*
Y03102*
G37*
G36*
X0335D02*
X03335D01*
Y03085*
X0335*
Y03102*
G37*
G36*
X03026Y03117D02*
Y03077D01*
X0307*
X0307Y03084*
X03065Y03095*
X03058Y03104*
X03049Y03111*
X03038Y03116*
X03026Y03117*
G37*
G36*
X03016D02*
X03005Y03116D01*
X02994Y03111*
X02985Y03104*
X02978Y03095*
X02973Y03084*
X02972Y03077*
X03016*
Y03117*
G37*
G36*
X04552Y03082D02*
Y03064D01*
X0457*
X04569Y03068*
X04564Y03076*
X04556Y03081*
X04552Y03082*
G37*
G36*
X04304D02*
Y03064D01*
X04322*
X04321Y03068*
X04316Y03076*
X04308Y03081*
X04304Y03082*
G37*
G36*
X04294D02*
X04289Y03081D01*
X04282Y03076*
X04276Y03068*
X04275Y03064*
X04294*
Y03082*
G37*
G36*
X04221D02*
Y03064D01*
X04239*
X04238Y03068*
X04233Y03076*
X04225Y03081*
X04221Y03082*
G37*
G36*
X04211D02*
X04207Y03081D01*
X04199Y03076*
X04194Y03068*
X04193Y03064*
X04211*
Y03082*
G37*
G36*
X04138D02*
Y03064D01*
X04157*
X04156Y03068*
X04151Y03076*
X04143Y03081*
X04138Y03082*
G37*
G36*
X04128D02*
X04124Y03081D01*
X04116Y03076*
X04111Y03068*
X0411Y03064*
X04128*
Y03082*
G37*
G36*
X03229D02*
Y03064D01*
X03247*
X03246Y03068*
X03241Y03076*
X03233Y03081*
X03229Y03082*
G37*
G36*
X03219D02*
X03215Y03081D01*
X03207Y03076*
X03202Y03068*
X03201Y03064*
X03219*
Y03082*
G37*
G36*
X03146D02*
Y03064D01*
X03164*
X03164Y03068*
X03158Y03076*
X03151Y03081*
X03146Y03082*
G37*
G36*
X03136D02*
X03132Y03081D01*
X03124Y03076*
X03119Y03068*
X03118Y03064*
X03136*
Y03082*
G37*
G36*
X02888D02*
X02884Y03081D01*
X02876Y03076*
X02871Y03068*
X0287Y03064*
X02888*
Y03082*
G37*
G36*
X03374Y03075D02*
X0336D01*
Y03058*
X03374*
Y03075*
G37*
G36*
X0335D02*
X03335D01*
Y03058*
X0335*
Y03075*
G37*
G36*
X0457Y03054D02*
X04552D01*
Y03035*
X04556Y03036*
X04564Y03041*
X04569Y03049*
X0457Y03054*
G37*
G36*
X04529Y03136D02*
X04482D01*
X04483Y03132*
X04484Y0313*
X04482Y03125*
X04479Y03125*
X04469Y03121*
X0446Y03114*
X04453Y03105*
X04449Y03095*
X04448Y03085*
X04449Y03074*
X04453Y03064*
X0446Y03055*
X04469Y03048*
X04479Y03044*
X0449Y03043*
X045Y03044*
X0451Y03048*
X04518Y03054*
X04522Y03054*
X04524Y03053*
X04524Y03049*
X0453Y03041*
X04537Y03036*
X04542Y03035*
Y03059*
Y03082*
X04537Y03081*
X04535Y0308*
X04531Y03082*
X04531Y03085*
X0453Y03095*
X04526Y03105*
X04519Y03114*
X04518Y03115*
X04518Y03121*
X04523Y03124*
X04528Y03132*
X04529Y03136*
G37*
G36*
X04322Y03054D02*
X04304D01*
Y03035*
X04308Y03036*
X04316Y03041*
X04321Y03049*
X04322Y03054*
G37*
G36*
X04294D02*
X04275D01*
X04276Y03049*
X04282Y03041*
X04289Y03036*
X04294Y03035*
Y03054*
G37*
G36*
X04239D02*
X04221D01*
Y03035*
X04225Y03036*
X04233Y03041*
X04238Y03049*
X04239Y03054*
G37*
G36*
X04211D02*
X04193D01*
X04194Y03049*
X04199Y03041*
X04207Y03036*
X04211Y03035*
Y03054*
G37*
G36*
X04157D02*
X04138D01*
Y03035*
X04143Y03036*
X04151Y03041*
X04156Y03049*
X04157Y03054*
G37*
G36*
X04128D02*
X0411D01*
X04111Y03049*
X04116Y03041*
X04124Y03036*
X04128Y03035*
Y03054*
G37*
G36*
X03136D02*
X03118D01*
X03119Y03049*
X03124Y03041*
X03132Y03036*
X03136Y03035*
Y03054*
G37*
G36*
X02888D02*
X0287D01*
X02871Y03049*
X02876Y03041*
X02884Y03036*
X02888Y03035*
Y03054*
G37*
G36*
X0307Y03067D02*
X03026D01*
Y03027*
X03038Y03029*
X03049Y03033*
X03058Y03041*
X03065Y0305*
X0307Y03061*
X0307Y03067*
G37*
G36*
X03016D02*
X02972D01*
X02973Y03061*
X02978Y0305*
X02985Y03041*
X02994Y03033*
X03005Y03029*
X03016Y03027*
Y03067*
G37*
G36*
X0439Y03019D02*
X0438Y03018D01*
X04372Y03015*
X04365Y03009*
X04359Y03002*
X04357Y02998*
X04353Y02996*
X04349Y02998*
X04345Y02999*
Y02976*
Y02953*
X04349Y02953*
X04357Y02959*
X04359Y02961*
X04364Y02961*
X04365Y0296*
X04372Y02954*
X0438Y02951*
X0439Y0295*
X04399Y02951*
X04407Y02954*
X04414Y0296*
X0442Y02967*
X04423Y02975*
X04424Y02985*
X04423Y02994*
X0442Y03002*
X04414Y03009*
X04407Y03015*
X04399Y03018*
X0439Y03019*
G37*
G36*
X04335Y02999D02*
X04331Y02998D01*
X04323Y02993*
X04318Y02985*
X04317Y02981*
X04335*
Y02999*
G37*
G36*
X04262D02*
Y02981D01*
X04281*
X0428Y02985*
X04275Y02993*
X04267Y02998*
X04262Y02999*
G37*
G36*
X04252D02*
X04248Y02998D01*
X0424Y02993*
X04235Y02985*
X04234Y02981*
X04252*
Y02999*
G37*
G36*
X0418D02*
Y02981D01*
X04198*
X04197Y02985*
X04192Y02993*
X04184Y02998*
X0418Y02999*
G37*
G36*
X0417D02*
X04165Y02998D01*
X04158Y02993*
X04152Y02985*
X04151Y02981*
X0417*
Y02999*
G37*
G36*
X02898Y03082D02*
Y03059D01*
Y03035*
X02901Y03036*
X02903Y03035*
X02904Y03034*
X02906Y03032*
X02905Y03025*
X02906Y03016*
X02909Y03008*
X02915Y03001*
X02918Y02998*
X02918Y02993*
X02917Y02993*
X02912Y02985*
X02911Y02981*
X02958*
X02957Y02985*
X02954Y0299*
X02956Y02996*
X02963Y03001*
X02968Y03008*
X02971Y03016*
X02973Y03025*
X02971Y03034*
X02968Y03042*
X02963Y03049*
X02956Y03054*
X02947Y03058*
X02939Y03059*
X0293Y03058*
X02922Y03054*
X02921Y03054*
X02917Y03057*
X02917Y03059*
X02916Y03068*
X0291Y03076*
X02902Y03081*
X02898Y03082*
G37*
G36*
X02857Y02999D02*
Y02981D01*
X02875*
X02874Y02985*
X02869Y02993*
X02861Y02998*
X02857Y02999*
G37*
G36*
X03448Y03003D02*
X0343D01*
Y0298*
X03448*
Y03003*
G37*
G36*
X04335Y02971D02*
X04317D01*
X04318Y02967*
X04323Y02959*
X04331Y02953*
X04335Y02953*
Y02971*
G37*
G36*
X04281D02*
X04262D01*
Y02953*
X04267Y02953*
X04275Y02959*
X0428Y02967*
X04281Y02971*
G37*
G36*
X04252D02*
X04234D01*
X04235Y02967*
X0424Y02959*
X04248Y02953*
X04252Y02953*
Y02971*
G37*
G36*
X04198D02*
X0418D01*
Y02953*
X04184Y02953*
X04192Y02959*
X04197Y02967*
X04198Y02971*
G37*
G36*
X0417D02*
X04151D01*
X04152Y02967*
X04158Y02959*
X04165Y02953*
X0417Y02953*
Y02971*
G37*
G36*
X02958D02*
X0294D01*
Y02953*
X02944Y02953*
X02952Y02959*
X02957Y02967*
X02958Y02971*
G37*
G36*
X0293D02*
X02911D01*
X02912Y02967*
X02917Y02959*
X02925Y02953*
X0293Y02953*
Y02971*
G37*
G36*
X02875D02*
X02857D01*
Y02953*
X02861Y02953*
X02869Y02959*
X02874Y02967*
X02875Y02971*
G37*
G36*
X0409Y02969D02*
Y0295D01*
X04113*
Y02969*
X0409*
G37*
G36*
X0402D02*
X03996D01*
Y0295*
X0402*
Y02969*
G37*
G36*
X0449Y03019D02*
X0448Y03018D01*
X04472Y03015*
X04465Y03009*
X04459Y03002*
X04456Y02994*
X04455Y02985*
X04456Y02975*
X04459Y02967*
X04465Y0296*
X04472Y02954*
X0448Y02951*
X0449Y0295*
X04499Y02951*
X04507Y02954*
X04514Y0296*
X0452Y02967*
X04523Y02975*
X04524Y02985*
X04523Y02994*
X0452Y03002*
X04514Y03009*
X04507Y03015*
X04499Y03018*
X0449Y03019*
G37*
G36*
X03448Y0297D02*
X0343D01*
Y02946*
X03448*
Y0297*
G37*
G36*
X04138Y02916D02*
Y02898D01*
X04157*
X04156Y02902*
X04151Y0291*
X04143Y02916*
X04138Y02916*
G37*
G36*
X02898D02*
Y02898D01*
X02916*
X02916Y02902*
X0291Y0291*
X02902Y02916*
X02898Y02916*
G37*
G36*
X02888D02*
X02884Y02916D01*
X02876Y0291*
X02871Y02902*
X0287Y02898*
X02888*
Y02916*
G37*
G36*
X04157Y02888D02*
X04138D01*
Y0287*
X04143Y02871*
X04151Y02876*
X04156Y02884*
X04157Y02888*
G37*
G36*
X02916D02*
X02898D01*
Y0287*
X02902Y02871*
X0291Y02876*
X02916Y02884*
X02916Y02888*
G37*
G36*
X02888D02*
X0287D01*
X02871Y02884*
X02876Y02876*
X02884Y02871*
X02888Y0287*
Y02888*
G37*
G36*
X0449Y02919D02*
X0448Y02918D01*
X04472Y02915*
X04465Y02909*
X04459Y02902*
X04456Y02894*
X04455Y02885*
X04456Y02875*
X04459Y02867*
X04465Y0286*
X04472Y02854*
X0448Y02851*
X0449Y0285*
X04499Y02851*
X04507Y02854*
X04514Y0286*
X0452Y02867*
X04523Y02875*
X04524Y02885*
X04523Y02894*
X0452Y02902*
X04514Y02909*
X04507Y02915*
X04499Y02918*
X0449Y02919*
G37*
G36*
X0439D02*
X0438Y02918D01*
X04372Y02915*
X04365Y02909*
X04359Y02902*
X04356Y02894*
X04355Y02885*
X04356Y02875*
X04359Y02867*
X04365Y0286*
X04372Y02854*
X0438Y02851*
X0439Y0285*
X04399Y02851*
X04407Y02854*
X04414Y0286*
X0442Y02867*
X04423Y02875*
X04424Y02885*
X04423Y02894*
X0442Y02902*
X04414Y02909*
X04407Y02915*
X04399Y02918*
X0439Y02919*
G37*
G36*
X04335Y02834D02*
X04331Y02833D01*
X04323Y02828*
X04318Y0282*
X04317Y02816*
X04335*
Y02834*
G37*
G36*
X0418D02*
Y02816D01*
X04198*
X04197Y0282*
X04192Y02828*
X04184Y02833*
X0418Y02834*
G37*
G36*
X0417D02*
X04165Y02833D01*
X04158Y02828*
X04152Y0282*
X04151Y02816*
X0417*
Y02834*
G37*
G36*
X04097D02*
Y02816D01*
X04115*
X04114Y0282*
X04109Y02828*
X04101Y02833*
X04097Y02834*
G37*
G36*
X04087D02*
X04083Y02833D01*
X04075Y02828*
X0407Y0282*
X04069Y02816*
X04087*
Y02834*
G37*
G36*
X04014D02*
Y02816D01*
X04033*
X04032Y0282*
X04026Y02828*
X04019Y02833*
X04014Y02834*
G37*
G36*
X04004D02*
X04Y02833D01*
X03992Y02828*
X03987Y0282*
X03986Y02816*
X04004*
Y02834*
G37*
G36*
X03518D02*
Y02816D01*
X03537*
X03536Y0282*
X0353Y02828*
X03523Y02833*
X03518Y02834*
G37*
G36*
X03508D02*
X03504Y02833D01*
X03496Y02828*
X03491Y0282*
X0349Y02816*
X03508*
Y02834*
G37*
G36*
X02857D02*
Y02816D01*
X02875*
X02874Y0282*
X02869Y02828*
X02861Y02833*
X02857Y02834*
G37*
G36*
X02939Y02878D02*
X0293Y02877D01*
X02922Y02873*
X02915Y02868*
X02909Y02861*
X02906Y02853*
X02905Y02844*
X02906Y02835*
X02909Y02827*
X02915Y0282*
X02922Y02815*
X0293Y02811*
X02939Y0281*
X02947Y02811*
X02956Y02815*
X02963Y0282*
X02968Y02827*
X02971Y02835*
X02973Y02844*
X02971Y02853*
X02968Y02861*
X02963Y02868*
X02956Y02873*
X02947Y02877*
X02939Y02878*
G37*
G36*
X04335Y02806D02*
X04317D01*
X04318Y02801*
X04323Y02793*
X04331Y02788*
X04335Y02787*
Y02806*
G37*
G36*
X04198D02*
X0418D01*
Y02787*
X04184Y02788*
X04192Y02793*
X04197Y02801*
X04198Y02806*
G37*
G36*
X0417D02*
X04151D01*
X04152Y02801*
X04158Y02793*
X04165Y02788*
X0417Y02787*
Y02806*
G37*
G36*
X04115D02*
X04097D01*
Y02787*
X04101Y02788*
X04109Y02793*
X04114Y02801*
X04115Y02806*
G37*
G36*
X04087D02*
X04069D01*
X0407Y02801*
X04075Y02793*
X04083Y02788*
X04087Y02787*
Y02806*
G37*
G36*
X04033D02*
X04014D01*
Y02787*
X04019Y02788*
X04026Y02793*
X04032Y02801*
X04033Y02806*
G37*
G36*
X04004D02*
X03986D01*
X03987Y02801*
X03992Y02793*
X04Y02788*
X04004Y02787*
Y02806*
G37*
G36*
X02875D02*
X02857D01*
Y02787*
X02861Y02788*
X02869Y02793*
X02874Y02801*
X02875Y02806*
G37*
G36*
X03469Y02788D02*
X0345D01*
Y02765*
X03469*
Y02788*
G37*
G36*
X03026Y02842D02*
X03016D01*
X03005Y0284*
X02994Y02836*
X02985Y02828*
X02978Y02819*
X02973Y02808*
X02972Y02797*
X02973Y02785*
X02978Y02774*
X02985Y02765*
X02994Y02758*
X03005Y02753*
X03016Y02752*
X03026*
X03038Y02753*
X03049Y02758*
X03058Y02765*
X03065Y02774*
X0307Y02785*
X03071Y02797*
X0307Y02808*
X03065Y02819*
X03058Y02828*
X03049Y02836*
X03038Y0284*
X03026Y02842*
G37*
G36*
X0449Y02826D02*
X04479Y02825D01*
X04469Y02821*
X0446Y02814*
X04453Y02805*
X04449Y02795*
X04448Y02785*
X04449Y02774*
X04453Y02764*
X04459Y02756*
X04458Y02751*
X04455Y0275*
X04447Y02745*
X04442Y02737*
X04441Y02733*
X04487*
X04486Y02737*
X04486Y02739*
X04488Y02743*
X0449Y02743*
X045Y02744*
X0451Y02748*
X04519Y02755*
X04526Y02764*
X0453Y02774*
X04531Y02785*
X0453Y02795*
X04526Y02805*
X04519Y02814*
X0451Y02821*
X045Y02825*
X0449Y02826*
G37*
G36*
X04345Y02834D02*
Y02811D01*
Y02785*
X04348Y02783*
X04349Y02774*
X04353Y02764*
X0436Y02755*
X04365Y02751*
X04364Y02745*
X04364Y02745*
X04359Y02737*
X04358Y02733*
X04405*
X04404Y02737*
X04402Y02739*
X04404Y02746*
X0441Y02748*
X04419Y02755*
X04426Y02764*
X0443Y02774*
X04431Y02785*
X0443Y02795*
X04426Y02805*
X04419Y02814*
X0441Y02821*
X044Y02825*
X0439Y02826*
X04379Y02825*
X04369Y02821*
X04367Y0282*
X04361Y02821*
X04357Y02828*
X04349Y02833*
X04345Y02834*
G37*
G36*
X04056Y02751D02*
Y02733D01*
X04074*
X04073Y02737*
X04068Y02745*
X0406Y0275*
X04056Y02751*
G37*
G36*
X04046D02*
X04041Y0275D01*
X04034Y02745*
X04028Y02737*
X04027Y02733*
X04046*
Y02751*
G37*
G36*
X03054D02*
X03049Y0275D01*
X03041Y02745*
X03036Y02737*
X03035Y02733*
X03054*
Y02751*
G37*
G36*
X02978Y02754D02*
X02944D01*
Y02709*
X03027*
X03026Y02717*
X03021Y02729*
X03013Y02739*
X03003Y02747*
X02991Y02752*
X02978Y02754*
G37*
G36*
X02934D02*
X02899D01*
X02886Y02752*
X02874Y02747*
X02864Y02739*
X02856Y02729*
X02851Y02717*
X0285Y02709*
X02934*
Y02754*
G37*
G36*
X04487Y02723D02*
X04469D01*
Y02705*
X04473Y02705*
X04481Y02711*
X04486Y02719*
X04487Y02723*
G37*
G36*
X04459D02*
X04441D01*
X04442Y02719*
X04447Y02711*
X04455Y02705*
X04459Y02705*
Y02723*
G37*
G36*
X04405D02*
X04386D01*
Y02705*
X04391Y02705*
X04399Y02711*
X04404Y02719*
X04405Y02723*
G37*
G36*
X04376D02*
X04358D01*
X04359Y02719*
X04364Y02711*
X04372Y02705*
X04376Y02705*
Y02723*
G37*
G36*
X04074D02*
X04056D01*
Y02705*
X0406Y02705*
X04068Y02711*
X04073Y02719*
X04074Y02723*
G37*
G36*
X04046D02*
X04027D01*
X04028Y02719*
X04034Y02711*
X04041Y02705*
X04046Y02705*
Y02723*
G37*
G36*
X03054D02*
X03035D01*
X03036Y02719*
X03041Y02711*
X03049Y02705*
X03054Y02705*
Y02723*
G37*
G36*
X02934Y02699D02*
X0285D01*
X02851Y02691*
X02856Y02679*
X02861Y02673*
X02858Y02668*
X02857Y02668*
Y0265*
X02875*
X02874Y02654*
X02873Y02656*
X02876Y0266*
X02886Y02656*
X02899Y02654*
X02934*
Y02699*
G37*
G36*
X0451Y02668D02*
Y0265D01*
X04529*
X04528Y02654*
X04523Y02662*
X04515Y02668*
X0451Y02668*
G37*
G36*
X045D02*
X04496Y02668D01*
X04488Y02662*
X04483Y02654*
X04482Y0265*
X045*
Y02668*
G37*
G36*
X03027Y02699D02*
X02944D01*
Y02654*
X02978*
X0299Y02656*
X02992Y02654*
X02994Y02652*
X02994Y0265*
X0304*
X0304Y02654*
X03034Y02662*
X03027Y02668*
X0302Y02669*
X03017Y02674*
Y02674*
X03021Y02679*
X03026Y02691*
X03027Y02699*
G37*
G36*
X03965Y02644D02*
X03941D01*
Y02625*
X03965*
Y02644*
G37*
G36*
X03931D02*
X03907D01*
Y02625*
X03931*
Y02644*
G37*
G36*
X04529Y0264D02*
X0451D01*
Y02622*
X04515Y02623*
X04523Y02628*
X04528Y02636*
X04529Y0264*
G37*
G36*
X045D02*
X04482D01*
X04483Y02636*
X04488Y02628*
X04496Y02623*
X045Y02622*
Y0264*
G37*
G36*
X0304D02*
X03022D01*
Y02622*
X03027Y02623*
X03034Y02628*
X0304Y02636*
X0304Y0264*
G37*
G36*
X03012D02*
X02994D01*
X02995Y02636*
X03Y02628*
X03008Y02623*
X03012Y02622*
Y0264*
G37*
G36*
X02875D02*
X02857D01*
Y02622*
X02861Y02623*
X02869Y02628*
X02874Y02636*
X02875Y0264*
G37*
%LNmidi_stick-3*%
%LPD*%
G54D15*
X04085Y02982D02*
X04094Y02992D01*
X04085Y02945D02*
Y02982D01*
X04015Y02992D02*
X04025Y02982D01*
Y02945D02*
Y02982D01*
Y02945D02*
X04085D01*
X0357Y02758D02*
X03603D01*
X0359Y03067D02*
X03603D01*
X03522Y03135D02*
X0359Y03067D01*
X03415Y03135D02*
X03522D01*
X03603Y02758D02*
Y02782D01*
X03568Y0276D02*
X0357Y02758D01*
X03525Y0276D02*
X03568D01*
X03145Y02802D02*
Y03004D01*
Y02802D02*
X0315Y02797D01*
X03145Y03004D02*
X03156Y03016D01*
X03185*
X0386Y02693D02*
X03885Y02718D01*
Y02782*
X03745Y0301D02*
X0378D01*
X03731Y03023D02*
X03745Y0301D01*
X03672D02*
X037D01*
X03706Y03016*
X03731Y03023D02*
Y03067D01*
X03706Y03016D02*
Y03067D01*
X03358Y03135D02*
X03415D01*
X03355Y03139D02*
X03358Y03135D01*
X0341Y0314D02*
X03415Y03135D01*
X0341Y0314D02*
Y03205D01*
X0325D02*
X03359D01*
X03235Y0322D02*
X0325Y03205D01*
X03936Y03067D02*
Y03111D01*
X03945Y0312*
Y03155*
X0397Y03179*
Y03245*
X03795Y03175D02*
X03859Y0311D01*
X03705Y03175D02*
X03795D01*
X0367Y0321D02*
X03705Y03175D01*
X03859Y03067D02*
Y0311D01*
X0367Y0321D02*
Y03245D01*
X0357Y03185D02*
Y03245D01*
Y03185D02*
X036Y03155D01*
X03785*
X03833Y03106*
Y03067D02*
Y03106D01*
X03935Y0265D02*
X03936Y02649D01*
X0391Y0265D02*
X03935D01*
X03905Y02655D02*
X0391Y0265D01*
X03905Y02655D02*
Y0273D01*
X0391Y02735*
Y02782*
X03731Y027D02*
Y02782D01*
X03731Y0265D02*
X03731Y02649D01*
X03706Y0265D02*
X03731D01*
X037Y02656D02*
X03706Y0265D01*
X037Y02656D02*
Y0273D01*
X03706Y02736*
Y02782*
X0364Y02665D02*
X0368Y02705D01*
X03205Y02665D02*
X0364D01*
X03185Y02685D02*
X03205Y02665D01*
X0368Y02705D02*
Y02782D01*
X03782Y02737D02*
Y02782D01*
Y02737D02*
X0379Y0273D01*
Y0261D02*
Y0273D01*
X03775Y02595D02*
X0379Y0261D01*
X03145Y02595D02*
X03775D01*
X031Y0264D02*
X03145Y02595D01*
X031Y0264D02*
Y02875D01*
X03079Y02895D02*
X031Y02875D01*
X03021Y02895D02*
X03079D01*
X03021Y02974D02*
X0309D01*
X0312Y02944*
Y0265D02*
Y02944D01*
Y0265D02*
X03155Y02615D01*
X03765*
X0377Y0262*
Y02724*
X03757Y02737D02*
X0377Y02724D01*
X03757Y02737D02*
Y02782D01*
X0326Y03016D02*
X03335D01*
X03185D02*
X0326D01*
X03335Y02906D02*
Y02965D01*
X0326Y02906D02*
Y02965D01*
X03185Y02906D02*
Y02965D01*
Y02685D02*
Y02855D01*
X0326Y0272D02*
Y02855D01*
Y0272D02*
X0329Y0269D01*
X03629*
X03654Y02715*
Y02782*
X03335Y02735D02*
Y02855D01*
Y02735D02*
X03355Y02715D01*
X0362*
X03629Y02724*
Y02782*
G54D16*
X03525Y0276D03*
X03474D03*
X03945Y03155D03*
X03894D03*
X0341Y03205D03*
X03359D03*
X03505Y02975D03*
X03453D03*
G54D17*
X03936Y027D03*
Y02649D03*
X03731Y027D03*
Y02649D03*
X04085Y02894D03*
Y02945D03*
X04025Y02894D03*
Y02945D03*
X03415Y03084D03*
Y03135D03*
X03335Y03016D03*
Y02965D03*
X0326Y03016D03*
Y02965D03*
X03185Y03016D03*
Y02965D03*
Y02855D03*
Y02906D03*
X0326Y02855D03*
Y02906D03*
X03335Y02855D03*
Y02906D03*
G54D18*
X0357Y03245D03*
X0367D03*
X0377D03*
X0387D03*
X0397D03*
G54D19*
X03355Y03139D03*
Y0308D03*
G54D20*
X03603Y02782D03*
X03629D03*
X03654D03*
X0368D03*
X03706D03*
X03731D03*
X03757D03*
X03782D03*
X03808D03*
X03833D03*
X03859D03*
X03885D03*
X0391D03*
X03936D03*
X03603Y03067D03*
X03629D03*
X03654D03*
X0368D03*
X03706D03*
X03731D03*
X03757D03*
X03782D03*
X03808D03*
X03833D03*
X03859D03*
X03885D03*
X0391D03*
X03936D03*
G54D37*
X03558Y02975D02*
Y03045D01*
X03511Y02975D02*
X03558D01*
X0351Y02973D02*
X03511Y02975D01*
X0363D02*
X03935D01*
X03558D02*
X0363D01*
X03629Y02975D02*
X0363Y02975D01*
X03519Y03084D02*
X03558Y03045D01*
X03629Y02975D02*
Y03067D01*
X03415Y03084D02*
X03519D01*
X04005Y02875D02*
X04025Y02894D01*
X03936Y02875D02*
X04005D01*
X03935Y02975D02*
X03949D01*
X03936Y02875D02*
Y02973D01*
X03935Y02975D02*
X03936Y02973D01*
X03949Y02975D02*
X0403Y03055D01*
Y03275*
X04005Y033D02*
X0403Y03275D01*
X03925Y033D02*
X04005D01*
X0387Y03245D02*
X03925Y033D01*
X03808Y02782D02*
Y02857D01*
X03826Y02875*
X03936*
Y02782D02*
Y02875D01*
X04025Y02894D02*
X04085D01*
X0387Y03179D02*
X03894Y03155D01*
X0387Y03179D02*
Y03245D01*
X03936Y027D02*
Y02782D01*
G54D38*
X03021Y03072D03*
Y02797D03*
G54D39*
X03021Y02974D03*
Y02895D03*
G54D40*
X02939Y02704D03*
Y03165D03*
G54D41*
X0439Y03085D03*
Y02785D03*
X0449D03*
Y03085D03*
G54D42*
X0439Y02985D03*
Y02885D03*
X0449D03*
Y02985D03*
G54D43*
X03135Y0322D03*
G54D44*
X03235Y0322D03*
G54D45*
X04547Y03224D03*
Y03059D03*
X04464Y03224D03*
X04505Y03141D03*
X04464Y02728D03*
X04505Y02645D03*
X04381Y03224D03*
X04423Y03141D03*
X04381Y02728D03*
X04299Y03224D03*
X0434Y03141D03*
X04299Y03059D03*
X0434Y02976D03*
Y02811D03*
X04216Y03224D03*
X04257Y03141D03*
X04216Y03059D03*
X04257Y02976D03*
X04133Y03224D03*
X04175Y03141D03*
X04133Y03059D03*
X04175Y02976D03*
X04133Y02893D03*
X04175Y02811D03*
X04092Y03141D03*
Y02811D03*
X04051Y02728D03*
X04009Y02811D03*
X03472Y03224D03*
X03513Y02811D03*
X03265Y03141D03*
X03224Y03059D03*
Y02728D03*
X03183Y03141D03*
X03141Y03059D03*
X03059Y03224D03*
X031Y03141D03*
X03059Y02728D03*
X03017Y02645D03*
X02893Y03059D03*
X02935Y02976D03*
X02893Y02893D03*
X02852Y02976D03*
Y02811D03*
Y02645D03*
X03558Y03045D03*
X0357Y02758D03*
X0315Y02797D03*
X0386Y02693D03*
X0378Y0301D03*
X03672D03*
M02*