%FSTAX23Y23*%
%MOIN*%
%SFA1B1*%

%IPPOS*%
%ADD21R,0.255000X0.055000*%
%ADD22R,0.541650X0.055000*%
%ADD23R,0.035560X0.045400*%
%ADD24R,0.045400X0.035560*%
%ADD25C,0.086740*%
%ADD26R,0.027690X0.031620*%
%ADD27O,0.023750X0.072960*%
%ADD28O,0.086740X0.076900*%
%ADD29O,0.086740X0.067060*%
%ADD30C,0.008000*%
%ADD31O,0.165480X0.086740*%
%ADD32C,0.070990*%
%ADD33C,0.057210*%
%ADD34R,0.067060X0.067060*%
%ADD35C,0.067060*%
%ADD36C,0.035560*%
%LNmidi_stick-1*%
%LPD*%
G54D21*
X02957Y03287D03*
Y02582D03*
G54D22*
X04329Y02582D03*
X0433Y03287D03*
G54D23*
X03525Y0276D03*
X03474D03*
X03945Y03155D03*
X03894D03*
X0341Y03205D03*
X03359D03*
X03505Y02975D03*
X03453D03*
G54D24*
X03936Y027D03*
Y02649D03*
X03731Y027D03*
Y02649D03*
X04085Y02894D03*
Y02945D03*
X04025Y02894D03*
Y02945D03*
X03415Y03084D03*
Y03135D03*
X03335Y03016D03*
Y02965D03*
X0326Y03016D03*
Y02965D03*
X03185Y03016D03*
Y02965D03*
Y02855D03*
Y02906D03*
X0326Y02855D03*
Y02906D03*
X03335Y02855D03*
Y02906D03*
G54D25*
X0357Y03245D03*
X0367D03*
X0377D03*
X0387D03*
X0397D03*
G54D26*
X03355Y03139D03*
Y0308D03*
G54D27*
X03603Y02782D03*
X03629D03*
X03654D03*
X0368D03*
X03706D03*
X03731D03*
X03757D03*
X03782D03*
X03808D03*
X03833D03*
X03859D03*
X03885D03*
X0391D03*
X03936D03*
X03603Y03067D03*
X03629D03*
X03654D03*
X0368D03*
X03706D03*
X03731D03*
X03757D03*
X03782D03*
X03808D03*
X03833D03*
X03859D03*
X03885D03*
X0391D03*
X03936D03*
G54D28*
X03021Y03072D03*
Y02797D03*
G54D29*
X03021Y02974D03*
Y02895D03*
G54D30*
X02939Y02844D03*
Y03025D03*
G54D31*
X02939Y02704D03*
Y03165D03*
G54D32*
X0439Y03085D03*
Y02785D03*
X0449D03*
Y03085D03*
G54D33*
X0439Y02985D03*
Y02885D03*
X0449D03*
Y02985D03*
G54D34*
X03135Y0322D03*
G54D35*
X03235Y0322D03*
G54D36*
X0357Y02758D03*
X0315Y02797D03*
X0386Y02693D03*
X0378Y0301D03*
X03672D03*
M02*