%FSTAX23Y23*%
%MOIN*%
%SFA1B1*%

%IPPOS*%
%ADD9500C,0.015750*%
%ADD9501C,0.019680*%
%ADD9502C,0.023620*%
%ADD9503C,0.031500*%
%ADD9504C,0.035430*%
%ADD9505C,0.039370*%
%ADD9506C,0.047240*%
%LNmidi_stick-roundholes-1*%
%LPD*%
G54D9500*
X0315Y02797D03*
X0357Y02758D03*
X03558Y03045D03*
X03672Y0301D03*
X0378D03*
X0386Y02693D03*
G54D9501*
X03224Y02728D03*
Y03059D03*
X03141D03*
X03513Y02811D03*
X04009D03*
X04092D03*
X04175D03*
X04133Y02893D03*
X04175Y02976D03*
X04257D03*
X0434D03*
X04299Y03059D03*
X04216D03*
X04133D03*
X04547D03*
X04464Y02728D03*
X04381D03*
X0434Y02811D03*
X04505Y02645D03*
X04051Y02728D03*
X03059D03*
X03017Y02645D03*
X02852D03*
Y02811D03*
X02893Y02893D03*
X02935Y02976D03*
X02852D03*
X02893Y03059D03*
X031Y03141D03*
X03059Y03224D03*
X03183Y03141D03*
X03265D03*
X03472Y03224D03*
X04133D03*
X04216D03*
X04299D03*
X04381D03*
X04464D03*
X04547D03*
X04505Y03141D03*
X04423D03*
X0434D03*
X04257D03*
X04175D03*
X04092D03*
G54D9502*
X0439Y02885D03*
Y02985D03*
X0449D03*
Y02885D03*
G54D9503*
X0439Y02785D03*
X0449D03*
Y03085D03*
X0439D03*
G54D9504*
X03135Y0322D03*
X03235D03*
G54D9505*
X03021Y02797D03*
Y02895D03*
Y02974D03*
Y03072D03*
G54D9506*
X02939Y02844D03*
Y03025D03*
M02*