%FSTAX23Y23*%
%MOIN*%
%SFA1B1*%

%IPPOS*%
%ADD10C,0.003940*%
%ADD11C,0.023620*%
%ADD12C,0.009840*%
%ADD13C,0.011810*%
%ADD14C,0.007870*%
%ADD15C,0.010000*%
%LNmidi_stick-1*%
%LPD*%
G36*
X03352Y02622D02*
X03352Y02622D01*
X03353Y02622*
X03353Y02621*
X03354Y02621*
X03354Y02621*
X03354Y02621*
X03354Y0262*
X03355Y0262*
X03355Y0262*
X03355Y0262*
X03355Y02619*
X03355Y02619*
X03355Y02618*
Y02618*
Y02618*
X03355Y02617*
X03355Y02617*
X03355Y02617*
X03355Y02616*
X03355Y02616*
X03354Y02615*
X03354Y02615*
X03354Y02615*
X03354Y02615*
X03353Y02615*
X03353Y02615*
X03353Y02615*
X03352Y02614*
X03352Y02614*
X03351*
X03351Y02614*
X03351Y02615*
X0335Y02615*
X0335Y02615*
X03349Y02615*
X03349Y02615*
X03349Y02616*
X03349Y02616*
X03349Y02616*
X03348Y02616*
X03348Y02617*
X03348Y02617*
X03348Y02617*
X03348Y02618*
Y02618*
Y02618*
X03348Y02619*
X03348Y02619*
X03348Y02619*
X03348Y0262*
X03349Y0262*
X03349Y02621*
X03349Y02621*
X03349Y02621*
X03349Y02621*
X0335Y02621*
X0335Y02621*
X03351Y02622*
X03351Y02622*
X03352Y02622*
X03352*
X03352Y02622*
G37*
G36*
X03294D02*
X03294Y02622D01*
X03294Y02622*
X03295Y02621*
X03295Y02621*
X03296Y02621*
X03296Y02621*
X03296Y0262*
X03296Y0262*
X03296Y0262*
X03297Y0262*
X03297Y02619*
X03297Y02619*
X03297Y02618*
Y02618*
Y02618*
X03297Y02617*
X03297Y02617*
X03297Y02617*
X03296Y02616*
X03296Y02616*
X03296Y02615*
X03296Y02615*
X03296Y02615*
X03295Y02615*
X03295Y02615*
X03295Y02615*
X03294Y02615*
X03294Y02614*
X03293Y02614*
X03293*
X03293Y02614*
X03292Y02615*
X03292Y02615*
X03291Y02615*
X03291Y02615*
X0329Y02615*
X0329Y02616*
X0329Y02616*
X0329Y02616*
X0329Y02616*
X0329Y02617*
X0329Y02617*
X03289Y02617*
X03289Y02618*
Y02618*
Y02618*
X03289Y02619*
X0329Y02619*
X0329Y02619*
X0329Y0262*
X0329Y0262*
X0329Y02621*
X03291Y02621*
X03291Y02621*
X03291Y02621*
X03291Y02621*
X03292Y02621*
X03292Y02622*
X03293Y02622*
X03293Y02622*
X03293*
X03294Y02622*
G37*
G36*
X03153Y02621D02*
X03153Y02621D01*
X03154Y02621*
X03155Y0262*
X03156Y0262*
X03157Y0262*
X03158Y02619*
X03158*
X03158Y02619*
X03159Y02619*
X03159Y02619*
X03159Y02618*
X0316Y02618*
X03161Y02617*
X03161Y02617*
X03162Y02617*
X03162Y02616*
X03163Y02615*
X03163Y02615*
X03164Y02614*
X03165Y02613*
X03161Y0261*
X03161Y0261*
X03161Y0261*
X0316Y02611*
X0316Y02611*
X0316Y02611*
X03159Y02612*
X03158Y02613*
X03158Y02614*
X03157Y02614*
X03157Y02615*
X03156Y02615*
X03156Y02615*
X03156Y02615*
X03155Y02615*
X03155Y02615*
X03154Y02616*
X03154Y02616*
X03153Y02616*
X03152Y02616*
X03152*
X03151Y02616*
X0315Y02616*
X0315Y02616*
X03149Y02615*
X03148Y02615*
X03147Y02614*
X03147Y02614*
X03147Y02614*
X03147Y02614*
X03147Y02613*
X03146Y02612*
X03146Y02612*
X03146Y02611*
X03146Y0261*
Y0261*
Y0261*
X03146Y02609*
Y02609*
X03146Y02609*
X03146Y02608*
X03146Y02607*
X03146Y02607*
X03146Y02607*
X03146Y02607*
X03146Y02606*
X03147Y02606*
X03147Y02606*
X03147Y02605*
X03148Y02604*
X03149Y02604*
X03149Y02604*
X03149Y02604*
X03149Y02603*
X03149Y02603*
X0315Y02603*
X0315Y02603*
X0315Y02602*
X03151Y02602*
X03151Y02601*
X03152Y02601*
X03153Y026*
X03154Y026*
X03155Y02599*
X03155Y02599*
X03155Y02599*
X03155Y02599*
X03156Y02598*
X03156Y02598*
X03157Y02597*
X03157Y02597*
X03158Y02596*
X03159Y02595*
X03161Y02594*
X03161Y02593*
X03162Y02592*
X03163Y02592*
X03163Y02591*
X03163Y02591*
X03163Y02591*
X03163Y02591*
X03163Y0259*
X03164Y0259*
X03164Y0259*
X03164Y02589*
X03165Y02588*
X03165Y02586*
X03165Y02585*
X03165Y02584*
Y02584*
Y02584*
Y02583*
X03165Y02583*
X03165Y02583*
X03165Y02582*
X03165Y02581*
X03165Y02581*
X03165Y0258*
X03164Y02579*
X03164Y02579*
X03164Y02578*
X03163Y02577*
X03163Y02576*
X03162Y02576*
X03161Y02575*
X03161Y02575*
X03161Y02575*
X03161Y02575*
X03161Y02574*
X0316Y02574*
X0316Y02574*
X03159Y02573*
X03159Y02573*
X03158Y02573*
X03157Y02572*
X03157Y02572*
X03156Y02572*
X03155Y02571*
X03154Y02571*
X03153Y02571*
X03152Y02571*
X03151*
X03151Y02571*
X03151*
X0315Y02571*
X0315Y02571*
X03149Y02571*
X03148Y02572*
X03147Y02572*
X03145Y02573*
X03144Y02573*
X03144Y02573*
X03144Y02574*
X03144Y02574*
X03144Y02574*
X03143Y02574*
X03143Y02574*
X03142Y02575*
X03142Y02575*
X03141Y02576*
X03141Y02576*
X0314Y02577*
X0314Y02578*
X03139Y02578*
X03139Y02579*
X03138Y0258*
X03138Y02581*
X03142Y02584*
X03142Y02583*
X03142Y02583*
X03142Y02583*
X03142Y02582*
X03143Y02582*
X03143Y02581*
X03144Y0258*
X03144Y0258*
X03145Y02579*
X03146Y02578*
X03147Y02578*
X03148Y02577*
X03149Y02576*
X03149Y02576*
X0315Y02576*
X03151Y02576*
X03152*
X03152Y02576*
X03153Y02576*
X03154Y02576*
X03154Y02576*
X03155Y02576*
X03156Y02577*
X03156Y02577*
X03156Y02577*
X03157Y02577*
X03157Y02578*
X03158Y02578*
X03158Y02579*
X03159Y02579*
X03159Y0258*
X03159Y0258*
X03159Y0258*
X0316Y0258*
X0316Y02581*
X0316Y02582*
X0316Y02582*
X0316Y02583*
X0316Y02584*
Y02584*
Y02584*
Y02584*
X0316Y02585*
X0316Y02585*
X0316Y02586*
X0316Y02587*
X03159Y02588*
X03159Y02588*
Y02588*
X03159Y02589*
X03158Y02589*
X03158Y02589*
X03158Y02589*
X03158Y0259*
X03157Y0259*
X03157Y02591*
X03156Y02591*
X03156Y02592*
X03155Y02592*
X03154Y02593*
X03153Y02594*
X03153Y02594*
X03152Y02595*
X03151Y02596*
X0315Y02596*
X0315Y02596*
X0315Y02596*
X0315Y02597*
X03149Y02597*
X03149Y02598*
X03147Y02599*
X03146Y026*
X03145Y02601*
X03144Y02601*
X03144Y02602*
X03143Y02602*
X03143Y02603*
Y02603*
X03143Y02603*
X03143Y02603*
X03143Y02603*
X03143Y02603*
X03142Y02604*
X03142Y02605*
X03141Y02606*
X03141Y02607*
X03141Y02608*
X03141Y02609*
X03141Y0261*
Y0261*
Y0261*
Y0261*
Y0261*
X03141Y02611*
X03141Y02612*
X03141Y02613*
X03141Y02613*
X03142Y02614*
X03142Y02615*
Y02615*
X03142Y02616*
X03142Y02616*
X03143Y02616*
X03143Y02617*
X03144Y02618*
X03144Y02618*
X03145Y02619*
X03146Y02619*
X03146*
X03146Y0262*
X03147Y0262*
X03147Y0262*
X03147Y0262*
X03148Y0262*
X03149Y0262*
X0315Y02621*
X03151Y02621*
X03152Y02621*
X03153*
X03153Y02621*
G37*
G36*
X03705Y02608D02*
X03705Y02608D01*
X03706Y02608*
X03707Y02608*
X03707Y02607*
X03708Y02607*
X03706Y02603*
X03706Y02603*
X03706Y02603*
X03705Y02603*
X03705Y02604*
X03704Y02604*
X03704Y02604*
X03703*
X03703Y02604*
X03702Y02604*
X03701Y02603*
X03701Y02603*
X037Y02603*
X03699Y02602*
X03699Y02602*
X03699Y02602*
X03698Y02601*
X03698Y02601*
X03697Y026*
X03697Y02599*
X03696Y02598*
X03696Y02596*
Y02596*
X03696Y02596*
Y02596*
X03696Y02596*
X03696Y02595*
X03696Y02595*
X03696Y02594*
X03695Y02594*
X03695Y02593*
X03695Y02592*
X03695Y02591*
X03695Y0259*
X03695Y02589*
Y02587*
X03695Y02586*
Y02584*
Y02572*
X0369*
Y02607*
X03695*
Y02602*
X03695Y02602*
X03695Y02603*
X03695Y02603*
X03696Y02603*
X03696Y02604*
X03697Y02605*
X03698Y02605*
X03699Y02606*
X03699Y02607*
X03699Y02607*
X037Y02607*
X037Y02607*
X03701Y02607*
X03702Y02608*
X03702Y02608*
X03703Y02608*
X03704Y02608*
X03704*
X03705Y02608*
G37*
G36*
X03535D02*
X03535Y02608D01*
X03536Y02608*
X03536Y02608*
X03537Y02607*
X03538Y02607*
X03535Y02603*
X03535Y02603*
X03535Y02603*
X03535Y02603*
X03535Y02604*
X03534Y02604*
X03533Y02604*
X03533*
X03532Y02604*
X03532Y02604*
X03531Y02603*
X0353Y02603*
X03529Y02603*
X03529Y02602*
X03529Y02602*
X03528Y02602*
X03528Y02601*
X03528Y02601*
X03527Y026*
X03526Y02599*
X03526Y02598*
X03525Y02596*
Y02596*
X03525Y02596*
Y02596*
X03525Y02596*
X03525Y02595*
X03525Y02595*
X03525Y02594*
X03525Y02594*
X03525Y02593*
X03525Y02592*
X03525Y02591*
X03525Y0259*
X03525Y02589*
Y02587*
X03525Y02586*
Y02584*
Y02572*
X0352*
Y02607*
X03525*
Y02602*
X03525Y02602*
X03525Y02603*
X03525Y02603*
X03525Y02603*
X03526Y02604*
X03527Y02605*
X03527Y02605*
X03528Y02606*
X03529Y02607*
X03529Y02607*
X03529Y02607*
X0353Y02607*
X0353Y02607*
X03531Y02608*
X03532Y02608*
X03533Y02608*
X03534Y02608*
X03534*
X03535Y02608*
G37*
G36*
X03515D02*
X03515Y02608D01*
X03516Y02608*
X03516Y02608*
X03517Y02607*
X03518Y02607*
X03516Y02603*
X03516Y02603*
X03515Y02603*
X03515Y02603*
X03515Y02604*
X03514Y02604*
X03514Y02604*
X03513*
X03512Y02604*
X03512Y02604*
X03511Y02603*
X0351Y02603*
X0351Y02603*
X03509Y02602*
X03509Y02602*
X03508Y02602*
X03508Y02601*
X03508Y02601*
X03507Y026*
X03507Y02599*
X03506Y02598*
X03506Y02596*
Y02596*
X03506Y02596*
Y02596*
X03506Y02596*
X03505Y02595*
X03505Y02595*
X03505Y02594*
X03505Y02594*
X03505Y02593*
X03505Y02592*
X03505Y02591*
X03505Y0259*
X03505Y02589*
Y02587*
X03505Y02586*
Y02584*
Y02572*
X035*
Y02607*
X03505*
Y02602*
X03505Y02602*
X03505Y02603*
X03505Y02603*
X03506Y02603*
X03506Y02604*
X03507Y02605*
X03507Y02605*
X03508Y02606*
X03509Y02607*
X03509Y02607*
X03509Y02607*
X0351Y02607*
X03511Y02607*
X03511Y02608*
X03512Y02608*
X03513Y02608*
X03514Y02608*
X03514*
X03515Y02608*
G37*
G36*
X03415D02*
X03415D01*
X03415Y02608*
X03416Y02608*
X03417Y02608*
X03419Y02607*
X0342Y02607*
X03421Y02606*
X03421*
X03421Y02606*
X03421Y02606*
X03421Y02606*
X03422Y02605*
X03423Y02605*
X03423Y02604*
X03424Y02603*
X03425Y02602*
X03425Y02601*
Y02601*
X03426Y02601*
X03426Y02601*
X03426Y026*
X03426Y026*
X03426Y02599*
X03426Y02599*
X03426Y02598*
X03426Y02598*
X03426Y02597*
X03427Y02596*
X03427Y02595*
X03427Y02594*
X03427Y02593*
X03427Y02592*
Y0259*
Y02572*
X03422*
Y02589*
Y02589*
Y02589*
Y0259*
Y0259*
Y02591*
Y02591*
X03422Y02592*
X03422Y02594*
X03422Y02595*
X03422Y02596*
X03422Y02596*
X03422Y02597*
X03422Y02597*
Y02597*
X03422Y02597*
X03422Y02597*
X03422Y02598*
X03422Y02598*
X03421Y02599*
X03421Y026*
X0342Y02601*
X0342Y02602*
X03419Y02602*
X03419Y02602*
X03419Y02603*
X03418Y02603*
X03417Y02603*
X03417Y02604*
X03416Y02604*
X03414Y02604*
X03413Y02604*
X03413*
X03412Y02604*
X03412*
X03412Y02604*
X03411Y02604*
X0341Y02603*
X03408Y02603*
X03408Y02603*
X03407Y02602*
X03406Y02602*
X03406Y02601*
X03406Y02601*
X03406Y02601*
X03405Y02601*
X03405Y02601*
X03405Y02601*
X03405Y026*
X03404Y026*
X03403Y02599*
X03403Y02597*
X03402Y02596*
X03401Y02595*
Y02595*
Y02595*
X03401Y02594*
X03401Y02594*
X03401Y02594*
Y02593*
X03401Y02593*
X03401Y02593*
X03401Y02592*
X03401Y02591*
X03401Y0259*
X03401Y0259*
X03401Y02589*
Y02588*
X03401Y02586*
Y02585*
Y02572*
X03396*
Y02607*
X03401*
Y02601*
X03401Y02601*
X03401Y02601*
X03401Y02601*
X03401Y02602*
X03402Y02602*
X03403Y02603*
X03404Y02604*
X03405Y02605*
X03406Y02606*
X03407Y02606*
X03407*
X03407Y02607*
X03407Y02607*
X03407Y02607*
X03408Y02607*
X03408Y02607*
X03409Y02607*
X0341Y02608*
X03411Y02608*
X03413Y02608*
X03414Y02608*
X03414*
X03415Y02608*
G37*
G36*
X03601D02*
X03601Y02608D01*
X03602Y02608*
X03603Y02608*
X03604Y02608*
X03605Y02608*
X03606Y02607*
X03607Y02607*
X03608Y02607*
X03609Y02606*
X0361Y02605*
X03611Y02605*
X03612Y02604*
X03613Y02603*
X03613Y02603*
X03613Y02603*
X03614Y02602*
X03614Y02602*
X03614Y02601*
X03615Y02601*
X03615Y026*
X03616Y02599*
X03616Y02598*
X03617Y02597*
X03617Y02596*
X03618Y02595*
X03618Y02594*
X03618Y02593*
X03618Y02591*
X03618Y0259*
Y0259*
Y0259*
X03618Y02589*
Y02589*
X03618Y02588*
X03618Y02587*
X03618Y02586*
X03618Y02585*
X03617Y02584*
X03617Y02583*
X03617Y02582*
X03616Y02581*
X03616Y0258*
X03615Y02579*
X03614Y02578*
X03613Y02577*
X03613Y02577*
X03613Y02577*
X03613Y02576*
X03612Y02576*
X03612Y02576*
X03611Y02575*
X0361Y02575*
X0361Y02574*
X03609Y02574*
X03608Y02573*
X03607Y02573*
X03606Y02572*
X03604Y02572*
X03603Y02572*
X03602Y02572*
X036Y02571*
X036*
X036Y02572*
X03599*
X03599Y02572*
X03598Y02572*
X03598Y02572*
X03597Y02572*
X03595Y02572*
X03594Y02573*
X03593Y02573*
X03593*
X03592Y02573*
X03592Y02573*
X03592Y02573*
X03592Y02574*
X03591Y02574*
X03591Y02574*
X0359Y02575*
X03589Y02576*
X03587Y02577*
X03586Y02578*
Y0256*
X03582*
Y02607*
X03586*
Y02601*
X03586Y02601*
X03586Y02601*
X03587Y02601*
X03587Y02601*
X03587Y02602*
X03588Y02603*
X03589Y02604*
X0359Y02605*
X03591Y02606*
X03592Y02606*
X03593*
X03593Y02606*
X03593Y02607*
X03593Y02607*
X03593Y02607*
X03594Y02607*
X03594Y02607*
X03595Y02607*
X03596Y02608*
X03597Y02608*
X03599Y02608*
X036Y02608*
X03601*
X03601Y02608*
G37*
G36*
X0334Y02572D02*
X03335D01*
Y02578*
X03335Y02578*
X03335Y02578*
X03335Y02578*
X03335Y02578*
X03334Y02577*
X03333Y02576*
X03332Y02576*
X03331Y02575*
X0333Y02574*
X03329Y02573*
X03329*
X03329Y02573*
X03328Y02573*
X03328Y02573*
X03328Y02573*
X03328Y02573*
X03327Y02572*
X03327Y02572*
X03325Y02572*
X03324Y02572*
X03323Y02572*
X03321Y02571*
X03321*
X0332Y02572*
X0332Y02572*
X03319Y02572*
X03319Y02572*
X03318Y02572*
X03317Y02572*
X03316Y02572*
X03315Y02573*
X03314Y02573*
X03313Y02574*
X03312Y02574*
X03311Y02575*
X03309Y02576*
X03308Y02577*
X03308Y02577*
X03308Y02577*
X03308Y02577*
X03308Y02578*
X03307Y02578*
X03307Y02579*
X03306Y0258*
X03306Y0258*
X03305Y02581*
X03305Y02582*
X03304Y02583*
X03304Y02585*
X03304Y02586*
X03303Y02587*
X03303Y02588*
X03303Y0259*
Y0259*
Y0259*
X03303Y02591*
X03303Y02591*
X03303Y02592*
X03303Y02593*
X03304Y02593*
X03304Y02594*
X03304Y02595*
X03305Y02596*
X03305Y02598*
X03305Y02599*
X03306Y026*
X03307Y02601*
X03308Y02602*
X03309Y02603*
X03309Y02603*
X03309Y02603*
X03309Y02603*
X03309Y02604*
X0331Y02604*
X03311Y02605*
X03311Y02605*
X03312Y02606*
X03313Y02606*
X03314Y02607*
X03315Y02607*
X03316Y02607*
X03317Y02608*
X03319Y02608*
X0332Y02608*
X03321Y02608*
X03322*
X03322Y02608*
X03323Y02608*
X03323Y02608*
X03324Y02608*
X03325Y02608*
X03326Y02607*
X03328Y02607*
X03329Y02606*
X03329*
X03329Y02606*
X03329Y02606*
X0333Y02606*
X0333Y02606*
X0333Y02606*
X03331Y02605*
X03332Y02604*
X03333Y02603*
X03334Y02602*
X03335Y02601*
Y02621*
X0334*
Y02572*
G37*
G36*
X03749D02*
X03748D01*
X03727Y0262*
X03733*
X03748Y02583*
X03764Y0262*
X0377*
X03749Y02572*
G37*
G36*
X03283D02*
X03278D01*
X03274Y02606*
X03257Y02572*
X03256*
X03239Y02607*
X03234Y02572*
X03229*
X03236Y0262*
X03237*
X03256Y02581*
X03275Y0262*
X03276*
X03283Y02572*
G37*
G36*
X03572Y0259D02*
Y0259D01*
Y0259*
Y02589*
Y02589*
X03572Y02588*
X03572Y02588*
X03572Y02587*
X03572Y02586*
X03571Y02584*
X03571Y02583*
X03571Y02581*
X0357Y0258*
X0357Y02579*
Y02579*
X0357Y02579*
X0357Y02579*
X0357Y02579*
X0357Y02578*
X03569Y02578*
X03569Y02577*
X03568Y02576*
X03567Y02575*
X03566Y02574*
X03565Y02574*
X03565*
X03565Y02573*
X03565Y02573*
X03564Y02573*
X03564Y02573*
X03564Y02573*
X03563Y02573*
X03563Y02572*
X03562Y02572*
X03561Y02572*
X03561Y02572*
X0356Y02572*
X03558Y02572*
X03556Y02571*
X03556*
X03556Y02572*
X03555*
X03555Y02572*
X03554Y02572*
X03553Y02572*
X03552Y02572*
X03551Y02572*
X03549Y02573*
X03548Y02574*
X03548*
X03548Y02574*
X03547Y02574*
X03547Y02574*
X03547Y02574*
X03546Y02575*
X03545Y02576*
X03544Y02577*
X03543Y02578*
X03543Y02579*
Y02579*
X03543Y02579*
X03543Y0258*
X03542Y0258*
X03542Y0258*
X03542Y02581*
X03542Y02581*
X03542Y02582*
X03542Y02583*
X03542Y02584*
X03541Y02585*
X03541Y02586*
X03541Y02587*
X03541Y02588*
X03541Y02589*
Y02591*
Y02607*
X03546*
Y02591*
Y02591*
Y02591*
Y0259*
Y0259*
Y0259*
X03546Y02589*
Y02588*
Y02588*
X03546Y02586*
X03546Y02585*
X03546Y02584*
X03546Y02584*
X03546Y02583*
X03546Y02583*
Y02583*
X03546Y02583*
X03546Y02582*
X03546Y02582*
X03547Y02582*
X03547Y02581*
X03548Y0258*
X03548Y02579*
X03549Y02578*
X0355Y02578*
X0355*
X0355Y02578*
X0355Y02578*
X0355Y02577*
X03551Y02577*
X03552Y02577*
X03553Y02576*
X03554Y02576*
X03555Y02576*
X03556Y02576*
X03557*
X03557Y02576*
X03557*
X03558Y02576*
X03559Y02576*
X0356Y02576*
X03561Y02577*
X03562Y02577*
X03563Y02578*
X03563*
X03563Y02578*
X03563Y02578*
X03564Y02578*
X03564Y02579*
X03565Y0258*
X03565Y0258*
X03566Y02581*
X03566Y02582*
X03566Y02582*
Y02583*
X03567Y02583*
X03567Y02583*
X03567Y02583*
X03567Y02584*
X03567Y02584*
X03567Y02585*
X03567Y02585*
X03567Y02586*
X03567Y02587*
X03567Y02588*
Y02589*
X03567Y0259*
Y02591*
Y02607*
X03572*
Y0259*
G37*
G36*
X03131Y02591D02*
Y02591D01*
Y02591*
Y0259*
Y0259*
X03131Y02589*
Y02589*
X03131Y02588*
X03131Y02587*
X03131Y02586*
X0313Y02584*
X0313Y02582*
X0313Y02582*
X0313Y02581*
Y02581*
X0313Y02581*
X03129Y0258*
X03129Y0258*
X03129Y0258*
X03129Y02579*
X03129Y02579*
X03128Y02577*
X03127Y02576*
X03126Y02575*
X03125Y02575*
X03125Y02574*
X03125Y02574*
X03125Y02574*
X03124Y02574*
X03124Y02574*
X03124Y02573*
X03123Y02573*
X03123Y02573*
X03122Y02573*
X03122Y02572*
X03121Y02572*
X0312Y02572*
X03119Y02572*
X03118Y02571*
X03117Y02571*
X03116Y02571*
X03115*
X03115Y02571*
X03114Y02571*
X03114Y02571*
X03113Y02571*
X03112Y02571*
X03111Y02572*
X03109Y02572*
X03108Y02573*
X03107Y02573*
X03107Y02573*
X03106Y02574*
X03106Y02574*
X03106Y02574*
X03105Y02574*
X03105Y02574*
X03105Y02575*
X03104Y02575*
X03104Y02575*
X03104Y02576*
X03103Y02577*
X03102Y02578*
X03101Y02579*
X03101Y0258*
X031Y02581*
Y02581*
X031Y02581*
Y02581*
X031Y02582*
X031Y02582*
X031Y02582*
X031Y02583*
X031Y02583*
X031Y02584*
X031Y02585*
X031Y02586*
X031Y02586*
X031Y02587*
Y02589*
X031Y0259*
Y02591*
Y0262*
X03104*
Y02591*
Y02591*
Y02591*
Y02591*
Y0259*
Y0259*
Y02589*
Y02588*
X03104Y02587*
Y02586*
X03104Y02586*
Y02585*
X03104Y02585*
Y02585*
Y02585*
Y02585*
X03104Y02584*
X03105Y02584*
X03105Y02583*
X03105Y02582*
X03105Y02582*
X03106Y02581*
X03106Y0258*
X03106Y0258*
X03106Y0258*
X03107Y02579*
X03107Y02579*
X03108Y02578*
X03108Y02578*
X03109Y02577*
X0311Y02577*
X0311*
X0311Y02577*
X0311Y02577*
X0311Y02577*
X03111Y02577*
X03112Y02576*
X03112Y02576*
X03113Y02576*
X03114Y02576*
X03115Y02576*
X03116*
X03116Y02576*
X03117Y02576*
X03118Y02576*
X03118Y02576*
X03119Y02576*
X0312Y02577*
X0312Y02577*
X0312Y02577*
X03121Y02577*
X03121Y02577*
X03122Y02578*
X03122Y02578*
X03123Y02579*
X03123Y02579*
X03124Y02579*
X03124Y0258*
X03124Y0258*
X03124Y02581*
X03125Y02581*
X03125Y02582*
X03125Y02583*
X03126Y02584*
Y02584*
X03126Y02584*
X03126Y02584*
X03126Y02585*
X03126Y02585*
X03126Y02585*
Y02586*
X03126Y02586*
X03126Y02587*
X03126Y02588*
Y02588*
X03126Y02589*
Y0259*
Y02591*
Y0262*
X03131*
Y02591*
G37*
G36*
X03793Y02572D02*
X03788D01*
Y02615*
X03781*
X03784Y0262*
X03793*
Y02572*
G37*
G36*
X03635Y02607D02*
X03642D01*
Y02604*
X03635*
Y02572*
X03631*
Y02604*
X03625*
Y02607*
X03631*
Y0262*
X03635*
Y02607*
G37*
G36*
X03445D02*
X03452D01*
Y02604*
X03445*
Y02572*
X03441*
Y02604*
X03434*
Y02607*
X03441*
Y0262*
X03445*
Y02607*
G37*
G36*
X03386Y02572D02*
X03382D01*
Y0262*
X03386*
Y02572*
G37*
G36*
X03354D02*
X03349D01*
Y02607*
X03354*
Y02572*
G37*
G36*
X03295D02*
X03291D01*
Y02607*
X03295*
Y02572*
G37*
G36*
X03186Y0262D02*
X03187D01*
X03187Y0262*
X03188Y0262*
X03189Y02619*
X03191Y02619*
X03192Y02619*
X03193Y02619*
X03194Y02618*
X03194*
X03194Y02618*
X03194Y02618*
X03194Y02618*
X03195Y02618*
X03195Y02617*
X03196Y02617*
X03197Y02616*
X03198Y02615*
X03198Y02614*
Y02614*
X03198Y02614*
X03198Y02614*
X03199Y02614*
X03199Y02613*
X03199Y02612*
X032Y02612*
X032Y02611*
X032Y02609*
X032Y02608*
Y02608*
Y02608*
Y02608*
Y02608*
X032Y02607*
X032Y02606*
X032Y02605*
X03199Y02604*
X03199Y02603*
X03199Y02602*
Y02602*
X03198Y02602*
X03198Y02602*
X03198Y02601*
X03197Y02601*
X03197Y026*
X03196Y02599*
X03195Y02599*
X03194Y02598*
X03194*
X03194Y02598*
X03194Y02598*
X03195Y02598*
X03195Y02598*
X03195Y02598*
X03196Y02597*
X03197Y02597*
X03198Y02596*
X03199Y02596*
X032Y02595*
X032Y02595*
X032Y02595*
X032Y02595*
X03201Y02594*
X03201Y02593*
X03202Y02593*
X03202Y02592*
X03203Y02591*
X03203Y02591*
X03203Y02591*
X03203Y0259*
X03203Y0259*
X03204Y02589*
X03204Y02588*
X03204Y02587*
X03204Y02586*
Y02586*
Y02586*
Y02585*
X03204Y02585*
X03204Y02584*
X03204Y02584*
X03204Y02583*
X03203Y02583*
X03203Y02582*
X03203Y02581*
X03203Y0258*
X03202Y02579*
X03202Y02579*
X03201Y02578*
X03201Y02577*
X032Y02576*
X032Y02576*
X032Y02576*
X03199Y02576*
X03199Y02576*
X03199Y02575*
X03198Y02575*
X03197Y02575*
X03197Y02574*
X03196Y02574*
X03195Y02574*
X03194Y02573*
X03193Y02573*
X03192Y02573*
X03191Y02572*
X0319Y02572*
X03189Y02572*
X03176*
Y0262*
X03186*
X03186Y0262*
G37*
G36*
X03819Y02579D02*
X03819Y02579D01*
X0382Y02579*
X0382Y02579*
X0382Y02579*
X03821Y02578*
X03821Y02578*
X03821Y02578*
X03821Y02578*
X03822Y02577*
X03822Y02577*
X03822Y02577*
X03822Y02576*
X03822Y02575*
Y02575*
Y02575*
X03822Y02575*
X03822Y02574*
X03822Y02574*
X03822Y02574*
X03821Y02573*
X03821Y02573*
X03821Y02573*
X03821Y02572*
X0382Y02572*
X0382Y02572*
X0382Y02572*
X03819Y02572*
X03819Y02572*
X03818Y02571*
X03818*
X03818Y02572*
X03817Y02572*
X03817Y02572*
X03816Y02572*
X03816Y02572*
X03815Y02573*
X03815Y02573*
X03815Y02573*
X03815Y02573*
X03815Y02573*
X03815Y02574*
X03814Y02574*
X03814Y02575*
X03814Y02575*
Y02576*
Y02576*
X03814Y02576*
X03814Y02576*
X03814Y02577*
X03815Y02577*
X03815Y02578*
X03815Y02578*
X03815Y02578*
X03816Y02578*
X03816Y02579*
X03816Y02579*
X03817Y02579*
X03817Y02579*
X03818Y02579*
X03818Y02579*
X03818*
X03819Y02579*
G37*
G36*
X03666Y02608D02*
X03667Y02608D01*
X03668Y02608*
X03669Y02608*
X0367Y02608*
X03671Y02607*
X03672Y02607*
X03673Y02607*
X03674Y02606*
X03675Y02605*
X03677Y02605*
X03678Y02604*
X03679Y02603*
X0368Y02601*
X0368Y02601*
X0368Y02601*
X0368Y02601*
X0368Y02601*
X03681Y026*
X03681Y026*
X03681Y02599*
X03682Y02598*
X03682Y02597*
X03682Y02596*
X03683Y02595*
X03683Y02594*
X03683Y02593*
X03684Y02592*
X03684Y02591*
X03684Y0259*
X03652*
Y02589*
Y02589*
X03652Y02589*
Y02588*
X03652Y02588*
X03652Y02587*
X03653Y02587*
X03653Y02586*
X03653Y02584*
X03653Y02584*
X03654Y02583*
X03654Y02582*
X03655Y02581*
X03655Y0258*
X03656Y02579*
X03656Y02579*
X03656Y02579*
X03656Y02579*
X03657Y02579*
X03657Y02579*
X03658Y02578*
X03658Y02578*
X03659Y02578*
X03659Y02577*
X0366Y02577*
X03661Y02576*
X03662Y02576*
X03662Y02576*
X03663Y02576*
X03664Y02576*
X03665Y02576*
X03666*
X03666Y02576*
X03667Y02576*
X03668Y02576*
X03669Y02576*
X0367Y02576*
X03671Y02577*
X03671*
X03671Y02577*
X03671Y02577*
X03672Y02577*
X03672Y02577*
X03673Y02578*
X03674Y02578*
X03674Y02578*
X03675Y02579*
X03675Y02579*
X03675Y02579*
X03676Y0258*
X03676Y0258*
X03677Y02581*
X03677Y02582*
X03678Y02583*
X03679Y02584*
X03683Y02582*
Y02582*
X03683Y02582*
X03682Y02582*
X03682Y02581*
X03682Y02581*
X03682Y02581*
X03681Y0258*
X03681Y02579*
X0368Y02578*
X03679Y02577*
X03678Y02576*
X03678Y02576*
X03678Y02576*
X03677Y02575*
X03677Y02575*
X03676Y02574*
X03675Y02574*
X03674Y02573*
X03673Y02573*
X03673*
X03673Y02573*
X03672Y02572*
X03672Y02572*
X03672Y02572*
X03672Y02572*
X03671Y02572*
X0367Y02572*
X03669Y02572*
X03667Y02572*
X03666Y02571*
X03665*
X03665Y02572*
X03664Y02572*
X03664Y02572*
X03663Y02572*
X03662Y02572*
X03661Y02572*
X0366Y02572*
X03659Y02573*
X03658Y02573*
X03656Y02574*
X03655Y02574*
X03654Y02575*
X03653Y02576*
X03652Y02577*
X03652Y02577*
X03652Y02577*
X03652Y02578*
X03652Y02578*
X03651Y02579*
X03651Y02579*
X0365Y0258*
X0365Y02581*
X03649Y02582*
X03649Y02583*
X03649Y02584*
X03648Y02585*
X03648Y02586*
X03648Y02587*
X03648Y02588*
X03648Y0259*
Y0259*
Y0259*
X03648Y0259*
Y02591*
X03648Y02591*
X03648Y02592*
X03648Y02593*
X03648Y02594*
X03648Y02595*
X03649Y02596*
X03649Y02597*
X03649Y02598*
X0365Y02599*
X0365Y026*
X03651Y02601*
X03652Y02602*
X03652Y02602*
X03652Y02602*
X03652Y02602*
X03653Y02603*
X03653Y02603*
X03654Y02604*
X03654Y02604*
X03655Y02605*
X03656Y02606*
X03657Y02606*
X03658Y02607*
X0366Y02607*
X03661Y02608*
X03662Y02608*
X03664Y02608*
X03666Y02608*
X03666*
X03666Y02608*
G37*
G36*
X03476D02*
X03477Y02608D01*
X03478Y02608*
X03478Y02608*
X03479Y02608*
X0348Y02607*
X03482Y02607*
X03483Y02607*
X03484Y02606*
X03485Y02605*
X03486Y02605*
X03487Y02604*
X03489Y02603*
X0349Y02601*
X0349Y02601*
X0349Y02601*
X0349Y02601*
X0349Y02601*
X0349Y026*
X03491Y026*
X03491Y02599*
X03492Y02598*
X03492Y02597*
X03492Y02596*
X03493Y02595*
X03493Y02594*
X03493Y02593*
X03493Y02592*
X03493Y02591*
X03494Y0259*
X03462*
Y02589*
Y02589*
X03462Y02589*
Y02588*
X03462Y02588*
X03462Y02587*
X03462Y02587*
X03462Y02586*
X03463Y02584*
X03463Y02584*
X03464Y02583*
X03464Y02582*
X03465Y02581*
X03465Y0258*
X03466Y02579*
X03466Y02579*
X03466Y02579*
X03466Y02579*
X03467Y02579*
X03467Y02579*
X03467Y02578*
X03468Y02578*
X03468Y02578*
X03469Y02577*
X0347Y02577*
X03471Y02576*
X03471Y02576*
X03472Y02576*
X03473Y02576*
X03474Y02576*
X03475Y02576*
X03476*
X03476Y02576*
X03477Y02576*
X03478Y02576*
X03479Y02576*
X03479Y02576*
X0348Y02577*
X0348*
X03481Y02577*
X03481Y02577*
X03481Y02577*
X03482Y02577*
X03483Y02578*
X03483Y02578*
X03484Y02578*
X03485Y02579*
X03485Y02579*
X03485Y02579*
X03485Y0258*
X03486Y0258*
X03486Y02581*
X03487Y02582*
X03488Y02583*
X03489Y02584*
X03492Y02582*
Y02582*
X03492Y02582*
X03492Y02582*
X03492Y02581*
X03492Y02581*
X03492Y02581*
X03491Y0258*
X0349Y02579*
X0349Y02578*
X03489Y02577*
X03488Y02576*
X03488Y02576*
X03488Y02576*
X03487Y02575*
X03486Y02575*
X03486Y02574*
X03485Y02574*
X03484Y02573*
X03483Y02573*
X03482*
X03482Y02573*
X03482Y02572*
X03482Y02572*
X03482Y02572*
X03481Y02572*
X03481Y02572*
X03479Y02572*
X03478Y02572*
X03477Y02572*
X03476Y02571*
X03475*
X03475Y02572*
X03474Y02572*
X03473Y02572*
X03473Y02572*
X03472Y02572*
X03471Y02572*
X0347Y02572*
X03468Y02573*
X03467Y02573*
X03466Y02574*
X03465Y02574*
X03464Y02575*
X03463Y02576*
X03462Y02577*
X03462Y02577*
X03462Y02577*
X03462Y02578*
X03461Y02578*
X03461Y02579*
X03461Y02579*
X0346Y0258*
X0346Y02581*
X03459Y02582*
X03459Y02583*
X03458Y02584*
X03458Y02585*
X03458Y02586*
X03458Y02587*
X03457Y02588*
X03457Y0259*
Y0259*
Y0259*
X03457Y0259*
Y02591*
X03457Y02591*
X03458Y02592*
X03458Y02593*
X03458Y02594*
X03458Y02595*
X03458Y02596*
X03459Y02597*
X03459Y02598*
X03459Y02599*
X0346Y026*
X03461Y02601*
X03461Y02602*
X03461Y02602*
X03462Y02602*
X03462Y02602*
X03462Y02603*
X03463Y02603*
X03464Y02604*
X03464Y02604*
X03465Y02605*
X03466Y02606*
X03467Y02606*
X03468Y02607*
X03469Y02607*
X03471Y02608*
X03472Y02608*
X03474Y02608*
X03475Y02608*
X03476*
X03476Y02608*
G37*
G36*
X03845Y02621D02*
X03846D01*
X03846Y02621*
X03847Y02621*
X03847Y02621*
X03849Y0262*
X0385Y0262*
X03851Y0262*
X03851Y02619*
X03852Y02619*
X03853Y02618*
X03853Y02618*
X03853Y02618*
X03853Y02618*
X03853Y02618*
X03854Y02617*
X03854Y02617*
X03855Y02617*
X03855Y02616*
X03855Y02616*
X03856Y02615*
X03856Y02614*
X03857Y02614*
X03857Y02613*
X03858Y02612*
X03858Y02611*
X03859Y0261*
Y0261*
X03859Y0261*
X03859Y0261*
X03859Y02609*
X03859Y02609*
X03859Y02608*
X0386Y02607*
X0386Y02606*
X0386Y02605*
X0386Y02604*
X0386Y02603*
X03861Y02602*
X03861Y02601*
X03861Y02599*
X03861Y02598*
Y02596*
Y02596*
Y02596*
Y02595*
X03861Y02595*
Y02594*
X03861Y02593*
X03861Y02592*
X03861Y02591*
X03861Y0259*
X0386Y02589*
X0386Y02586*
X03859Y02584*
X03859Y02583*
X03859Y02582*
Y02582*
X03859Y02582*
X03859Y02581*
X03858Y02581*
X03858Y0258*
X03858Y0258*
X03857Y02579*
X03856Y02578*
X03855Y02576*
X03854Y02575*
X03854Y02574*
X03853Y02574*
X03853Y02574*
X03853Y02574*
X03852Y02574*
X03852Y02573*
X03852Y02573*
X03851Y02573*
X03851Y02573*
X0385Y02572*
X03849Y02572*
X03848Y02572*
X03846Y02571*
X03845Y02571*
X03844Y02571*
X03844*
X03844Y02571*
X03843*
X03843Y02571*
X03842Y02571*
X03842Y02571*
X0384Y02572*
X03839Y02572*
X03838Y02573*
X03837Y02573*
X03836Y02574*
X03836Y02574*
X03836Y02574*
X03836Y02574*
X03836Y02574*
X03835Y02574*
X03835Y02575*
X03835Y02575*
X03834Y02576*
X03834Y02576*
X03833Y02577*
X03833Y02577*
X03832Y02578*
X03832Y02579*
X03831Y0258*
X03831Y02581*
X03831Y02582*
Y02582*
X0383Y02582*
X0383Y02582*
X0383Y02582*
X0383Y02583*
X0383Y02584*
X0383Y02584*
X0383Y02585*
X03829Y02586*
X03829Y02587*
X03829Y02588*
X03829Y0259*
X03829Y02591*
X03829Y02593*
X03829Y02594*
Y02596*
Y02596*
Y02596*
Y02596*
Y02597*
X03829Y02598*
Y02598*
X03829Y02599*
X03829Y026*
X03829Y02601*
X03829Y02602*
X03829Y02604*
X03829Y02606*
X0383Y02607*
X0383Y02608*
X0383Y0261*
X03831Y02611*
Y02611*
X03831Y02611*
X03831Y02611*
X03831Y02611*
X03831Y02612*
X03831Y02612*
X03832Y02613*
X03833Y02615*
X03834Y02616*
X03835Y02617*
X03836Y02618*
X03836Y02618*
X03836Y02618*
X03836Y02618*
X03837Y02619*
X03837Y02619*
X03837Y02619*
X03838Y02619*
X03838Y02619*
X03839Y0262*
X0384Y0262*
X03841Y0262*
X03843Y02621*
X03844Y02621*
X03844Y02621*
X03845*
X03845Y02621*
G37*
%LNmidi_stick-2*%
%LPC*%
G36*
X036Y02604D02*
X03599D01*
X03599Y02604*
X03598Y02604*
X03598Y02604*
X03597Y02604*
X03596Y02603*
X03596Y02603*
X03595Y02603*
X03594Y02603*
X03593Y02602*
X03592Y02602*
X03592Y02601*
X03591Y02601*
X0359Y026*
X0359Y026*
X0359Y026*
X0359Y02599*
X03589Y02599*
X03589Y02599*
X03589Y02598*
X03588Y02598*
X03588Y02597*
X03588Y02596*
X03587Y02596*
X03587Y02595*
X03587Y02594*
X03586Y02593*
X03586Y02592*
X03586Y02591*
X03586Y0259*
Y0259*
Y02589*
Y02589*
X03586Y02589*
Y02589*
X03586Y02588*
X03586Y02587*
X03587Y02586*
X03587Y02585*
X03587Y02584*
X03588Y02582*
Y02582*
X03588Y02582*
X03588Y02582*
X03588Y02582*
X03589Y02581*
X03589Y02581*
X0359Y0258*
X03591Y02579*
X03592Y02578*
X03593Y02577*
X03593*
X03593Y02577*
X03593Y02577*
X03594Y02577*
X03594Y02577*
X03594Y02577*
X03595Y02577*
X03596Y02576*
X03597Y02576*
X03599Y02576*
X036Y02576*
X036*
X03601Y02576*
X03601*
X03601Y02576*
X03602Y02576*
X03603Y02576*
X03604Y02576*
X03606Y02577*
X03607Y02577*
X03607*
X03607Y02578*
X03607Y02578*
X03607Y02578*
X03608Y02578*
X03609Y02579*
X03609Y0258*
X0361Y0258*
X03611Y02582*
X03612Y02583*
Y02583*
X03612Y02583*
X03612Y02583*
X03612Y02583*
X03612Y02584*
X03613Y02584*
X03613Y02585*
X03613Y02586*
X03614Y02587*
X03614Y02588*
X03614Y0259*
Y0259*
Y0259*
Y0259*
X03614Y0259*
Y02591*
X03614Y02591*
X03614Y02592*
X03613Y02593*
X03613Y02594*
X03613Y02596*
X03612Y02597*
Y02597*
X03612Y02597*
X03612Y02597*
X03612Y02597*
X03611Y02598*
X03611Y02599*
X0361Y026*
X03609Y026*
X03608Y02601*
X03607Y02602*
X03607*
X03607Y02602*
X03607Y02602*
X03606Y02602*
X03606Y02602*
X03606Y02603*
X03605Y02603*
X03604Y02603*
X03603Y02604*
X03601Y02604*
X036Y02604*
G37*
G36*
X03322D02*
X03321D01*
X03321Y02604*
X0332Y02604*
X03319Y02604*
X03318Y02603*
X03317Y02603*
X03316Y02603*
X03315Y02602*
X03315*
X03314Y02602*
X03314Y02602*
X03314Y02602*
X03314Y02601*
X03313Y02601*
X03312Y026*
X03311Y02599*
X0331Y02598*
X0331Y02597*
Y02597*
X0331Y02597*
X03309Y02597*
X03309Y02596*
X03309Y02596*
X03309Y02596*
X03309Y02595*
X03308Y02594*
X03308Y02592*
X03308Y02591*
X03308Y0259*
Y0259*
Y0259*
Y02589*
X03308Y02589*
Y02589*
X03308Y02588*
X03308Y02588*
X03308Y02586*
X03309Y02585*
X03309Y02584*
X0331Y02583*
Y02583*
X0331Y02583*
X0331Y02582*
X0331Y02582*
X0331Y02582*
X03311Y02581*
X03312Y0258*
X03313Y02579*
X03314Y02578*
X03315Y02577*
X03315*
X03315Y02577*
X03315Y02577*
X03315Y02577*
X03316Y02577*
X03316Y02577*
X03317Y02577*
X03318Y02576*
X03319Y02576*
X0332Y02576*
X03322Y02576*
X03322*
X03322Y02576*
X03323*
X03323Y02576*
X03324Y02576*
X03325Y02576*
X03326Y02576*
X03327Y02577*
X03329Y02577*
X03329*
X03329Y02578*
X03329Y02578*
X03329Y02578*
X0333Y02578*
X0333Y02579*
X03331Y02579*
X03332Y0258*
X03333Y02581*
X03334Y02582*
Y02583*
X03334Y02583*
X03334Y02583*
X03334Y02583*
X03334Y02583*
X03334Y02584*
X03335Y02585*
X03335Y02586*
X03335Y02587*
X03335Y02588*
X03335Y0259*
Y0259*
Y0259*
Y0259*
X03335Y02591*
X03335Y02591*
X03335Y02592*
X03335Y02592*
X03335Y02593*
X03335Y02594*
X03335Y02595*
X03334Y02596*
X03334Y02596*
X03333Y02597*
X03333Y02598*
X03332Y02599*
X03331Y026*
X03331Y026*
X03331Y026*
X03331Y026*
X03331Y026*
X0333Y02601*
X0333Y02601*
X03329Y02601*
X03329Y02602*
X03328Y02602*
X03327Y02603*
X03326Y02603*
X03326Y02603*
X03325Y02604*
X03324Y02604*
X03323Y02604*
X03322Y02604*
G37*
G36*
X03187Y02615D02*
X0318D01*
Y026*
X03184*
X03184Y026*
X03185*
X03186Y026*
X03187Y026*
X03188Y026*
X03189Y02601*
X0319Y02601*
X0319Y02601*
X0319*
X0319Y02601*
X03191Y02601*
X03191Y02601*
X03192Y02601*
X03192Y02602*
X03193Y02602*
X03193Y02603*
X03194Y02604*
X03194Y02604*
X03194Y02604*
X03194Y02604*
X03195Y02605*
X03195Y02606*
X03195Y02606*
X03195Y02607*
X03195Y02608*
Y02608*
Y02608*
Y02608*
X03195Y02609*
X03195Y02609*
X03195Y0261*
X03195Y02611*
X03194Y02612*
X03194Y02612*
X03193Y02613*
X03193Y02613*
X03193Y02613*
X03192Y02614*
X03192Y02614*
X03192Y02614*
X03192Y02614*
X03191Y02614*
X03191Y02614*
X0319Y02614*
X0319Y02615*
X03189Y02615*
X03188Y02615*
X03187Y02615*
X03187Y02615*
G37*
G36*
X03185Y02595D02*
X0318D01*
Y02577*
X03187*
X03187Y02577*
X03188*
X03189Y02577*
X0319Y02577*
X03191Y02577*
X03193Y02578*
X03193Y02578*
X03194Y02578*
X03194*
X03194Y02578*
X03194Y02578*
X03195Y02578*
X03195Y02579*
X03196Y02579*
X03196Y0258*
X03197Y0258*
X03198Y02581*
X03198Y02581*
X03198Y02582*
X03198Y02582*
X03198Y02583*
X03199Y02583*
X03199Y02584*
X03199Y02585*
X03199Y02586*
Y02586*
Y02586*
Y02586*
X03199Y02586*
X03199Y02587*
X03199Y02588*
X03199Y02589*
X03198Y02589*
X03198Y0259*
X03197Y02591*
Y02591*
X03197Y02591*
X03197Y02592*
X03196Y02592*
X03195Y02593*
X03195Y02593*
X03194Y02594*
X03193Y02594*
X03191Y02595*
X03191Y02595*
X03191*
X03191Y02595*
X03191Y02595*
X0319Y02595*
X0319Y02595*
X03189Y02595*
X03189Y02595*
X03188Y02595*
X03187*
X03187Y02595*
X03186Y02595*
X03185Y02595*
G37*
G36*
X03666Y02604D02*
X03665D01*
X03665Y02604*
X03664Y02604*
X03664Y02604*
X03663Y02604*
X03663Y02604*
X03661Y02603*
X0366Y02603*
X0366Y02603*
X03659Y02602*
X03658Y02602*
X03657Y02601*
X03657Y02601*
X03657*
X03657Y02601*
X03656Y026*
X03656Y026*
X03656Y026*
X03656Y026*
X03655Y02599*
X03655Y02599*
X03655Y02598*
X03655Y02598*
X03654Y02597*
X03654Y02597*
X03653Y02596*
X03653Y02595*
X03653Y02594*
X03653Y02593*
X03679*
Y02593*
X03679Y02594*
X03679Y02594*
X03679Y02594*
X03678Y02595*
X03678Y02595*
X03678Y02596*
X03677Y02597*
X03677Y02598*
X03676Y02599*
X03676Y02599*
X03676Y02599*
X03675Y026*
X03675Y026*
X03674Y02601*
X03674Y02601*
X03673Y02602*
X03672Y02603*
X03671*
X03671Y02603*
X03671Y02603*
X03671Y02603*
X03671Y02603*
X0367Y02603*
X03669Y02604*
X03668Y02604*
X03667Y02604*
X03666Y02604*
G37*
G36*
X03475D02*
X03475D01*
X03474Y02604*
X03474Y02604*
X03474Y02604*
X03473Y02604*
X03472Y02604*
X03471Y02603*
X0347Y02603*
X03469Y02603*
X03469Y02602*
X03468Y02602*
X03467Y02601*
X03466Y02601*
X03466*
X03466Y02601*
X03466Y026*
X03466Y026*
X03466Y026*
X03466Y026*
X03465Y02599*
X03465Y02599*
X03465Y02598*
X03464Y02598*
X03464Y02597*
X03464Y02597*
X03463Y02596*
X03463Y02595*
X03463Y02594*
X03462Y02593*
X03489*
Y02593*
X03489Y02594*
X03488Y02594*
X03488Y02594*
X03488Y02595*
X03488Y02595*
X03488Y02596*
X03487Y02597*
X03487Y02598*
X03486Y02599*
X03486Y02599*
X03486Y02599*
X03485Y026*
X03485Y026*
X03484Y02601*
X03483Y02601*
X03482Y02602*
X03481Y02603*
X03481*
X03481Y02603*
X03481Y02603*
X03481Y02603*
X0348Y02603*
X0348Y02603*
X03479Y02604*
X03478Y02604*
X03477Y02604*
X03475Y02604*
G37*
G36*
X03845Y02616D02*
X03844D01*
X03844Y02616*
X03843Y02616*
X03843Y02616*
X03842Y02616*
X03841Y02616*
X0384Y02615*
X03839Y02614*
X03839*
X03839Y02614*
X03838Y02614*
X03838Y02613*
X03837Y02613*
X03836Y02612*
X03836Y02611*
X03835Y0261*
X03834Y02608*
Y02608*
X03834Y02608*
X03834Y02608*
X03834Y02607*
X03834Y02607*
X03834Y02606*
X03834Y02606*
X03834Y02605*
X03834Y02604*
X03833Y02603*
X03833Y02602*
X03833Y02601*
X03833Y026*
X03833Y02599*
X03833Y02597*
Y02596*
Y02596*
Y02596*
Y02595*
Y02595*
X03833Y02594*
Y02593*
X03833Y02592*
X03833Y02591*
X03833Y02589*
X03834Y02587*
X03834Y02586*
X03834Y02585*
X03834Y02585*
X03834Y02584*
Y02584*
X03835Y02584*
X03835Y02583*
X03835Y02583*
X03835Y02583*
X03835Y02582*
X03836Y02581*
X03836Y0258*
X03837Y02579*
X03838Y02578*
X03839Y02578*
X03839*
X03839Y02577*
X03839Y02577*
X03839Y02577*
X0384Y02577*
X0384Y02576*
X03841Y02576*
X03842Y02576*
X03843Y02576*
X03845Y02575*
X03845*
X03845Y02576*
X03846Y02576*
X03847Y02576*
X03847Y02576*
X03848Y02576*
X03849Y02577*
X03851Y02578*
X03851*
X03851Y02578*
X03851Y02578*
X03852Y02578*
X03852Y02579*
X03853Y0258*
X03853Y02581*
X03854Y02582*
X03855Y02584*
Y02584*
X03855Y02584*
X03855Y02584*
X03855Y02585*
X03855Y02585*
X03855Y02586*
X03855Y02586*
X03856Y02587*
X03856Y02588*
X03856Y02589*
X03856Y0259*
X03856Y02591*
X03856Y02592*
X03856Y02593*
X03857Y02595*
Y02596*
Y02596*
Y02596*
Y02597*
Y02597*
X03856Y02598*
Y02598*
X03856Y02599*
X03856Y026*
X03856Y02602*
X03856Y02604*
X03855Y02606*
X03855Y02607*
X03855Y02608*
Y02608*
X03855Y02608*
X03855Y02608*
X03855Y02608*
X03855Y02609*
X03854Y02609*
X03854Y0261*
X03853Y02611*
X03852Y02612*
X03852Y02613*
X03851Y02614*
X03851Y02614*
X0385*
X0385Y02614*
X0385Y02615*
X0385Y02615*
X03849Y02615*
X03849Y02615*
X03848Y02616*
X03847Y02616*
X03846Y02616*
X03845Y02616*
G37*
%LNmidi_stick-3*%
%LPD*%
G54D10*
X03378Y03147D02*
D01*
D01*
G75*
G03X03374I-00001J0D01*
G74*G01*
D01*
G75*
G03X03378I00001J0D01*
G74*G01*
G54D11*
X03949Y0298D02*
D01*
D01*
G75*
G03X03925I-00011J0D01*
G74*G01*
D01*
G75*
G03X03949I00011J0D01*
G74*G01*
G54D12*
X03972Y03067D02*
D01*
D01*
G75*
G03X03962I-00004J0D01*
G74*G01*
D01*
G75*
G03X03972I00004J0D01*
G74*G01*
G54D13*
X02828Y02698D02*
Y03171D01*
X03375Y03055D02*
X0339Y0303D01*
Y02985D02*
Y0303D01*
X0424Y02685D02*
Y03185D01*
X046*
X0424Y02685D02*
X046D01*
G54D14*
X03492Y02741D02*
X03508D01*
X03492Y02778D02*
X03508D01*
X03955Y02667D02*
Y02683D01*
X03917Y02667D02*
Y02683D01*
X0375Y02667D02*
Y02683D01*
X03712Y02667D02*
Y02683D01*
X04066Y02912D02*
Y02928D01*
X04103Y02912D02*
Y02928D01*
X04006Y02912D02*
Y02928D01*
X04043Y02912D02*
Y02928D01*
X03912Y03136D02*
X03928D01*
X03912Y03173D02*
X03928D01*
X0402Y03195D02*
Y03295D01*
X0352Y03195D02*
X0402D01*
X0352Y03295D02*
X0402D01*
X0352Y03195D02*
Y03295D01*
X03377Y03186D02*
X03393D01*
X03377Y03223D02*
X03393D01*
X03396Y03102D02*
Y03118D01*
X03433Y03102D02*
Y03118D01*
X03471Y02956D02*
X03487D01*
X03471Y02993D02*
X03487D01*
X03353Y02982D02*
Y02998D01*
X03316Y02982D02*
Y02998D01*
X03278Y02982D02*
Y02998D01*
X03241Y02982D02*
Y02998D01*
X03203Y02982D02*
Y02998D01*
X03166Y02982D02*
Y02998D01*
Y02872D02*
Y02888D01*
X03203Y02872D02*
Y02888D01*
X03241Y02872D02*
Y02888D01*
X03278Y02872D02*
Y02888D01*
X03316Y02872D02*
Y02888D01*
X03353Y02872D02*
Y02888D01*
X03285Y0317D02*
Y0327D01*
X03085Y0317D02*
X03285D01*
X03085D02*
Y0327D01*
X03285*
X03563Y0283D02*
Y03019D01*
X03976Y0283D02*
Y03019D01*
X03563Y0283D02*
X03976D01*
X03563Y03019D02*
X03976D01*
G54D15*
X03476Y02717D02*
X03469Y02724D01*
X03456*
X0345Y02717*
Y02691*
X03456Y02685*
X03469*
X03476Y02691*
X03489Y02685D02*
X03502D01*
X03495*
Y02724*
X03489Y02717*
X03548Y02685D02*
X03522D01*
X03548Y02711*
Y02717*
X03541Y02724*
X03528*
X03522Y02717*
X03931Y02607D02*
X03924Y02614D01*
X03911*
X03905Y02607*
Y02581*
X03911Y02575*
X03924*
X03931Y02581*
X03944Y02614D02*
X0397D01*
Y02607*
X03944Y02581*
Y02575*
X03621Y02687D02*
X03614Y02694D01*
X03601*
X03595Y02687*
Y02661*
X03601Y02655*
X03614*
X03621Y02661*
X03634Y02655D02*
X03647D01*
X0364*
Y02694*
X03634Y02687*
X03667Y02655D02*
X0368D01*
X03673*
Y02694*
X03667Y02687*
X04071Y03006D02*
X04064Y02999D01*
Y02986*
X04071Y0298*
X04097*
X04104Y02986*
Y02999*
X04097Y03006*
Y03019D02*
X04104Y03025D01*
Y03039*
X04097Y03045*
X04071*
X04064Y03039*
Y03025*
X04071Y03019*
X04077*
X04084Y03025*
Y03045*
X04011Y03006D02*
X04004Y02999D01*
Y02986*
X04011Y0298*
X04037*
X04044Y02986*
Y02999*
X04037Y03006*
X04011Y03019D02*
X04004Y03025D01*
Y03039*
X04011Y03045*
X04017*
X04024Y03039*
X0403Y03045*
X04037*
X04044Y03039*
Y03025*
X04037Y03019*
X0403*
X04024Y03025*
X04017Y03019*
X04011*
X04024Y03025D02*
Y03039D01*
X0424Y02664D02*
Y02625D01*
X04259*
X04266Y02631*
Y02657*
X04259Y02664*
X0424*
X04279Y02625D02*
X04292D01*
X04285*
Y02664*
X04279Y02657*
X03795Y03135D02*
Y03174D01*
X03814*
X03821Y03167*
Y03154*
X03814Y03148*
X03795*
X03808D02*
X03821Y03135D01*
X03834Y03167D02*
X0384Y03174D01*
X03854*
X0386Y03167*
Y03161*
X03854Y03154*
X0386Y03148*
Y03141*
X03854Y03135*
X0384*
X03834Y03141*
Y03148*
X0384Y03154*
X03834Y03161*
Y03167*
X0384Y03154D02*
X03854D01*
X03355Y03245D02*
Y03284D01*
X03374*
X03381Y03277*
Y03264*
X03374Y03258*
X03355*
X03368D02*
X03381Y03245D01*
X0342Y03284D02*
X03394D01*
Y03264*
X03407Y03271*
X03414*
X0342Y03264*
Y03251*
X03414Y03245*
X034*
X03394Y03251*
X03492Y0308D02*
X03452D01*
Y03099*
X03459Y03106*
X03472*
X03478Y03099*
Y0308*
Y03093D02*
X03492Y03106D01*
X03452Y03145D02*
X03459Y03132D01*
X03472Y03119*
X03485*
X03492Y03125*
Y03139*
X03485Y03145*
X03478*
X03472Y03139*
Y03119*
X03375Y02905D02*
X03415D01*
Y02924*
X03408Y02931*
X03382*
X03375Y02924*
Y02905*
Y0297D02*
X03382Y02957D01*
X03395Y02944*
X03408*
X03415Y0295*
Y02964*
X03408Y0297*
X03401*
X03395Y02964*
Y02944*
X03441Y03042D02*
X03434Y03049D01*
X03421*
X03415Y03042*
Y03016*
X03421Y0301*
X03434*
X03441Y03016*
X03454Y0301D02*
X03467D01*
X0346*
Y03049*
X03454Y03042*
X03487D02*
X03493Y03049D01*
X03506*
X03513Y03042*
Y03016*
X03506Y0301*
X03493*
X03487Y03016*
Y03042*
X03326Y03045D02*
X03287D01*
Y03064*
X03293Y03071*
X03306*
X03313Y03064*
Y03045*
Y03058D02*
X03326Y03071D01*
Y0311D02*
Y03084D01*
X033Y0311*
X03293*
X03287Y03104*
Y0309*
X03293Y03084*
X03251Y03045D02*
X03212D01*
Y03064*
X03218Y03071*
X03231*
X03238Y03064*
Y03045*
Y03058D02*
X03251Y03071D01*
X03218Y03084D02*
X03212Y0309D01*
Y03104*
X03218Y0311*
X03225*
X03231Y03104*
Y03097*
Y03104*
X03238Y0311*
X03244*
X03251Y03104*
Y0309*
X03244Y03084*
X03176Y03045D02*
X03137D01*
Y03064*
X03143Y03071*
X03156*
X03163Y03064*
Y03045*
Y03058D02*
X03176Y03071D01*
Y03104D02*
X03137D01*
X03156Y03084*
Y0311*
X03164Y02759D02*
X03203D01*
Y02779*
X03196Y02785*
X0317*
X03164Y02779*
Y02759*
X03203Y02818D02*
X03164D01*
X03183Y02799*
Y02825*
X03239Y02759D02*
X03278D01*
Y02779*
X03271Y02785*
X03245*
X03239Y02779*
Y02759*
X03245Y02799D02*
X03239Y02805D01*
Y02818*
X03245Y02825*
X03252*
X03258Y02818*
Y02812*
Y02818*
X03265Y02825*
X03271*
X03278Y02818*
Y02805*
X03271Y02799*
X03314Y02759D02*
X03353D01*
Y02779*
X03346Y02785*
X0332*
X03314Y02779*
Y02759*
X03353Y02825D02*
Y02799D01*
X03327Y02825*
X0332*
X03314Y02818*
Y02805*
X0332Y02799*
X02931Y02654D02*
X02918D01*
X02924*
Y02621*
X02918Y02615*
X02911*
X02905Y02621*
X0297Y02615D02*
X02944D01*
X0297Y02641*
Y02647*
X02964Y02654*
X0295*
X02944Y02647*
M02*