%FSTAX23Y23*%
%MOIN*%
%SFA1B1*%

%IPPOS*%
%ADD9500C,0.015750*%
%ADD9501C,0.019680*%
%ADD9502C,0.023620*%
%ADD9503C,0.028000*%
%ADD9504C,0.031500*%
%ADD9505C,0.035430*%
%ADD9506C,0.039370*%
%ADD9507C,0.047240*%
%ADD9508C,0.064170*%
%ADD9509C,0.122050*%
%LNmidi_stick-roundholes-1*%
%LPD*%
G54D9500*
X0315Y02797D03*
X0357Y02758D03*
X03558Y03045D03*
X03672Y0301D03*
X0378D03*
X03935Y02975D03*
X0386Y02693D03*
X0384Y03175D03*
G54D9501*
X03129Y0307D03*
X03188D03*
X03248D03*
X03868Y03011D03*
X03986D03*
X04045D03*
X04104D03*
X04074Y0307D03*
X04015D03*
Y02834D03*
X04045Y02775D03*
X03986D03*
X04192Y02716D03*
X04251D03*
X04311D03*
X0437D03*
X04429D03*
X04547D03*
X04576Y02775D03*
Y02893D03*
Y03011D03*
Y02657D03*
X04517D03*
X0437Y02834D03*
X031Y03011D03*
X02952Y02952D03*
X02893D03*
X02923Y02893D03*
X02864D03*
Y03011D03*
X02893Y0307D03*
X02923Y02775D03*
X02864D03*
X03041Y02657D03*
Y03129D03*
X031D03*
X0307Y03188D03*
X03041Y03248D03*
X02982D03*
X02923D03*
X02864D03*
X03188Y03188D03*
X03218Y03129D03*
X03277D03*
X03159D03*
X03336Y03248D03*
X03395D03*
X03454D03*
X03484Y03188D03*
X03572Y03129D03*
X03986D03*
X04045D03*
X04104D03*
X04163D03*
X04222D03*
X04281D03*
X04251Y03188D03*
X04311D03*
X0437D03*
X04429D03*
X04488D03*
X04547D03*
X04576Y03248D03*
X04517D03*
X04458D03*
X04399D03*
X0434D03*
X04281D03*
X04222D03*
X04163D03*
X04104D03*
X04045D03*
X04074Y03188D03*
X04133D03*
X04192D03*
X04458Y03129D03*
X04517D03*
X04576D03*
G54D9502*
X04325Y02885D03*
X04425D03*
Y02985D03*
X04325D03*
G54D9503*
X0377Y0323D03*
G54D9504*
X04325Y02785D03*
X04425D03*
Y03085D03*
X04325D03*
G54D9505*
X03135Y0322D03*
X03235D03*
G54D9506*
X03021Y02797D03*
Y02895D03*
Y02974D03*
Y03072D03*
G54D9507*
X02939Y02844D03*
Y03025D03*
G54D9508*
X04525Y02835D03*
Y03035D03*
G54D9509*
X04225Y02935D03*
M02*