%FSTAX23Y23*%
%MOIN*%
%SFA1B1*%

%IPPOS*%
%ADD13C,0.011810*%
%ADD15C,0.010000*%
%ADD16R,0.027560X0.037400*%
%ADD17R,0.037400X0.027560*%
%ADD18C,0.078740*%
%ADD19R,0.019680X0.023620*%
%ADD20O,0.015750X0.064960*%
%ADD37C,0.019680*%
%ADD38C,0.049210*%
%ADD39C,0.060000*%
%ADD40C,0.062990*%
%ADD41O,0.078740X0.068900*%
%ADD42O,0.078740X0.059060*%
%ADD43O,0.157480X0.078740*%
%ADD44R,0.059060X0.059060*%
%ADD45C,0.059060*%
%ADD46C,0.027560*%
%ADD47C,0.050000*%
%LNmidi_stick-1*%
%LPD*%
G36*
X04601Y03262D02*
X04596Y03261D01*
X04593Y03265*
X04586Y0327*
X04581Y03271*
Y03248*
Y03224*
X04586Y03225*
X04593Y0323*
X04596Y03234*
X04601Y03233*
Y03144*
X04596Y03142*
X04593Y03147*
X04586Y03152*
X04581Y03153*
Y03129*
Y03106*
X04586Y03107*
X04593Y03112*
X04596Y03116*
X04601Y03115*
Y03026*
X04596Y03024*
X04593Y03028*
X04586Y03034*
X04581Y03035*
Y03011*
Y02988*
X04586Y02989*
X04593Y02994*
X04596Y02998*
X04601Y02997*
Y02908*
X04596Y02906*
X04593Y0291*
X04586Y02916*
X04581Y02916*
Y02893*
Y0287*
X04586Y02871*
X04593Y02876*
X04596Y0288*
X04601Y02879*
Y0279*
X04596Y02788*
X04593Y02792*
X04586Y02797*
X04581Y02798*
Y02775*
Y02752*
X04586Y02753*
X04593Y02758*
X04596Y02762*
X04601Y02761*
Y02672*
X04596Y0267*
X04593Y02674*
X04586Y02679*
X04581Y0268*
Y02657*
Y02634*
X04586Y02635*
X04593Y0264*
X04596Y02644*
X04601Y02642*
Y0259*
X03766*
X03766Y02595*
X0377Y02595*
X03775Y02599*
X038Y02624*
X03804Y02629*
X03805Y02635*
Y0273*
X03804Y02735*
X03805Y02737*
X03807Y02739*
X03808Y02739*
X03815Y0274*
X03821Y02744*
X03827Y0274*
X03833Y02739*
X0384Y0274*
X03846Y02744*
X03852Y0274*
X03859Y02739*
X03864Y0274*
X03869Y02737*
Y02725*
X03862Y02717*
X0386Y02717*
X0385Y02716*
X03842Y0271*
X03837Y02702*
X03835Y02693*
X03837Y02684*
X03842Y02676*
X0385Y02671*
X0386Y02669*
X03869Y02671*
X03877Y02676*
X03882Y02684*
X03884Y02693*
X03883Y02695*
X03895Y02708*
X03899Y02713*
X039Y02718*
Y02737*
X03905Y0274*
X03905Y0274*
Y02782*
Y02824*
X03903Y02823*
X03897Y02819*
X03892Y02823*
X03885Y02825*
X03878Y02823*
X03872Y02819*
X03866Y02823*
X03859Y02825*
X03852Y02823*
X03846Y02819*
X0384Y02823*
X03833Y02825*
X03832Y02824*
X03828Y02827*
Y02849*
X03834Y02854*
X03916*
Y02827*
X03915Y02827*
Y02782*
Y02736*
X03916Y02736*
Y02724*
X03907*
Y02678*
Y02676*
Y02673*
Y02671*
Y02654*
X03936*
X03965*
Y02671*
Y02673*
Y02676*
Y02678*
Y02724*
X03956*
Y02782*
Y02854*
X03994*
X03997Y02849*
X03993Y02843*
X03992Y02839*
X04039*
X04038Y02843*
X04032Y02851*
X04025Y02857*
X04023Y02857*
X04021Y02862*
X04029Y0287*
X04053*
X04056*
X04113*
Y02916*
Y02918*
Y02921*
Y02923*
Y0294*
X04085*
Y02945*
X0408*
Y02969*
X04058*
X04055*
X04051*
X0403*
Y02945*
X04025*
Y0294*
X03996*
Y02923*
Y02921*
Y02918*
Y02916*
Y02895*
X03956*
Y02964*
X03957Y02965*
X03959Y02975*
X03957Y02984*
X03952Y02992*
X03944Y02997*
X03935Y02999*
X03925Y02997*
X03922Y02995*
X0389*
X03888Y02999*
X0389Y03002*
X03891Y03006*
X03868*
Y03016*
X03891*
X0389Y0302*
X0389Y03022*
X03892Y03026*
X03892Y03026*
X03897Y0303*
X03903Y03026*
X0391Y03024*
X03917Y03026*
X03923Y0303*
X03929Y03026*
X03936Y03024*
X03943Y03026*
X03949Y0303*
X03953Y03036*
X03954Y03043*
Y03092*
X03953Y03099*
X03951Y03101*
Y03105*
X03956Y03109*
X03959Y03114*
X0396Y03116*
X03966*
X03969Y03112*
X03976Y03107*
X03981Y03106*
Y03129*
Y03153*
X03976Y03152*
X03974Y0315*
X03969Y03152*
X03969Y03157*
X0398Y03168*
X03984Y03173*
X03985Y03179*
Y03182*
X03994Y03186*
X04005Y03194*
X04013Y03205*
X04018Y03217*
X04019Y0323*
X04019Y03235*
X04023Y03237*
X04028Y0323*
X04036Y03225*
X0404Y03224*
Y03248*
Y03271*
X04036Y0327*
X04028Y03265*
X04022Y03257*
X04022Y03253*
X04016Y03249*
X04015Y03249*
X04013Y03254*
X04005Y03265*
X03994Y03273*
X0399Y03275*
X03991Y0328*
X04601*
Y03262*
G37*
G36*
X03549Y03275D02*
X03545Y03273D01*
X03534Y03265*
X03526Y03254*
X03521Y03242*
X0352Y0323*
X03521Y03217*
X03526Y03205*
X03534Y03194*
X03545Y03186*
X03555Y03182*
X03555Y03179*
X03559Y03174*
X03574Y03158*
X03572Y03154*
X03563Y03152*
X03555Y03147*
X0355Y03139*
X03549Y03136*
X03545Y03135*
X03533Y03146*
X03528Y03149*
X03522Y0315*
X03443*
Y03159*
X03425*
Y03176*
X03434*
Y03227*
X03439Y03229*
X03445Y03225*
X03449Y03224*
Y03243*
X03431*
X03432Y03238*
X03432Y03238*
X03429Y03233*
X0342*
X03417Y03238*
X03418Y03238*
X03418Y03243*
X03372*
X03373Y03238*
X03373Y03238*
X03371Y03233*
X0336*
X03358Y03238*
X03359Y03238*
X03359Y03243*
X03313*
X03314Y03238*
X03319Y0323*
X03327Y03225*
X03329Y03225*
X03328Y0322*
X03274*
X03273Y0323*
X03269Y03239*
X03263Y03248*
X03254Y03254*
X03245Y03258*
X03235Y03259*
X03224Y03258*
X03215Y03254*
X03206Y03248*
X032Y03239*
X03196Y0323*
X03195Y0322*
X03195Y03216*
X03193Y03214*
Y03188*
Y03165*
X03198Y03166*
X03206Y03171*
X03211Y03179*
X03211Y03182*
X03217Y03184*
X03224Y03181*
X03235Y0318*
X03245Y03181*
X03254Y03185*
X0326Y03189*
X03335*
Y03176*
X03383*
X03386*
X03388*
X03395*
Y03159*
X03386*
Y0315*
X03374*
Y03161*
X03335*
Y03117*
X03374*
Y0312*
X03386*
Y03111*
Y03108*
Y0306*
X03443*
Y03064*
X0351*
X03535Y03039*
X03536Y03035*
X03538Y03032*
Y02995*
X03528*
Y03003*
X03482*
X03481*
X03477*
X03476*
X03458*
Y02975*
Y02946*
X03476*
X03477*
X03481*
X03482*
X03528*
Y02954*
X03916*
Y02895*
X03826*
X03818Y02893*
X03811Y02889*
X03794Y02871*
X03789Y02865*
X03788Y02857*
Y02827*
X03784Y02824*
X03782Y02825*
X03775Y02823*
X0377Y02819*
X03764Y02823*
X03757Y02825*
X0375Y02823*
X03744Y02819*
X03738Y02823*
X03731Y02825*
X03724Y02823*
X03718Y02819*
X03713Y02823*
X03711Y02824*
Y02782*
X03701*
Y02824*
X03699Y02823*
X03693Y02819*
X03687Y02823*
X0368Y02825*
X03673Y02823*
X03667Y02819*
X03661Y02823*
X03654Y02825*
X03647Y02823*
X03642Y02819*
X03636Y02823*
X03629Y02825*
X03622Y02823*
X03616Y02819*
X0361Y02823*
X03603Y02825*
X03596Y02823*
X0359Y02819*
X03586Y02813*
X03585Y02806*
Y02782*
X03581Y02779*
X03579Y02781*
X0357Y02782*
X0356Y02781*
X03554Y02776*
X03549Y02778*
X03549Y02779*
Y02788*
X03503*
X03501*
X03498*
X03496*
X03479*
Y0276*
X03474*
Y02755*
X0345*
Y02731*
X03446Y0273*
X03361*
X0335Y02741*
Y02831*
X03363*
Y02877*
Y02878*
Y02882*
Y02883*
Y02929*
X0335*
Y02941*
X03363*
Y02987*
Y02988*
Y02992*
Y02993*
Y03039*
X03306*
Y03031*
X03288*
Y03039*
X03231*
Y03031*
X03213*
Y03039*
X03156*
Y03031*
X0315Y0303*
X03145Y03026*
X03134Y03015*
X0313Y0301*
X03129Y03004*
Y02962*
X03125Y0296*
X03103Y02982*
X03104Y02988*
X03109Y02989*
X03117Y02994*
X03122Y03002*
X03123Y03006*
X03077*
X03077Y03002*
X03083Y02994*
Y02994*
X03081Y02989*
X03068*
X03066Y02994*
X03059Y03002*
X03051Y03008*
X03042Y03012*
X03031Y03014*
X03012*
X03001Y03012*
X02992Y03008*
X02983Y03002*
X02977Y02994*
X02973Y02984*
X02972Y02974*
X02967Y02971*
X02962Y02975*
X02957Y02976*
Y02952*
Y02929*
X02962Y0293*
X02969Y02935*
X02975Y02943*
X02976Y02948*
X02981Y02949*
X02983Y02946*
X02992Y02939*
X02997Y02937*
Y02932*
X02992Y0293*
X02983Y02923*
X02977Y02915*
X02973Y02905*
X02972Y02895*
X02973Y02885*
X02977Y02875*
X02983Y02867*
X02992Y02861*
X03001Y02857*
X03012Y02855*
X03031*
X03042Y02857*
X03051Y02861*
X03059Y02867*
X03066Y02875*
X03068Y0288*
X03073*
X03084Y02868*
Y0264*
X03085Y02634*
X03089Y02629*
X03119Y02599*
X03124Y02595*
X03128Y02595*
X03128Y0259*
X0283*
Y0328*
X03548*
X03549Y03275*
G37*
G36*
X03804Y03114D02*
X03802Y03109D01*
X03801Y03109*
X03795Y03105*
X03789Y03109*
X03782Y0311*
X03775Y03109*
X0377Y03105*
X03764Y03109*
X03762Y03109*
Y03067*
X03752*
Y03109*
X0375Y03109*
X03744Y03105*
X03738Y03109*
X03731Y0311*
X03724Y03109*
X03718Y03105*
X03713Y03109*
X03706Y0311*
X03699Y03109*
X03693Y03105*
X03687Y03109*
X0368Y0311*
X03673Y03109*
X03667Y03105*
X03661Y03109*
X03654Y0311*
X03647Y03109*
X03642Y03105*
X03636Y03109*
X03629Y0311*
X03622Y03109*
X03616Y03105*
X0361Y03109*
X03603Y0311*
X03596Y03109*
X0359Y03105*
X03587Y03099*
X03582Y03097*
X03577Y03102*
X03579Y03106*
X03582Y03107*
X03589Y03112*
X03595Y0312*
X03596Y03124*
X03572*
Y03134*
X03596*
X03595Y03135*
X03599Y03139*
X036Y03139*
X03778*
X03804Y03114*
G37*
G36*
X03169Y02775D02*
Y02685D01*
X0317Y02679*
X03174Y02674*
X03194Y02654*
X03199Y0265*
X03202Y0265*
X03201Y02645*
X03146*
X03135Y02656*
Y02773*
X03139Y02775*
X0314Y02774*
X0315Y02772*
X03159Y02774*
X03164Y02778*
X03169Y02775*
G37*
G36*
X03306Y02993D02*
Y02992D01*
Y02988*
Y02987*
Y02941*
X03319*
Y02929*
X03306*
Y02883*
Y02882*
Y02878*
Y02877*
Y02831*
X03319*
Y02735*
X0332Y02729*
X03324Y02724*
X03338Y02709*
X03336Y02705*
X03296*
X03275Y02726*
Y02831*
X03288*
Y02877*
Y02878*
Y02882*
Y02883*
Y02929*
X03275*
Y02941*
X03288*
Y02987*
Y02988*
Y02992*
Y02993*
Y03*
X03306*
Y02993*
G37*
G36*
X03231D02*
Y02992D01*
Y02988*
Y02987*
Y02941*
X03244*
Y02929*
X03231*
Y02883*
Y02882*
Y02878*
Y02877*
Y02831*
X03244*
Y0272*
X03245Y02714*
X03249Y02709*
X03273Y02684*
X03271Y0268*
X03211*
X032Y02691*
Y02831*
X03213*
Y02878*
Y02882*
Y02929*
X032*
Y02941*
X03213*
Y02988*
Y02992*
Y03*
X03231*
Y02993*
G37*
%LNmidi_stick-2*%
%LPC*%
G36*
X04571Y03271D02*
X04567Y0327D01*
X04559Y03265*
X04554Y03257*
X04553Y03253*
X04571*
Y03271*
G37*
G36*
X04522D02*
Y03253D01*
X0454*
X0454Y03257*
X04534Y03265*
X04526Y0327*
X04522Y03271*
G37*
G36*
X04512D02*
X04508Y0327D01*
X045Y03265*
X04495Y03257*
X04494Y03253*
X04512*
Y03271*
G37*
G36*
X04463D02*
Y03253D01*
X04481*
X04481Y03257*
X04475Y03265*
X04467Y0327*
X04463Y03271*
G37*
G36*
X04453D02*
X04449Y0327D01*
X04441Y03265*
X04436Y03257*
X04435Y03253*
X04453*
Y03271*
G37*
G36*
X04404D02*
Y03253D01*
X04422*
X04422Y03257*
X04416Y03265*
X04408Y0327*
X04404Y03271*
G37*
G36*
X04394D02*
X0439Y0327D01*
X04382Y03265*
X04377Y03257*
X04376Y03253*
X04394*
Y03271*
G37*
G36*
X04345D02*
Y03253D01*
X04363*
X04362Y03257*
X04357Y03265*
X04349Y0327*
X04345Y03271*
G37*
G36*
X04335D02*
X04331Y0327D01*
X04323Y03265*
X04318Y03257*
X04317Y03253*
X04335*
Y03271*
G37*
G36*
X04286D02*
Y03253D01*
X04304*
X04303Y03257*
X04298Y03265*
X0429Y0327*
X04286Y03271*
G37*
G36*
X04276D02*
X04272Y0327D01*
X04264Y03265*
X04259Y03257*
X04258Y03253*
X04276*
Y03271*
G37*
G36*
X04227D02*
Y03253D01*
X04245*
X04244Y03257*
X04239Y03265*
X04231Y0327*
X04227Y03271*
G37*
G36*
X04217D02*
X04213Y0327D01*
X04205Y03265*
X042Y03257*
X04199Y03253*
X04217*
Y03271*
G37*
G36*
X04168D02*
Y03253D01*
X04186*
X04185Y03257*
X0418Y03265*
X04172Y0327*
X04168Y03271*
G37*
G36*
X04158D02*
X04154Y0327D01*
X04146Y03265*
X0414Y03257*
X0414Y03253*
X04158*
Y03271*
G37*
G36*
X04109D02*
Y03253D01*
X04127*
X04126Y03257*
X04121Y03265*
X04113Y0327*
X04109Y03271*
G37*
G36*
X04099D02*
X04095Y0327D01*
X04087Y03265*
X04081Y03257*
X04081Y03253*
X04099*
Y03271*
G37*
G36*
X0405D02*
Y03253D01*
X04068*
X04067Y03257*
X04062Y03265*
X04054Y0327*
X0405Y03271*
G37*
G36*
X04571Y03243D02*
X04553D01*
X04554Y03238*
X04559Y0323*
X04567Y03225*
X04571Y03224*
Y03243*
G37*
G36*
X0454D02*
X04522D01*
Y03224*
X04526Y03225*
X04534Y0323*
X0454Y03238*
X0454Y03243*
G37*
G36*
X04512D02*
X04494D01*
X04495Y03238*
X045Y0323*
X04508Y03225*
X04512Y03224*
Y03243*
G37*
G36*
X04481D02*
X04463D01*
Y03224*
X04467Y03225*
X04475Y0323*
X04481Y03238*
X04481Y03243*
G37*
G36*
X04453D02*
X04435D01*
X04436Y03238*
X04441Y0323*
X04449Y03225*
X04453Y03224*
Y03243*
G37*
G36*
X04422D02*
X04404D01*
Y03224*
X04408Y03225*
X04416Y0323*
X04422Y03238*
X04422Y03243*
G37*
G36*
X04394D02*
X04376D01*
X04377Y03238*
X04382Y0323*
X0439Y03225*
X04394Y03224*
Y03243*
G37*
G36*
X04363D02*
X04345D01*
Y03224*
X04349Y03225*
X04357Y0323*
X04362Y03238*
X04363Y03243*
G37*
G36*
X04335D02*
X04317D01*
X04318Y03238*
X04323Y0323*
X04331Y03225*
X04335Y03224*
Y03243*
G37*
G36*
X04304D02*
X04286D01*
Y03224*
X0429Y03225*
X04298Y0323*
X04303Y03238*
X04304Y03243*
G37*
G36*
X04276D02*
X04258D01*
X04259Y03238*
X04264Y0323*
X04272Y03225*
X04276Y03224*
Y03243*
G37*
G36*
X04245D02*
X04227D01*
Y03224*
X04231Y03225*
X04239Y0323*
X04244Y03238*
X04245Y03243*
G37*
G36*
X04217D02*
X04199D01*
X042Y03238*
X04205Y0323*
X04213Y03225*
X04217Y03224*
Y03243*
G37*
G36*
X04186D02*
X04168D01*
Y03224*
X04172Y03225*
X0418Y0323*
X04185Y03238*
X04186Y03243*
G37*
G36*
X04158D02*
X0414D01*
X0414Y03238*
X04146Y0323*
X04154Y03225*
X04158Y03224*
Y03243*
G37*
G36*
X04127D02*
X04109D01*
Y03224*
X04113Y03225*
X04121Y0323*
X04126Y03238*
X04127Y03243*
G37*
G36*
X04099D02*
X04081D01*
X04081Y03238*
X04087Y0323*
X04095Y03225*
X04099Y03224*
Y03243*
G37*
G36*
X04068D02*
X0405D01*
Y03224*
X04054Y03225*
X04062Y0323*
X04067Y03238*
X04068Y03243*
G37*
G36*
X04552Y03212D02*
Y03193D01*
X0457*
X04569Y03198*
X04564Y03206*
X04556Y03211*
X04552Y03212*
G37*
G36*
X04542D02*
X04537Y03211D01*
X0453Y03206*
X04524Y03198*
X04523Y03193*
X04542*
Y03212*
G37*
G36*
X04493D02*
Y03193D01*
X04511*
X0451Y03198*
X04505Y03206*
X04497Y03211*
X04493Y03212*
G37*
G36*
X04483D02*
X04478Y03211D01*
X04471Y03206*
X04465Y03198*
X04464Y03193*
X04483*
Y03212*
G37*
G36*
X04434D02*
Y03193D01*
X04452*
X04451Y03198*
X04446Y03206*
X04438Y03211*
X04434Y03212*
G37*
G36*
X04424D02*
X04419Y03211D01*
X04411Y03206*
X04406Y03198*
X04405Y03193*
X04424*
Y03212*
G37*
G36*
X04375D02*
Y03193D01*
X04393*
X04392Y03198*
X04387Y03206*
X04379Y03211*
X04375Y03212*
G37*
G36*
X04365D02*
X0436Y03211D01*
X04352Y03206*
X04347Y03198*
X04346Y03193*
X04365*
Y03212*
G37*
G36*
X04316D02*
Y03193D01*
X04334*
X04333Y03198*
X04328Y03206*
X0432Y03211*
X04316Y03212*
G37*
G36*
X04306D02*
X04301Y03211D01*
X04293Y03206*
X04288Y03198*
X04287Y03193*
X04306*
Y03212*
G37*
G36*
X04256D02*
Y03193D01*
X04275*
X04274Y03198*
X04269Y03206*
X04261Y03211*
X04256Y03212*
G37*
G36*
X04246D02*
X04242Y03211D01*
X04234Y03206*
X04229Y03198*
X04228Y03193*
X04246*
Y03212*
G37*
G36*
X04197D02*
Y03193D01*
X04216*
X04215Y03198*
X0421Y03206*
X04202Y03211*
X04197Y03212*
G37*
G36*
X04187D02*
X04183Y03211D01*
X04175Y03206*
X0417Y03198*
X04169Y03193*
X04187*
Y03212*
G37*
G36*
X04138D02*
Y03193D01*
X04157*
X04156Y03198*
X04151Y03206*
X04143Y03211*
X04138Y03212*
G37*
G36*
X04128D02*
X04124Y03211D01*
X04116Y03206*
X04111Y03198*
X0411Y03193*
X04128*
Y03212*
G37*
G36*
X04079D02*
Y03193D01*
X04098*
X04097Y03198*
X04091Y03206*
X04084Y03211*
X04079Y03212*
G37*
G36*
X04069D02*
X04065Y03211D01*
X04057Y03206*
X04052Y03198*
X04051Y03193*
X04069*
Y03212*
G37*
G36*
X0457Y03183D02*
X04552D01*
Y03165*
X04556Y03166*
X04564Y03171*
X04569Y03179*
X0457Y03183*
G37*
G36*
X04542D02*
X04523D01*
X04524Y03179*
X0453Y03171*
X04537Y03166*
X04542Y03165*
Y03183*
G37*
G36*
X04511D02*
X04493D01*
Y03165*
X04497Y03166*
X04505Y03171*
X0451Y03179*
X04511Y03183*
G37*
G36*
X04483D02*
X04464D01*
X04465Y03179*
X04471Y03171*
X04478Y03166*
X04483Y03165*
Y03183*
G37*
G36*
X04452D02*
X04434D01*
Y03165*
X04438Y03166*
X04446Y03171*
X04451Y03179*
X04452Y03183*
G37*
G36*
X04424D02*
X04405D01*
X04406Y03179*
X04411Y03171*
X04419Y03166*
X04424Y03165*
Y03183*
G37*
G36*
X04393D02*
X04375D01*
Y03165*
X04379Y03166*
X04387Y03171*
X04392Y03179*
X04393Y03183*
G37*
G36*
X04365D02*
X04346D01*
X04347Y03179*
X04352Y03171*
X0436Y03166*
X04365Y03165*
Y03183*
G37*
G36*
X04334D02*
X04316D01*
Y03165*
X0432Y03166*
X04328Y03171*
X04333Y03179*
X04334Y03183*
G37*
G36*
X04306D02*
X04287D01*
X04288Y03179*
X04293Y03171*
X04301Y03166*
X04306Y03165*
Y03183*
G37*
G36*
X04275D02*
X04256D01*
Y03165*
X04261Y03166*
X04269Y03171*
X04274Y03179*
X04275Y03183*
G37*
G36*
X04246D02*
X04228D01*
X04229Y03179*
X04234Y03171*
X04242Y03166*
X04246Y03165*
Y03183*
G37*
G36*
X04216D02*
X04197D01*
Y03165*
X04202Y03166*
X0421Y03171*
X04215Y03179*
X04216Y03183*
G37*
G36*
X04187D02*
X04169D01*
X0417Y03179*
X04175Y03171*
X04183Y03166*
X04187Y03165*
Y03183*
G37*
G36*
X04157D02*
X04138D01*
Y03165*
X04143Y03166*
X04151Y03171*
X04156Y03179*
X04157Y03183*
G37*
G36*
X04128D02*
X0411D01*
X04111Y03179*
X04116Y03171*
X04124Y03166*
X04128Y03165*
Y03183*
G37*
G36*
X04098D02*
X04079D01*
Y03165*
X04084Y03166*
X04091Y03171*
X04097Y03179*
X04098Y03183*
G37*
G36*
X04069D02*
X04051D01*
X04052Y03179*
X04057Y03171*
X04065Y03166*
X04069Y03165*
Y03183*
G37*
G36*
X04571Y03153D02*
X04567Y03152D01*
X04559Y03147*
X04554Y03139*
X04553Y03134*
X04571*
Y03153*
G37*
G36*
X04522D02*
Y03134D01*
X0454*
X0454Y03139*
X04534Y03147*
X04526Y03152*
X04522Y03153*
G37*
G36*
X04512D02*
X04508Y03152D01*
X045Y03147*
X04495Y03139*
X04494Y03134*
X04512*
Y03153*
G37*
G36*
X04463D02*
Y03134D01*
X04481*
X04481Y03139*
X04475Y03147*
X04467Y03152*
X04463Y03153*
G37*
G36*
X04286D02*
Y03134D01*
X04304*
X04303Y03139*
X04298Y03147*
X0429Y03152*
X04286Y03153*
G37*
G36*
X04276D02*
X04272Y03152D01*
X04264Y03147*
X04259Y03139*
X04258Y03134*
X04276*
Y03153*
G37*
G36*
X04227D02*
Y03134D01*
X04245*
X04244Y03139*
X04239Y03147*
X04231Y03152*
X04227Y03153*
G37*
G36*
X04217D02*
X04213Y03152D01*
X04205Y03147*
X042Y03139*
X04199Y03134*
X04217*
Y03153*
G37*
G36*
X04168D02*
Y03134D01*
X04186*
X04185Y03139*
X0418Y03147*
X04172Y03152*
X04168Y03153*
G37*
G36*
X04158D02*
X04154Y03152D01*
X04146Y03147*
X0414Y03139*
X0414Y03134*
X04158*
Y03153*
G37*
G36*
X04109D02*
Y03134D01*
X04127*
X04126Y03139*
X04121Y03147*
X04113Y03152*
X04109Y03153*
G37*
G36*
X04099D02*
X04095Y03152D01*
X04087Y03147*
X04081Y03139*
X04081Y03134*
X04099*
Y03153*
G37*
G36*
X0405D02*
Y03134D01*
X04068*
X04067Y03139*
X04062Y03147*
X04054Y03152*
X0405Y03153*
G37*
G36*
X0404D02*
X04036Y03152D01*
X04028Y03147*
X04022Y03139*
X04022Y03134*
X0404*
Y03153*
G37*
G36*
X03991D02*
Y03134D01*
X04009*
X04008Y03139*
X04003Y03147*
X03995Y03152*
X03991Y03153*
G37*
G36*
X04453D02*
X04449Y03152D01*
X04441Y03147*
X04436Y03139*
X04434Y03129*
X04434Y03129*
X04431Y03126*
X04425Y03126*
X04414Y03125*
X04404Y03121*
X04395Y03114*
X04388Y03105*
X04384Y03095*
X04383Y03085*
X04384Y03074*
X04388Y03064*
X04395Y03055*
X04404Y03048*
X04414Y03044*
X04425Y03043*
X04435Y03044*
X04445Y03048*
X04454Y03055*
X04461Y03064*
X04465Y03074*
X04466Y03085*
X04465Y03095*
X04463Y03101*
X04466Y03107*
X04467Y03107*
X04475Y03112*
X04481Y0312*
X04481Y03124*
X04458*
Y03129*
X04453*
Y03153*
G37*
G36*
X04325Y03126D02*
X04314Y03125D01*
X04309Y03123*
X04307Y03124*
X04286*
Y03102*
X04286Y03101*
X04284Y03095*
X04283Y03085*
X04284Y03074*
X04288Y03064*
X04295Y03055*
X04295Y03054*
X04294Y0305*
X04287*
X04284Y03052*
X04275Y03054*
X04265Y03052*
X04257Y03047*
X04252Y03039*
X0425Y0303*
X04252Y0302*
X04257Y03012*
X04265Y03007*
X04275Y03005*
X04284Y03007*
X04287Y03009*
X04294*
X04296Y03004*
X04294Y03002*
X04291Y02994*
X0429Y02985*
X04291Y02975*
X04294Y02967*
X043Y0296*
X04307Y02954*
X04315Y02951*
X04325Y0295*
X04334Y02951*
X04342Y02954*
X04344Y02956*
X04349Y02954*
Y0294*
X04351Y02932*
X04355Y02925*
X0439Y0289*
X0439Y02885*
X04391Y02875*
X04394Y02867*
X044Y0286*
X04407Y02854*
X04415Y02851*
X04425Y0285*
X04434Y02851*
X04442Y02854*
X04449Y0286*
X04455Y02867*
X04458Y02875*
X04459Y02885*
X04458Y02894*
X04455Y02902*
X04449Y02909*
X04442Y02915*
X04434Y02918*
X04425Y02919*
X04419Y02919*
X0439Y02948*
Y02965*
X04393Y02966*
X04395Y02966*
X044Y0296*
X04407Y02954*
X04415Y02951*
X04425Y0295*
X04434Y02951*
X04442Y02954*
X04449Y0296*
X04455Y02967*
X04458Y02975*
X04459Y02985*
X04458Y02994*
X04455Y03002*
X04449Y03009*
X04442Y03015*
X04434Y03018*
X04425Y03019*
X04415Y03018*
X04407Y03015*
X044Y03009*
X04395Y03003*
X04393Y03003*
X0439Y03004*
Y03015*
X04388Y03022*
X04384Y03029*
X04369Y03044*
X04362Y03048*
X04355Y0305*
X04353Y03054*
X04354Y03055*
X04361Y03064*
X04365Y03074*
X04366Y03085*
X04365Y03095*
X04361Y03105*
X04354Y03114*
X04345Y03121*
X04335Y03125*
X04325Y03126*
G37*
G36*
X04571Y03124D02*
X04553D01*
X04554Y0312*
X04559Y03112*
X04567Y03107*
X04571Y03106*
Y03124*
G37*
G36*
X0454D02*
X04522D01*
Y03106*
X04526Y03107*
X04534Y03112*
X0454Y0312*
X0454Y03124*
G37*
G36*
X04512D02*
X04494D01*
X04495Y0312*
X045Y03112*
X04508Y03107*
X04512Y03106*
Y03124*
G37*
G36*
X04276D02*
X04258D01*
X04259Y0312*
X04264Y03112*
X04272Y03107*
X04276Y03106*
Y03124*
G37*
G36*
X04245D02*
X04227D01*
Y03106*
X04231Y03107*
X04239Y03112*
X04244Y0312*
X04245Y03124*
G37*
G36*
X04217D02*
X04199D01*
X042Y0312*
X04205Y03112*
X04213Y03107*
X04217Y03106*
Y03124*
G37*
G36*
X04186D02*
X04168D01*
Y03106*
X04172Y03107*
X0418Y03112*
X04185Y0312*
X04186Y03124*
G37*
G36*
X04158D02*
X0414D01*
X0414Y0312*
X04146Y03112*
X04154Y03107*
X04158Y03106*
Y03124*
G37*
G36*
X04127D02*
X04109D01*
Y03106*
X04113Y03107*
X04121Y03112*
X04126Y0312*
X04127Y03124*
G37*
G36*
X04099D02*
X04081D01*
X04081Y0312*
X04087Y03112*
X04095Y03107*
X04099Y03106*
Y03124*
G37*
G36*
X04068D02*
X0405D01*
Y03106*
X04054Y03107*
X04062Y03112*
X04067Y0312*
X04068Y03124*
G37*
G36*
X0404D02*
X04022D01*
X04022Y0312*
X04028Y03112*
X04036Y03107*
X0404Y03106*
Y03124*
G37*
G36*
X04009D02*
X03991D01*
Y03106*
X03995Y03107*
X04003Y03112*
X04008Y0312*
X04009Y03124*
G37*
G36*
X04079Y03094D02*
Y03075D01*
X04098*
X04097Y0308*
X04091Y03088*
X04084Y03093*
X04079Y03094*
G37*
G36*
X04069D02*
X04065Y03093D01*
X04057Y03088*
X04052Y0308*
X04051Y03075*
X04069*
Y03094*
G37*
G36*
X0402D02*
Y03075D01*
X04039*
X04038Y0308*
X04032Y03088*
X04025Y03093*
X0402Y03094*
G37*
G36*
X0401D02*
X04006Y03093D01*
X03998Y03088*
X03993Y0308*
X03992Y03075*
X0401*
Y03094*
G37*
G36*
X04098Y03065D02*
X04079D01*
Y03047*
X04084Y03048*
X04091Y03053*
X04097Y03061*
X04098Y03065*
G37*
G36*
X04069D02*
X04051D01*
X04052Y03061*
X04057Y03053*
X04065Y03048*
X04069Y03047*
Y03065*
G37*
G36*
X04039D02*
X0402D01*
Y03047*
X04025Y03048*
X04032Y03053*
X04038Y03061*
X04039Y03065*
G37*
G36*
X0401D02*
X03992D01*
X03993Y03061*
X03998Y03053*
X04006Y03048*
X0401Y03047*
Y03065*
G37*
G36*
X04109Y03035D02*
Y03016D01*
X04127*
X04126Y03021*
X04121Y03028*
X04113Y03034*
X04109Y03035*
G37*
G36*
X04099D02*
X04095Y03034D01*
X04087Y03028*
X04081Y03021*
X04081Y03016*
X04099*
Y03035*
G37*
G36*
X0405D02*
Y03016D01*
X04068*
X04067Y03021*
X04062Y03028*
X04054Y03034*
X0405Y03035*
G37*
G36*
X0404D02*
X04036Y03034D01*
X04028Y03028*
X04022Y03021*
X04022Y03016*
X0404*
Y03035*
G37*
G36*
X03991D02*
Y03016D01*
X04009*
X04008Y03021*
X04003Y03028*
X03995Y03034*
X03991Y03035*
G37*
G36*
X03981D02*
X03976Y03034D01*
X03969Y03028*
X03963Y03021*
X03962Y03016*
X03981*
Y03035*
G37*
G36*
X04525Y03077D02*
X04514Y03076D01*
X04503Y03071*
X04494Y03065*
X04488Y03056*
X04484Y03045*
X04482Y03035*
X04484Y03024*
X04488Y03013*
X04494Y03004*
X04503Y02998*
X04514Y02994*
X04525Y02992*
X04535Y02994*
X04546Y02998*
X04549Y03001*
X04556Y02999*
X04559Y02994*
X04567Y02989*
X04571Y02988*
Y03011*
Y03035*
X04566Y03039*
X04566Y03045*
X04561Y03056*
X04555Y03065*
X04546Y03071*
X04535Y03076*
X04525Y03077*
G37*
G36*
X04127Y03006D02*
X04109D01*
Y02988*
X04113Y02989*
X04121Y02994*
X04126Y03002*
X04127Y03006*
G37*
G36*
X04099D02*
X04081D01*
X04081Y03002*
X04087Y02994*
X04095Y02989*
X04099Y02988*
Y03006*
G37*
G36*
X04068D02*
X0405D01*
Y02988*
X04054Y02989*
X04062Y02994*
X04067Y03002*
X04068Y03006*
G37*
G36*
X0404D02*
X04022D01*
X04022Y03002*
X04028Y02994*
X04036Y02989*
X0404Y02988*
Y03006*
G37*
G36*
X04009D02*
X03991D01*
Y02988*
X03995Y02989*
X04003Y02994*
X04008Y03002*
X04009Y03006*
G37*
G36*
X03981D02*
X03962D01*
X03963Y03002*
X03969Y02994*
X03976Y02989*
X03981Y02988*
Y03006*
G37*
G36*
X0409Y02969D02*
Y0295D01*
X04113*
Y02969*
X0409*
G37*
G36*
X0402D02*
X03996D01*
Y0295*
X0402*
Y02969*
G37*
G36*
X04571Y02916D02*
X04567Y02916D01*
X04559Y0291*
X04554Y02902*
X04553Y02898*
X04571*
Y02916*
G37*
G36*
Y02888D02*
X04553D01*
X04554Y02884*
X04559Y02876*
X04567Y02871*
X04571Y0287*
Y02888*
G37*
G36*
X04225Y03006D02*
X04211Y03005D01*
X04197Y03*
X04185Y02994*
X04174Y02985*
X04165Y02974*
X04159Y02962*
X04155Y02948*
X04153Y02935*
X04155Y02921*
X04159Y02907*
X04165Y02895*
X04174Y02884*
X04185Y02875*
X04197Y02869*
X04211Y02865*
X04225Y02863*
X04238Y02865*
X04252Y02869*
X04264Y02875*
X04275Y02884*
X04284Y02895*
X0429Y02907*
X04295Y02921*
X04296Y02935*
X04295Y02948*
X0429Y02962*
X04284Y02974*
X04275Y02985*
X04264Y02994*
X04252Y03*
X04238Y03005*
X04225Y03006*
G37*
G36*
X04325Y02919D02*
X04315Y02918D01*
X04307Y02915*
X043Y02909*
X04294Y02902*
X04291Y02894*
X0429Y02885*
X04291Y02875*
X04294Y02867*
X043Y0286*
X04307Y02854*
X04315Y02851*
X04325Y0285*
X04334Y02851*
X04342Y02854*
X04349Y0286*
X04355Y02867*
X04358Y02875*
X04359Y02885*
X04358Y02894*
X04355Y02902*
X04349Y02909*
X04342Y02915*
X04334Y02918*
X04325Y02919*
G37*
G36*
X04375Y02857D02*
Y02839D01*
X04393*
X04392Y02843*
X04387Y02851*
X04379Y02857*
X04375Y02857*
G37*
G36*
X04365D02*
X0436Y02857D01*
X04352Y02851*
X04347Y02843*
X04346Y02839*
X04365*
Y02857*
G37*
G36*
Y02829D02*
X04346D01*
X04347Y02825*
X04346Y02824*
X04343Y02822*
X04335Y02825*
X04325Y02826*
X04314Y02825*
X04304Y02821*
X04295Y02814*
X04288Y02805*
X04284Y02795*
X04283Y02785*
X04284Y02774*
X04288Y02764*
X04295Y02755*
X04304Y02748*
X04309Y02746*
X04309Y02745*
X04305Y02739*
X04301Y02738*
X04293Y02733*
X04288Y02725*
X04287Y02721*
X04334*
X04333Y02725*
X04328Y02733*
X0432Y02738*
X04321Y02743*
X04325Y02743*
X04335Y02744*
X04345Y02748*
X04354Y02755*
X04361Y02764*
X04365Y02774*
X04366Y02785*
X04365Y02795*
X04361Y02805*
X0436Y02807*
X04363Y02811*
X04365Y02811*
Y02829*
G37*
G36*
X04393D02*
X04375D01*
Y02811*
X04379Y02812*
X04387Y02817*
X04392Y02825*
X04393Y02829*
G37*
G36*
X04039D02*
X0402D01*
Y02811*
X04025Y02812*
X04032Y02817*
X04038Y02825*
X04039Y02829*
G37*
G36*
X0401D02*
X03992D01*
X03993Y02825*
X03998Y02817*
X04006Y02812*
X0401Y02811*
Y02829*
G37*
G36*
X04525Y02877D02*
X04514Y02876D01*
X04503Y02871*
X04494Y02865*
X04488Y02856*
X04484Y02845*
X04482Y02835*
X04484Y02824*
X04488Y02813*
X04494Y02804*
X04503Y02798*
X04514Y02794*
X04525Y02792*
X04535Y02794*
X04546Y02798*
X04555Y02804*
X04561Y02813*
X04566Y02824*
X04567Y02835*
X04566Y02845*
X04561Y02856*
X04555Y02865*
X04546Y02871*
X04535Y02876*
X04525Y02877*
G37*
G36*
X04571Y02798D02*
X04567Y02797D01*
X04559Y02792*
X04554Y02784*
X04553Y0278*
X04571*
Y02798*
G37*
G36*
X0405D02*
Y0278D01*
X04068*
X04067Y02784*
X04062Y02792*
X04054Y02797*
X0405Y02798*
G37*
G36*
X0404D02*
X04036Y02797D01*
X04028Y02792*
X04022Y02784*
X04022Y0278*
X0404*
Y02798*
G37*
G36*
X03991D02*
Y0278D01*
X04009*
X04008Y02784*
X04003Y02792*
X03995Y02797*
X03991Y02798*
G37*
G36*
X03981D02*
X03976Y02797D01*
X03969Y02792*
X03963Y02784*
X03962Y0278*
X03981*
Y02798*
G37*
G36*
X04571Y0277D02*
X04553D01*
X04554Y02766*
X04559Y02758*
X04567Y02753*
X04571Y02752*
Y0277*
G37*
G36*
X04068D02*
X0405D01*
Y02752*
X04054Y02753*
X04062Y02758*
X04067Y02766*
X04068Y0277*
G37*
G36*
X0404D02*
X04022D01*
X04022Y02766*
X04028Y02758*
X04036Y02753*
X0404Y02752*
Y0277*
G37*
G36*
X04009D02*
X03991D01*
Y02752*
X03995Y02753*
X04003Y02758*
X04008Y02766*
X04009Y0277*
G37*
G36*
X03981D02*
X03962D01*
X03963Y02766*
X03969Y02758*
X03976Y02753*
X03981Y02752*
Y0277*
G37*
G36*
X04552Y02739D02*
Y02721D01*
X0457*
X04569Y02725*
X04564Y02733*
X04556Y02738*
X04552Y02739*
G37*
G36*
X04542D02*
X04537Y02738D01*
X0453Y02733*
X04524Y02725*
X04523Y02721*
X04542*
Y02739*
G37*
G36*
X04425Y02826D02*
X04414Y02825D01*
X04404Y02821*
X04395Y02814*
X04388Y02805*
X04384Y02795*
X04383Y02785*
X04384Y02774*
X04388Y02764*
X04395Y02755*
X04404Y02748*
X04414Y02744*
X04418Y02744*
X04419Y02739*
X04419Y02738*
X04411Y02733*
X04406Y02725*
X04405Y02721*
X04452*
X04451Y02725*
X04446Y02733*
X04438Y02738*
X04435Y02739*
X04435Y02744*
X04435Y02744*
X04445Y02748*
X04454Y02755*
X04461Y02764*
X04465Y02774*
X04466Y02785*
X04465Y02795*
X04461Y02805*
X04454Y02814*
X04445Y02821*
X04435Y02825*
X04425Y02826*
G37*
G36*
X04375Y02739D02*
Y02721D01*
X04393*
X04392Y02725*
X04387Y02733*
X04379Y02738*
X04375Y02739*
G37*
G36*
X04365D02*
X0436Y02738D01*
X04352Y02733*
X04347Y02725*
X04346Y02721*
X04365*
Y02739*
G37*
G36*
X04256D02*
Y02721D01*
X04275*
X04274Y02725*
X04269Y02733*
X04261Y02738*
X04256Y02739*
G37*
G36*
X04246D02*
X04242Y02738D01*
X04234Y02733*
X04229Y02725*
X04228Y02721*
X04246*
Y02739*
G37*
G36*
X04197D02*
Y02721D01*
X04216*
X04215Y02725*
X0421Y02733*
X04202Y02738*
X04197Y02739*
G37*
G36*
X04187D02*
X04183Y02738D01*
X04175Y02733*
X0417Y02725*
X04169Y02721*
X04187*
Y02739*
G37*
G36*
X0457Y02711D02*
X04552D01*
Y02693*
X04556Y02694*
X04564Y02699*
X04569Y02707*
X0457Y02711*
G37*
G36*
X04542D02*
X04523D01*
X04524Y02707*
X0453Y02699*
X04537Y02694*
X04542Y02693*
Y02711*
G37*
G36*
X04452D02*
X04434D01*
Y02693*
X04438Y02694*
X04446Y02699*
X04451Y02707*
X04452Y02711*
G37*
G36*
X04424D02*
X04405D01*
X04406Y02707*
X04411Y02699*
X04419Y02694*
X04424Y02693*
Y02711*
G37*
G36*
X04393D02*
X04375D01*
Y02693*
X04379Y02694*
X04387Y02699*
X04392Y02707*
X04393Y02711*
G37*
G36*
X04365D02*
X04346D01*
X04347Y02707*
X04352Y02699*
X0436Y02694*
X04365Y02693*
Y02711*
G37*
G36*
X04334D02*
X04316D01*
Y02693*
X0432Y02694*
X04328Y02699*
X04333Y02707*
X04334Y02711*
G37*
G36*
X04306D02*
X04287D01*
X04288Y02707*
X04293Y02699*
X04301Y02694*
X04306Y02693*
Y02711*
G37*
G36*
X04275D02*
X04256D01*
Y02693*
X04261Y02694*
X04269Y02699*
X04274Y02707*
X04275Y02711*
G37*
G36*
X04246D02*
X04228D01*
X04229Y02707*
X04234Y02699*
X04242Y02694*
X04246Y02693*
Y02711*
G37*
G36*
X04216D02*
X04197D01*
Y02693*
X04202Y02694*
X0421Y02699*
X04215Y02707*
X04216Y02711*
G37*
G36*
X04187D02*
X04169D01*
X0417Y02707*
X04175Y02699*
X04183Y02694*
X04187Y02693*
Y02711*
G37*
G36*
X04571Y0268D02*
X04567Y02679D01*
X04559Y02674*
X04554Y02666*
X04553Y02662*
X04571*
Y0268*
G37*
G36*
X04522D02*
Y02662D01*
X0454*
X0454Y02666*
X04534Y02674*
X04526Y02679*
X04522Y0268*
G37*
G36*
X04512D02*
X04508Y02679D01*
X045Y02674*
X04495Y02666*
X04494Y02662*
X04512*
Y0268*
G37*
G36*
X04571Y02652D02*
X04553D01*
X04554Y02648*
X04559Y0264*
X04567Y02635*
X04571Y02634*
Y02652*
G37*
G36*
X0454D02*
X04522D01*
Y02634*
X04526Y02635*
X04534Y0264*
X0454Y02648*
X0454Y02652*
G37*
G36*
X04512D02*
X04494D01*
X04495Y02648*
X045Y0264*
X04508Y02635*
X04512Y02634*
Y02652*
G37*
G36*
X03965Y02644D02*
X03941D01*
Y02625*
X03965*
Y02644*
G37*
G36*
X03931D02*
X03907D01*
Y02625*
X03931*
Y02644*
G37*
G36*
X03459Y03271D02*
Y03253D01*
X03477*
X03477Y03257*
X03471Y03265*
X03464Y0327*
X03459Y03271*
G37*
G36*
X03449D02*
X03445Y0327D01*
X03437Y03265*
X03432Y03257*
X03431Y03253*
X03449*
Y03271*
G37*
G36*
X034D02*
Y03253D01*
X03418*
X03418Y03257*
X03412Y03265*
X03404Y0327*
X034Y03271*
G37*
G36*
X0339D02*
X03386Y0327D01*
X03378Y03265*
X03373Y03257*
X03372Y03253*
X0339*
Y03271*
G37*
G36*
X03341D02*
Y03253D01*
X03359*
X03359Y03257*
X03353Y03265*
X03345Y0327*
X03341Y03271*
G37*
G36*
X03331D02*
X03327Y0327D01*
X03319Y03265*
X03314Y03257*
X03313Y03253*
X03331*
Y03271*
G37*
G36*
X03046D02*
Y03253D01*
X03064*
X03063Y03257*
X03058Y03265*
X0305Y0327*
X03046Y03271*
G37*
G36*
X03036D02*
X03032Y0327D01*
X03024Y03265*
X03018Y03257*
X03018Y03253*
X03036*
Y03271*
G37*
G36*
X02987D02*
Y03253D01*
X03005*
X03004Y03257*
X02999Y03265*
X02991Y0327*
X02987Y03271*
G37*
G36*
X02977D02*
X02973Y0327D01*
X02965Y03265*
X02959Y03257*
X02959Y03253*
X02977*
Y03271*
G37*
G36*
X02928D02*
Y03253D01*
X02946*
X02945Y03257*
X0294Y03265*
X02932Y0327*
X02928Y03271*
G37*
G36*
X02918D02*
X02913Y0327D01*
X02906Y03265*
X029Y03257*
X02899Y03253*
X02918*
Y03271*
G37*
G36*
X02869D02*
Y03253D01*
X02887*
X02886Y03257*
X02881Y03265*
X02873Y0327*
X02869Y03271*
G37*
G36*
X02859D02*
X02854Y0327D01*
X02847Y03265*
X02841Y03257*
X0284Y03253*
X02859*
Y03271*
G37*
G36*
X03174Y03259D02*
X0314D01*
Y03225*
X03174*
Y03259*
G37*
G36*
X0313D02*
X03095D01*
Y03225*
X0313*
Y03259*
G37*
G36*
X03477Y03243D02*
X03459D01*
Y03224*
X03464Y03225*
X03471Y0323*
X03477Y03238*
X03477Y03243*
G37*
G36*
X03064D02*
X03046D01*
Y03224*
X0305Y03225*
X03058Y0323*
X03063Y03238*
X03064Y03243*
G37*
G36*
X03036D02*
X03018D01*
X03018Y03238*
X03024Y0323*
X03032Y03225*
X03036Y03224*
Y03243*
G37*
G36*
X03005D02*
X02987D01*
Y03224*
X02991Y03225*
X02999Y0323*
X03004Y03238*
X03005Y03243*
G37*
G36*
X02977D02*
X02959D01*
X02959Y03238*
X02965Y0323*
X02973Y03225*
X02977Y03224*
Y03243*
G37*
G36*
X02946D02*
X02928D01*
Y03224*
X02932Y03225*
X0294Y0323*
X02945Y03238*
X02946Y03243*
G37*
G36*
X02918D02*
X02899D01*
X029Y03238*
X02906Y0323*
X02913Y03225*
X02918Y03224*
Y03243*
G37*
G36*
X02887D02*
X02869D01*
Y03224*
X02873Y03225*
X02881Y0323*
X02886Y03238*
X02887Y03243*
G37*
G36*
X02859D02*
X0284D01*
X02841Y03238*
X02847Y0323*
X02854Y03225*
X02859Y03224*
Y03243*
G37*
G36*
X0313Y03215D02*
X03095D01*
Y03203*
X0309Y03202*
X03088Y03206*
X0308Y03211*
X03075Y03212*
Y03188*
Y03165*
X0308Y03166*
X03088Y03171*
X03091Y03177*
X03094Y03179*
X03098Y0318*
X0313*
Y03215*
G37*
G36*
X03489Y03212D02*
Y03193D01*
X03507*
X03506Y03198*
X03501Y03206*
X03493Y03211*
X03489Y03212*
G37*
G36*
X03479D02*
X03474Y03211D01*
X03467Y03206*
X03461Y03198*
X03461Y03193*
X03479*
Y03212*
G37*
G36*
X03065D02*
X03061Y03211D01*
X03053Y03206*
X03048Y03198*
X03047Y03193*
X03065*
Y03212*
G37*
G36*
X02978Y03215D02*
X02944D01*
Y0317*
X03027*
X03026Y03178*
X03021Y0319*
X03013Y032*
X03003Y03208*
X02991Y03213*
X02978Y03215*
G37*
G36*
X02934D02*
X02899D01*
X02886Y03213*
X02874Y03208*
X02864Y032*
X02856Y0319*
X02851Y03178*
X0285Y0317*
X02934*
Y03215*
G37*
G36*
X03507Y03183D02*
X03489D01*
Y03165*
X03493Y03166*
X03501Y03171*
X03506Y03179*
X03507Y03183*
G37*
G36*
X03479D02*
X03461D01*
X03461Y03179*
X03467Y03171*
X03474Y03166*
X03479Y03165*
Y03183*
G37*
G36*
X03174Y03215D02*
X0314D01*
Y0318*
X03166*
X03166Y03179*
X03171Y03171*
X03179Y03166*
X03183Y03165*
Y03188*
Y03212*
X03179Y03211*
X03178Y0321*
X03174Y03213*
Y03215*
G37*
G36*
X03065Y03183D02*
X03047D01*
X03048Y03179*
X03053Y03171*
X03061Y03166*
X03065Y03165*
Y03183*
G37*
G36*
X03282Y03153D02*
Y03134D01*
X033*
X03299Y03139*
X03294Y03147*
X03286Y03152*
X03282Y03153*
G37*
G36*
X03272D02*
X03268Y03152D01*
X0326Y03147*
X03255Y03139*
X03254Y03134*
X03272*
Y03153*
G37*
G36*
X03223D02*
Y03134D01*
X03241*
X0324Y03139*
X03235Y03147*
X03227Y03152*
X03223Y03153*
G37*
G36*
X03213D02*
X03209Y03152D01*
X03201Y03147*
X03196Y03139*
X03195Y03134*
X03213*
Y03153*
G37*
G36*
X03164D02*
Y03134D01*
X03182*
X03181Y03139*
X03176Y03147*
X03168Y03152*
X03164Y03153*
G37*
G36*
X03154D02*
X0315Y03152D01*
X03142Y03147*
X03137Y03139*
X03136Y03134*
X03154*
Y03153*
G37*
G36*
X03105D02*
Y03134D01*
X03123*
X03122Y03139*
X03117Y03147*
X03109Y03152*
X03105Y03153*
G37*
G36*
X03095D02*
X03091Y03152D01*
X03083Y03147*
X03077Y03139*
X03077Y03134*
X03095*
Y03153*
G37*
G36*
X03046D02*
Y03134D01*
X03064*
X03063Y03139*
X03058Y03147*
X0305Y03152*
X03046Y03153*
G37*
G36*
X02934Y0316D02*
X0285D01*
X02851Y03152*
X02856Y0314*
X02864Y0313*
X02874Y03122*
X02886Y03117*
X02899Y03115*
X02934*
Y0316*
G37*
G36*
X033Y03124D02*
X03282D01*
Y03106*
X03286Y03107*
X03294Y03112*
X03299Y0312*
X033Y03124*
G37*
G36*
X03272D02*
X03254D01*
X03255Y0312*
X0326Y03112*
X03268Y03107*
X03272Y03106*
Y03124*
G37*
G36*
X03241D02*
X03223D01*
Y03106*
X03227Y03107*
X03235Y03112*
X0324Y0312*
X03241Y03124*
G37*
G36*
X03213D02*
X03195D01*
X03196Y0312*
X03201Y03112*
X03209Y03107*
X03213Y03106*
Y03124*
G37*
G36*
X03182D02*
X03164D01*
Y03106*
X03168Y03107*
X03176Y03112*
X03181Y0312*
X03182Y03124*
G37*
G36*
X03154D02*
X03136D01*
X03137Y0312*
X03142Y03112*
X0315Y03107*
X03154Y03106*
Y03124*
G37*
G36*
X03123D02*
X03105D01*
Y03106*
X03109Y03107*
X03117Y03112*
X03122Y0312*
X03123Y03124*
G37*
G36*
X03095D02*
X03077D01*
X03077Y0312*
X03083Y03112*
X03091Y03107*
X03095Y03106*
Y03124*
G37*
G36*
X03374Y03102D02*
X0336D01*
Y03085*
X03374*
Y03102*
G37*
G36*
X0335D02*
X03335D01*
Y03085*
X0335*
Y03102*
G37*
G36*
X03027Y0316D02*
X02944D01*
Y03115*
X02978*
X02991Y03117*
X03003Y03122*
X03012Y03128*
X03016Y03127*
X03017Y03127*
X03018Y03122*
X03018Y03121*
X03016Y03118*
X03015Y03117*
X03005Y03116*
X02994Y03111*
X02985Y03104*
X02978Y03095*
X02973Y03084*
X02972Y03077*
X03021*
X0307*
X0307Y03084*
X03065Y03095*
X03058Y03104*
X03056Y03106*
X03056Y03111*
X03058Y03112*
X03063Y0312*
X03064Y03124*
X03041*
Y03129*
X03036*
Y03153*
X03032Y03152*
X03031Y03152*
X03026Y03154*
X03027Y0316*
G37*
G36*
X03253Y03094D02*
Y03075D01*
X03271*
X0327Y0308*
X03265Y03088*
X03257Y03093*
X03253Y03094*
G37*
G36*
X03243D02*
X03238Y03093D01*
X0323Y03088*
X03225Y0308*
X03224Y03075*
X03243*
Y03094*
G37*
G36*
X03193D02*
Y03075D01*
X03212*
X03211Y0308*
X03206Y03088*
X03198Y03093*
X03193Y03094*
G37*
G36*
X03183D02*
X03179Y03093D01*
X03171Y03088*
X03166Y0308*
X03165Y03075*
X03183*
Y03094*
G37*
G36*
X03134D02*
Y03075D01*
X03153*
X03152Y0308*
X03147Y03088*
X03139Y03093*
X03134Y03094*
G37*
G36*
X03124D02*
X0312Y03093D01*
X03112Y03088*
X03107Y0308*
X03106Y03075*
X03124*
Y03094*
G37*
G36*
X02898D02*
Y03075D01*
X02916*
X02916Y0308*
X0291Y03088*
X02902Y03093*
X02898Y03094*
G37*
G36*
X02888D02*
X02884Y03093D01*
X02876Y03088*
X02871Y0308*
X0287Y03075*
X02888*
Y03094*
G37*
G36*
X03374Y03075D02*
X0336D01*
Y03058*
X03374*
Y03075*
G37*
G36*
X0335D02*
X03335D01*
Y03058*
X0335*
Y03075*
G37*
G36*
X03271Y03065D02*
X03253D01*
Y03047*
X03257Y03048*
X03265Y03053*
X0327Y03061*
X03271Y03065*
G37*
G36*
X03243D02*
X03224D01*
X03225Y03061*
X0323Y03053*
X03238Y03048*
X03243Y03047*
Y03065*
G37*
G36*
X03212D02*
X03193D01*
Y03047*
X03198Y03048*
X03206Y03053*
X03211Y03061*
X03212Y03065*
G37*
G36*
X03183D02*
X03165D01*
X03166Y03061*
X03171Y03053*
X03179Y03048*
X03183Y03047*
Y03065*
G37*
G36*
X03153D02*
X03134D01*
Y03047*
X03139Y03048*
X03147Y03053*
X03152Y03061*
X03153Y03065*
G37*
G36*
X03124D02*
X03106D01*
X03107Y03061*
X03112Y03053*
X0312Y03048*
X03124Y03047*
Y03065*
G37*
G36*
X02916D02*
X02898D01*
Y03047*
X02902Y03048*
X0291Y03053*
X02916Y03061*
X02916Y03065*
G37*
G36*
X02888D02*
X0287D01*
X02871Y03061*
X02876Y03053*
X02884Y03048*
X02888Y03047*
Y03065*
G37*
G36*
X0307Y03067D02*
X03026D01*
Y03027*
X03038Y03029*
X03049Y03033*
X03058Y03041*
X03065Y0305*
X0307Y03061*
X0307Y03067*
G37*
G36*
X03016D02*
X02972D01*
X02973Y03061*
X02978Y0305*
X02985Y03041*
X02994Y03033*
X03005Y03029*
X03016Y03027*
Y03067*
G37*
G36*
X03105Y03035D02*
Y03016D01*
X03123*
X03122Y03021*
X03117Y03028*
X03109Y03034*
X03105Y03035*
G37*
G36*
X03095D02*
X03091Y03034D01*
X03083Y03028*
X03077Y03021*
X03077Y03016*
X03095*
Y03035*
G37*
G36*
X02869D02*
Y03016D01*
X02887*
X02886Y03021*
X02881Y03028*
X02873Y03034*
X02869Y03035*
G37*
G36*
X02859D02*
X02854Y03034D01*
X02847Y03028*
X02841Y03021*
X0284Y03016*
X02859*
Y03035*
G37*
G36*
X02939Y03059D02*
X0293Y03058D01*
X02922Y03054*
X02915Y03049*
X02909Y03042*
X02906Y03034*
X02905Y03025*
X02906Y03016*
X02909Y03008*
X02915Y03001*
X02922Y02996*
X0293Y02992*
X02939Y02991*
X02947Y02992*
X02956Y02996*
X02963Y03001*
X02968Y03008*
X02971Y03016*
X02973Y03025*
X02971Y03034*
X02968Y03042*
X02963Y03049*
X02956Y03054*
X02947Y03058*
X02939Y03059*
G37*
G36*
X02887Y03006D02*
X02869D01*
Y02988*
X02873Y02989*
X02881Y02994*
X02886Y03002*
X02887Y03006*
G37*
G36*
X02859D02*
X0284D01*
X02841Y03002*
X02847Y02994*
X02854Y02989*
X02859Y02988*
Y03006*
G37*
G36*
X03448Y03003D02*
X0343D01*
Y0298*
X03448*
Y03003*
G37*
G36*
X02947Y02976D02*
X02943Y02975D01*
X02935Y02969*
X0293Y02962*
X02929Y02957*
X02947*
Y02976*
G37*
G36*
X02898D02*
Y02957D01*
X02916*
X02916Y02962*
X0291Y02969*
X02902Y02975*
X02898Y02976*
G37*
G36*
X02888D02*
X02884Y02975D01*
X02876Y02969*
X02871Y02962*
X0287Y02957*
X02888*
Y02976*
G37*
G36*
X03448Y0297D02*
X0343D01*
Y02946*
X03448*
Y0297*
G37*
G36*
X02947Y02947D02*
X02929D01*
X0293Y02943*
X02935Y02935*
X02943Y0293*
X02947Y02929*
Y02947*
G37*
G36*
X02916D02*
X02898D01*
Y02929*
X02902Y0293*
X0291Y02935*
X02916Y02943*
X02916Y02947*
G37*
G36*
X02888D02*
X0287D01*
X02871Y02943*
X02876Y02935*
X02884Y0293*
X02888Y02929*
Y02947*
G37*
G36*
X02928Y02916D02*
Y02898D01*
X02946*
X02945Y02902*
X0294Y0291*
X02932Y02916*
X02928Y02916*
G37*
G36*
X02918D02*
X02913Y02916D01*
X02906Y0291*
X029Y02902*
X02899Y02898*
X02918*
Y02916*
G37*
G36*
X02869D02*
Y02898D01*
X02887*
X02886Y02902*
X02881Y0291*
X02873Y02916*
X02869Y02916*
G37*
G36*
X02859D02*
X02854Y02916D01*
X02847Y0291*
X02841Y02902*
X0284Y02898*
X02859*
Y02916*
G37*
G36*
X02887Y02888D02*
X02869D01*
Y0287*
X02873Y02871*
X02881Y02876*
X02886Y02884*
X02887Y02888*
G37*
G36*
X02859D02*
X0284D01*
X02841Y02884*
X02847Y02876*
X02854Y02871*
X02859Y0287*
Y02888*
G37*
G36*
X02946D02*
X02899D01*
X029Y02884*
X02906Y02876*
X02912Y02872*
X02912Y02871*
X02913Y02867*
X02913Y02866*
X02909Y02861*
X02906Y02853*
X02905Y02844*
X02906Y02835*
X02909Y02827*
X02915Y0282*
X02922Y02815*
X0293Y02811*
X02939Y0281*
X02947Y02811*
X02956Y02815*
X02963Y0282*
X02968Y02827*
X02971Y02835*
X02973Y02844*
X02971Y02853*
X02968Y02861*
X02963Y02868*
X02956Y02873*
X02947Y02877*
X02946Y02877*
X02944Y02882*
X02945Y02884*
X02946Y02888*
G37*
G36*
X02928Y02798D02*
Y0278D01*
X02946*
X02945Y02784*
X0294Y02792*
X02932Y02797*
X02928Y02798*
G37*
G36*
X02918D02*
X02913Y02797D01*
X02906Y02792*
X029Y02784*
X02899Y0278*
X02918*
Y02798*
G37*
G36*
X02869D02*
Y0278D01*
X02887*
X02886Y02784*
X02881Y02792*
X02873Y02797*
X02869Y02798*
G37*
G36*
X02859D02*
X02854Y02797D01*
X02847Y02792*
X02841Y02784*
X0284Y0278*
X02859*
Y02798*
G37*
G36*
X03469Y02788D02*
X0345D01*
Y02765*
X03469*
Y02788*
G37*
G36*
X03026Y02842D02*
X03016D01*
X03005Y0284*
X02994Y02836*
X02985Y02828*
X02978Y02819*
X02973Y02808*
X02972Y02797*
X02973Y02785*
X02978Y02774*
X02985Y02765*
X02994Y02758*
X03005Y02753*
X03016Y02752*
X03026*
X03038Y02753*
X03049Y02758*
X03058Y02765*
X03065Y02774*
X0307Y02785*
X03071Y02797*
X0307Y02808*
X03065Y02819*
X03058Y02828*
X03049Y02836*
X03038Y0284*
X03026Y02842*
G37*
G36*
X02887Y0277D02*
X02869D01*
Y02752*
X02873Y02753*
X02881Y02758*
X02886Y02766*
X02887Y0277*
G37*
G36*
X02859D02*
X0284D01*
X02841Y02766*
X02847Y02758*
X02854Y02753*
X02859Y02752*
Y0277*
G37*
G36*
X02946D02*
X02899D01*
X029Y02766*
X02905Y02759*
X02903Y02754*
X02899*
X02886Y02752*
X02874Y02747*
X02864Y02739*
X02856Y02729*
X02851Y02717*
X0285Y02709*
X03027*
X03026Y02717*
X03021Y02729*
X03013Y02739*
X03003Y02747*
X02991Y02752*
X02978Y02754*
X02942*
X02941Y02759*
X02945Y02766*
X02946Y0277*
G37*
G36*
X03046Y0268D02*
Y02662D01*
X03064*
X03063Y02666*
X03058Y02674*
X0305Y02679*
X03046Y0268*
G37*
G36*
X03036D02*
X03032Y02679D01*
X03024Y02674*
X03018Y02666*
X03018Y02662*
X03036*
Y0268*
G37*
G36*
X03027Y02699D02*
X02944D01*
Y02654*
X02978*
X02991Y02656*
X03003Y02661*
X03013Y02669*
X03021Y02679*
X03026Y02691*
X03027Y02699*
G37*
G36*
X02934D02*
X0285D01*
X02851Y02691*
X02856Y02679*
X02864Y02669*
X02874Y02661*
X02886Y02656*
X02899Y02654*
X02934*
Y02699*
G37*
G36*
X03064Y02652D02*
X03046D01*
Y02634*
X0305Y02635*
X03058Y0264*
X03063Y02648*
X03064Y02652*
G37*
G36*
X03036D02*
X03018D01*
X03018Y02648*
X03024Y0264*
X03032Y02635*
X03036Y02634*
Y02652*
G37*
%LNmidi_stick-3*%
%LPD*%
G54D13*
X03731Y0271D02*
Y02782D01*
G54D15*
X0357Y02758D02*
X03603D01*
X03765Y0261D02*
X0379Y02635D01*
X0313Y0261D02*
X03765D01*
X031Y0264D02*
X0313Y0261D01*
X0379Y02635D02*
Y0273D01*
X0376Y0263D02*
X0377Y0264D01*
X0314Y0263D02*
X0376D01*
X0312Y0265D02*
X0314Y0263D01*
X0377Y0264D02*
Y02724D01*
X03705Y02659D02*
X03731D01*
X037Y02665D02*
X03705Y02659D01*
X037Y02665D02*
Y0273D01*
X0359Y03067D02*
X03603D01*
X03522Y03135D02*
X0359Y03067D01*
X03415Y03135D02*
X03522D01*
X03603Y02758D02*
Y02782D01*
X03568Y0276D02*
X0357Y02758D01*
X03525Y0276D02*
X03568D01*
X03145Y02802D02*
Y03004D01*
Y02802D02*
X0315Y02797D01*
X03145Y03004D02*
X03156Y03016D01*
X03185*
X0386Y02693D02*
X03885Y02718D01*
Y02782*
X03745Y0301D02*
X0378D01*
X03731Y03023D02*
X03745Y0301D01*
X03672D02*
X037D01*
X03706Y03016*
X03731Y03023D02*
Y03067D01*
X03706Y03016D02*
Y03067D01*
X03358Y03135D02*
X03415D01*
X03355Y03139D02*
X03358Y03135D01*
X0341Y0314D02*
X03415Y03135D01*
X0341Y0314D02*
Y03205D01*
X0325D02*
X03359D01*
X03235Y0322D02*
X0325Y03205D01*
X03936Y03067D02*
Y03111D01*
X03945Y0312*
Y03155*
X0397Y03179*
Y03245*
X03795Y03175D02*
X03859Y0311D01*
X03705Y03175D02*
X03795D01*
X0367Y0321D02*
X03705Y03175D01*
X03859Y03067D02*
Y0311D01*
X0367Y0321D02*
Y03245D01*
X0357Y03185D02*
Y03245D01*
Y03185D02*
X036Y03155D01*
X03785*
X03833Y03106*
Y03067D02*
Y03106D01*
X03935Y0265D02*
X03936Y02649D01*
X0391Y0265D02*
X03935D01*
X03905Y02655D02*
X0391Y0265D01*
X03905Y02655D02*
Y0273D01*
X0391Y02735*
Y02782*
X037Y0273D02*
X03706Y02736D01*
Y02782*
X0364Y02665D02*
X0368Y02705D01*
X03205Y02665D02*
X0364D01*
X03185Y02685D02*
X03205Y02665D01*
X0368Y02705D02*
Y02782D01*
X03782Y02737D02*
Y02782D01*
Y02737D02*
X0379Y0273D01*
X031Y0264D02*
Y02875D01*
X03079Y02895D02*
X031Y02875D01*
X03021Y02895D02*
X03079D01*
X03021Y02974D02*
X0309D01*
X0312Y02944*
Y0265D02*
Y02944D01*
X03757Y02737D02*
X0377Y02724D01*
X03757Y02737D02*
Y02782D01*
X0326Y03016D02*
X03335D01*
X03185D02*
X0326D01*
X03335Y02906D02*
Y02965D01*
X0326Y02906D02*
Y02965D01*
X03185Y02906D02*
Y02965D01*
Y02685D02*
Y02855D01*
X0326Y0272D02*
Y02855D01*
Y0272D02*
X0329Y0269D01*
X03629*
X03654Y02715*
Y02782*
X03335Y02735D02*
Y02855D01*
Y02735D02*
X03355Y02715D01*
X0362*
X03629Y02724*
Y02782*
G54D16*
X03525Y0276D03*
X03474D03*
X03945Y03145D03*
X03894D03*
X0341Y03205D03*
X03359D03*
X03505Y02975D03*
X03453D03*
G54D17*
X03936Y027D03*
Y02649D03*
X03731Y0271D03*
Y02659D03*
X04085Y02894D03*
Y02945D03*
X04025Y02894D03*
Y02945D03*
X03415Y03084D03*
Y03135D03*
X03335Y03016D03*
Y02965D03*
X0326Y03016D03*
Y02965D03*
X03185Y03016D03*
Y02965D03*
Y02855D03*
Y02906D03*
X0326Y02855D03*
Y02906D03*
X03335Y02855D03*
Y02906D03*
G54D18*
X0357Y0323D03*
X0367D03*
X0377D03*
X0387D03*
X0397D03*
G54D19*
X03355Y03139D03*
Y0308D03*
G54D20*
X03603Y02782D03*
X03629D03*
X03654D03*
X0368D03*
X03706D03*
X03731D03*
X03757D03*
X03782D03*
X03808D03*
X03833D03*
X03859D03*
X03885D03*
X0391D03*
X03936D03*
X03603Y03067D03*
X03629D03*
X03654D03*
X0368D03*
X03706D03*
X03731D03*
X03757D03*
X03782D03*
X03808D03*
X03833D03*
X03859D03*
X03885D03*
X0391D03*
X03936D03*
G54D37*
X0442Y0289D02*
X0443D01*
X0437Y0294D02*
X0442Y0289D01*
X0437Y0294D02*
Y03015D01*
X04355Y0303D02*
X0437Y03015D01*
X04275Y0303D02*
X04355D01*
X03731Y0271D02*
D01*
X0384Y03175D02*
X03865D01*
X0387Y0318*
Y03245*
X03872Y03177D02*
X03894Y03155D01*
X03558Y02975D02*
Y03045D01*
X03511Y02975D02*
X03558D01*
X0351Y02973D02*
X03511Y02975D01*
X0363D02*
X03935D01*
X03558D02*
X0363D01*
X03629Y02975D02*
X0363Y02975D01*
X03519Y03084D02*
X03558Y03045D01*
X03629Y02975D02*
Y03067D01*
X03415Y03084D02*
X03519D01*
X04005Y02875D02*
X04025Y02894D01*
X03936Y02875D02*
X04005D01*
X03936D02*
Y02973D01*
X03935Y02975D02*
X03936Y02973D01*
X03808Y02782D02*
Y02857D01*
X03826Y02875*
X03936*
Y02782D02*
Y02875D01*
X04025Y02894D02*
X04085D01*
X03936Y027D02*
Y02782D01*
G54D38*
X04425Y02885D03*
Y02985D03*
X04325Y02885D03*
Y02985D03*
G54D39*
X04225Y02935D03*
G54D40*
X04425Y03085D03*
Y02785D03*
X04325D03*
Y03085D03*
G54D41*
X03021Y03072D03*
Y02797D03*
G54D42*
X03021Y02974D03*
Y02895D03*
G54D43*
X02939Y02704D03*
Y03165D03*
G54D44*
X03135Y0322D03*
G54D45*
X03235Y0322D03*
G54D46*
X04015Y02674D03*
X04275Y0303D03*
X04576Y03248D03*
X04547Y03188D03*
X04576Y03129D03*
Y03011D03*
Y02893D03*
Y02775D03*
X04547Y02716D03*
X04576Y02657D03*
X04517Y03248D03*
X04488Y03188D03*
X04517Y03129D03*
Y02657D03*
X04458Y03248D03*
X04429Y03188D03*
X04458Y03129D03*
X04429Y02716D03*
X04399Y03248D03*
X0437Y03188D03*
Y02834D03*
Y02716D03*
X0434Y03248D03*
X04311Y03188D03*
Y02716D03*
X04281Y03248D03*
X04251Y03188D03*
X04281Y03129D03*
X04251Y02716D03*
X04222Y03248D03*
X04192Y03188D03*
X04222Y03129D03*
X04192Y02716D03*
X04163Y03248D03*
X04133Y03188D03*
X04163Y03129D03*
X04104Y03248D03*
X04074Y03188D03*
X04104Y03129D03*
X04074Y0307D03*
X04104Y03011D03*
X04045Y03248D03*
Y03129D03*
X04015Y0307D03*
X04045Y03011D03*
X04015Y02834D03*
X04045Y02775D03*
X03986Y03129D03*
Y03011D03*
Y02775D03*
X03868Y03011D03*
X03572Y03129D03*
X03484Y03188D03*
X03454Y03248D03*
X03395D03*
X03336D03*
X03277Y03129D03*
X03248Y0307D03*
X03188Y03188D03*
X03218Y03129D03*
X03188Y0307D03*
X03159Y03129D03*
X03129Y0307D03*
X0307Y03188D03*
X031Y03129D03*
Y03011D03*
X03041Y03248D03*
Y03129D03*
Y02657D03*
X02982Y03248D03*
X02952Y02952D03*
X02923Y03248D03*
X02893Y0307D03*
Y02952D03*
X02923Y02893D03*
Y02775D03*
X02864Y03248D03*
Y03011D03*
Y02893D03*
Y02775D03*
X0384Y03175D03*
X03935Y02975D03*
X03558Y03045D03*
X0357Y02758D03*
X0315Y02797D03*
X0386Y02693D03*
X0378Y0301D03*
X03672D03*
G54D47*
X0377Y0323D03*
M02*