%FSTAX23Y23*%
%MOIN*%
%SFA1B1*%

%IPPOS*%
%ADD13C,0.011810*%
%ADD15C,0.010000*%
%ADD16R,0.027560X0.037400*%
%ADD17R,0.037400X0.027560*%
%ADD37C,0.019680*%
%ADD38C,0.049210*%
%ADD39C,0.060000*%
%ADD40C,0.062990*%
%ADD41O,0.078740X0.068900*%
%ADD42O,0.078740X0.059060*%
%ADD43O,0.157480X0.078740*%
%ADD44R,0.059060X0.059060*%
%ADD45C,0.059060*%
%ADD46C,0.027560*%
%ADD47C,0.050000*%
%ADD48R,0.037400X0.055120*%
%ADD49R,0.023620X0.035430*%
%ADD50R,0.035430X0.023620*%
%ADD51R,0.047240X0.055120*%
%ADD52R,0.127950X0.084650*%
%ADD53R,0.039370X0.084650*%
%LNmidi_stick-1*%
%LPD*%
G36*
X04605Y03249D02*
X046Y03248D01*
X046Y03251*
X04599Y03257*
X04593Y03265*
X04586Y0327*
X04581Y03271*
Y03248*
Y03224*
X04586Y03225*
X04593Y0323*
X04599Y03238*
X046Y03244*
X046Y03247*
X04605Y03246*
Y03131*
X046Y0313*
X046Y03133*
X04599Y03139*
X04593Y03147*
X04586Y03152*
X04581Y03153*
Y03129*
Y03106*
X04586Y03107*
X04593Y03112*
X04599Y0312*
X046Y03126*
X046Y03128*
X04605Y03128*
Y03013*
X046Y03012*
X046Y03015*
X04599Y03021*
X04593Y03028*
X04586Y03034*
X04581Y03035*
Y03011*
Y02988*
X04586Y02989*
X04593Y02994*
X04599Y03002*
X046Y03008*
X046Y0301*
X04605Y0301*
Y02895*
X046Y02894*
X04599Y02902*
X04593Y0291*
X04586Y02916*
X04581Y02916*
Y02893*
Y0287*
X04586Y02871*
X04593Y02876*
X04599Y02884*
X046Y02892*
X04605Y02892*
Y02777*
X046Y02776*
X046Y02779*
X04599Y02784*
X04593Y02792*
X04586Y02797*
X04581Y02798*
Y02775*
Y02752*
X04586Y02753*
X04593Y02758*
X04599Y02766*
X046Y02771*
X046Y02774*
X04605Y02774*
Y02658*
X046Y02658*
X046Y02661*
X04599Y02666*
X04593Y02674*
X04586Y02679*
X04581Y0268*
Y02657*
Y02634*
X04586Y02635*
X04593Y0264*
X04599Y02648*
X046Y02653*
X046Y02656*
X04605Y02656*
Y0259*
X03577*
X03575Y02595*
X03584Y02603*
X03585Y02604*
X04431*
X04439Y02606*
X04445Y0261*
X04489Y02653*
X04494Y02652*
X04495Y02648*
X045Y0264*
X04508Y02635*
X04512Y02634*
Y02657*
X04517*
Y02662*
X0454*
X0454Y02666*
X04534Y02674*
X04526Y02679*
X04521Y0268*
X04518Y02685*
X0452Y02693*
Y02702*
X04521Y02703*
X04527Y02702*
X0453Y02699*
X04537Y02694*
X04542Y02693*
Y02716*
Y02739*
X04537Y02738*
X0453Y02733*
X04527Y0273*
X04521Y02729*
X0452Y0273*
Y02784*
X04519Y02788*
X04523Y02792*
X04525Y02792*
X04535Y02794*
X04546Y02798*
X04555Y02804*
X04561Y02813*
X04566Y02824*
X04567Y02835*
X04566Y02845*
X04561Y02856*
X04555Y02865*
X04546Y02871*
X04535Y02876*
X04525Y02877*
X04514Y02876*
X04508Y02873*
X04504Y02877*
X04504Y02879*
Y02902*
X04508Y02906*
X04511*
X04513*
X0453*
Y02935*
Y02963*
X04513*
X04511*
X04508*
X04506*
X04504*
X04503Y02968*
X04498Y02974*
X04474Y02999*
X04467Y03003*
X0446Y03005*
X04453*
X04449Y03009*
X04442Y03015*
X04434Y03018*
X04425Y03019*
X04415Y03018*
X04407Y03015*
X044Y03009*
X04396Y03005*
X04353*
X04349Y03009*
X04342Y03015*
X04334Y03018*
X04325Y03019*
X04315Y03018*
X04307Y03015*
X043Y03009*
X04294Y03002*
X04291Y02994*
X0429Y02985*
X04291Y02975*
X04294Y02967*
X043Y0296*
X04307Y02954*
X04315Y02951*
X04325Y0295*
X04334Y02951*
X04342Y02954*
X04349Y0296*
X04353Y02964*
X04396*
X044Y0296*
X04407Y02954*
X04415Y02951*
X04425Y0295*
X04434Y02951*
X04442Y02954*
X04449Y0296*
X0445Y0296*
X04455Y02961*
X0446Y02955*
Y02906*
X04464*
Y0289*
X04459Y0289*
X04458Y02894*
X04455Y02902*
X04449Y02909*
X04442Y02915*
X04434Y02918*
X04425Y02919*
X04415Y02918*
X04407Y02915*
X044Y02909*
X04394Y02902*
X04391Y02894*
X0439Y02885*
X04391Y02875*
X04394Y02867*
X044Y0286*
X04407Y02854*
X04415Y02851*
X04425Y0285*
X04434Y02851*
X04442Y02854*
X04449Y0286*
X0445Y0286*
X04454Y02859*
Y0282*
X04449Y02818*
X04445Y02821*
X04435Y02825*
X04425Y02826*
X04414Y02825*
X04404Y02821*
X04395Y02814*
X04388Y02805*
X04384Y02795*
X04383Y02785*
X04384Y02774*
X04388Y02764*
X04395Y02755*
X04404Y02748*
X04414Y02744*
X04418Y02744*
X04419Y02739*
X04419Y02738*
X04411Y02733*
X04406Y02725*
X04405Y02721*
X04452*
X04451Y02725*
X04446Y02733*
X04438Y02738*
X04435Y02739*
X04435Y02744*
X04435Y02744*
X04445Y02748*
X04454Y02755*
X04461Y02764*
X04465Y02774*
X04466Y02782*
X04471Y02784*
X04479Y02776*
Y02701*
X04423Y02645*
X04148*
X04144Y02647*
Y0265*
Y02702*
X04138*
Y02702*
X04137Y02708*
X04133Y02714*
X04121Y02726*
X04116Y02729*
X0411Y02731*
X04051*
X04045Y02737*
X0404Y0274*
X04034Y02741*
X04003*
Y02749*
X03998*
X03997Y02754*
X04003Y02758*
X04008Y02766*
X04009Y0277*
X03962*
X03963Y02766*
X03969Y02758*
X03975Y02754*
X03973Y02749*
X03946*
Y0274*
X03891*
X03886Y02739*
X03881Y02736*
X03862Y02717*
X0386Y02717*
X0385Y02716*
X03842Y0271*
X03837Y02702*
X03835Y02693*
X03837Y02684*
X03842Y02676*
X0385Y02671*
X0386Y02669*
X03869Y02671*
X03877Y02676*
X03882Y02684*
X03884Y02693*
X03883Y02695*
X03898Y0271*
X03946*
Y02703*
Y02701*
Y02698*
Y02696*
Y02679*
X04003*
Y02696*
Y02698*
Y02701*
Y02703*
Y02709*
X04025*
X04026Y02707*
X04025Y02702*
Y02679*
X04047*
Y02669*
X04025*
Y0265*
Y02647*
X04021Y02645*
X03585*
Y0274*
X03587Y02741*
X03592Y02749*
X03594Y02758*
X03592Y02767*
X03587Y02775*
X03579Y02781*
X0357Y02782*
X0356Y02781*
X03552Y02775*
X03547Y02767*
X03545Y02758*
X03547Y02749*
X03552Y02741*
X03554Y0274*
Y02637*
X03551Y02632*
X0355Y02626*
X03548Y02625*
X03424*
Y02645*
X034*
Y0265*
X03395*
Y02678*
X03376*
X03374*
X03373Y02679*
X03372Y02686*
X03373Y02686*
X03376*
X03378*
X03395*
Y02715*
Y02743*
X03378*
X03376*
X03373*
X03371*
X03325*
Y02735*
X03318*
X03304Y02748*
Y02762*
X03314*
Y02867*
X03254*
Y02817*
X03162*
X03159Y02819*
X0315Y02821*
X0314Y02819*
X03137Y02817*
X03066*
X03065Y02819*
X03058Y02828*
X03049Y02836*
X03038Y0284*
X03026Y02842*
X03016*
X03005Y0284*
X02994Y02836*
X02985Y02828*
X02978Y02819*
X02973Y02808*
X02972Y02797*
X02973Y02785*
X02978Y02774*
X02985Y02765*
X02994Y02758*
X03005Y02753*
X03016Y02752*
X03026*
X03038Y02753*
X03049Y02758*
X03058Y02765*
X03065Y02774*
X03066Y02776*
X03137*
X0314Y02774*
X0315Y02772*
X03159Y02774*
X03162Y02776*
X03254*
Y02762*
X03264*
Y0274*
X03265Y02732*
X0327Y02726*
X03295Y027*
X03302Y02696*
X0331Y02694*
X03325*
Y02686*
X03329*
Y02678*
X03325*
Y02621*
X03329*
Y02615*
X0333Y02607*
X03335Y02601*
X03341Y02595*
X03339Y0259*
X02834*
Y0328*
X04605*
Y03249*
G37*
%LNmidi_stick-2*%
%LPC*%
G36*
X04571Y03271D02*
X04567Y0327D01*
X04559Y03265*
X04554Y03257*
X04553Y03253*
X04571*
Y03271*
G37*
G36*
X04522D02*
Y03253D01*
X0454*
X0454Y03257*
X04534Y03265*
X04526Y0327*
X04522Y03271*
G37*
G36*
X04512D02*
X04508Y0327D01*
X045Y03265*
X04495Y03257*
X04494Y03253*
X04512*
Y03271*
G37*
G36*
X04463D02*
Y03253D01*
X04481*
X04481Y03257*
X04475Y03265*
X04467Y0327*
X04463Y03271*
G37*
G36*
X04453D02*
X04449Y0327D01*
X04441Y03265*
X04436Y03257*
X04435Y03253*
X04453*
Y03271*
G37*
G36*
X04404D02*
Y03253D01*
X04422*
X04422Y03257*
X04416Y03265*
X04408Y0327*
X04404Y03271*
G37*
G36*
X04394D02*
X0439Y0327D01*
X04382Y03265*
X04377Y03257*
X04376Y03253*
X04394*
Y03271*
G37*
G36*
X04345D02*
Y03253D01*
X04363*
X04362Y03257*
X04357Y03265*
X04349Y0327*
X04345Y03271*
G37*
G36*
X04335D02*
X04331Y0327D01*
X04323Y03265*
X04318Y03257*
X04317Y03253*
X04335*
Y03271*
G37*
G36*
X04286D02*
Y03253D01*
X04304*
X04303Y03257*
X04298Y03265*
X0429Y0327*
X04286Y03271*
G37*
G36*
X04276D02*
X04272Y0327D01*
X04264Y03265*
X04259Y03257*
X04258Y03253*
X04276*
Y03271*
G37*
G36*
X04227D02*
Y03253D01*
X04245*
X04244Y03257*
X04239Y03265*
X04231Y0327*
X04227Y03271*
G37*
G36*
X04217D02*
X04213Y0327D01*
X04205Y03265*
X042Y03257*
X04199Y03253*
X04217*
Y03271*
G37*
G36*
X04168D02*
Y03253D01*
X04186*
X04185Y03257*
X0418Y03265*
X04172Y0327*
X04168Y03271*
G37*
G36*
X04158D02*
X04154Y0327D01*
X04146Y03265*
X0414Y03257*
X0414Y03253*
X04158*
Y03271*
G37*
G36*
X04109D02*
Y03253D01*
X04127*
X04126Y03257*
X04121Y03265*
X04113Y0327*
X04109Y03271*
G37*
G36*
X04099D02*
X04095Y0327D01*
X04087Y03265*
X04081Y03257*
X04081Y03253*
X04099*
Y03271*
G37*
G36*
X0405D02*
Y03253D01*
X04068*
X04067Y03257*
X04062Y03265*
X04054Y0327*
X0405Y03271*
G37*
G36*
X0404D02*
X04036Y0327D01*
X04028Y03265*
X04022Y03257*
X04022Y03253*
X0404*
Y03271*
G37*
G36*
X03459D02*
Y03253D01*
X03477*
X03477Y03257*
X03471Y03265*
X03464Y0327*
X03459Y03271*
G37*
G36*
X03449D02*
X03445Y0327D01*
X03437Y03265*
X03432Y03257*
X03431Y03253*
X03449*
Y03271*
G37*
G36*
X034D02*
Y03253D01*
X03418*
X03418Y03257*
X03412Y03265*
X03404Y0327*
X034Y03271*
G37*
G36*
X0339D02*
X03386Y0327D01*
X03378Y03265*
X03373Y03257*
X03372Y03253*
X0339*
Y03271*
G37*
G36*
X03341D02*
Y03253D01*
X03359*
X03359Y03257*
X03353Y03265*
X03345Y0327*
X03341Y03271*
G37*
G36*
X03331D02*
X03327Y0327D01*
X03319Y03265*
X03314Y03257*
X03313Y03253*
X03331*
Y03271*
G37*
G36*
X03046D02*
Y03253D01*
X03064*
X03063Y03257*
X03058Y03265*
X0305Y0327*
X03046Y03271*
G37*
G36*
X03036D02*
X03032Y0327D01*
X03024Y03265*
X03018Y03257*
X03018Y03253*
X03036*
Y03271*
G37*
G36*
X02987D02*
Y03253D01*
X03005*
X03004Y03257*
X02999Y03265*
X02991Y0327*
X02987Y03271*
G37*
G36*
X02977D02*
X02973Y0327D01*
X02965Y03265*
X02959Y03257*
X02959Y03253*
X02977*
Y03271*
G37*
G36*
X02928D02*
Y03253D01*
X02946*
X02945Y03257*
X0294Y03265*
X02932Y0327*
X02928Y03271*
G37*
G36*
X02918D02*
X02913Y0327D01*
X02906Y03265*
X029Y03257*
X02899Y03253*
X02918*
Y03271*
G37*
G36*
X02869D02*
Y03253D01*
X02887*
X02886Y03257*
X02881Y03265*
X02873Y0327*
X02869Y03271*
G37*
G36*
X02859D02*
X02854Y0327D01*
X02847Y03265*
X02841Y03257*
X0284Y03253*
X02859*
Y03271*
G37*
G36*
X03775Y03264D02*
Y03235D01*
X03804*
X03804Y03239*
X038Y03247*
X03794Y03254*
X03787Y0326*
X03779Y03264*
X03775Y03264*
G37*
G36*
X03765D02*
X0376Y03264D01*
X03752Y0326*
X03745Y03254*
X03739Y03247*
X03735Y03239*
X03735Y03235*
X03765*
Y03264*
G37*
G36*
X03174Y03259D02*
X0314D01*
Y03225*
X03174*
Y03259*
G37*
G36*
X0313D02*
X03095D01*
Y03225*
X0313*
Y03259*
G37*
G36*
X03359Y03243D02*
X03341D01*
Y03224*
X03345Y03225*
X03353Y0323*
X03359Y03238*
X03359Y03243*
G37*
G36*
X03331D02*
X03313D01*
X03314Y03238*
X03319Y0323*
X03327Y03225*
X03331Y03224*
Y03243*
G37*
G36*
X03064D02*
X03046D01*
Y03224*
X0305Y03225*
X03058Y0323*
X03063Y03238*
X03064Y03243*
G37*
G36*
X03036D02*
X03018D01*
X03018Y03238*
X03024Y0323*
X03032Y03225*
X03036Y03224*
Y03243*
G37*
G36*
X03005D02*
X02987D01*
Y03224*
X02991Y03225*
X02999Y0323*
X03004Y03238*
X03005Y03243*
G37*
G36*
X02977D02*
X02959D01*
X02959Y03238*
X02965Y0323*
X02973Y03225*
X02977Y03224*
Y03243*
G37*
G36*
X02946D02*
X02928D01*
Y03224*
X02932Y03225*
X0294Y0323*
X02945Y03238*
X02946Y03243*
G37*
G36*
X02918D02*
X02899D01*
X029Y03238*
X02906Y0323*
X02913Y03225*
X02918Y03224*
Y03243*
G37*
G36*
X02887D02*
X02869D01*
Y03224*
X02873Y03225*
X02881Y0323*
X02886Y03238*
X02887Y03243*
G37*
G36*
X02859D02*
X0284D01*
X02841Y03238*
X02847Y0323*
X02854Y03225*
X02859Y03224*
Y03243*
G37*
G36*
X04571D02*
X04553D01*
X04554Y03238*
X04559Y0323*
X04567Y03225*
X04571Y03224*
Y03243*
G37*
G36*
X0454D02*
X04522D01*
Y03224*
X04526Y03225*
X04534Y0323*
X0454Y03238*
X0454Y03243*
G37*
G36*
X04512D02*
X04494D01*
X04495Y03238*
X045Y0323*
X04508Y03225*
X04512Y03224*
Y03243*
G37*
G36*
X04481D02*
X04463D01*
Y03224*
X04467Y03225*
X04475Y0323*
X04481Y03238*
X04481Y03243*
G37*
G36*
X04453D02*
X04435D01*
X04436Y03238*
X04441Y0323*
X04449Y03225*
X04453Y03224*
Y03243*
G37*
G36*
X04422D02*
X04404D01*
Y03224*
X04408Y03225*
X04416Y0323*
X04422Y03238*
X04422Y03243*
G37*
G36*
X04394D02*
X04376D01*
X04377Y03238*
X04382Y0323*
X0439Y03225*
X04394Y03224*
Y03243*
G37*
G36*
X04363D02*
X04345D01*
Y03224*
X04349Y03225*
X04357Y0323*
X04362Y03238*
X04363Y03243*
G37*
G36*
X04335D02*
X04317D01*
X04318Y03238*
X04323Y0323*
X04331Y03225*
X04335Y03224*
Y03243*
G37*
G36*
X04304D02*
X04286D01*
Y03224*
X0429Y03225*
X04298Y0323*
X04303Y03238*
X04304Y03243*
G37*
G36*
X04276D02*
X04258D01*
X04259Y03238*
X04264Y0323*
X04272Y03225*
X04276Y03224*
Y03243*
G37*
G36*
X04245D02*
X04227D01*
Y03224*
X04231Y03225*
X04239Y0323*
X04244Y03238*
X04245Y03243*
G37*
G36*
X04217D02*
X04199D01*
X042Y03238*
X04205Y0323*
X04213Y03225*
X04217Y03224*
Y03243*
G37*
G36*
X04186D02*
X04168D01*
Y03224*
X04172Y03225*
X0418Y0323*
X04185Y03238*
X04186Y03243*
G37*
G36*
X04158D02*
X0414D01*
X0414Y03238*
X04146Y0323*
X04154Y03225*
X04158Y03224*
Y03243*
G37*
G36*
X04127D02*
X04109D01*
Y03224*
X04113Y03225*
X04121Y0323*
X04126Y03238*
X04127Y03243*
G37*
G36*
X04099D02*
X04081D01*
X04081Y03238*
X04087Y0323*
X04095Y03225*
X04099Y03224*
Y03243*
G37*
G36*
X04068D02*
X0405D01*
Y03224*
X04054Y03225*
X04062Y0323*
X04067Y03238*
X04068Y03243*
G37*
G36*
X0404D02*
X04022D01*
X04022Y03238*
X04028Y0323*
X04036Y03225*
X0404Y03224*
Y03243*
G37*
G36*
X03477D02*
X03459D01*
Y03224*
X03464Y03225*
X03471Y0323*
X03477Y03238*
X03477Y03243*
G37*
G36*
X03449D02*
X03431D01*
X03432Y03238*
X03437Y0323*
X03445Y03225*
X03449Y03224*
Y03243*
G37*
G36*
X03418D02*
X034D01*
Y03224*
X03404Y03225*
X03412Y0323*
X03418Y03238*
X03418Y03243*
G37*
G36*
X0339D02*
X03372D01*
X03373Y03238*
X03378Y0323*
X03386Y03225*
X0339Y03224*
Y03243*
G37*
G36*
X0313Y03215D02*
X03095D01*
Y03203*
X0309Y03202*
X03088Y03206*
X0308Y03211*
X03075Y03212*
Y03188*
Y03165*
X0308Y03166*
X03088Y03171*
X03091Y03177*
X03094Y03179*
X03098Y0318*
X0313*
Y03215*
G37*
G36*
X03845Y032D02*
X0384Y03199D01*
X0384*
X0383Y03197*
X03822Y03192*
X03817Y03184*
X03815Y03175*
X03817Y03165*
X03822Y03157*
X0383Y03152*
X0384Y0315*
X03844Y03151*
X03914Y03081*
Y02987*
X03912Y02984*
X0391Y02975*
X03912Y02965*
X03917Y02957*
X03925Y02952*
X03935Y0295*
X03944Y02952*
X03952Y02957*
X03957Y02965*
X03959Y02975*
X03957Y02984*
X03955Y02987*
Y0309*
X03953Y03097*
X03949Y03104*
X03859Y03194*
X03852Y03198*
X03845Y032*
G37*
G36*
X03804Y03225D02*
X03775D01*
Y03195*
X03779Y03195*
X03787Y03199*
X03794Y03205*
X038Y03212*
X03804Y0322*
X03804Y03225*
G37*
G36*
X03765D02*
X03735D01*
X03735Y0322*
X03739Y03212*
X03745Y03205*
X03752Y03199*
X0376Y03195*
X03765Y03195*
Y03225*
G37*
G36*
X04552Y03212D02*
Y03193D01*
X0457*
X04569Y03198*
X04564Y03206*
X04556Y03211*
X04552Y03212*
G37*
G36*
X04542D02*
X04537Y03211D01*
X0453Y03206*
X04524Y03198*
X04523Y03193*
X04542*
Y03212*
G37*
G36*
X04493D02*
Y03193D01*
X04511*
X0451Y03198*
X04505Y03206*
X04497Y03211*
X04493Y03212*
G37*
G36*
X04483D02*
X04478Y03211D01*
X04471Y03206*
X04465Y03198*
X04464Y03193*
X04483*
Y03212*
G37*
G36*
X04434D02*
Y03193D01*
X04452*
X04451Y03198*
X04446Y03206*
X04438Y03211*
X04434Y03212*
G37*
G36*
X04424D02*
X04419Y03211D01*
X04411Y03206*
X04406Y03198*
X04405Y03193*
X04424*
Y03212*
G37*
G36*
X04375D02*
Y03193D01*
X04393*
X04392Y03198*
X04387Y03206*
X04379Y03211*
X04375Y03212*
G37*
G36*
X04365D02*
X0436Y03211D01*
X04352Y03206*
X04347Y03198*
X04346Y03193*
X04365*
Y03212*
G37*
G36*
X04316D02*
Y03193D01*
X04334*
X04333Y03198*
X04328Y03206*
X0432Y03211*
X04316Y03212*
G37*
G36*
X04306D02*
X04301Y03211D01*
X04293Y03206*
X04288Y03198*
X04287Y03193*
X04306*
Y03212*
G37*
G36*
X04256D02*
Y03193D01*
X04275*
X04274Y03198*
X04269Y03206*
X04261Y03211*
X04256Y03212*
G37*
G36*
X04246D02*
X04242Y03211D01*
X04234Y03206*
X04229Y03198*
X04228Y03193*
X04246*
Y03212*
G37*
G36*
X04197D02*
Y03193D01*
X04216*
X04215Y03198*
X0421Y03206*
X04202Y03211*
X04197Y03212*
G37*
G36*
X04187D02*
X04183Y03211D01*
X04175Y03206*
X0417Y03198*
X04169Y03193*
X04187*
Y03212*
G37*
G36*
X04138D02*
Y03193D01*
X04157*
X04156Y03198*
X04151Y03206*
X04143Y03211*
X04138Y03212*
G37*
G36*
X04128D02*
X04124Y03211D01*
X04116Y03206*
X04111Y03198*
X0411Y03193*
X04128*
Y03212*
G37*
G36*
X04079D02*
Y03193D01*
X04098*
X04097Y03198*
X04091Y03206*
X04084Y03211*
X04079Y03212*
G37*
G36*
X04069D02*
X04065Y03211D01*
X04057Y03206*
X04052Y03198*
X04051Y03193*
X04069*
Y03212*
G37*
G36*
X03489D02*
Y03193D01*
X03507*
X03506Y03198*
X03501Y03206*
X03493Y03211*
X03489Y03212*
G37*
G36*
X03479D02*
X03474Y03211D01*
X03467Y03206*
X03461Y03198*
X03461Y03193*
X03479*
Y03212*
G37*
G36*
X03065D02*
X03061Y03211D01*
X03053Y03206*
X03048Y03198*
X03047Y03193*
X03065*
Y03212*
G37*
G36*
X03235Y03259D02*
X03224Y03258D01*
X03215Y03254*
X03206Y03248*
X032Y03239*
X03196Y0323*
X03195Y0322*
X03195Y03216*
X03193Y03214*
Y03188*
Y03165*
X03198Y03166*
X03206Y03171*
X03211Y03179*
X03211Y03182*
X03217Y03184*
X03224Y03181*
X03235Y0318*
X03245Y03181*
X03254Y03185*
X03263Y03191*
X03269Y032*
X03273Y03209*
X03274Y0322*
X03273Y0323*
X03269Y03239*
X03263Y03248*
X03254Y03254*
X03245Y03258*
X03235Y03259*
G37*
G36*
X02978Y03215D02*
X02944D01*
Y0317*
X03027*
X03026Y03178*
X03021Y0319*
X03013Y032*
X03003Y03208*
X02991Y03213*
X02978Y03215*
G37*
G36*
X02934D02*
X02899D01*
X02886Y03213*
X02874Y03208*
X02864Y032*
X02856Y0319*
X02851Y03178*
X0285Y0317*
X02934*
Y03215*
G37*
G36*
X03174Y03215D02*
X0314D01*
Y0318*
X03166*
X03166Y03179*
X03171Y03171*
X03179Y03166*
X03183Y03165*
Y03188*
Y03212*
X03179Y03211*
X03178Y0321*
X03174Y03213*
Y03215*
G37*
G36*
X03065Y03183D02*
X03047D01*
X03048Y03179*
X03053Y03171*
X03061Y03166*
X03065Y03165*
Y03183*
G37*
G36*
X0457D02*
X04552D01*
Y03165*
X04556Y03166*
X04564Y03171*
X04569Y03179*
X0457Y03183*
G37*
G36*
X04542D02*
X04523D01*
X04524Y03179*
X0453Y03171*
X04537Y03166*
X04542Y03165*
Y03183*
G37*
G36*
X04511D02*
X04493D01*
Y03165*
X04497Y03166*
X04505Y03171*
X0451Y03179*
X04511Y03183*
G37*
G36*
X04483D02*
X04464D01*
X04465Y03179*
X04471Y03171*
X04478Y03166*
X04483Y03165*
Y03183*
G37*
G36*
X04452D02*
X04434D01*
Y03165*
X04438Y03166*
X04446Y03171*
X04451Y03179*
X04452Y03183*
G37*
G36*
X04424D02*
X04405D01*
X04406Y03179*
X04411Y03171*
X04419Y03166*
X04424Y03165*
Y03183*
G37*
G36*
X04393D02*
X04375D01*
Y03165*
X04379Y03166*
X04387Y03171*
X04392Y03179*
X04393Y03183*
G37*
G36*
X04365D02*
X04346D01*
X04347Y03179*
X04352Y03171*
X0436Y03166*
X04365Y03165*
Y03183*
G37*
G36*
X04334D02*
X04316D01*
Y03165*
X0432Y03166*
X04328Y03171*
X04333Y03179*
X04334Y03183*
G37*
G36*
X04306D02*
X04287D01*
X04288Y03179*
X04293Y03171*
X04301Y03166*
X04306Y03165*
Y03183*
G37*
G36*
X04275D02*
X04256D01*
Y03165*
X04261Y03166*
X04269Y03171*
X04274Y03179*
X04275Y03183*
G37*
G36*
X04246D02*
X04228D01*
X04229Y03179*
X04234Y03171*
X04242Y03166*
X04246Y03165*
Y03183*
G37*
G36*
X04216D02*
X04197D01*
Y03165*
X04202Y03166*
X0421Y03171*
X04215Y03179*
X04216Y03183*
G37*
G36*
X04187D02*
X04169D01*
X0417Y03179*
X04175Y03171*
X04183Y03166*
X04187Y03165*
Y03183*
G37*
G36*
X04157D02*
X04138D01*
Y03165*
X04143Y03166*
X04151Y03171*
X04156Y03179*
X04157Y03183*
G37*
G36*
X04128D02*
X0411D01*
X04111Y03179*
X04116Y03171*
X04124Y03166*
X04128Y03165*
Y03183*
G37*
G36*
X04098D02*
X04079D01*
Y03165*
X04084Y03166*
X04091Y03171*
X04097Y03179*
X04098Y03183*
G37*
G36*
X04069D02*
X04051D01*
X04052Y03179*
X04057Y03171*
X04065Y03166*
X04069Y03165*
Y03183*
G37*
G36*
X03507D02*
X03489D01*
Y03165*
X03493Y03166*
X03501Y03171*
X03506Y03179*
X03507Y03183*
G37*
G36*
X03479D02*
X03461D01*
X03461Y03179*
X03467Y03171*
X03474Y03166*
X03479Y03165*
Y03183*
G37*
G36*
X04571Y03153D02*
X04567Y03152D01*
X04559Y03147*
X04554Y03139*
X04553Y03134*
X04571*
Y03153*
G37*
G36*
X04522D02*
Y03134D01*
X0454*
X0454Y03139*
X04534Y03147*
X04526Y03152*
X04522Y03153*
G37*
G36*
X04512D02*
X04508Y03152D01*
X045Y03147*
X04495Y03139*
X04494Y03134*
X04512*
Y03153*
G37*
G36*
X04463D02*
Y03134D01*
X04481*
X04481Y03139*
X04475Y03147*
X04467Y03152*
X04463Y03153*
G37*
G36*
X04286D02*
Y03134D01*
X04304*
X04303Y03139*
X04298Y03147*
X0429Y03152*
X04286Y03153*
G37*
G36*
X04276D02*
X04272Y03152D01*
X04264Y03147*
X04259Y03139*
X04258Y03134*
X04276*
Y03153*
G37*
G36*
X04227D02*
Y03134D01*
X04245*
X04244Y03139*
X04239Y03147*
X04231Y03152*
X04227Y03153*
G37*
G36*
X04217D02*
X04213Y03152D01*
X04205Y03147*
X042Y03139*
X04199Y03134*
X04217*
Y03153*
G37*
G36*
X04168D02*
Y03134D01*
X04186*
X04185Y03139*
X0418Y03147*
X04172Y03152*
X04168Y03153*
G37*
G36*
X04158D02*
X04154Y03152D01*
X04146Y03147*
X0414Y03139*
X0414Y03134*
X04158*
Y03153*
G37*
G36*
X04109D02*
Y03134D01*
X04127*
X04126Y03139*
X04121Y03147*
X04113Y03152*
X04109Y03153*
G37*
G36*
X04099D02*
X04095Y03152D01*
X04087Y03147*
X04081Y03139*
X04081Y03134*
X04099*
Y03153*
G37*
G36*
X0405D02*
Y03134D01*
X04068*
X04067Y03139*
X04062Y03147*
X04054Y03152*
X0405Y03153*
G37*
G36*
X0404D02*
X04036Y03152D01*
X04028Y03147*
X04022Y03139*
X04022Y03134*
X0404*
Y03153*
G37*
G36*
X03991D02*
Y03134D01*
X04009*
X04008Y03139*
X04003Y03147*
X03995Y03152*
X03991Y03153*
G37*
G36*
X03981D02*
X03976Y03152D01*
X03969Y03147*
X03963Y03139*
X03962Y03134*
X03981*
Y03153*
G37*
G36*
X03577D02*
Y03134D01*
X03596*
X03595Y03139*
X03589Y03147*
X03582Y03152*
X03577Y03153*
G37*
G36*
X03567D02*
X03563Y03152D01*
X03555Y03147*
X0355Y03139*
X03549Y03134*
X03567*
Y03153*
G37*
G36*
X03282D02*
Y03134D01*
X033*
X03299Y03139*
X03294Y03147*
X03286Y03152*
X03282Y03153*
G37*
G36*
X03272D02*
X03268Y03152D01*
X0326Y03147*
X03255Y03139*
X03254Y03134*
X03272*
Y03153*
G37*
G36*
X03223D02*
Y03134D01*
X03241*
X0324Y03139*
X03235Y03147*
X03227Y03152*
X03223Y03153*
G37*
G36*
X03213D02*
X03209Y03152D01*
X03201Y03147*
X03196Y03139*
X03195Y03134*
X03213*
Y03153*
G37*
G36*
X03164D02*
Y03134D01*
X03182*
X03181Y03139*
X03176Y03147*
X03168Y03152*
X03164Y03153*
G37*
G36*
X03154D02*
X0315Y03152D01*
X03142Y03147*
X03137Y03139*
X03136Y03134*
X03154*
Y03153*
G37*
G36*
X03105D02*
Y03134D01*
X03123*
X03122Y03139*
X03117Y03147*
X03109Y03152*
X03105Y03153*
G37*
G36*
X03095D02*
X03091Y03152D01*
X03083Y03147*
X03077Y03139*
X03077Y03134*
X03095*
Y03153*
G37*
G36*
X03046D02*
Y03134D01*
X03064*
X03063Y03139*
X03058Y03147*
X0305Y03152*
X03046Y03153*
G37*
G36*
X04453D02*
X04449Y03152D01*
X04441Y03147*
X04436Y03139*
X04434Y03129*
X04434Y03129*
X04431Y03126*
X04425Y03126*
X04414Y03125*
X04404Y03121*
X04395Y03114*
X04388Y03105*
X04384Y03095*
X04383Y03085*
X04384Y03074*
X04388Y03064*
X04395Y03055*
X04404Y03048*
X04414Y03044*
X04425Y03043*
X04435Y03044*
X04445Y03048*
X04454Y03055*
X04461Y03064*
X04465Y03074*
X04466Y03085*
X04465Y03095*
X04463Y03101*
X04466Y03107*
X04467Y03107*
X04475Y03112*
X04481Y0312*
X04481Y03124*
X04458*
Y03129*
X04453*
Y03153*
G37*
G36*
X04325Y03126D02*
X04314Y03125D01*
X04309Y03123*
X04307Y03124*
X04286*
Y03102*
X04286Y03101*
X04284Y03095*
X04283Y03085*
X04284Y03074*
X04288Y03064*
X04295Y03055*
X04304Y03048*
X04314Y03044*
X04325Y03043*
X04335Y03044*
X04345Y03048*
X04354Y03055*
X04361Y03064*
X04365Y03074*
X04366Y03085*
X04365Y03095*
X04361Y03105*
X04354Y03114*
X04345Y03121*
X04335Y03125*
X04325Y03126*
G37*
G36*
X02934Y0316D02*
X0285D01*
X02851Y03152*
X02856Y0314*
X02864Y0313*
X02874Y03122*
X02886Y03117*
X02899Y03115*
X02934*
Y0316*
G37*
G36*
X04571Y03124D02*
X04553D01*
X04554Y0312*
X04559Y03112*
X04567Y03107*
X04571Y03106*
Y03124*
G37*
G36*
X0454D02*
X04522D01*
Y03106*
X04526Y03107*
X04534Y03112*
X0454Y0312*
X0454Y03124*
G37*
G36*
X04512D02*
X04494D01*
X04495Y0312*
X045Y03112*
X04508Y03107*
X04512Y03106*
Y03124*
G37*
G36*
X04276D02*
X04258D01*
X04259Y0312*
X04264Y03112*
X04272Y03107*
X04276Y03106*
Y03124*
G37*
G36*
X04245D02*
X04227D01*
Y03106*
X04231Y03107*
X04239Y03112*
X04244Y0312*
X04245Y03124*
G37*
G36*
X04217D02*
X04199D01*
X042Y0312*
X04205Y03112*
X04213Y03107*
X04217Y03106*
Y03124*
G37*
G36*
X04186D02*
X04168D01*
Y03106*
X04172Y03107*
X0418Y03112*
X04185Y0312*
X04186Y03124*
G37*
G36*
X04158D02*
X0414D01*
X0414Y0312*
X04146Y03112*
X04154Y03107*
X04158Y03106*
Y03124*
G37*
G36*
X04127D02*
X04109D01*
Y03106*
X04113Y03107*
X04121Y03112*
X04126Y0312*
X04127Y03124*
G37*
G36*
X04099D02*
X04081D01*
X04081Y0312*
X04087Y03112*
X04095Y03107*
X04099Y03106*
Y03124*
G37*
G36*
X04068D02*
X0405D01*
Y03106*
X04054Y03107*
X04062Y03112*
X04067Y0312*
X04068Y03124*
G37*
G36*
X0404D02*
X04022D01*
X04022Y0312*
X04028Y03112*
X04036Y03107*
X0404Y03106*
Y03124*
G37*
G36*
X04009D02*
X03991D01*
Y03106*
X03995Y03107*
X04003Y03112*
X04008Y0312*
X04009Y03124*
G37*
G36*
X03981D02*
X03962D01*
X03963Y0312*
X03969Y03112*
X03976Y03107*
X03981Y03106*
Y03124*
G37*
G36*
X03596D02*
X03577D01*
Y03106*
X03582Y03107*
X03589Y03112*
X03595Y0312*
X03596Y03124*
G37*
G36*
X03567D02*
X03549D01*
X0355Y0312*
X03555Y03112*
X03563Y03107*
X03567Y03106*
Y03124*
G37*
G36*
X033D02*
X03282D01*
Y03106*
X03286Y03107*
X03294Y03112*
X03299Y0312*
X033Y03124*
G37*
G36*
X03272D02*
X03254D01*
X03255Y0312*
X0326Y03112*
X03268Y03107*
X03272Y03106*
Y03124*
G37*
G36*
X03241D02*
X03223D01*
Y03106*
X03227Y03107*
X03235Y03112*
X0324Y0312*
X03241Y03124*
G37*
G36*
X03213D02*
X03195D01*
X03196Y0312*
X03201Y03112*
X03209Y03107*
X03213Y03106*
Y03124*
G37*
G36*
X03182D02*
X03164D01*
Y03106*
X03168Y03107*
X03176Y03112*
X03181Y0312*
X03182Y03124*
G37*
G36*
X03154D02*
X03136D01*
X03137Y0312*
X03142Y03112*
X0315Y03107*
X03154Y03106*
Y03124*
G37*
G36*
X03123D02*
X03105D01*
Y03106*
X03109Y03107*
X03117Y03112*
X03122Y0312*
X03123Y03124*
G37*
G36*
X03095D02*
X03077D01*
X03077Y0312*
X03083Y03112*
X03091Y03107*
X03095Y03106*
Y03124*
G37*
G36*
X03027Y0316D02*
X02944D01*
Y03115*
X02978*
X02991Y03117*
X03003Y03122*
X03012Y03128*
X03016Y03127*
X03017Y03127*
X03018Y03122*
X03018Y03121*
X03016Y03118*
X03015Y03117*
X03005Y03116*
X02994Y03111*
X02985Y03104*
X02978Y03095*
X02973Y03084*
X02972Y03077*
X03021*
X0307*
X0307Y03084*
X03065Y03095*
X03058Y03104*
X03056Y03106*
X03056Y03111*
X03058Y03112*
X03063Y0312*
X03064Y03124*
X03041*
Y03129*
X03036*
Y03153*
X03032Y03152*
X03031Y03152*
X03026Y03154*
X03027Y0316*
G37*
G36*
X04079Y03094D02*
Y03075D01*
X04098*
X04097Y0308*
X04091Y03088*
X04084Y03093*
X04079Y03094*
G37*
G36*
X04069D02*
X04065Y03093D01*
X04057Y03088*
X04052Y0308*
X04051Y03075*
X04069*
Y03094*
G37*
G36*
X0402D02*
Y03075D01*
X04039*
X04038Y0308*
X04032Y03088*
X04025Y03093*
X0402Y03094*
G37*
G36*
X0401D02*
X04006Y03093D01*
X03998Y03088*
X03993Y0308*
X03992Y03075*
X0401*
Y03094*
G37*
G36*
X03253D02*
Y03075D01*
X03271*
X0327Y0308*
X03265Y03088*
X03257Y03093*
X03253Y03094*
G37*
G36*
X03243D02*
X03238Y03093D01*
X0323Y03088*
X03225Y0308*
X03224Y03075*
X03243*
Y03094*
G37*
G36*
X03193D02*
Y03075D01*
X03212*
X03211Y0308*
X03206Y03088*
X03198Y03093*
X03193Y03094*
G37*
G36*
X03183D02*
X03179Y03093D01*
X03171Y03088*
X03166Y0308*
X03165Y03075*
X03183*
Y03094*
G37*
G36*
X03134D02*
Y03075D01*
X03153*
X03152Y0308*
X03147Y03088*
X03139Y03093*
X03134Y03094*
G37*
G36*
X03124D02*
X0312Y03093D01*
X03112Y03088*
X03107Y0308*
X03106Y03075*
X03124*
Y03094*
G37*
G36*
X02898D02*
Y03075D01*
X02916*
X02916Y0308*
X0291Y03088*
X02902Y03093*
X02898Y03094*
G37*
G36*
X02888D02*
X02884Y03093D01*
X02876Y03088*
X02871Y0308*
X0287Y03075*
X02888*
Y03094*
G37*
G36*
X04098Y03065D02*
X04079D01*
Y03047*
X04084Y03048*
X04091Y03053*
X04097Y03061*
X04098Y03065*
G37*
G36*
X04069D02*
X04051D01*
X04052Y03061*
X04057Y03053*
X04065Y03048*
X04069Y03047*
Y03065*
G37*
G36*
X04039D02*
X0402D01*
Y03047*
X04025Y03048*
X04032Y03053*
X04038Y03061*
X04039Y03065*
G37*
G36*
X0401D02*
X03992D01*
X03993Y03061*
X03998Y03053*
X04006Y03048*
X0401Y03047*
Y03065*
G37*
G36*
X03271D02*
X03253D01*
Y03047*
X03257Y03048*
X03265Y03053*
X0327Y03061*
X03271Y03065*
G37*
G36*
X03243D02*
X03224D01*
X03225Y03061*
X0323Y03053*
X03238Y03048*
X03243Y03047*
Y03065*
G37*
G36*
X03212D02*
X03193D01*
Y03047*
X03198Y03048*
X03206Y03053*
X03211Y03061*
X03212Y03065*
G37*
G36*
X03183D02*
X03165D01*
X03166Y03061*
X03171Y03053*
X03179Y03048*
X03183Y03047*
Y03065*
G37*
G36*
X03153D02*
X03134D01*
Y03047*
X03139Y03048*
X03147Y03053*
X03152Y03061*
X03153Y03065*
G37*
G36*
X03124D02*
X03106D01*
X03107Y03061*
X03112Y03053*
X0312Y03048*
X03124Y03047*
Y03065*
G37*
G36*
X02916D02*
X02898D01*
Y03047*
X02902Y03048*
X0291Y03053*
X02916Y03061*
X02916Y03065*
G37*
G36*
X02888D02*
X0287D01*
X02871Y03061*
X02876Y03053*
X02884Y03048*
X02888Y03047*
Y03065*
G37*
G36*
X0307Y03067D02*
X03026D01*
Y03027*
X03038Y03029*
X03049Y03033*
X03058Y03041*
X03065Y0305*
X0307Y03061*
X0307Y03067*
G37*
G36*
X03016D02*
X02972D01*
X02973Y03061*
X02978Y0305*
X02985Y03041*
X02994Y03033*
X03005Y03029*
X03016Y03027*
Y03067*
G37*
G36*
X03448Y03097D02*
X03301D01*
Y02992*
X03448*
Y03024*
X03545*
X03549Y03022*
X03558Y0302*
X03567Y03022*
X03575Y03027*
X0358Y03035*
X03582Y03045*
X0358Y03054*
X03575Y03062*
X03567Y03067*
X03558Y03069*
X03549Y03067*
X03546Y03065*
X03448*
Y03097*
G37*
G36*
X04099Y03035D02*
X04095Y03034D01*
X04087Y03028*
X04081Y03021*
X04081Y03016*
X04099*
Y03035*
G37*
G36*
X0405D02*
Y03016D01*
X04068*
X04067Y03021*
X04062Y03028*
X04054Y03034*
X0405Y03035*
G37*
G36*
X0404D02*
X04036Y03034D01*
X04028Y03028*
X04022Y03021*
X04022Y03016*
X0404*
Y03035*
G37*
G36*
X03991D02*
Y03016D01*
X04009*
X04008Y03021*
X04003Y03028*
X03995Y03034*
X03991Y03035*
G37*
G36*
X03981D02*
X03976Y03034D01*
X03969Y03028*
X03963Y03021*
X03962Y03016*
X03981*
Y03035*
G37*
G36*
X03873D02*
Y03016D01*
X03891*
X0389Y03021*
X03885Y03028*
X03877Y03034*
X03873Y03035*
G37*
G36*
X03863D02*
X03858Y03034D01*
X0385Y03028*
X03845Y03021*
X03844Y03016*
X03863*
Y03035*
G37*
G36*
X03105D02*
Y03016D01*
X03123*
X03122Y03021*
X03117Y03028*
X03109Y03034*
X03105Y03035*
G37*
G36*
X03095D02*
X03091Y03034D01*
X03083Y03028*
X03077Y03021*
X03077Y03016*
X03095*
Y03035*
G37*
G36*
X02869D02*
Y03016D01*
X02887*
X02886Y03021*
X02881Y03028*
X02873Y03034*
X02869Y03035*
G37*
G36*
X02859D02*
X02854Y03034D01*
X02847Y03028*
X02841Y03021*
X0284Y03016*
X02859*
Y03035*
G37*
G36*
X0378Y03034D02*
X0377Y03032D01*
X03762Y03027*
X03757Y03019*
X03755Y0301*
X03756Y03004*
X03753Y03*
X03699*
X03695Y03004*
X03697Y0301*
X03695Y03019*
X03689Y03027*
X03682Y03032*
X03672Y03034*
X03663Y03032*
X03655Y03027*
X0365Y03019*
X03648Y0301*
X03648Y03007*
X03631Y0299*
X03628Y02985*
X03626Y02979*
Y02969*
X03613*
Y02923*
Y02921*
Y02918*
Y02899*
X0367*
Y029*
X03675Y02902*
X03682Y02896*
Y02839*
X03812*
Y02914*
X03707*
X037Y02921*
X03702Y02925*
X03812*
Y0293*
X03823*
Y02923*
Y02921*
Y02918*
Y02916*
Y02899*
X0388*
Y02916*
X0388Y02918*
Y02921*
X0388Y02923*
Y02969*
X03823*
Y0296*
X03812*
Y03*
X03806*
X03803Y03004*
X03804Y0301*
X03802Y03019*
X03797Y03027*
X03789Y03032*
X0378Y03034*
G37*
G36*
X02939Y03059D02*
X0293Y03058D01*
X02922Y03054*
X02915Y03049*
X02909Y03042*
X02906Y03034*
X02905Y03025*
X02906Y03016*
X02909Y03008*
X02915Y03001*
X02922Y02996*
X0293Y02992*
X02939Y02991*
X02947Y02992*
X02956Y02996*
X02963Y03001*
X02968Y03008*
X02971Y03016*
X02973Y03025*
X02971Y03034*
X02968Y03042*
X02963Y03049*
X02956Y03054*
X02947Y03058*
X02939Y03059*
G37*
G36*
X02887Y03006D02*
X02869D01*
Y02988*
X02873Y02989*
X02881Y02994*
X02886Y03002*
X02887Y03006*
G37*
G36*
X02859D02*
X0284D01*
X02841Y03002*
X02847Y02994*
X02854Y02989*
X02859Y02988*
Y03006*
G37*
G36*
X04525Y03077D02*
X04514Y03076D01*
X04503Y03071*
X04494Y03065*
X04488Y03056*
X04484Y03045*
X04482Y03035*
X04484Y03024*
X04488Y03013*
X04494Y03004*
X04503Y02998*
X04514Y02994*
X04525Y02992*
X04535Y02994*
X04546Y02998*
X04549Y03001*
X04556Y02999*
X04559Y02994*
X04567Y02989*
X04571Y02988*
Y03011*
Y03035*
X04566Y03039*
X04566Y03045*
X04561Y03056*
X04555Y03065*
X04546Y03071*
X04535Y03076*
X04525Y03077*
G37*
G36*
X04099Y03006D02*
X04081D01*
X04081Y03002*
X04087Y02994*
X04095Y02989*
X04099Y02988*
Y03006*
G37*
G36*
X04068D02*
X0405D01*
Y02988*
X04054Y02989*
X04062Y02994*
X04067Y03002*
X04068Y03006*
G37*
G36*
X0404D02*
X04022D01*
X04022Y03002*
X04028Y02994*
X04036Y02989*
X0404Y02988*
Y03006*
G37*
G36*
X04009D02*
X03991D01*
Y02988*
X03995Y02989*
X04003Y02994*
X04008Y03002*
X04009Y03006*
G37*
G36*
X03981D02*
X03962D01*
X03963Y03002*
X03969Y02994*
X03976Y02989*
X03981Y02988*
Y03006*
G37*
G36*
X03891D02*
X03873D01*
Y02988*
X03877Y02989*
X03885Y02994*
X0389Y03002*
X03891Y03006*
G37*
G36*
X03863D02*
X03844D01*
X03845Y03002*
X0385Y02994*
X03858Y02989*
X03863Y02988*
Y03006*
G37*
G36*
X04255Y03082D02*
X04197D01*
Y03007*
X04201*
X04202Y03002*
X04197Y03*
X04185Y02994*
X04174Y02985*
X04165Y02974*
X04165Y02973*
X0416Y02974*
Y03007*
X04182*
Y03082*
X04124*
Y03043*
X04121Y03037*
X0412Y03034*
X04116Y03032*
X04113Y03034*
X04109Y03035*
Y03011*
Y02988*
X04113Y02989*
X04115Y0299*
X04119Y02988*
Y02901*
X04121Y02893*
X04125Y02887*
X04134Y02878*
Y02862*
X04124*
Y02845*
X0411*
X04102Y02843*
X04095Y02839*
X0407Y02814*
X04066Y02807*
X04064Y028*
Y02797*
X04059Y02794*
X04059Y02795*
X04054Y02797*
X0405Y02798*
Y02775*
Y02752*
X04054Y02753*
X04058Y02755*
X04063Y02752*
Y02737*
X04106*
Y02792*
X0411Y02796*
X04118Y02804*
X04124*
Y02787*
X04182*
Y02862*
X04175*
Y02878*
X04179Y0288*
X04185Y02875*
X04197Y02869*
X04202Y02867*
X04201Y02862*
X04197*
Y02787*
X04255*
Y02804*
X04265*
X04272Y02806*
X04279Y0281*
X04319Y0285*
X04325Y0285*
X04334Y02851*
X04342Y02854*
X04349Y0286*
X04355Y02867*
X04358Y02875*
X04359Y02885*
X04358Y02894*
X04355Y02902*
X04349Y02909*
X04342Y02915*
X04334Y02918*
X04325Y02919*
X04315Y02918*
X04307Y02915*
X043Y02909*
X04294Y02902*
X04291Y02894*
X0429Y02885*
X0429Y02879*
X0426Y02848*
X04255Y0285*
Y02862*
X04248*
X04247Y02867*
X04252Y02869*
X04264Y02875*
X04275Y02884*
X04284Y02895*
X0429Y02907*
X04295Y02921*
X04296Y02935*
X04295Y02948*
X0429Y02962*
X04284Y02974*
X04275Y02985*
X04264Y02994*
X04252Y03*
X04247Y03002*
X04248Y03007*
X04255*
Y03008*
X0426Y03011*
X04265Y03007*
X04275Y03005*
X04284Y03007*
X04292Y03012*
X04297Y0302*
X04299Y0303*
X04297Y03039*
X04292Y03047*
X04284Y03052*
X0428Y03053*
X04274Y03059*
X04267Y03063*
X0426Y03065*
X04255*
Y03082*
G37*
G36*
X03031Y03014D02*
X03012D01*
X03001Y03012*
X02992Y03008*
X02983Y03002*
X02977Y02994*
X02973Y02984*
X02972Y02974*
X02967Y02971*
X02962Y02975*
X02957Y02976*
Y02952*
Y02929*
X02962Y0293*
X02969Y02935*
X02975Y02943*
X02976Y02948*
X02981Y02949*
X02983Y02946*
X02992Y02939*
X02997Y02937*
Y02932*
X02992Y0293*
X02983Y02923*
X02977Y02915*
X02973Y02905*
X02972Y02895*
X02973Y02885*
X02977Y02875*
X02983Y02867*
X02992Y02861*
X03001Y02857*
X03012Y02855*
X03031*
X03042Y02857*
X03051Y02861*
X03059Y02867*
X03066Y02875*
X03068Y02882*
X03077*
Y02875*
X03132*
Y02919*
X03077*
Y02912*
X03067*
X03066Y02915*
X03059Y02923*
X03051Y0293*
X03046Y02932*
Y02937*
X03051Y02939*
X03059Y02946*
X03066Y02954*
X03068Y02959*
X03077*
Y0295*
X03132*
Y02994*
X03123*
X0312Y02999*
X03122Y03002*
X03123Y03006*
X03077*
X03077Y03002*
X0308Y02999*
X03077Y02994*
X03077*
Y02989*
X03068*
X03066Y02994*
X03059Y03002*
X03051Y03008*
X03042Y03012*
X03031Y03014*
G37*
G36*
X02947Y02976D02*
X02943Y02975D01*
X02935Y02969*
X0293Y02962*
X02929Y02957*
X02947*
Y02976*
G37*
G36*
X02898D02*
Y02957D01*
X02916*
X02916Y02962*
X0291Y02969*
X02902Y02975*
X02898Y02976*
G37*
G36*
X02888D02*
X02884Y02975D01*
X02876Y02969*
X02871Y02962*
X0287Y02957*
X02888*
Y02976*
G37*
G36*
X0454Y02963D02*
Y0294D01*
X04559*
Y02963*
X0454*
G37*
G36*
X03222Y02956D02*
X032D01*
Y0294*
X03222*
Y02956*
G37*
G36*
X0319D02*
X03167D01*
Y0294*
X0319*
Y02956*
G37*
G36*
X02947Y02947D02*
X02929D01*
X0293Y02943*
X02935Y02935*
X02943Y0293*
X02947Y02929*
Y02947*
G37*
G36*
X02916D02*
X02898D01*
Y02929*
X02902Y0293*
X0291Y02935*
X02916Y02943*
X02916Y02947*
G37*
G36*
X02888D02*
X0287D01*
X02871Y02943*
X02876Y02935*
X02884Y0293*
X02888Y02929*
Y02947*
G37*
G36*
X03222Y0293D02*
X032D01*
Y02913*
X03222*
Y0293*
G37*
G36*
X0319D02*
X03167D01*
Y02913*
X0319*
Y0293*
G37*
G36*
X04559D02*
X0454D01*
Y02906*
X04551*
X04554Y02901*
X04553Y02898*
X04571*
Y02916*
X04567Y02916*
X04564Y02914*
X04559Y02916*
Y0293*
G37*
G36*
X02928Y02916D02*
Y02898D01*
X02946*
X02945Y02902*
X0294Y0291*
X02932Y02916*
X02928Y02916*
G37*
G36*
X02918D02*
X02913Y02916D01*
X02906Y0291*
X029Y02902*
X02899Y02898*
X02918*
Y02916*
G37*
G36*
X02869D02*
Y02898D01*
X02887*
X02886Y02902*
X02881Y0291*
X02873Y02916*
X02869Y02916*
G37*
G36*
X02859D02*
X02854Y02916D01*
X02847Y0291*
X02841Y02902*
X0284Y02898*
X02859*
Y02916*
G37*
G36*
X0388Y02889D02*
X03857D01*
Y0287*
X0388*
Y02889*
G37*
G36*
X03847D02*
X03823D01*
Y0287*
X03847*
Y02889*
G37*
G36*
X0367D02*
X03647D01*
Y0287*
X0367*
Y02889*
G37*
G36*
X03637D02*
X03613D01*
Y0287*
X03637*
Y02889*
G37*
G36*
X04571Y02888D02*
X04553D01*
X04554Y02884*
X04559Y02876*
X04567Y02871*
X04571Y0287*
Y02888*
G37*
G36*
X02887D02*
X02869D01*
Y0287*
X02873Y02871*
X02881Y02876*
X02886Y02884*
X02887Y02888*
G37*
G36*
X02859D02*
X0284D01*
X02841Y02884*
X02847Y02876*
X02854Y02871*
X02859Y0287*
Y02888*
G37*
G36*
X04375Y02857D02*
Y02839D01*
X04393*
X04392Y02843*
X04387Y02851*
X04379Y02857*
X04375Y02857*
G37*
G36*
X04365D02*
X0436Y02857D01*
X04352Y02851*
X04347Y02843*
X04346Y02839*
X04365*
Y02857*
G37*
G36*
X0402D02*
Y02839D01*
X04039*
X04038Y02843*
X04032Y02851*
X04025Y02857*
X0402Y02857*
G37*
G36*
X0401D02*
X04006Y02857D01*
X03998Y02851*
X03993Y02843*
X03992Y02839*
X0401*
Y02857*
G37*
G36*
X03535Y0291D02*
X0339D01*
X03384Y02909*
X03379Y02905*
X03369Y02895*
X03365Y0289*
X03364Y02885*
Y02867*
X03345*
Y02762*
X03404*
Y02867*
X03395*
Y02878*
X03396Y02879*
X03527*
X03531Y02875*
Y02848*
Y02846*
Y02843*
Y02841*
Y02824*
X03588*
Y02841*
Y02843*
Y02846*
Y02848*
Y02894*
X03557*
X03546Y02905*
X03541Y02909*
X03535Y0291*
G37*
G36*
X04365Y02829D02*
X04346D01*
X04347Y02825*
X04346Y02824*
X04343Y02822*
X04335Y02825*
X04325Y02826*
X04314Y02825*
X04304Y02821*
X04295Y02814*
X04288Y02805*
X04284Y02795*
X04283Y02785*
X04284Y02774*
X04288Y02764*
X04295Y02755*
X04304Y02748*
X04309Y02746*
X04309Y02745*
X04305Y02739*
X04301Y02738*
X04293Y02733*
X04288Y02725*
X04287Y02721*
X04334*
X04333Y02725*
X04328Y02733*
X0432Y02738*
X04321Y02743*
X04325Y02743*
X04335Y02744*
X04345Y02748*
X04354Y02755*
X04361Y02764*
X04365Y02774*
X04366Y02785*
X04365Y02795*
X04361Y02805*
X0436Y02807*
X04363Y02811*
X04365Y02811*
Y02829*
G37*
G36*
X03495Y02867D02*
X0347D01*
Y02819*
X03495*
Y02867*
G37*
G36*
X0346D02*
X03435D01*
Y02819*
X0346*
Y02867*
G37*
G36*
X04393Y02829D02*
X04375D01*
Y02811*
X04379Y02812*
X04387Y02817*
X04392Y02825*
X04393Y02829*
G37*
G36*
X04039D02*
X0402D01*
Y02811*
X04025Y02812*
X04032Y02817*
X04038Y02825*
X04039Y02829*
G37*
G36*
X0401D02*
X03992D01*
X03993Y02825*
X03998Y02817*
X04006Y02812*
X0401Y02811*
Y02829*
G37*
G36*
X02946Y02888D02*
X02899D01*
X029Y02884*
X02906Y02876*
X02912Y02872*
X02912Y02871*
X02913Y02867*
X02913Y02866*
X02909Y02861*
X02906Y02853*
X02905Y02844*
X02906Y02835*
X02909Y02827*
X02915Y0282*
X02922Y02815*
X0293Y02811*
X02939Y0281*
X02947Y02811*
X02956Y02815*
X02963Y0282*
X02968Y02827*
X02971Y02835*
X02973Y02844*
X02971Y02853*
X02968Y02861*
X02963Y02868*
X02956Y02873*
X02947Y02877*
X02946Y02877*
X02944Y02882*
X02945Y02884*
X02946Y02888*
G37*
G36*
X03588Y02814D02*
X03565D01*
Y02795*
X03588*
Y02814*
G37*
G36*
X03555D02*
X03531D01*
Y02795*
X03555*
Y02814*
G37*
G36*
X04571Y02798D02*
X04567Y02797D01*
X04559Y02792*
X04554Y02784*
X04553Y0278*
X04571*
Y02798*
G37*
G36*
X0404D02*
X04036Y02797D01*
X04028Y02792*
X04022Y02784*
X04022Y0278*
X0404*
Y02798*
G37*
G36*
X03991D02*
Y0278D01*
X04009*
X04008Y02784*
X04003Y02792*
X03995Y02797*
X03991Y02798*
G37*
G36*
X03981D02*
X03976Y02797D01*
X03969Y02792*
X03963Y02784*
X03962Y0278*
X03981*
Y02798*
G37*
G36*
X02928D02*
Y0278D01*
X02946*
X02945Y02784*
X0294Y02792*
X02932Y02797*
X02928Y02798*
G37*
G36*
X02918D02*
X02913Y02797D01*
X02906Y02792*
X029Y02784*
X02899Y0278*
X02918*
Y02798*
G37*
G36*
X02869D02*
Y0278D01*
X02887*
X02886Y02784*
X02881Y02792*
X02873Y02797*
X02869Y02798*
G37*
G36*
X02859D02*
X02854Y02797D01*
X02847Y02792*
X02841Y02784*
X0284Y0278*
X02859*
Y02798*
G37*
G36*
X03495Y02809D02*
X0347D01*
Y02762*
X03495*
Y02809*
G37*
G36*
X0346D02*
X03435D01*
Y02762*
X0346*
Y02809*
G37*
G36*
X04571Y0277D02*
X04553D01*
X04554Y02766*
X04559Y02758*
X04567Y02753*
X04571Y02752*
Y0277*
G37*
G36*
X0404D02*
X04022D01*
X04022Y02766*
X04028Y02758*
X04036Y02753*
X0404Y02752*
Y0277*
G37*
G36*
X02887D02*
X02869D01*
Y02752*
X02873Y02753*
X02881Y02758*
X02886Y02766*
X02887Y0277*
G37*
G36*
X02859D02*
X0284D01*
X02841Y02766*
X02847Y02758*
X02854Y02753*
X02859Y02752*
Y0277*
G37*
G36*
X04552Y02739D02*
Y02721D01*
X0457*
X04569Y02725*
X04564Y02733*
X04556Y02738*
X04552Y02739*
G37*
G36*
X04375D02*
Y02721D01*
X04393*
X04392Y02725*
X04387Y02733*
X04379Y02738*
X04375Y02739*
G37*
G36*
X04365D02*
X0436Y02738D01*
X04352Y02733*
X04347Y02725*
X04346Y02721*
X04365*
Y02739*
G37*
G36*
X04256D02*
Y02721D01*
X04275*
X04274Y02725*
X04269Y02733*
X04261Y02738*
X04256Y02739*
G37*
G36*
X04246D02*
X04242Y02738D01*
X04234Y02733*
X04229Y02725*
X04228Y02721*
X04246*
Y02739*
G37*
G36*
X04197D02*
Y02721D01*
X04216*
X04215Y02725*
X0421Y02733*
X04202Y02738*
X04197Y02739*
G37*
G36*
X04187D02*
X04183Y02738D01*
X04175Y02733*
X0417Y02725*
X04169Y02721*
X04187*
Y02739*
G37*
G36*
X03405Y02743D02*
Y0272D01*
X03424*
Y02743*
X03405*
G37*
G36*
X02946Y0277D02*
X02899D01*
X029Y02766*
X02905Y02759*
X02903Y02754*
X02899*
X02886Y02752*
X02874Y02747*
X02864Y02739*
X02856Y02729*
X02851Y02717*
X0285Y02709*
X03027*
X03026Y02717*
X03021Y02729*
X03013Y02739*
X03003Y02747*
X02991Y02752*
X02978Y02754*
X02942*
X02941Y02759*
X02945Y02766*
X02946Y0277*
G37*
G36*
X0457Y02711D02*
X04552D01*
Y02693*
X04556Y02694*
X04564Y02699*
X04569Y02707*
X0457Y02711*
G37*
G36*
X04452D02*
X04434D01*
Y02693*
X04438Y02694*
X04446Y02699*
X04451Y02707*
X04452Y02711*
G37*
G36*
X04424D02*
X04405D01*
X04406Y02707*
X04411Y02699*
X04419Y02694*
X04424Y02693*
Y02711*
G37*
G36*
X04393D02*
X04375D01*
Y02693*
X04379Y02694*
X04387Y02699*
X04392Y02707*
X04393Y02711*
G37*
G36*
X04365D02*
X04346D01*
X04347Y02707*
X04352Y02699*
X0436Y02694*
X04365Y02693*
Y02711*
G37*
G36*
X04334D02*
X04316D01*
Y02693*
X0432Y02694*
X04328Y02699*
X04333Y02707*
X04334Y02711*
G37*
G36*
X04306D02*
X04287D01*
X04288Y02707*
X04293Y02699*
X04301Y02694*
X04306Y02693*
Y02711*
G37*
G36*
X04275D02*
X04256D01*
Y02693*
X04261Y02694*
X04269Y02699*
X04274Y02707*
X04275Y02711*
G37*
G36*
X04246D02*
X04228D01*
X04229Y02707*
X04234Y02699*
X04242Y02694*
X04246Y02693*
Y02711*
G37*
G36*
X04216D02*
X04197D01*
Y02693*
X04202Y02694*
X0421Y02699*
X04215Y02707*
X04216Y02711*
G37*
G36*
X04187D02*
X04169D01*
X0417Y02707*
X04175Y02699*
X04183Y02694*
X04187Y02693*
Y02711*
G37*
G36*
X03424Y0271D02*
X03405D01*
Y02686*
X03424*
Y0271*
G37*
G36*
X04571Y0268D02*
X04567Y02679D01*
X04559Y02674*
X04554Y02666*
X04553Y02662*
X04571*
Y0268*
G37*
G36*
X03046D02*
Y02662D01*
X03064*
X03063Y02666*
X03058Y02674*
X0305Y02679*
X03046Y0268*
G37*
G36*
X03036D02*
X03032Y02679D01*
X03024Y02674*
X03018Y02666*
X03018Y02662*
X03036*
Y0268*
G37*
G36*
X03424Y02678D02*
X03405D01*
Y02655*
X03424*
Y02678*
G37*
G36*
X03027Y02699D02*
X02944D01*
Y02654*
X02978*
X02991Y02656*
X03003Y02661*
X03013Y02669*
X03021Y02679*
X03026Y02691*
X03027Y02699*
G37*
G36*
X02934D02*
X0285D01*
X02851Y02691*
X02856Y02679*
X02864Y02669*
X02874Y02661*
X02886Y02656*
X02899Y02654*
X02934*
Y02699*
G37*
G36*
X04003Y02669D02*
X0398D01*
Y0265*
X04003*
Y02669*
G37*
G36*
X0397D02*
X03946D01*
Y0265*
X0397*
Y02669*
G37*
G36*
X04571Y02652D02*
X04553D01*
X04554Y02648*
X04559Y0264*
X04567Y02635*
X04571Y02634*
Y02652*
G37*
G36*
X0454D02*
X04522D01*
Y02634*
X04526Y02635*
X04534Y0264*
X0454Y02648*
X0454Y02652*
G37*
G36*
X03064D02*
X03046D01*
Y02634*
X0305Y02635*
X03058Y0264*
X03063Y02648*
X03064Y02652*
G37*
G36*
X03036D02*
X03018D01*
X03018Y02648*
X03024Y0264*
X03032Y02635*
X03036Y02634*
Y02652*
G37*
%LNmidi_stick-3*%
%LPD*%
G54D13*
X03975Y02725D02*
X04034D01*
X04045Y02715*
X0411*
X04122Y02702*
Y02674D02*
Y02702D01*
G54D15*
X03891Y02725D02*
X03975D01*
X0386Y02693D02*
X03891Y02725D01*
X0357Y02625D02*
Y02758D01*
X0378Y02964D02*
Y0301D01*
X03778Y02963D02*
X0378Y02964D01*
X03642Y02979D02*
X03672Y0301D01*
X03642Y02945D02*
Y02979D01*
X03675Y02925D02*
X03715Y02884D01*
X03662Y02925D02*
X03675D01*
X03715Y02876D02*
Y02884D01*
X03796Y02945D02*
X03852D01*
X03778Y02963D02*
X03796Y02945D01*
X03642D02*
X03662Y02925D01*
X03375Y02814D02*
X0338Y02819D01*
Y02885*
X0339Y02895*
X03535*
X0356Y0287*
X03266Y02797D02*
X03284Y02814D01*
X03102Y02974D02*
X03104Y02972D01*
X03021Y02974D02*
X03102D01*
X03021Y02895D02*
X03023Y02897D01*
X03104*
G54D16*
X04484Y02935D03*
X04535D03*
X03349Y02715D03*
X034D03*
X03349Y0265D03*
X034D03*
G54D17*
X03975Y02725D03*
Y02674D03*
X0356Y0287D03*
Y02819D03*
X03852Y02945D03*
Y02894D03*
X03642Y02945D03*
Y02894D03*
G54D37*
X04226Y02825D02*
X04265D01*
X04225D02*
X04226D01*
X0414Y0303D02*
X04155Y03045D01*
Y02825D02*
Y02886D01*
X04153Y02825D02*
X04155D01*
X0411D02*
X04153D01*
X0414Y02901D02*
X04155Y02886D01*
X0426Y03045D02*
X04275Y0303D01*
X04226Y03045D02*
X0426D01*
X0414Y02901D02*
Y0303D01*
X04425Y02985D02*
X0446D01*
X04325D02*
X04425D01*
X0432D02*
X04325D01*
X0446D02*
X04484Y0296D01*
Y02935D02*
Y0296D01*
X045Y02693D02*
Y02784D01*
X04475Y02809D02*
X045Y02784D01*
X04475Y02809D02*
Y0287D01*
X04484Y02879D02*
Y02935D01*
X04475Y0287D02*
X04484Y02879D01*
X04431Y02625D02*
X045Y02693D01*
X04085Y02765D02*
Y028D01*
X0411Y02825*
X04265D02*
X04325Y02885D01*
X0357Y02617D02*
Y02625D01*
X04431*
X0384Y03175D02*
X03845Y0318D01*
X03935Y0309*
Y02975D02*
Y0309D01*
X03557Y02605D02*
X0357Y02617D01*
X0336Y02605D02*
X03557D01*
X03349Y02615D02*
X0336Y02605D01*
X03349Y02615D02*
Y0265D01*
X03558Y03045D02*
X03558Y03045D01*
X03375Y03045D02*
X03558D01*
X03021Y02797D02*
X0315D01*
X03266*
X0331Y02715D02*
X03349D01*
X03284Y0274D02*
X0331Y02715D01*
X03284Y0274D02*
Y02814D01*
X03349Y0265D02*
Y02715D01*
G54D38*
X04425Y02885D03*
Y02985D03*
X04325Y02885D03*
Y02985D03*
G54D39*
X04225Y02935D03*
G54D40*
X04425Y03085D03*
Y02785D03*
X04325D03*
Y03085D03*
G54D41*
X03021Y03072D03*
Y02797D03*
G54D42*
X03021Y02974D03*
Y02895D03*
G54D43*
X02939Y02704D03*
Y03165D03*
G54D44*
X03135Y0322D03*
G54D45*
X03235Y0322D03*
G54D46*
X04015Y02674D03*
X04275Y0303D03*
X04576Y03248D03*
X04547Y03188D03*
X04576Y03129D03*
Y03011D03*
Y02893D03*
Y02775D03*
X04547Y02716D03*
X04576Y02657D03*
X04517Y03248D03*
X04488Y03188D03*
X04517Y03129D03*
Y02657D03*
X04458Y03248D03*
X04429Y03188D03*
X04458Y03129D03*
X04429Y02716D03*
X04399Y03248D03*
X0437Y03188D03*
Y02834D03*
Y02716D03*
X0434Y03248D03*
X04311Y03188D03*
Y02716D03*
X04281Y03248D03*
X04251Y03188D03*
X04281Y03129D03*
X04251Y02716D03*
X04222Y03248D03*
X04192Y03188D03*
X04222Y03129D03*
X04192Y02716D03*
X04163Y03248D03*
X04133Y03188D03*
X04163Y03129D03*
X04104Y03248D03*
X04074Y03188D03*
X04104Y03129D03*
X04074Y0307D03*
X04104Y03011D03*
X04045Y03248D03*
Y03129D03*
X04015Y0307D03*
X04045Y03011D03*
X04015Y02834D03*
X04045Y02775D03*
X03986Y03129D03*
Y03011D03*
Y02775D03*
X03868Y03011D03*
X03572Y03129D03*
X03484Y03188D03*
X03454Y03248D03*
X03395D03*
X03336D03*
X03277Y03129D03*
X03248Y0307D03*
X03188Y03188D03*
X03218Y03129D03*
X03188Y0307D03*
X03159Y03129D03*
X03129Y0307D03*
X0307Y03188D03*
X031Y03129D03*
Y03011D03*
X03041Y03248D03*
Y03129D03*
Y02657D03*
X02982Y03248D03*
X02952Y02952D03*
X02923Y03248D03*
X02893Y0307D03*
Y02952D03*
X02923Y02893D03*
Y02775D03*
X02864Y03248D03*
Y03011D03*
Y02893D03*
Y02775D03*
X0384Y03175D03*
X03935Y02975D03*
X03558Y03045D03*
X0357Y02758D03*
X0315Y02797D03*
X0386Y02693D03*
X0378Y0301D03*
X03672D03*
G54D47*
X0377Y0323D03*
G54D48*
X04226Y03045D03*
X04153D03*
X04226Y02825D03*
X04153D03*
G54D49*
X04085Y02765D03*
X04047Y02674D03*
X04122D03*
G54D50*
X03195Y02935D03*
X03104Y02972D03*
Y02897D03*
G54D51*
X03778Y02876D03*
X03715D03*
X03778Y02963D03*
X03715D03*
G54D52*
X03375Y03045D03*
G54D53*
X03284Y02814D03*
X03375D03*
X03465D03*
M02*