%FSTAX23Y23*%
%MOIN*%
%SFA1B1*%

%IPPOS*%
%ADD16R,0.027560X0.037400*%
%ADD17R,0.037400X0.027560*%
%ADD18C,0.078740*%
%ADD19R,0.019680X0.023620*%
%ADD20O,0.015750X0.064960*%
%LNmidi_stick-1*%
%LPD*%
G54D16*
X03525Y0276D03*
X03474D03*
X03945Y03145D03*
X03894D03*
X0341Y03205D03*
X03359D03*
X03505Y02975D03*
X03453D03*
G54D17*
X03936Y027D03*
Y02649D03*
X03731Y0271D03*
Y02659D03*
X04085Y02894D03*
Y02945D03*
X04025Y02894D03*
Y02945D03*
X03415Y03084D03*
Y03135D03*
X03335Y03016D03*
Y02965D03*
X0326Y03016D03*
Y02965D03*
X03185Y03016D03*
Y02965D03*
Y02855D03*
Y02906D03*
X0326Y02855D03*
Y02906D03*
X03335Y02855D03*
Y02906D03*
G54D18*
X0357Y0323D03*
X0367D03*
X0377D03*
X0387D03*
X0397D03*
G54D19*
X03355Y03139D03*
Y0308D03*
G54D20*
X03603Y02782D03*
X03629D03*
X03654D03*
X0368D03*
X03706D03*
X03731D03*
X03757D03*
X03782D03*
X03808D03*
X03833D03*
X03859D03*
X03885D03*
X0391D03*
X03936D03*
X03603Y03067D03*
X03629D03*
X03654D03*
X0368D03*
X03706D03*
X03731D03*
X03757D03*
X03782D03*
X03808D03*
X03833D03*
X03859D03*
X03885D03*
X0391D03*
X03936D03*
M02*