%FSTAX23Y23*%
%MOIN*%
%SFA1B1*%

%IPPOS*%
%ADD9500C,0.015750*%
%ADD9501C,0.019680*%
%ADD9502C,0.023620*%
%ADD9503C,0.028000*%
%ADD9504C,0.031500*%
%ADD9505C,0.035430*%
%ADD9506C,0.039370*%
%ADD9507C,0.047240*%
%ADD9508C,0.064170*%
%ADD9509C,0.122050*%
%LNmidi_stick-roundholes-1*%
%LPD*%
G54D9500*
X0315Y02797D03*
X0357Y02758D03*
X03558Y03045D03*
X03672Y0301D03*
X03731Y03015D03*
X03935Y02975D03*
X04015Y02674D03*
X03833Y0269D03*
X0384Y03175D03*
X04246Y03137D03*
G54D9501*
X03149Y02677D03*
X03228D03*
X03307D03*
X03188Y02755D03*
X03228Y02834D03*
X03267Y02913D03*
Y0307D03*
X03582Y02913D03*
X03897D03*
X03976Y0307D03*
X04055D03*
X04173Y02677D03*
X04251D03*
X0433D03*
X04409D03*
X04566D03*
Y02992D03*
X03031Y0307D03*
X02795D03*
Y02913D03*
X02874D03*
X03031Y02755D03*
X02992Y02677D03*
Y03149D03*
X03031Y03228D03*
X02952D03*
X02795D03*
X03307Y03149D03*
X03503Y03228D03*
X04015Y03149D03*
X04094D03*
X04173D03*
X04212Y03228D03*
X04291D03*
X0437D03*
X04448D03*
X04527D03*
X04566Y03149D03*
X04488D03*
X04409D03*
G54D9502*
X04325Y02885D03*
Y02985D03*
X04425D03*
Y02885D03*
G54D9503*
X0377Y0323D03*
G54D9504*
X04325Y02785D03*
X04425D03*
Y03085D03*
X04325D03*
G54D9505*
X0321Y03117D03*
X0311D03*
G54D9506*
X02943Y02797D03*
Y02895D03*
Y02974D03*
Y03072D03*
G54D9507*
X0286Y02844D03*
Y03025D03*
G54D9508*
X04525Y02835D03*
Y03035D03*
G54D9509*
X04225Y02935D03*
M02*