%FSTAX23Y23*%
%MOIN*%
%SFA1B1*%

%IPPOS*%
%ADD20R,0.045400X0.035560*%
%ADD21R,0.035560X0.045400*%
%ADD25C,0.067060*%
%ADD26R,0.067060X0.067060*%
%ADD27C,0.070990*%
%ADD28C,0.057210*%
%ADD29C,0.008000*%
%ADD30C,0.068000*%
%ADD31O,0.086740X0.076900*%
%ADD32O,0.086740X0.067060*%
%ADD33O,0.165480X0.086740*%
%ADD34C,0.035560*%
%ADD35C,0.058000*%
%ADD55R,0.045400X0.063120*%
%ADD56R,0.031620X0.043430*%
%ADD57R,0.043430X0.031620*%
%ADD58R,0.055240X0.063120*%
%ADD59R,0.135950X0.092650*%
%ADD60R,0.047370X0.092650*%
%LNmidi_stick-1*%
%LPD*%
G54D20*
X03975Y02725D03*
Y02674D03*
X0356Y0287D03*
Y02819D03*
X03852Y02945D03*
Y02894D03*
X03642Y02945D03*
Y02894D03*
G54D21*
X03518Y02715D03*
X0357D03*
X04484Y02935D03*
X04535D03*
X03349Y02715D03*
X034D03*
X03349Y0265D03*
X034D03*
G54D25*
X0311Y03117D03*
G54D26*
X0321Y03117D03*
G54D27*
X04325Y03085D03*
Y02785D03*
X04425D03*
Y03085D03*
G54D28*
X04325Y02985D03*
Y02885D03*
X04425Y02985D03*
Y02885D03*
G54D29*
X04525Y03035D03*
Y02835D03*
X0286Y02844D03*
Y03025D03*
G54D30*
X04225Y02935D03*
G54D31*
X02943Y03072D03*
Y02797D03*
G54D32*
X02943Y02974D03*
Y02895D03*
G54D33*
X0286Y02704D03*
Y03165D03*
G54D34*
X04246Y03137D03*
X03833Y0269D03*
X03935Y02975D03*
X0357Y02758D03*
X0315Y02797D03*
G54D35*
X0377Y0323D03*
G54D55*
X04247Y03085D03*
X04175D03*
X04247Y02784D03*
X04175D03*
G54D56*
X04085Y02765D03*
X04047Y02674D03*
X04122D03*
G54D57*
X03195Y02935D03*
X03104Y02972D03*
Y02897D03*
G54D58*
X03778Y02876D03*
X03715D03*
X03778Y02963D03*
X03715D03*
G54D59*
X03375Y03045D03*
G54D60*
X03284Y02814D03*
X03375D03*
X03465D03*
M02*