%FSTAX23Y23*%
%MOIN*%
%SFA1B1*%

%IPPOS*%
%ADD10C,0.003940*%
%ADD11C,0.023620*%
%ADD12C,0.009840*%
%ADD13C,0.007870*%
%ADD14C,0.011810*%
%ADD15C,0.010000*%
%LNmidi_stick-1*%
%LPD*%
G36*
X03223Y02701D02*
X03224D01*
Y02699*
Y02698*
Y02697*
X03223*
Y02695*
X03195*
Y02697*
Y02698*
Y02699*
Y02701*
X03196*
Y02702*
X03223*
Y02701*
G37*
G36*
X03213Y02769D02*
Y02767D01*
Y02766*
Y02765*
Y02763*
Y02762*
Y0276*
Y02759*
Y02758*
Y02756*
Y02755*
Y02754*
Y02752*
Y02751*
Y02749*
Y02748*
Y02747*
Y02745*
Y02744*
Y02742*
Y02741*
Y0274*
Y02738*
X03242*
Y02737*
X03244*
Y02735*
X03245*
Y02734*
Y02733*
X03244*
Y02731*
X03175*
Y02733*
X03174*
Y02734*
Y02735*
Y02737*
X03175*
Y02738*
X03205*
Y0274*
Y02741*
Y02742*
Y02744*
Y02745*
Y02747*
Y02748*
Y02749*
Y02751*
Y02752*
Y02754*
Y02755*
Y02756*
Y02758*
Y02759*
Y0276*
Y02762*
Y02763*
Y02765*
Y02766*
Y02767*
Y02769*
Y0277*
X03213*
Y02769*
G37*
G36*
X03235Y02717D02*
Y02716D01*
Y02715*
Y02713*
X03233*
Y02712*
X03187*
Y02713*
X03186*
Y02715*
X03184*
Y02716*
Y02717*
X03186*
Y02719*
X03235*
Y02717*
G37*
G36*
X03111Y0276D02*
X03112D01*
X03112Y0276*
X03113Y02759*
X03114Y02759*
X03115Y02759*
X03116Y02759*
X03117Y02758*
X03119Y02757*
X0312Y02757*
X03121Y02756*
X03122Y02755*
X03124Y02754*
X03125Y02753*
X03121Y02748*
X03121Y02748*
X0312Y02749*
X0312Y02749*
X0312Y02749*
X03119Y0275*
X03119Y0275*
X03117Y02751*
X03116Y02752*
X03114Y02753*
X03113Y02753*
X03112Y02753*
X03111Y02753*
X0311Y02754*
X0311*
X03109Y02753*
X03108Y02753*
X03107Y02753*
X03106Y02753*
X03105Y02752*
X03105Y02751*
X03104Y02751*
X03104Y02751*
X03104Y02751*
X03103Y0275*
X03103Y02749*
X03103Y02748*
X03102Y02747*
X03102Y02746*
Y02746*
Y02746*
X03102Y02745*
X03102Y02745*
X03103Y02744*
X03103Y02743*
X03103Y02742*
X03104Y02741*
X03104Y02741*
X03105Y02741*
X03105Y0274*
X03106Y0274*
X03107Y02739*
X03108Y02739*
X03108Y02738*
X03109Y02738*
X0311Y02737*
X03111Y02736*
X03112Y02736*
X03112Y02736*
X03113Y02736*
X03113Y02735*
X03114Y02735*
X03114Y02735*
X03115Y02734*
X03116Y02733*
X03118Y02732*
X0312Y02731*
X03121Y0273*
X03122Y02729*
X03123Y02728*
X03123Y02728*
X03123Y02728*
X03123Y02727*
X03124Y02726*
X03124Y02725*
X03125Y02723*
X03125Y02722*
X03125Y0272*
Y0272*
Y0272*
Y02719*
X03125Y02719*
X03125Y02718*
X03125Y02718*
X03125Y02716*
X03124Y02714*
X03123Y02713*
X03123Y02712*
X03122Y02711*
X03121Y0271*
X03121Y02709*
X03121Y02709*
X0312Y02709*
X0312Y02709*
X0312Y02708*
X03119Y02708*
X03119Y02708*
X03118Y02707*
X03118Y02707*
X03116Y02706*
X03114Y02705*
X03112Y02705*
X0311Y02705*
X03109Y02705*
X03109*
X03108Y02705*
X03106Y02705*
X03105Y02705*
X03104Y02705*
X03102Y02706*
X03101Y02706*
X031*
X031Y02707*
X031Y02707*
X03099Y02707*
X03098Y02708*
X03097Y02709*
X03096Y0271*
X03095Y02711*
X03094Y02712*
X03098Y02717*
X03098Y02717*
X03098Y02717*
X03098Y02716*
X03099Y02716*
X03099Y02715*
X031Y02715*
X03101Y02714*
X03103Y02713*
X03105Y02712*
X03106Y02712*
X03107Y02711*
X03108Y02711*
X03109Y02711*
X03109*
X0311Y02711*
X0311Y02711*
X03111Y02711*
X03112Y02712*
X03114Y02712*
X03115Y02713*
X03116Y02714*
X03116Y02714*
X03116Y02714*
X03117Y02715*
X03117Y02715*
X03118Y02716*
X03118Y02717*
X03119Y02718*
X03119Y0272*
Y0272*
Y0272*
X03119Y02721*
X03119Y02721*
X03118Y02722*
X03118Y02723*
X03118Y02724*
X03117Y02725*
X03117Y02725*
X03116Y02725*
X03116Y02726*
X03115Y02726*
X03115Y02727*
X03114Y02727*
X03113Y02728*
X03112Y02728*
X03112Y02729*
X03111Y02729*
X0311Y0273*
X03108Y0273*
X03108Y02731*
X03108Y02731*
X03108Y02731*
X03107Y02731*
X03107Y02731*
X03106Y02732*
X03105Y02733*
X03103Y02734*
X03101Y02735*
X031Y02736*
X03099Y02737*
X03099Y02738*
Y02738*
X03099Y02738*
X03098Y02738*
X03098Y02739*
X03097Y0274*
X03097Y02741*
X03097Y02743*
X03096Y02744*
X03096Y02746*
Y02746*
Y02746*
Y02746*
X03096Y02747*
X03096Y02747*
X03096Y02748*
X03097Y02749*
X03097Y02751*
X03098Y02753*
X03098Y02753*
X03099Y02754*
X03099Y02755*
X031Y02756*
X031Y02756*
X031Y02756*
X03101Y02756*
X03101Y02756*
X03101Y02757*
X03102Y02757*
X03103Y02758*
X03105Y02759*
X03106Y02759*
X03108Y0276*
X03109Y0276*
X0311Y0276*
X03111*
X03111Y0276*
G37*
G36*
X04062Y02652D02*
X04062Y02652D01*
X04063Y02652*
X04063Y02651*
X04064Y02651*
X04064Y02651*
X04064Y02651*
X04064Y0265*
X04065Y0265*
X04065Y0265*
X04065Y0265*
X04065Y02649*
X04065Y02649*
X04065Y02648*
Y02648*
Y02648*
X04065Y02647*
X04065Y02647*
X04065Y02647*
X04065Y02646*
X04065Y02646*
X04064Y02645*
X04064Y02645*
X04064Y02645*
X04064Y02645*
X04063Y02645*
X04063Y02645*
X04063Y02645*
X04062Y02644*
X04062Y02644*
X04061*
X04061Y02644*
X04061Y02645*
X0406Y02645*
X0406Y02645*
X04059Y02645*
X04059Y02645*
X04059Y02646*
X04059Y02646*
X04059Y02646*
X04058Y02646*
X04058Y02647*
X04058Y02647*
X04058Y02647*
X04058Y02648*
Y02648*
Y02648*
X04058Y02649*
X04058Y02649*
X04058Y02649*
X04058Y0265*
X04059Y0265*
X04059Y02651*
X04059Y02651*
X04059Y02651*
X04059Y02651*
X0406Y02651*
X0406Y02651*
X04061Y02652*
X04061Y02652*
X04062Y02652*
X04062*
X04062Y02652*
G37*
G36*
X04004D02*
X04004Y02652D01*
X04004Y02652*
X04005Y02651*
X04005Y02651*
X04006Y02651*
X04006Y02651*
X04006Y0265*
X04006Y0265*
X04006Y0265*
X04007Y0265*
X04007Y02649*
X04007Y02649*
X04007Y02648*
Y02648*
Y02648*
X04007Y02647*
X04007Y02647*
X04007Y02647*
X04006Y02646*
X04006Y02646*
X04006Y02645*
X04006Y02645*
X04006Y02645*
X04005Y02645*
X04005Y02645*
X04005Y02645*
X04004Y02645*
X04004Y02644*
X04003Y02644*
X04003*
X04003Y02644*
X04002Y02645*
X04002Y02645*
X04001Y02645*
X04001Y02645*
X04Y02645*
X04Y02646*
X04Y02646*
X04Y02646*
X04Y02646*
X04Y02647*
X04Y02647*
X03999Y02647*
X03999Y02648*
Y02648*
Y02648*
X03999Y02649*
X04Y02649*
X04Y02649*
X04Y0265*
X04Y0265*
X04Y02651*
X04001Y02651*
X04001Y02651*
X04001Y02651*
X04001Y02651*
X04002Y02651*
X04002Y02652*
X04003Y02652*
X04003Y02652*
X04003*
X04004Y02652*
G37*
G36*
X03863Y02651D02*
X03863Y02651D01*
X03864Y02651*
X03865Y0265*
X03866Y0265*
X03867Y0265*
X03868Y02649*
X03868*
X03868Y02649*
X03869Y02649*
X03869Y02649*
X03869Y02648*
X0387Y02648*
X03871Y02647*
X03871Y02647*
X03872Y02647*
X03872Y02646*
X03873Y02645*
X03873Y02645*
X03874Y02644*
X03875Y02643*
X03871Y0264*
X03871Y0264*
X03871Y0264*
X0387Y02641*
X0387Y02641*
X0387Y02641*
X03869Y02642*
X03868Y02643*
X03868Y02644*
X03867Y02644*
X03867Y02645*
X03866Y02645*
X03866Y02645*
X03866Y02645*
X03865Y02645*
X03865Y02645*
X03864Y02646*
X03864Y02646*
X03863Y02646*
X03862Y02646*
X03862*
X03861Y02646*
X0386Y02646*
X0386Y02646*
X03859Y02645*
X03858Y02645*
X03857Y02644*
X03857Y02644*
X03857Y02644*
X03857Y02644*
X03857Y02643*
X03856Y02642*
X03856Y02642*
X03856Y02641*
X03856Y0264*
Y0264*
Y0264*
X03856Y02639*
Y02639*
X03856Y02639*
X03856Y02638*
X03856Y02637*
X03856Y02637*
X03856Y02637*
X03856Y02637*
X03856Y02636*
X03857Y02636*
X03857Y02636*
X03857Y02635*
X03858Y02634*
X03859Y02634*
X03859Y02634*
X03859Y02634*
X03859Y02633*
X03859Y02633*
X0386Y02633*
X0386Y02633*
X0386Y02632*
X03861Y02632*
X03861Y02631*
X03862Y02631*
X03863Y0263*
X03864Y0263*
X03865Y02629*
X03865Y02629*
X03865Y02629*
X03865Y02629*
X03866Y02628*
X03866Y02628*
X03867Y02627*
X03867Y02627*
X03868Y02626*
X03869Y02625*
X03871Y02624*
X03871Y02623*
X03872Y02622*
X03873Y02622*
X03873Y02621*
X03873Y02621*
X03873Y02621*
X03873Y02621*
X03873Y0262*
X03874Y0262*
X03874Y0262*
X03874Y02619*
X03875Y02618*
X03875Y02616*
X03875Y02615*
X03875Y02614*
Y02614*
Y02614*
Y02613*
X03875Y02613*
X03875Y02613*
X03875Y02612*
X03875Y02611*
X03875Y02611*
X03875Y0261*
X03874Y02609*
X03874Y02609*
X03874Y02608*
X03873Y02607*
X03873Y02606*
X03872Y02606*
X03871Y02605*
X03871Y02605*
X03871Y02605*
X03871Y02605*
X03871Y02604*
X0387Y02604*
X0387Y02604*
X03869Y02603*
X03869Y02603*
X03868Y02603*
X03867Y02602*
X03867Y02602*
X03866Y02602*
X03865Y02601*
X03864Y02601*
X03863Y02601*
X03862Y02601*
X03861*
X03861Y02601*
X03861*
X0386Y02601*
X0386Y02601*
X03859Y02601*
X03858Y02602*
X03857Y02602*
X03855Y02603*
X03854Y02603*
X03854Y02603*
X03854Y02604*
X03854Y02604*
X03854Y02604*
X03853Y02604*
X03853Y02604*
X03852Y02605*
X03852Y02605*
X03851Y02606*
X03851Y02606*
X0385Y02607*
X0385Y02608*
X03849Y02608*
X03849Y02609*
X03848Y0261*
X03848Y02611*
X03852Y02614*
X03852Y02613*
X03852Y02613*
X03852Y02613*
X03852Y02612*
X03853Y02612*
X03853Y02611*
X03854Y0261*
X03854Y0261*
X03855Y02609*
X03856Y02608*
X03857Y02608*
X03858Y02607*
X03859Y02606*
X03859Y02606*
X0386Y02606*
X03861Y02606*
X03862*
X03862Y02606*
X03863Y02606*
X03864Y02606*
X03864Y02606*
X03865Y02606*
X03866Y02607*
X03866Y02607*
X03866Y02607*
X03867Y02607*
X03867Y02608*
X03868Y02608*
X03868Y02609*
X03869Y02609*
X03869Y0261*
X03869Y0261*
X03869Y0261*
X0387Y0261*
X0387Y02611*
X0387Y02612*
X0387Y02612*
X0387Y02613*
X0387Y02614*
Y02614*
Y02614*
Y02614*
X0387Y02615*
X0387Y02615*
X0387Y02616*
X0387Y02617*
X03869Y02618*
X03869Y02618*
Y02618*
X03869Y02619*
X03868Y02619*
X03868Y02619*
X03868Y02619*
X03868Y0262*
X03867Y0262*
X03867Y02621*
X03866Y02621*
X03866Y02622*
X03865Y02622*
X03864Y02623*
X03863Y02624*
X03863Y02624*
X03862Y02625*
X03861Y02626*
X0386Y02626*
X0386Y02626*
X0386Y02626*
X0386Y02627*
X03859Y02627*
X03859Y02628*
X03857Y02629*
X03856Y0263*
X03855Y02631*
X03854Y02631*
X03854Y02632*
X03853Y02632*
X03853Y02633*
Y02633*
X03853Y02633*
X03853Y02633*
X03853Y02633*
X03853Y02633*
X03852Y02634*
X03852Y02635*
X03851Y02636*
X03851Y02637*
X03851Y02638*
X03851Y02639*
X03851Y0264*
Y0264*
Y0264*
Y0264*
Y0264*
X03851Y02641*
X03851Y02642*
X03851Y02643*
X03851Y02643*
X03852Y02644*
X03852Y02645*
Y02645*
X03852Y02646*
X03852Y02646*
X03853Y02646*
X03853Y02647*
X03854Y02648*
X03854Y02648*
X03855Y02649*
X03856Y02649*
X03856*
X03856Y0265*
X03857Y0265*
X03857Y0265*
X03857Y0265*
X03858Y0265*
X03859Y0265*
X0386Y02651*
X03861Y02651*
X03862Y02651*
X03863*
X03863Y02651*
G37*
G36*
X04415Y02638D02*
X04415Y02638D01*
X04416Y02638*
X04417Y02638*
X04417Y02637*
X04418Y02637*
X04416Y02633*
X04416Y02633*
X04416Y02633*
X04415Y02633*
X04415Y02634*
X04414Y02634*
X04414Y02634*
X04413*
X04413Y02634*
X04412Y02634*
X04411Y02633*
X04411Y02633*
X0441Y02633*
X04409Y02632*
X04409Y02632*
X04409Y02632*
X04408Y02631*
X04408Y02631*
X04407Y0263*
X04407Y02629*
X04406Y02628*
X04406Y02626*
Y02626*
X04406Y02626*
Y02626*
X04406Y02626*
X04406Y02625*
X04406Y02625*
X04406Y02624*
X04405Y02624*
X04405Y02623*
X04405Y02622*
X04405Y02621*
X04405Y0262*
X04405Y02619*
Y02617*
X04405Y02616*
Y02614*
Y02602*
X044*
Y02637*
X04405*
Y02632*
X04405Y02632*
X04405Y02633*
X04405Y02633*
X04406Y02633*
X04406Y02634*
X04407Y02635*
X04408Y02635*
X04409Y02636*
X04409Y02637*
X04409Y02637*
X0441Y02637*
X0441Y02637*
X04411Y02637*
X04412Y02638*
X04412Y02638*
X04413Y02638*
X04414Y02638*
X04414*
X04415Y02638*
G37*
G36*
X04245D02*
X04245Y02638D01*
X04246Y02638*
X04246Y02638*
X04247Y02637*
X04248Y02637*
X04245Y02633*
X04245Y02633*
X04245Y02633*
X04245Y02633*
X04245Y02634*
X04244Y02634*
X04243Y02634*
X04243*
X04242Y02634*
X04242Y02634*
X04241Y02633*
X0424Y02633*
X04239Y02633*
X04239Y02632*
X04239Y02632*
X04238Y02632*
X04238Y02631*
X04238Y02631*
X04237Y0263*
X04236Y02629*
X04236Y02628*
X04235Y02626*
Y02626*
X04235Y02626*
Y02626*
X04235Y02626*
X04235Y02625*
X04235Y02625*
X04235Y02624*
X04235Y02624*
X04235Y02623*
X04235Y02622*
X04235Y02621*
X04235Y0262*
X04235Y02619*
Y02617*
X04235Y02616*
Y02614*
Y02602*
X0423*
Y02637*
X04235*
Y02632*
X04235Y02632*
X04235Y02633*
X04235Y02633*
X04235Y02633*
X04236Y02634*
X04237Y02635*
X04237Y02635*
X04238Y02636*
X04239Y02637*
X04239Y02637*
X04239Y02637*
X0424Y02637*
X0424Y02637*
X04241Y02638*
X04242Y02638*
X04243Y02638*
X04244Y02638*
X04244*
X04245Y02638*
G37*
G36*
X04225D02*
X04225Y02638D01*
X04226Y02638*
X04226Y02638*
X04227Y02637*
X04228Y02637*
X04226Y02633*
X04226Y02633*
X04225Y02633*
X04225Y02633*
X04225Y02634*
X04224Y02634*
X04224Y02634*
X04223*
X04222Y02634*
X04222Y02634*
X04221Y02633*
X0422Y02633*
X0422Y02633*
X04219Y02632*
X04219Y02632*
X04218Y02632*
X04218Y02631*
X04218Y02631*
X04217Y0263*
X04217Y02629*
X04216Y02628*
X04216Y02626*
Y02626*
X04216Y02626*
Y02626*
X04216Y02626*
X04215Y02625*
X04215Y02625*
X04215Y02624*
X04215Y02624*
X04215Y02623*
X04215Y02622*
X04215Y02621*
X04215Y0262*
X04215Y02619*
Y02617*
X04215Y02616*
Y02614*
Y02602*
X0421*
Y02637*
X04215*
Y02632*
X04215Y02632*
X04215Y02633*
X04215Y02633*
X04216Y02633*
X04216Y02634*
X04217Y02635*
X04217Y02635*
X04218Y02636*
X04219Y02637*
X04219Y02637*
X04219Y02637*
X0422Y02637*
X04221Y02637*
X04221Y02638*
X04222Y02638*
X04223Y02638*
X04224Y02638*
X04224*
X04225Y02638*
G37*
G36*
X04125D02*
X04125D01*
X04125Y02638*
X04126Y02638*
X04127Y02638*
X04129Y02637*
X0413Y02637*
X04131Y02636*
X04131*
X04131Y02636*
X04131Y02636*
X04131Y02636*
X04132Y02635*
X04133Y02635*
X04133Y02634*
X04134Y02633*
X04135Y02632*
X04135Y02631*
Y02631*
X04136Y02631*
X04136Y02631*
X04136Y0263*
X04136Y0263*
X04136Y02629*
X04136Y02629*
X04136Y02628*
X04136Y02628*
X04136Y02627*
X04137Y02626*
X04137Y02625*
X04137Y02624*
X04137Y02623*
X04137Y02622*
Y0262*
Y02602*
X04132*
Y02619*
Y02619*
Y02619*
Y0262*
Y0262*
Y02621*
Y02621*
X04132Y02622*
X04132Y02624*
X04132Y02625*
X04132Y02626*
X04132Y02626*
X04132Y02627*
X04132Y02627*
Y02627*
X04132Y02627*
X04132Y02627*
X04132Y02628*
X04132Y02628*
X04131Y02629*
X04131Y0263*
X0413Y02631*
X0413Y02632*
X04129Y02632*
X04129Y02632*
X04129Y02633*
X04128Y02633*
X04127Y02633*
X04127Y02634*
X04126Y02634*
X04124Y02634*
X04123Y02634*
X04123*
X04122Y02634*
X04122*
X04122Y02634*
X04121Y02634*
X0412Y02633*
X04118Y02633*
X04118Y02633*
X04117Y02632*
X04116Y02632*
X04116Y02631*
X04116Y02631*
X04116Y02631*
X04115Y02631*
X04115Y02631*
X04115Y02631*
X04115Y0263*
X04114Y0263*
X04113Y02629*
X04113Y02627*
X04112Y02626*
X04111Y02625*
Y02625*
Y02625*
X04111Y02624*
X04111Y02624*
X04111Y02624*
Y02623*
X04111Y02623*
X04111Y02623*
X04111Y02622*
X04111Y02621*
X04111Y0262*
X04111Y0262*
X04111Y02619*
Y02618*
X04111Y02616*
Y02615*
Y02602*
X04106*
Y02637*
X04111*
Y02631*
X04111Y02631*
X04111Y02631*
X04111Y02631*
X04111Y02632*
X04112Y02632*
X04113Y02633*
X04114Y02634*
X04115Y02635*
X04116Y02636*
X04117Y02636*
X04117*
X04117Y02637*
X04117Y02637*
X04117Y02637*
X04118Y02637*
X04118Y02637*
X04119Y02637*
X0412Y02638*
X04121Y02638*
X04123Y02638*
X04124Y02638*
X04124*
X04125Y02638*
G37*
G36*
X04311D02*
X04311Y02638D01*
X04312Y02638*
X04313Y02638*
X04314Y02638*
X04315Y02638*
X04316Y02637*
X04317Y02637*
X04318Y02637*
X04319Y02636*
X0432Y02635*
X04321Y02635*
X04322Y02634*
X04323Y02633*
X04323Y02633*
X04323Y02633*
X04324Y02632*
X04324Y02632*
X04324Y02631*
X04325Y02631*
X04325Y0263*
X04326Y02629*
X04326Y02628*
X04327Y02627*
X04327Y02626*
X04328Y02625*
X04328Y02624*
X04328Y02623*
X04328Y02621*
X04328Y0262*
Y0262*
Y0262*
X04328Y02619*
Y02619*
X04328Y02618*
X04328Y02617*
X04328Y02616*
X04328Y02615*
X04327Y02614*
X04327Y02613*
X04327Y02612*
X04326Y02611*
X04326Y0261*
X04325Y02609*
X04324Y02608*
X04323Y02607*
X04323Y02607*
X04323Y02607*
X04323Y02606*
X04322Y02606*
X04322Y02606*
X04321Y02605*
X0432Y02605*
X0432Y02604*
X04319Y02604*
X04318Y02603*
X04317Y02603*
X04316Y02602*
X04314Y02602*
X04313Y02602*
X04312Y02602*
X0431Y02601*
X0431*
X0431Y02602*
X04309*
X04309Y02602*
X04308Y02602*
X04308Y02602*
X04307Y02602*
X04305Y02602*
X04304Y02603*
X04303Y02603*
X04303*
X04302Y02603*
X04302Y02603*
X04302Y02603*
X04302Y02604*
X04301Y02604*
X04301Y02604*
X043Y02605*
X04299Y02606*
X04297Y02607*
X04296Y02608*
Y0259*
X04292*
Y02637*
X04296*
Y02631*
X04296Y02631*
X04296Y02631*
X04297Y02631*
X04297Y02631*
X04297Y02632*
X04298Y02633*
X04299Y02634*
X043Y02635*
X04301Y02636*
X04302Y02636*
X04303*
X04303Y02636*
X04303Y02637*
X04303Y02637*
X04303Y02637*
X04304Y02637*
X04304Y02637*
X04305Y02637*
X04306Y02638*
X04307Y02638*
X04309Y02638*
X0431Y02638*
X04311*
X04311Y02638*
G37*
G36*
X0405Y02602D02*
X04045D01*
Y02608*
X04045Y02608*
X04045Y02608*
X04045Y02608*
X04045Y02608*
X04044Y02607*
X04043Y02606*
X04042Y02606*
X04041Y02605*
X0404Y02604*
X04039Y02603*
X04039*
X04039Y02603*
X04038Y02603*
X04038Y02603*
X04038Y02603*
X04038Y02603*
X04037Y02602*
X04037Y02602*
X04035Y02602*
X04034Y02602*
X04033Y02602*
X04031Y02601*
X04031*
X0403Y02602*
X0403Y02602*
X04029Y02602*
X04029Y02602*
X04028Y02602*
X04027Y02602*
X04026Y02602*
X04025Y02603*
X04024Y02603*
X04023Y02604*
X04022Y02604*
X04021Y02605*
X04019Y02606*
X04018Y02607*
X04018Y02607*
X04018Y02607*
X04018Y02607*
X04018Y02608*
X04017Y02608*
X04017Y02609*
X04016Y0261*
X04016Y0261*
X04015Y02611*
X04015Y02612*
X04014Y02613*
X04014Y02615*
X04014Y02616*
X04013Y02617*
X04013Y02618*
X04013Y0262*
Y0262*
Y0262*
X04013Y02621*
X04013Y02621*
X04013Y02622*
X04013Y02623*
X04014Y02623*
X04014Y02624*
X04014Y02625*
X04015Y02626*
X04015Y02628*
X04015Y02629*
X04016Y0263*
X04017Y02631*
X04018Y02632*
X04019Y02633*
X04019Y02633*
X04019Y02633*
X04019Y02633*
X04019Y02634*
X0402Y02634*
X04021Y02635*
X04021Y02635*
X04022Y02636*
X04023Y02636*
X04024Y02637*
X04025Y02637*
X04026Y02637*
X04027Y02638*
X04029Y02638*
X0403Y02638*
X04031Y02638*
X04032*
X04032Y02638*
X04033Y02638*
X04033Y02638*
X04034Y02638*
X04035Y02638*
X04036Y02637*
X04038Y02637*
X04039Y02636*
X04039*
X04039Y02636*
X04039Y02636*
X0404Y02636*
X0404Y02636*
X0404Y02636*
X04041Y02635*
X04042Y02634*
X04043Y02633*
X04044Y02632*
X04045Y02631*
Y02651*
X0405*
Y02602*
G37*
G36*
X04459D02*
X04458D01*
X04437Y0265*
X04443*
X04458Y02613*
X04474Y0265*
X0448*
X04459Y02602*
G37*
G36*
X03993D02*
X03988D01*
X03984Y02636*
X03967Y02602*
X03966*
X03949Y02637*
X03944Y02602*
X03939*
X03946Y0265*
X03947*
X03966Y02611*
X03985Y0265*
X03986*
X03993Y02602*
G37*
G36*
X04282Y0262D02*
Y0262D01*
Y0262*
Y02619*
Y02619*
X04282Y02618*
X04282Y02618*
X04282Y02617*
X04282Y02616*
X04281Y02614*
X04281Y02613*
X04281Y02611*
X0428Y0261*
X0428Y02609*
Y02609*
X0428Y02609*
X0428Y02609*
X0428Y02609*
X0428Y02608*
X04279Y02608*
X04279Y02607*
X04278Y02606*
X04277Y02605*
X04276Y02604*
X04275Y02604*
X04275*
X04275Y02603*
X04275Y02603*
X04274Y02603*
X04274Y02603*
X04274Y02603*
X04273Y02603*
X04273Y02602*
X04272Y02602*
X04271Y02602*
X04271Y02602*
X0427Y02602*
X04268Y02602*
X04266Y02601*
X04266*
X04266Y02602*
X04265*
X04265Y02602*
X04264Y02602*
X04263Y02602*
X04262Y02602*
X04261Y02602*
X04259Y02603*
X04258Y02604*
X04258*
X04258Y02604*
X04257Y02604*
X04257Y02604*
X04257Y02604*
X04256Y02605*
X04255Y02606*
X04254Y02607*
X04253Y02608*
X04253Y02609*
Y02609*
X04253Y02609*
X04253Y0261*
X04252Y0261*
X04252Y0261*
X04252Y02611*
X04252Y02611*
X04252Y02612*
X04252Y02613*
X04252Y02614*
X04251Y02615*
X04251Y02616*
X04251Y02617*
X04251Y02618*
X04251Y02619*
Y02621*
Y02637*
X04256*
Y02621*
Y02621*
Y02621*
Y0262*
Y0262*
Y0262*
X04256Y02619*
Y02618*
Y02618*
X04256Y02616*
X04256Y02615*
X04256Y02614*
X04256Y02614*
X04256Y02613*
X04256Y02613*
Y02613*
X04256Y02613*
X04256Y02612*
X04256Y02612*
X04257Y02612*
X04257Y02611*
X04258Y0261*
X04258Y02609*
X04259Y02608*
X0426Y02608*
X0426*
X0426Y02608*
X0426Y02608*
X0426Y02607*
X04261Y02607*
X04262Y02607*
X04263Y02606*
X04264Y02606*
X04265Y02606*
X04266Y02606*
X04267*
X04267Y02606*
X04267*
X04268Y02606*
X04269Y02606*
X0427Y02606*
X04271Y02607*
X04272Y02607*
X04273Y02608*
X04273*
X04273Y02608*
X04273Y02608*
X04274Y02608*
X04274Y02609*
X04275Y0261*
X04275Y0261*
X04276Y02611*
X04276Y02612*
X04276Y02612*
Y02613*
X04277Y02613*
X04277Y02613*
X04277Y02613*
X04277Y02614*
X04277Y02614*
X04277Y02615*
X04277Y02615*
X04277Y02616*
X04277Y02617*
X04277Y02618*
Y02619*
X04277Y0262*
Y02621*
Y02637*
X04282*
Y0262*
G37*
G36*
X03841Y02621D02*
Y02621D01*
Y02621*
Y0262*
Y0262*
X03841Y02619*
Y02619*
X03841Y02618*
X03841Y02617*
X03841Y02616*
X0384Y02614*
X0384Y02612*
X0384Y02612*
X0384Y02611*
Y02611*
X0384Y02611*
X03839Y0261*
X03839Y0261*
X03839Y0261*
X03839Y02609*
X03839Y02609*
X03838Y02607*
X03837Y02606*
X03836Y02605*
X03835Y02605*
X03835Y02604*
X03835Y02604*
X03835Y02604*
X03834Y02604*
X03834Y02604*
X03834Y02603*
X03833Y02603*
X03833Y02603*
X03832Y02603*
X03832Y02602*
X03831Y02602*
X0383Y02602*
X03829Y02602*
X03828Y02601*
X03827Y02601*
X03826Y02601*
X03825*
X03825Y02601*
X03824Y02601*
X03824Y02601*
X03823Y02601*
X03822Y02601*
X03821Y02602*
X03819Y02602*
X03818Y02603*
X03817Y02603*
X03817Y02603*
X03816Y02604*
X03816Y02604*
X03816Y02604*
X03815Y02604*
X03815Y02604*
X03815Y02605*
X03814Y02605*
X03814Y02605*
X03814Y02606*
X03813Y02607*
X03812Y02608*
X03811Y02609*
X03811Y0261*
X0381Y02611*
Y02611*
X0381Y02611*
Y02611*
X0381Y02612*
X0381Y02612*
X0381Y02612*
X0381Y02613*
X0381Y02613*
X0381Y02614*
X0381Y02615*
X0381Y02616*
X0381Y02616*
X0381Y02617*
Y02619*
X0381Y0262*
Y02621*
Y0265*
X03814*
Y02621*
Y02621*
Y02621*
Y02621*
Y0262*
Y0262*
Y02619*
Y02618*
X03814Y02617*
Y02616*
X03814Y02616*
Y02615*
X03814Y02615*
Y02615*
Y02615*
Y02615*
X03814Y02614*
X03815Y02614*
X03815Y02613*
X03815Y02612*
X03815Y02612*
X03816Y02611*
X03816Y0261*
X03816Y0261*
X03816Y0261*
X03817Y02609*
X03817Y02609*
X03818Y02608*
X03818Y02608*
X03819Y02607*
X0382Y02607*
X0382*
X0382Y02607*
X0382Y02607*
X0382Y02607*
X03821Y02607*
X03822Y02606*
X03822Y02606*
X03823Y02606*
X03824Y02606*
X03825Y02606*
X03826*
X03826Y02606*
X03827Y02606*
X03828Y02606*
X03828Y02606*
X03829Y02606*
X0383Y02607*
X0383Y02607*
X0383Y02607*
X03831Y02607*
X03831Y02607*
X03832Y02608*
X03832Y02608*
X03833Y02609*
X03833Y02609*
X03834Y02609*
X03834Y0261*
X03834Y0261*
X03834Y02611*
X03835Y02611*
X03835Y02612*
X03835Y02613*
X03836Y02614*
Y02614*
X03836Y02614*
X03836Y02614*
X03836Y02615*
X03836Y02615*
X03836Y02615*
Y02616*
X03836Y02616*
X03836Y02617*
X03836Y02618*
Y02618*
X03836Y02619*
Y0262*
Y02621*
Y0265*
X03841*
Y02621*
G37*
G36*
X04556Y02651D02*
X04557Y02651D01*
X04558Y02651*
X04558Y02651*
X04559Y0265*
X0456Y0265*
X04561Y0265*
X04562Y0265*
X04563Y02649*
X04563Y02649*
X04564Y02648*
X04565Y02647*
X04566Y02647*
X04566Y02647*
X04566Y02647*
X04566Y02646*
X04567Y02646*
X04567Y02646*
X04567Y02645*
X04568Y02644*
X04568Y02644*
X04568Y02643*
X04569Y02642*
X04569Y02642*
X04569Y02641*
X0457Y0264*
X0457Y02639*
X0457Y02638*
X0457Y02637*
Y02637*
Y02637*
Y02636*
X0457Y02636*
Y02636*
X0457Y02635*
X0457Y02635*
X0457Y02634*
X0457Y02633*
X04569Y02632*
X04569Y02631*
X04568Y02629*
Y02629*
X04568Y02629*
X04568Y02629*
X04568Y02628*
X04567Y02628*
X04567Y02628*
X04567Y02627*
X04566Y02627*
X04566Y02626*
X04565Y02625*
X04565Y02624*
X04564Y02624*
X04563Y02623*
X04562Y02622*
X04562Y02621*
X04561Y0262*
X04549Y02607*
X04571*
Y02602*
X04538*
X04557Y02622*
X04557Y02622*
X04557Y02622*
X04557Y02622*
X04557Y02623*
X04558Y02623*
X04558Y02624*
X04559Y02625*
X0456Y02625*
X04561Y02627*
X04562Y02628*
X04562Y02629*
X04563Y02629*
X04563Y0263*
X04564Y02631*
Y02631*
X04564Y02631*
X04564Y02631*
X04564Y02631*
X04564Y02632*
X04565Y02632*
X04565Y02633*
X04565Y02634*
X04565Y02635*
X04565Y02637*
Y02637*
Y02637*
Y02637*
X04565Y02637*
X04565Y02638*
X04565Y02638*
X04565Y02639*
X04565Y0264*
X04564Y02641*
X04564Y02642*
X04563Y02642*
X04563Y02643*
X04562Y02644*
X04562Y02644*
X04562Y02644*
X04562Y02644*
X04562Y02644*
X04562Y02644*
X04561Y02644*
X04561Y02645*
X0456Y02645*
X04559Y02646*
X04558Y02646*
X04557Y02646*
X04556Y02646*
X04555Y02646*
X04555*
X04554Y02646*
X04554Y02646*
X04554Y02646*
X04553Y02646*
X04551Y02646*
X0455Y02645*
X04549Y02645*
X04549Y02644*
X04548Y02644*
X04548Y02643*
X04547Y02643*
X04547Y02643*
X04547Y02643*
X04547Y02643*
X04547Y02643*
X04547Y02642*
X04546Y02642*
X04546Y02641*
X04546Y02641*
X04545Y0264*
X04545Y02639*
X04545Y02639*
X04545Y02638*
X04544Y02637*
X04544Y02636*
X04544Y02635*
X0454*
Y02635*
Y02635*
X0454Y02636*
X0454Y02636*
X0454Y02637*
X0454Y02637*
X0454Y02638*
X0454Y02639*
X0454Y0264*
X04541Y02641*
X04541Y02642*
X04542Y02643*
X04542Y02644*
X04543Y02645*
X04543Y02646*
X04544Y02646*
X04544Y02646*
X04544Y02647*
X04545Y02647*
X04545Y02647*
X04546Y02647*
X04546Y02648*
X04547Y02648*
X04547Y02649*
X04548Y02649*
X04549Y0265*
X0455Y0265*
X04551Y0265*
X04552Y0265*
X04553Y02651*
X04554Y02651*
X04555Y02651*
X04556*
X04556Y02651*
G37*
G36*
X04503Y02602D02*
X04498D01*
Y02645*
X04491*
X04494Y0265*
X04503*
Y02602*
G37*
G36*
X04345Y02637D02*
X04352D01*
Y02634*
X04345*
Y02602*
X04341*
Y02634*
X04335*
Y02637*
X04341*
Y0265*
X04345*
Y02637*
G37*
G36*
X04155D02*
X04162D01*
Y02634*
X04155*
Y02602*
X04151*
Y02634*
X04144*
Y02637*
X04151*
Y0265*
X04155*
Y02637*
G37*
G36*
X04096Y02602D02*
X04092D01*
Y0265*
X04096*
Y02602*
G37*
G36*
X04064D02*
X04059D01*
Y02637*
X04064*
Y02602*
G37*
G36*
X04005D02*
X04001D01*
Y02637*
X04005*
Y02602*
G37*
G36*
X03896Y0265D02*
X03897D01*
X03897Y0265*
X03898Y0265*
X03899Y02649*
X03901Y02649*
X03902Y02649*
X03903Y02649*
X03904Y02648*
X03904*
X03904Y02648*
X03904Y02648*
X03904Y02648*
X03905Y02648*
X03905Y02647*
X03906Y02647*
X03907Y02646*
X03908Y02645*
X03908Y02644*
Y02644*
X03908Y02644*
X03908Y02644*
X03909Y02644*
X03909Y02643*
X03909Y02642*
X0391Y02642*
X0391Y02641*
X0391Y02639*
X0391Y02638*
Y02638*
Y02638*
Y02638*
Y02638*
X0391Y02637*
X0391Y02636*
X0391Y02635*
X03909Y02634*
X03909Y02633*
X03909Y02632*
Y02632*
X03908Y02632*
X03908Y02632*
X03908Y02631*
X03907Y02631*
X03907Y0263*
X03906Y02629*
X03905Y02629*
X03904Y02628*
X03904*
X03904Y02628*
X03904Y02628*
X03905Y02628*
X03905Y02628*
X03905Y02628*
X03906Y02627*
X03907Y02627*
X03908Y02626*
X03909Y02626*
X0391Y02625*
X0391Y02625*
X0391Y02625*
X0391Y02625*
X03911Y02624*
X03911Y02623*
X03912Y02623*
X03912Y02622*
X03913Y02621*
X03913Y02621*
X03913Y02621*
X03913Y0262*
X03913Y0262*
X03914Y02619*
X03914Y02618*
X03914Y02617*
X03914Y02616*
Y02616*
Y02616*
Y02615*
X03914Y02615*
X03914Y02614*
X03914Y02614*
X03914Y02613*
X03913Y02613*
X03913Y02612*
X03913Y02611*
X03913Y0261*
X03912Y02609*
X03912Y02609*
X03911Y02608*
X03911Y02607*
X0391Y02606*
X0391Y02606*
X0391Y02606*
X03909Y02606*
X03909Y02606*
X03909Y02605*
X03908Y02605*
X03907Y02605*
X03907Y02604*
X03906Y02604*
X03905Y02604*
X03904Y02603*
X03903Y02603*
X03902Y02603*
X03901Y02602*
X039Y02602*
X03899Y02602*
X03886*
Y0265*
X03896*
X03896Y0265*
G37*
G36*
X04529Y02609D02*
X04529Y02609D01*
X0453Y02609*
X0453Y02609*
X0453Y02609*
X04531Y02608*
X04531Y02608*
X04531Y02608*
X04531Y02608*
X04532Y02607*
X04532Y02607*
X04532Y02607*
X04532Y02606*
X04532Y02605*
Y02605*
Y02605*
X04532Y02605*
X04532Y02604*
X04532Y02604*
X04532Y02604*
X04531Y02603*
X04531Y02603*
X04531Y02603*
X04531Y02602*
X0453Y02602*
X0453Y02602*
X0453Y02602*
X04529Y02602*
X04529Y02602*
X04528Y02601*
X04528*
X04528Y02602*
X04527Y02602*
X04527Y02602*
X04526Y02602*
X04526Y02602*
X04525Y02603*
X04525Y02603*
X04525Y02603*
X04525Y02603*
X04525Y02603*
X04525Y02604*
X04524Y02604*
X04524Y02605*
X04524Y02605*
Y02606*
Y02606*
X04524Y02606*
X04524Y02606*
X04524Y02607*
X04525Y02607*
X04525Y02608*
X04525Y02608*
X04525Y02608*
X04526Y02608*
X04526Y02609*
X04526Y02609*
X04527Y02609*
X04527Y02609*
X04528Y02609*
X04528Y02609*
X04528*
X04529Y02609*
G37*
G36*
X04376Y02638D02*
X04377Y02638D01*
X04378Y02638*
X04379Y02638*
X0438Y02638*
X04381Y02637*
X04382Y02637*
X04383Y02637*
X04384Y02636*
X04385Y02635*
X04387Y02635*
X04388Y02634*
X04389Y02633*
X0439Y02631*
X0439Y02631*
X0439Y02631*
X0439Y02631*
X0439Y02631*
X04391Y0263*
X04391Y0263*
X04391Y02629*
X04392Y02628*
X04392Y02627*
X04392Y02626*
X04393Y02625*
X04393Y02624*
X04393Y02623*
X04394Y02622*
X04394Y02621*
X04394Y0262*
X04362*
Y02619*
Y02619*
X04362Y02619*
Y02618*
X04362Y02618*
X04362Y02617*
X04363Y02617*
X04363Y02616*
X04363Y02614*
X04363Y02614*
X04364Y02613*
X04364Y02612*
X04365Y02611*
X04365Y0261*
X04366Y02609*
X04366Y02609*
X04366Y02609*
X04366Y02609*
X04367Y02609*
X04367Y02609*
X04368Y02608*
X04368Y02608*
X04369Y02608*
X04369Y02607*
X0437Y02607*
X04371Y02606*
X04372Y02606*
X04372Y02606*
X04373Y02606*
X04374Y02606*
X04375Y02606*
X04376*
X04376Y02606*
X04377Y02606*
X04378Y02606*
X04379Y02606*
X0438Y02606*
X04381Y02607*
X04381*
X04381Y02607*
X04381Y02607*
X04382Y02607*
X04382Y02607*
X04383Y02608*
X04384Y02608*
X04384Y02608*
X04385Y02609*
X04385Y02609*
X04385Y02609*
X04386Y0261*
X04386Y0261*
X04387Y02611*
X04387Y02612*
X04388Y02613*
X04389Y02614*
X04393Y02612*
Y02612*
X04393Y02612*
X04392Y02612*
X04392Y02611*
X04392Y02611*
X04392Y02611*
X04391Y0261*
X04391Y02609*
X0439Y02608*
X04389Y02607*
X04388Y02606*
X04388Y02606*
X04388Y02606*
X04387Y02605*
X04387Y02605*
X04386Y02604*
X04385Y02604*
X04384Y02603*
X04383Y02603*
X04383*
X04383Y02603*
X04382Y02602*
X04382Y02602*
X04382Y02602*
X04382Y02602*
X04381Y02602*
X0438Y02602*
X04379Y02602*
X04377Y02602*
X04376Y02601*
X04375*
X04375Y02602*
X04374Y02602*
X04374Y02602*
X04373Y02602*
X04372Y02602*
X04371Y02602*
X0437Y02602*
X04369Y02603*
X04368Y02603*
X04366Y02604*
X04365Y02604*
X04364Y02605*
X04363Y02606*
X04362Y02607*
X04362Y02607*
X04362Y02607*
X04362Y02608*
X04362Y02608*
X04361Y02609*
X04361Y02609*
X0436Y0261*
X0436Y02611*
X04359Y02612*
X04359Y02613*
X04359Y02614*
X04358Y02615*
X04358Y02616*
X04358Y02617*
X04358Y02618*
X04358Y0262*
Y0262*
Y0262*
X04358Y0262*
Y02621*
X04358Y02621*
X04358Y02622*
X04358Y02623*
X04358Y02624*
X04358Y02625*
X04359Y02626*
X04359Y02627*
X04359Y02628*
X0436Y02629*
X0436Y0263*
X04361Y02631*
X04362Y02632*
X04362Y02632*
X04362Y02632*
X04362Y02632*
X04363Y02633*
X04363Y02633*
X04364Y02634*
X04364Y02634*
X04365Y02635*
X04366Y02636*
X04367Y02636*
X04368Y02637*
X0437Y02637*
X04371Y02638*
X04372Y02638*
X04374Y02638*
X04376Y02638*
X04376*
X04376Y02638*
G37*
G36*
X04186D02*
X04187Y02638D01*
X04188Y02638*
X04188Y02638*
X04189Y02638*
X0419Y02637*
X04192Y02637*
X04193Y02637*
X04194Y02636*
X04195Y02635*
X04196Y02635*
X04197Y02634*
X04199Y02633*
X042Y02631*
X042Y02631*
X042Y02631*
X042Y02631*
X042Y02631*
X042Y0263*
X04201Y0263*
X04201Y02629*
X04202Y02628*
X04202Y02627*
X04202Y02626*
X04203Y02625*
X04203Y02624*
X04203Y02623*
X04203Y02622*
X04203Y02621*
X04204Y0262*
X04172*
Y02619*
Y02619*
X04172Y02619*
Y02618*
X04172Y02618*
X04172Y02617*
X04172Y02617*
X04172Y02616*
X04173Y02614*
X04173Y02614*
X04174Y02613*
X04174Y02612*
X04175Y02611*
X04175Y0261*
X04176Y02609*
X04176Y02609*
X04176Y02609*
X04176Y02609*
X04177Y02609*
X04177Y02609*
X04177Y02608*
X04178Y02608*
X04178Y02608*
X04179Y02607*
X0418Y02607*
X04181Y02606*
X04181Y02606*
X04182Y02606*
X04183Y02606*
X04184Y02606*
X04185Y02606*
X04186*
X04186Y02606*
X04187Y02606*
X04188Y02606*
X04189Y02606*
X04189Y02606*
X0419Y02607*
X0419*
X04191Y02607*
X04191Y02607*
X04191Y02607*
X04192Y02607*
X04193Y02608*
X04193Y02608*
X04194Y02608*
X04195Y02609*
X04195Y02609*
X04195Y02609*
X04195Y0261*
X04196Y0261*
X04196Y02611*
X04197Y02612*
X04198Y02613*
X04199Y02614*
X04202Y02612*
Y02612*
X04202Y02612*
X04202Y02612*
X04202Y02611*
X04202Y02611*
X04202Y02611*
X04201Y0261*
X042Y02609*
X042Y02608*
X04199Y02607*
X04198Y02606*
X04198Y02606*
X04198Y02606*
X04197Y02605*
X04196Y02605*
X04196Y02604*
X04195Y02604*
X04194Y02603*
X04193Y02603*
X04192*
X04192Y02603*
X04192Y02602*
X04192Y02602*
X04192Y02602*
X04191Y02602*
X04191Y02602*
X04189Y02602*
X04188Y02602*
X04187Y02602*
X04186Y02601*
X04185*
X04185Y02602*
X04184Y02602*
X04183Y02602*
X04183Y02602*
X04182Y02602*
X04181Y02602*
X0418Y02602*
X04178Y02603*
X04177Y02603*
X04176Y02604*
X04175Y02604*
X04174Y02605*
X04173Y02606*
X04172Y02607*
X04172Y02607*
X04172Y02607*
X04172Y02608*
X04171Y02608*
X04171Y02609*
X04171Y02609*
X0417Y0261*
X0417Y02611*
X04169Y02612*
X04169Y02613*
X04168Y02614*
X04168Y02615*
X04168Y02616*
X04168Y02617*
X04167Y02618*
X04167Y0262*
Y0262*
Y0262*
X04167Y0262*
Y02621*
X04167Y02621*
X04168Y02622*
X04168Y02623*
X04168Y02624*
X04168Y02625*
X04168Y02626*
X04169Y02627*
X04169Y02628*
X04169Y02629*
X0417Y0263*
X04171Y02631*
X04171Y02632*
X04171Y02632*
X04172Y02632*
X04172Y02632*
X04172Y02633*
X04173Y02633*
X04174Y02634*
X04174Y02634*
X04175Y02635*
X04176Y02636*
X04177Y02636*
X04178Y02637*
X04179Y02637*
X04181Y02638*
X04182Y02638*
X04184Y02638*
X04185Y02638*
X04186*
X04186Y02638*
G37*
G36*
X03228Y02638D02*
X03249Y0261D01*
X0324*
X03224Y02632*
X03208Y0261*
X032*
X0322Y02637*
X03202Y02662*
X0321*
X03224Y02643*
X03238Y02662*
X03246*
X03228Y02638*
G37*
G36*
X03193Y02637D02*
Y02636D01*
Y02636*
Y02635*
Y02635*
X03193Y02634*
X03193Y02633*
X03193Y02632*
X03193Y0263*
X03193Y02628*
X03192Y02625*
X03191Y02622*
X03191Y02621*
X03191Y0262*
Y0262*
X03191Y0262*
X0319Y0262*
X0319Y02619*
X0319Y02619*
X0319Y02618*
X03189Y02617*
X03188Y02616*
X03186Y02614*
X03185Y02613*
X03183Y02612*
X03183*
X03183Y02611*
X03182Y02611*
X03182Y02611*
X03182Y02611*
X03181Y02611*
X0318Y0261*
X03179Y0261*
X03179Y0261*
X03178Y02609*
X03177Y02609*
X03175Y02609*
X03173Y02609*
X0317Y02608*
X03169*
X03169Y02609*
X03168*
X03167Y02609*
X03167Y02609*
X03166Y02609*
X03164Y02609*
X03161Y0261*
X03159Y0261*
X03157Y02612*
X03157*
X03157Y02612*
X03157Y02612*
X03156Y02612*
X03155Y02613*
X03154Y02614*
X03153Y02615*
X03152Y02617*
X03151Y02618*
X0315Y0262*
Y0262*
X03149Y0262*
X03149Y02621*
X03149Y02621*
X03149Y02622*
X03149Y02623*
X03149Y02623*
X03148Y02624*
X03148Y02626*
X03148Y02627*
X03148Y02628*
X03147Y0263*
X03147Y02631*
X03147Y02633*
X03147Y02635*
Y02637*
Y02662*
X03154*
Y02638*
Y02638*
Y02637*
Y02637*
Y02636*
Y02636*
X03154Y02635*
Y02634*
Y02633*
X03154Y02631*
X03154Y02629*
X03154Y02628*
X03154Y02627*
X03155Y02626*
X03155Y02625*
Y02625*
X03155Y02625*
X03155Y02625*
X03155Y02625*
X03155Y02624*
X03156Y02623*
X03157Y02621*
X03158Y0262*
X03159Y02619*
X0316Y02618*
X0316*
X03161Y02618*
X03161Y02618*
X03161Y02617*
X03162Y02617*
X03163Y02616*
X03165Y02616*
X03166Y02615*
X03168Y02615*
X0317Y02615*
X03171*
X03171Y02615*
X03172*
X03172Y02615*
X03173Y02615*
X03175Y02616*
X03177Y02616*
X03178Y02617*
X0318Y02618*
X0318*
X0318Y02618*
X0318Y02618*
X03181Y02619*
X03182Y0262*
X03183Y02621*
X03184Y02622*
X03185Y02623*
X03185Y02625*
X03185Y02625*
Y02625*
X03185Y02625*
X03185Y02626*
X03186Y02626*
X03186Y02627*
X03186Y02628*
X03186Y02628*
X03186Y02629*
X03186Y0263*
X03186Y02632*
X03186Y02633*
Y02634*
X03186Y02636*
Y02638*
Y02662*
X03193*
Y02637*
G37*
G36*
X03138Y0261D02*
X0313D01*
X03119Y02633*
X03088*
X03077Y0261*
X0307*
X03103Y02681*
X03105*
X03138Y0261*
G37*
%LNmidi_stick-2*%
%LPC*%
G36*
X0431Y02634D02*
X04309D01*
X04309Y02634*
X04308Y02634*
X04308Y02634*
X04307Y02634*
X04306Y02633*
X04306Y02633*
X04305Y02633*
X04304Y02633*
X04303Y02632*
X04302Y02632*
X04302Y02631*
X04301Y02631*
X043Y0263*
X043Y0263*
X043Y0263*
X043Y02629*
X04299Y02629*
X04299Y02629*
X04299Y02628*
X04298Y02628*
X04298Y02627*
X04298Y02626*
X04297Y02626*
X04297Y02625*
X04297Y02624*
X04296Y02623*
X04296Y02622*
X04296Y02621*
X04296Y0262*
Y0262*
Y02619*
Y02619*
X04296Y02619*
Y02619*
X04296Y02618*
X04296Y02617*
X04297Y02616*
X04297Y02615*
X04297Y02614*
X04298Y02612*
Y02612*
X04298Y02612*
X04298Y02612*
X04298Y02612*
X04299Y02611*
X04299Y02611*
X043Y0261*
X04301Y02609*
X04302Y02608*
X04303Y02607*
X04303*
X04303Y02607*
X04303Y02607*
X04304Y02607*
X04304Y02607*
X04304Y02607*
X04305Y02607*
X04306Y02606*
X04307Y02606*
X04309Y02606*
X0431Y02606*
X0431*
X04311Y02606*
X04311*
X04311Y02606*
X04312Y02606*
X04313Y02606*
X04314Y02606*
X04316Y02607*
X04317Y02607*
X04317*
X04317Y02608*
X04317Y02608*
X04317Y02608*
X04318Y02608*
X04319Y02609*
X04319Y0261*
X0432Y0261*
X04321Y02612*
X04322Y02613*
Y02613*
X04322Y02613*
X04322Y02613*
X04322Y02613*
X04322Y02614*
X04323Y02614*
X04323Y02615*
X04323Y02616*
X04324Y02617*
X04324Y02618*
X04324Y0262*
Y0262*
Y0262*
Y0262*
X04324Y0262*
Y02621*
X04324Y02621*
X04324Y02622*
X04323Y02623*
X04323Y02624*
X04323Y02626*
X04322Y02627*
Y02627*
X04322Y02627*
X04322Y02627*
X04322Y02627*
X04321Y02628*
X04321Y02629*
X0432Y0263*
X04319Y0263*
X04318Y02631*
X04317Y02632*
X04317*
X04317Y02632*
X04317Y02632*
X04316Y02632*
X04316Y02632*
X04316Y02633*
X04315Y02633*
X04314Y02633*
X04313Y02634*
X04311Y02634*
X0431Y02634*
G37*
G36*
X04032D02*
X04031D01*
X04031Y02634*
X0403Y02634*
X04029Y02634*
X04028Y02633*
X04027Y02633*
X04026Y02633*
X04025Y02632*
X04025*
X04024Y02632*
X04024Y02632*
X04024Y02632*
X04024Y02631*
X04023Y02631*
X04022Y0263*
X04021Y02629*
X0402Y02628*
X0402Y02627*
Y02627*
X0402Y02627*
X04019Y02627*
X04019Y02626*
X04019Y02626*
X04019Y02626*
X04019Y02625*
X04018Y02624*
X04018Y02622*
X04018Y02621*
X04018Y0262*
Y0262*
Y0262*
Y02619*
X04018Y02619*
Y02619*
X04018Y02618*
X04018Y02618*
X04018Y02616*
X04019Y02615*
X04019Y02614*
X0402Y02613*
Y02613*
X0402Y02613*
X0402Y02612*
X0402Y02612*
X0402Y02612*
X04021Y02611*
X04022Y0261*
X04023Y02609*
X04024Y02608*
X04025Y02607*
X04025*
X04025Y02607*
X04025Y02607*
X04025Y02607*
X04026Y02607*
X04026Y02607*
X04027Y02607*
X04028Y02606*
X04029Y02606*
X0403Y02606*
X04032Y02606*
X04032*
X04032Y02606*
X04033*
X04033Y02606*
X04034Y02606*
X04035Y02606*
X04036Y02606*
X04037Y02607*
X04039Y02607*
X04039*
X04039Y02608*
X04039Y02608*
X04039Y02608*
X0404Y02608*
X0404Y02609*
X04041Y02609*
X04042Y0261*
X04043Y02611*
X04044Y02612*
Y02613*
X04044Y02613*
X04044Y02613*
X04044Y02613*
X04044Y02613*
X04044Y02614*
X04045Y02615*
X04045Y02616*
X04045Y02617*
X04045Y02618*
X04045Y0262*
Y0262*
Y0262*
Y0262*
X04045Y02621*
X04045Y02621*
X04045Y02622*
X04045Y02622*
X04045Y02623*
X04045Y02624*
X04045Y02625*
X04044Y02626*
X04044Y02626*
X04043Y02627*
X04043Y02628*
X04042Y02629*
X04041Y0263*
X04041Y0263*
X04041Y0263*
X04041Y0263*
X04041Y0263*
X0404Y02631*
X0404Y02631*
X04039Y02631*
X04039Y02632*
X04038Y02632*
X04037Y02633*
X04036Y02633*
X04036Y02633*
X04035Y02634*
X04034Y02634*
X04033Y02634*
X04032Y02634*
G37*
G36*
X03897Y02645D02*
X0389D01*
Y0263*
X03894*
X03894Y0263*
X03895*
X03896Y0263*
X03897Y0263*
X03898Y0263*
X03899Y02631*
X039Y02631*
X039Y02631*
X039*
X039Y02631*
X03901Y02631*
X03901Y02631*
X03902Y02631*
X03902Y02632*
X03903Y02632*
X03903Y02633*
X03904Y02634*
X03904Y02634*
X03904Y02634*
X03904Y02634*
X03905Y02635*
X03905Y02636*
X03905Y02636*
X03905Y02637*
X03905Y02638*
Y02638*
Y02638*
Y02638*
X03905Y02639*
X03905Y02639*
X03905Y0264*
X03905Y02641*
X03904Y02642*
X03904Y02642*
X03903Y02643*
X03903Y02643*
X03903Y02643*
X03902Y02644*
X03902Y02644*
X03902Y02644*
X03902Y02644*
X03901Y02644*
X03901Y02644*
X039Y02644*
X039Y02645*
X03899Y02645*
X03898Y02645*
X03897Y02645*
X03897Y02645*
G37*
G36*
X03895Y02625D02*
X0389D01*
Y02607*
X03897*
X03897Y02607*
X03898*
X03899Y02607*
X039Y02607*
X03901Y02607*
X03903Y02608*
X03903Y02608*
X03904Y02608*
X03904*
X03904Y02608*
X03904Y02608*
X03905Y02608*
X03905Y02609*
X03906Y02609*
X03906Y0261*
X03907Y0261*
X03908Y02611*
X03908Y02611*
X03908Y02612*
X03908Y02612*
X03908Y02613*
X03909Y02613*
X03909Y02614*
X03909Y02615*
X03909Y02616*
Y02616*
Y02616*
Y02616*
X03909Y02616*
X03909Y02617*
X03909Y02618*
X03909Y02619*
X03908Y02619*
X03908Y0262*
X03907Y02621*
Y02621*
X03907Y02621*
X03907Y02622*
X03906Y02622*
X03905Y02623*
X03905Y02623*
X03904Y02624*
X03903Y02624*
X03901Y02625*
X03901Y02625*
X03901*
X03901Y02625*
X03901Y02625*
X039Y02625*
X039Y02625*
X03899Y02625*
X03899Y02625*
X03898Y02625*
X03897*
X03897Y02625*
X03896Y02625*
X03895Y02625*
G37*
G36*
X04376Y02634D02*
X04375D01*
X04375Y02634*
X04374Y02634*
X04374Y02634*
X04373Y02634*
X04373Y02634*
X04371Y02633*
X0437Y02633*
X0437Y02633*
X04369Y02632*
X04368Y02632*
X04367Y02631*
X04367Y02631*
X04367*
X04367Y02631*
X04366Y0263*
X04366Y0263*
X04366Y0263*
X04366Y0263*
X04365Y02629*
X04365Y02629*
X04365Y02628*
X04365Y02628*
X04364Y02627*
X04364Y02627*
X04363Y02626*
X04363Y02625*
X04363Y02624*
X04363Y02623*
X04389*
Y02623*
X04389Y02624*
X04389Y02624*
X04389Y02624*
X04388Y02625*
X04388Y02625*
X04388Y02626*
X04387Y02627*
X04387Y02628*
X04386Y02629*
X04386Y02629*
X04386Y02629*
X04385Y0263*
X04385Y0263*
X04384Y02631*
X04384Y02631*
X04383Y02632*
X04382Y02633*
X04381*
X04381Y02633*
X04381Y02633*
X04381Y02633*
X04381Y02633*
X0438Y02633*
X04379Y02634*
X04378Y02634*
X04377Y02634*
X04376Y02634*
G37*
G36*
X04185D02*
X04185D01*
X04184Y02634*
X04184Y02634*
X04184Y02634*
X04183Y02634*
X04182Y02634*
X04181Y02633*
X0418Y02633*
X04179Y02633*
X04179Y02632*
X04178Y02632*
X04177Y02631*
X04176Y02631*
X04176*
X04176Y02631*
X04176Y0263*
X04176Y0263*
X04176Y0263*
X04176Y0263*
X04175Y02629*
X04175Y02629*
X04175Y02628*
X04174Y02628*
X04174Y02627*
X04174Y02627*
X04173Y02626*
X04173Y02625*
X04173Y02624*
X04172Y02623*
X04199*
Y02623*
X04199Y02624*
X04198Y02624*
X04198Y02624*
X04198Y02625*
X04198Y02625*
X04198Y02626*
X04197Y02627*
X04197Y02628*
X04196Y02629*
X04196Y02629*
X04196Y02629*
X04195Y0263*
X04195Y0263*
X04194Y02631*
X04193Y02631*
X04192Y02632*
X04191Y02633*
X04191*
X04191Y02633*
X04191Y02633*
X04191Y02633*
X0419Y02633*
X0419Y02633*
X04189Y02634*
X04188Y02634*
X04187Y02634*
X04185Y02634*
G37*
G36*
X03104Y02666D02*
X03092Y0264D01*
X03116*
X03104Y02666*
G37*
%LNmidi_stick-3*%
%LPD*%
G54D10*
X03376Y03147D02*
D01*
D01*
G75*
G03X03372I-00001J0D01*
G74*G01*
D01*
G75*
G03X03376I00001J0D01*
G74*G01*
G54D11*
X03949Y0298D02*
D01*
D01*
G75*
G03X03925I-00011J0D01*
G74*G01*
D01*
G75*
G03X03949I00011J0D01*
G74*G01*
G54D12*
X03972Y03067D02*
D01*
D01*
G75*
G03X03962I-00004J0D01*
G74*G01*
D01*
G75*
G03X03972I00004J0D01*
G74*G01*
G54D13*
X0306Y03067D02*
X0326D01*
Y03167*
X0306D02*
X0326D01*
X0306Y03067D02*
Y03167D01*
X03446Y02857D02*
Y02873D01*
X03409Y02857D02*
Y02873D01*
X03371Y02857D02*
Y02873D01*
X03334Y02857D02*
Y02873D01*
X03521Y02857D02*
Y02873D01*
X03484Y02857D02*
Y02873D01*
X04034Y02742D02*
Y02758D01*
X03997Y02742D02*
Y02758D01*
X0375Y02677D02*
Y02693D01*
X03712Y02677D02*
Y02693D01*
X04034Y02863D02*
Y02879D01*
X03997Y02863D02*
Y02879D01*
X03997Y02984D02*
Y03D01*
X04034Y02984D02*
Y03D01*
X03912Y03126D02*
X03928D01*
X03912Y03163D02*
X03928D01*
X0402Y0318D02*
Y0328D01*
X0352Y0318D02*
X0402D01*
X0352Y0328D02*
X0402D01*
X0352Y0318D02*
Y0328D01*
X03152Y03201D02*
X03168D01*
X03152Y03238D02*
X03168D01*
X03409Y03102D02*
Y03118D01*
X03446Y03102D02*
Y03118D01*
X03484Y03101D02*
Y03117D01*
X03521Y03101D02*
Y03117D01*
Y02976D02*
Y02992D01*
X03484Y02976D02*
Y02992D01*
X03446Y02976D02*
Y02992D01*
X03409Y02976D02*
Y02992D01*
X03371Y02976D02*
Y02992D01*
X03334Y02976D02*
Y02992D01*
X03563Y0283D02*
Y03019D01*
X03976Y0283D02*
Y03019D01*
X03563Y0283D02*
X03976D01*
X03563Y03019D02*
X03976D01*
G54D14*
X05245Y02769D02*
Y031D01*
X04675Y02769D02*
X05245D01*
X04675Y031D02*
X05245D01*
X04675D02*
Y03185D01*
Y02685D02*
Y02769D01*
X04175Y02685D02*
Y03185D01*
X04675*
X04175Y02685D02*
X04675D01*
X0275Y02698D02*
Y03171D01*
G54D15*
X03445Y0264D02*
Y02653D01*
Y02646*
X03405*
Y0264*
X03445Y02692D02*
Y02679D01*
X03438Y02672*
X03425*
X03418Y02679*
Y02692*
X03425Y02699*
X03431*
Y02672*
X03405Y02738D02*
X03445D01*
Y02718*
X03438Y02712*
X03425*
X03418Y02718*
Y02738*
X0337Y0264D02*
Y02653D01*
Y02646*
X0333*
Y0264*
X0337Y02692D02*
Y02679D01*
X03363Y02672*
X0335*
X03343Y02679*
Y02692*
X0335Y02699*
X03356*
Y02672*
X0333Y02738D02*
X0337D01*
Y02718*
X03363Y02712*
X0335*
X03343Y02718*
Y02738*
X0352Y0264D02*
Y02653D01*
Y02646*
X0348*
Y0264*
X0352Y02692D02*
Y02679D01*
X03513Y02672*
X035*
X03493Y02679*
Y02692*
X035Y02699*
X03506*
Y02672*
X0348Y02738D02*
X0352D01*
Y02718*
X03513Y02712*
X035*
X03493Y02718*
Y02738*
X03448Y02794D02*
Y02767D01*
X03422Y02794*
X03415*
X03408Y02787*
Y02774*
X03415Y02767*
X03373Y02774D02*
Y02787D01*
Y02781*
X03333*
X0334Y02774*
X0349Y02767D02*
X03483Y02774D01*
Y02787*
X0349Y02794*
X03497*
X03503Y02787*
Y02781*
Y02787*
X0351Y02794*
X03516*
X03523Y02787*
Y02774*
X03516Y02767*
X04175Y03269D02*
Y0321D01*
X04204*
X04214Y0322*
Y03259*
X04204Y03269*
X04175*
X04234Y0321D02*
X04254D01*
X04244*
Y03269*
X04234Y03259*
X03472Y03197D02*
X03465Y0319D01*
Y03177*
X03472Y03171*
X03498*
X03505Y03177*
Y0319*
X03498Y03197*
X03505Y0321D02*
Y03223D01*
Y03217*
X03465*
X03472Y0321*
Y03243D02*
X03465Y03249D01*
Y03263*
X03472Y03269*
X03498*
X03505Y03263*
Y03249*
X03498Y03243*
X03472*
X03795Y03125D02*
Y03164D01*
X03814*
X03821Y03157*
Y03144*
X03814Y03138*
X03795*
X03808D02*
X03821Y03125D01*
X03834Y03157D02*
X0384Y03164D01*
X03854*
X0386Y03157*
Y03151*
X03854Y03144*
X0386Y03138*
Y03131*
X03854Y03125*
X0384*
X03834Y03131*
Y03138*
X0384Y03144*
X03834Y03151*
Y03157*
X0384Y03144D02*
X03854D01*
X03438Y03175D02*
X03399D01*
Y03194*
X03406Y03201*
X03419*
X03425Y03194*
Y03175*
Y03188D02*
X03438Y03201D01*
X03399Y0324D02*
X03406Y03227D01*
X03419Y03214*
X03432*
X03438Y0322*
Y03234*
X03432Y0324*
X03425*
X03419Y03234*
Y03214*
X03029Y032D02*
Y03239D01*
X03049*
X03055Y03232*
Y03219*
X03049Y03213*
X03029*
X03042D02*
X03055Y032D01*
X03095Y03239D02*
X03068D01*
Y03219*
X03082Y03226*
X03088*
X03095Y03219*
Y03206*
X03088Y032*
X03075*
X03068Y03206*
X03333Y03175D02*
X03372D01*
Y03194*
X03366Y03201*
X03339*
X03333Y03194*
Y03175*
Y0324D02*
X03339Y03227D01*
X03353Y03214*
X03366*
X03372Y0322*
Y03234*
X03366Y0324*
X03359*
X03353Y03234*
Y03214*
X03621Y02697D02*
X03614Y02704D01*
X03601*
X03595Y02697*
Y02671*
X03601Y02665*
X03614*
X03621Y02671*
X03634Y02665D02*
X03647D01*
X0364*
Y02704*
X03634Y02697*
X03667Y02665D02*
X0368D01*
X03673*
Y02704*
X03667Y02697*
X04071Y02865D02*
X04065Y02858D01*
Y02845*
X04071Y02839*
X04098*
X04104Y02845*
Y02858*
X04098Y02865*
Y02878D02*
X04104Y02885D01*
Y02898*
X04098Y02904*
X04071*
X04065Y02898*
Y02885*
X04071Y02878*
X04078*
X04085Y02885*
Y02904*
X04071Y02986D02*
X04065Y02979D01*
Y02966*
X04071Y0296*
X04098*
X04104Y02966*
Y02979*
X04098Y02986*
X04071Y02999D02*
X04065Y03005D01*
Y03019*
X04071Y03025*
X04078*
X04085Y03019*
X04091Y03025*
X04098*
X04104Y03019*
Y03005*
X04098Y02999*
X04091*
X04085Y03005*
X04078Y02999*
X04071*
X04085Y03005D02*
Y03019D01*
X04071Y02746D02*
X04065Y02739D01*
Y02726*
X04071Y0272*
X04098*
X04104Y02726*
Y02739*
X04098Y02746*
X04065Y02759D02*
Y02785D01*
X04071*
X04098Y02759*
X04104*
M02*