%FSTAX23Y23*%
%MOIN*%
%SFA1B1*%

%IPPOS*%
%ADD14C,0.011810*%
%ADD15C,0.010000*%
%ADD16R,0.037400X0.027560*%
%ADD17R,0.027560X0.037400*%
%ADD37C,0.019680*%
%ADD39C,0.059060*%
%ADD40R,0.059060X0.059060*%
%ADD41C,0.062990*%
%ADD42C,0.049210*%
%ADD43C,0.060000*%
%ADD44O,0.078740X0.068900*%
%ADD45O,0.078740X0.059060*%
%ADD46O,0.157480X0.078740*%
%ADD47C,0.027560*%
%ADD48C,0.050000*%
%ADD49R,0.037400X0.055120*%
%ADD50R,0.023620X0.035430*%
%ADD51R,0.035430X0.023620*%
%ADD52R,0.047240X0.055120*%
%ADD53R,0.127950X0.084650*%
%ADD54R,0.039370X0.084650*%
%LNmidi_stick-1*%
%LPD*%
G36*
X04605Y0259D02*
X03577D01*
X03575Y02595*
X03584Y02603*
X03585Y02604*
X04431*
X04439Y02606*
X04445Y0261*
X04514Y02679*
X04518Y02685*
X0452Y02693*
Y02784*
X04519Y02788*
X04523Y02792*
X04525Y02792*
X04535Y02794*
X04546Y02798*
X04555Y02804*
X04561Y02813*
X04566Y02824*
X04567Y02835*
X04566Y02845*
X04561Y02856*
X04555Y02865*
X04546Y02871*
X04535Y02876*
X04525Y02877*
X04514Y02876*
X04508Y02873*
X04504Y02877*
X04504Y02879*
Y02902*
X04508Y02906*
X04511*
X04513*
X0453*
Y02935*
Y02963*
X04513*
X04511*
X04508*
X04506*
X04504*
X04503Y02968*
X04498Y02974*
X04474Y02999*
X04467Y03003*
X0446Y03005*
X04453*
X04449Y03009*
X04442Y03015*
X04434Y03018*
X04425Y03019*
X04415Y03018*
X04407Y03015*
X044Y03009*
X04396Y03005*
X04353*
X04349Y03009*
X04342Y03015*
X04334Y03018*
X04325Y03019*
X04315Y03018*
X04307Y03015*
X043Y03009*
X04294Y03002*
X04291Y02994*
X0429Y02985*
X04291Y02975*
X04294Y02967*
X043Y0296*
X04307Y02954*
X04315Y02951*
X04325Y0295*
X04334Y02951*
X04342Y02954*
X04349Y0296*
X04353Y02964*
X04396*
X044Y0296*
X04407Y02954*
X04415Y02951*
X04425Y0295*
X04434Y02951*
X04442Y02954*
X04449Y0296*
X0445Y0296*
X04455Y02961*
X0446Y02955*
Y02906*
X04464*
Y0289*
X04459Y0289*
X04458Y02894*
X04455Y02902*
X04449Y02909*
X04442Y02915*
X04434Y02918*
X04425Y02919*
X04415Y02918*
X04407Y02915*
X044Y02909*
X04394Y02902*
X04391Y02894*
X0439Y02885*
X04391Y02875*
X04394Y02867*
X044Y0286*
X04407Y02854*
X04415Y02851*
X04425Y0285*
X04434Y02851*
X04442Y02854*
X04449Y0286*
X0445Y0286*
X04454Y02859*
Y0282*
X04449Y02818*
X04445Y02821*
X04435Y02825*
X04425Y02826*
X04414Y02825*
X04404Y02821*
X04395Y02814*
X04388Y02805*
X04384Y02795*
X04383Y02785*
X04384Y02774*
X04388Y02764*
X04395Y02755*
X04404Y02748*
X04414Y02744*
X04425Y02743*
X04435Y02744*
X04445Y02748*
X04454Y02755*
X04461Y02764*
X04465Y02774*
X04466Y02782*
X04471Y02784*
X04479Y02776*
Y02701*
X04423Y02645*
X04148*
X04144Y02647*
Y0265*
Y02675*
X04149Y02676*
X04149Y02673*
X0415Y02667*
X04156Y0266*
X04163Y02654*
X04168Y02653*
Y02677*
Y027*
X04163Y02699*
X04156Y02694*
X0415Y02686*
X04149Y0268*
X04149Y02678*
X04144Y02678*
Y02702*
X04138*
Y02702*
X04137Y02708*
X04133Y02714*
X04121Y02726*
X04116Y02729*
X0411Y02731*
X04051*
X04045Y02737*
X0404Y0274*
X04034Y02741*
X04003*
Y02749*
X03946*
Y0274*
X03891*
X03886Y02739*
X03881Y02736*
X03851Y02707*
X0385Y02707*
X03842Y02712*
X03833Y02714*
X03824Y02712*
X03816Y02707*
X0381Y02699*
X03809Y0269*
X0381Y0268*
X03816Y02672*
X03824Y02667*
X03833Y02665*
X03842Y02667*
X0385Y02672*
X03851Y02674*
X03856*
X03862Y02675*
X03867Y02679*
X03898Y0271*
X03946*
Y02701*
Y02698*
Y02679*
X03975*
Y02674*
X0398*
Y0265*
X04003*
X04008Y02651*
X0401Y02651*
Y02674*
X0402*
Y02647*
X04021Y02646*
X04021Y02646*
X0402Y02645*
X03585*
Y02686*
X03593*
Y02743*
X03591Y02748*
X03592Y02749*
X03594Y02758*
X03592Y02767*
X03587Y02775*
X03579Y02781*
X0357Y02782*
X0356Y02781*
X03552Y02775*
X03547Y02767*
X03545Y02758*
X03547Y02749*
X03548Y02748*
X03546Y02743*
X03542*
X03541*
X03523*
Y02715*
Y02686*
X03541*
X03542*
X03546*
X03547*
X03554*
Y02637*
X03551Y02632*
X0355Y02626*
X03548Y02625*
X03424*
Y02645*
X034*
Y0265*
X03395*
Y02678*
X03376*
X03374*
X03373Y02679*
X03372Y02686*
X03373Y02686*
X03376*
X03378*
X03395*
Y02715*
Y02743*
X03378*
X03376*
X03373*
X03371*
X03325*
Y02735*
X03318*
X03304Y02748*
Y02762*
X03314*
Y02867*
X03254*
Y02846*
X03249Y02845*
X03245Y02851*
X03237Y02857*
X03233Y02857*
Y02834*
X03228*
Y02829*
X03205*
X03205Y02825*
X03207Y02822*
X03205Y02817*
X03162*
X03159Y02819*
X0315Y02821*
X0314Y02819*
X03137Y02817*
X02987*
X02986Y02819*
X02979Y02828*
X0297Y02836*
X02959Y0284*
X02948Y02842*
X02938*
X02926Y0284*
X02915Y02836*
X02906Y02828*
X02899Y02819*
X02894Y02808*
X02893Y02797*
X02894Y02785*
X02899Y02774*
X02906Y02765*
X02915Y02758*
X02926Y02753*
X02938Y02752*
X02948*
X02959Y02753*
X0297Y02758*
X02979Y02765*
X02986Y02774*
X02987Y02776*
X03011*
X03013Y02771*
X03009Y02765*
X03008Y0276*
X03054*
X03053Y02765*
X03049Y02771*
X03051Y02776*
X03137*
X0314Y02774*
X0315Y02772*
X03159Y02774*
X03162Y02776*
X03169*
X03171Y02771*
X03166Y02765*
X03165Y0276*
X03212*
X03211Y02765*
X03206Y02771*
X03208Y02776*
X03254*
Y02762*
X03264*
Y0274*
X03265Y02732*
X0327Y02726*
X03293Y02702*
X03293Y02696*
X03289Y02694*
X03284Y02686*
X03283Y02682*
X03307*
Y02677*
X03312*
Y02653*
X03316Y02654*
X0332Y02657*
X03325Y02654*
Y02621*
X03329*
Y02615*
X0333Y02607*
X03335Y02601*
X03341Y02595*
X03339Y0259*
X0275*
Y0328*
X04605*
Y0259*
G37*
%LNmidi_stick-2*%
%LPC*%
G36*
X03775Y03264D02*
Y03235D01*
X03804*
X03804Y03239*
X038Y03247*
X03794Y03254*
X03787Y0326*
X03779Y03264*
X03775Y03264*
G37*
G36*
X03765D02*
X0376Y03264D01*
X03752Y0326*
X03745Y03254*
X03739Y03247*
X03735Y03239*
X03735Y03235*
X03765*
Y03264*
G37*
G36*
X04532Y03251D02*
Y03233D01*
X0455*
X04549Y03237*
X04544Y03245*
X04536Y0325*
X04532Y03251*
G37*
G36*
X04522D02*
X04518Y0325D01*
X0451Y03245*
X04505Y03237*
X04504Y03233*
X04522*
Y03251*
G37*
G36*
X04453D02*
Y03233D01*
X04472*
X04471Y03237*
X04465Y03245*
X04458Y0325*
X04453Y03251*
G37*
G36*
X04443D02*
X04439Y0325D01*
X04431Y03245*
X04426Y03237*
X04425Y03233*
X04443*
Y03251*
G37*
G36*
X04375D02*
Y03233D01*
X04393*
X04392Y03237*
X04387Y03245*
X04379Y0325*
X04375Y03251*
G37*
G36*
X04365D02*
X0436Y0325D01*
X04352Y03245*
X04347Y03237*
X04346Y03233*
X04365*
Y03251*
G37*
G36*
X04296D02*
Y03233D01*
X04314*
X04313Y03237*
X04308Y03245*
X043Y0325*
X04296Y03251*
G37*
G36*
X04286D02*
X04282Y0325D01*
X04274Y03245*
X04268Y03237*
X04268Y03233*
X04286*
Y03251*
G37*
G36*
X04217D02*
Y03233D01*
X04235*
X04235Y03237*
X04229Y03245*
X04221Y0325*
X04217Y03251*
G37*
G36*
X04207D02*
X04203Y0325D01*
X04195Y03245*
X0419Y03237*
X04189Y03233*
X04207*
Y03251*
G37*
G36*
X03508D02*
Y03233D01*
X03527*
X03526Y03237*
X03521Y03245*
X03513Y0325*
X03508Y03251*
G37*
G36*
X03498D02*
X03494Y0325D01*
X03486Y03245*
X03481Y03237*
X0348Y03233*
X03498*
Y03251*
G37*
G36*
X03036D02*
Y03233D01*
X03054*
X03053Y03237*
X03048Y03245*
X0304Y0325*
X03036Y03251*
G37*
G36*
X03026D02*
X03022Y0325D01*
X03014Y03245*
X03009Y03237*
X03008Y03233*
X03026*
Y03251*
G37*
G36*
X02957D02*
Y03233D01*
X02976*
X02975Y03237*
X02969Y03245*
X02962Y0325*
X02957Y03251*
G37*
G36*
X02947D02*
X02943Y0325D01*
X02935Y03245*
X0293Y03237*
X02929Y03233*
X02947*
Y03251*
G37*
G36*
X028D02*
Y03233D01*
X02818*
X02817Y03237*
X02812Y03245*
X02804Y0325*
X028Y03251*
G37*
G36*
X0279D02*
X02786Y0325D01*
X02778Y03245*
X02772Y03237*
X02772Y03233*
X0279*
Y03251*
G37*
G36*
X0455Y03223D02*
X04532D01*
Y03205*
X04536Y03205*
X04544Y03211*
X04549Y03219*
X0455Y03223*
G37*
G36*
X04522D02*
X04504D01*
X04505Y03219*
X0451Y03211*
X04518Y03205*
X04522Y03205*
Y03223*
G37*
G36*
X04472D02*
X04453D01*
Y03205*
X04458Y03205*
X04465Y03211*
X04471Y03219*
X04472Y03223*
G37*
G36*
X04443D02*
X04425D01*
X04426Y03219*
X04431Y03211*
X04439Y03205*
X04443Y03205*
Y03223*
G37*
G36*
X04393D02*
X04375D01*
Y03205*
X04379Y03205*
X04387Y03211*
X04392Y03219*
X04393Y03223*
G37*
G36*
X04365D02*
X04346D01*
X04347Y03219*
X04352Y03211*
X0436Y03205*
X04365Y03205*
Y03223*
G37*
G36*
X04314D02*
X04296D01*
Y03205*
X043Y03205*
X04308Y03211*
X04313Y03219*
X04314Y03223*
G37*
G36*
X04286D02*
X04268D01*
X04268Y03219*
X04274Y03211*
X04282Y03205*
X04286Y03205*
Y03223*
G37*
G36*
X04235D02*
X04217D01*
Y03205*
X04221Y03205*
X04229Y03211*
X04235Y03219*
X04235Y03223*
G37*
G36*
X04207D02*
X04189D01*
X0419Y03219*
X04195Y03211*
X04203Y03205*
X04207Y03205*
Y03223*
G37*
G36*
X03527D02*
X03508D01*
Y03205*
X03513Y03205*
X03521Y03211*
X03526Y03219*
X03527Y03223*
G37*
G36*
X03498D02*
X0348D01*
X03481Y03219*
X03486Y03211*
X03494Y03205*
X03498Y03205*
Y03223*
G37*
G36*
X03054D02*
X03036D01*
Y03205*
X0304Y03205*
X03048Y03211*
X03053Y03219*
X03054Y03223*
G37*
G36*
X03026D02*
X03008D01*
X03009Y03219*
X03014Y03211*
X03022Y03205*
X03026Y03205*
Y03223*
G37*
G36*
X02976D02*
X02957D01*
Y03205*
X02962Y03205*
X02969Y03211*
X02975Y03219*
X02976Y03223*
G37*
G36*
X02947D02*
X02929D01*
X0293Y03219*
X02935Y03211*
X02943Y03205*
X02947Y03205*
Y03223*
G37*
G36*
X03845Y032D02*
X0384Y03199D01*
X0384*
X0383Y03197*
X03822Y03192*
X03817Y03184*
X03815Y03175*
X03817Y03165*
X03822Y03157*
X0383Y03152*
X0384Y0315*
X03844Y03151*
X03914Y03081*
Y02987*
X03912Y02984*
X0391Y02975*
X03912Y02965*
X03917Y02957*
X03925Y02952*
X03935Y0295*
X03944Y02952*
X03952Y02957*
X03957Y02965*
X03959Y02975*
X03957Y02984*
X03955Y02987*
Y03051*
X0396Y03053*
X03967Y03048*
X03971Y03047*
Y0307*
Y03094*
X03967Y03093*
X0396Y03088*
X03956Y03089*
X03955Y0309*
X03953Y03097*
X03949Y03104*
X03859Y03194*
X03852Y03198*
X03845Y032*
G37*
G36*
X03804Y03225D02*
X03775D01*
Y03195*
X03779Y03195*
X03787Y03199*
X03794Y03205*
X038Y03212*
X03804Y0322*
X03804Y03225*
G37*
G36*
X03765D02*
X03735D01*
X03735Y0322*
X03739Y03212*
X03745Y03205*
X03752Y03199*
X0376Y03195*
X03765Y03195*
Y03225*
G37*
G36*
X02899Y03215D02*
X02865D01*
Y0317*
X02948*
X02947Y03178*
X02942Y0319*
X02935Y032*
X02924Y03208*
X02912Y03213*
X02899Y03215*
G37*
G36*
X02818Y03223D02*
X02772D01*
X02772Y03219*
X02778Y03211*
X02785Y03206*
X02786Y03201*
X02785Y032*
X02777Y0319*
X02772Y03178*
X02771Y0317*
X02855*
Y03215*
X02821*
X0282Y03215*
X02817Y03219*
X02818Y03223*
G37*
G36*
X04571Y03172D02*
Y03154D01*
X0459*
X04589Y03158*
X04584Y03166*
X04576Y03172*
X04571Y03172*
G37*
G36*
X04561D02*
X04557Y03172D01*
X04549Y03166*
X04544Y03158*
X04543Y03154*
X04561*
Y03172*
G37*
G36*
X04493D02*
Y03154D01*
X04511*
X0451Y03158*
X04505Y03166*
X04497Y03172*
X04493Y03172*
G37*
G36*
X04483D02*
X04478Y03172D01*
X04471Y03166*
X04465Y03158*
X04464Y03154*
X04483*
Y03172*
G37*
G36*
X04414D02*
Y03154D01*
X04432*
X04431Y03158*
X04426Y03166*
X04418Y03172*
X04414Y03172*
G37*
G36*
X04404D02*
X044Y03172D01*
X04392Y03166*
X04387Y03158*
X04386Y03154*
X04404*
Y03172*
G37*
G36*
X04178D02*
Y03154D01*
X04196*
X04195Y03158*
X0419Y03166*
X04182Y03172*
X04178Y03172*
G37*
G36*
X04168D02*
X04163Y03172D01*
X04156Y03166*
X0415Y03158*
X04149Y03154*
X04168*
Y03172*
G37*
G36*
X04099D02*
Y03154D01*
X04117*
X04116Y03158*
X04111Y03166*
X04103Y03172*
X04099Y03172*
G37*
G36*
X04089D02*
X04085Y03172D01*
X04077Y03166*
X04072Y03158*
X04071Y03154*
X04089*
Y03172*
G37*
G36*
X0402D02*
Y03154D01*
X04039*
X04038Y03158*
X04032Y03166*
X04025Y03172*
X0402Y03172*
G37*
G36*
X0401D02*
X04006Y03172D01*
X03998Y03166*
X03993Y03158*
X03992Y03154*
X0401*
Y03172*
G37*
G36*
X03312D02*
Y03154D01*
X0333*
X03329Y03158*
X03324Y03166*
X03316Y03172*
X03312Y03172*
G37*
G36*
X03302D02*
X03297Y03172D01*
X03289Y03166*
X03284Y03158*
X03283Y03154*
X03302*
Y03172*
G37*
G36*
X02997D02*
Y03154D01*
X03015*
X03014Y03158*
X03009Y03166*
X03001Y03172*
X02997Y03172*
G37*
G36*
X02987D02*
X02982Y03172D01*
X02974Y03166*
X02969Y03158*
X02968Y03154*
X02987*
Y03172*
G37*
G36*
X0333Y03144D02*
X03312D01*
Y03126*
X03316Y03127*
X03324Y03132*
X03329Y0314*
X0333Y03144*
G37*
G36*
X03302D02*
X03283D01*
X03284Y0314*
X03289Y03132*
X03297Y03127*
X03302Y03126*
Y03144*
G37*
G36*
X03015D02*
X02997D01*
Y03126*
X03001Y03127*
X03009Y03132*
X03014Y0314*
X03015Y03144*
G37*
G36*
X02987D02*
X02968D01*
X02969Y0314*
X02974Y03132*
X02982Y03127*
X02987Y03126*
Y03144*
G37*
G36*
X0459D02*
X04571D01*
Y03126*
X04576Y03127*
X04584Y03132*
X04589Y0314*
X0459Y03144*
G37*
G36*
X04561D02*
X04543D01*
X04544Y0314*
X04549Y03132*
X04557Y03127*
X04561Y03126*
Y03144*
G37*
G36*
X04511D02*
X04493D01*
Y03126*
X04497Y03127*
X04505Y03132*
X0451Y0314*
X04511Y03144*
G37*
G36*
X04483D02*
X04464D01*
X04465Y0314*
X04471Y03132*
X04478Y03127*
X04483Y03126*
Y03144*
G37*
G36*
X04117D02*
X04099D01*
Y03126*
X04103Y03127*
X04111Y03132*
X04116Y0314*
X04117Y03144*
G37*
G36*
X04089D02*
X04071D01*
X04072Y0314*
X04077Y03132*
X04085Y03127*
X04089Y03126*
Y03144*
G37*
G36*
X04039D02*
X0402D01*
Y03126*
X04025Y03127*
X04032Y03132*
X04038Y0314*
X04039Y03144*
G37*
G36*
X0401D02*
X03992D01*
X03993Y0314*
X03998Y03132*
X04006Y03127*
X0401Y03126*
Y03144*
G37*
G36*
X03249Y03156D02*
X03215D01*
Y03122*
X03249*
Y03156*
G37*
G36*
X03205D02*
X0317D01*
Y03122*
X03205*
Y03156*
G37*
G36*
X02948Y0316D02*
X02865D01*
Y03115*
X02899*
X02912Y03117*
X02924Y03122*
X02935Y0313*
X02942Y0314*
X02947Y03152*
X02948Y0316*
G37*
G36*
X02855D02*
X02771D01*
X02772Y03152*
X02777Y0314*
X02785Y0313*
X02796Y03122*
X02808Y03117*
X02821Y03115*
X02855*
Y0316*
G37*
G36*
X02948Y03117D02*
Y03077D01*
X02992*
X02991Y03084*
X02986Y03095*
X02979Y03104*
X0297Y03111*
X02959Y03116*
X02948Y03117*
G37*
G36*
X02938D02*
X02926Y03116D01*
X02915Y03111*
X02906Y03104*
X02899Y03095*
X02894Y03084*
X02894Y03077*
X02938*
Y03117*
G37*
G36*
X03205Y03112D02*
X0317D01*
Y03077*
X03205*
Y03112*
G37*
G36*
X0311Y03157D02*
X03099Y03155D01*
X0309Y03151*
X03081Y03145*
X03075Y03137*
X03071Y03127*
X0307Y03117*
X03071Y03106*
X03075Y03097*
X03081Y03088*
X0309Y03082*
X03099Y03078*
X0311Y03077*
X0312Y03078*
X03129Y03082*
X03138Y03088*
X03144Y03097*
X03148Y03106*
X03149Y03117*
X03148Y03127*
X03144Y03137*
X03138Y03145*
X03129Y03151*
X0312Y03155*
X0311Y03157*
G37*
G36*
X0406Y03094D02*
Y03075D01*
X04078*
X04077Y0308*
X04072Y03088*
X04064Y03093*
X0406Y03094*
G37*
G36*
X0405D02*
X04045Y03093D01*
X04037Y03088*
X04032Y0308*
X04031Y03075*
X0405*
Y03094*
G37*
G36*
X03981D02*
Y03075D01*
X03999*
X03998Y0308*
X03993Y03088*
X03985Y03093*
X03981Y03094*
G37*
G36*
X03272D02*
Y03075D01*
X0329*
X0329Y0308*
X03284Y03088*
X03277Y03093*
X03272Y03094*
G37*
G36*
X03249Y03112D02*
X03215D01*
Y03077*
X0324*
X03242Y03075*
X03262*
Y03094*
X03258Y03093*
X03254Y0309*
X03249Y03093*
Y03112*
G37*
G36*
X03036Y03094D02*
Y03075D01*
X03054*
X03053Y0308*
X03048Y03088*
X0304Y03093*
X03036Y03094*
G37*
G36*
X03026D02*
X03022Y03093D01*
X03014Y03088*
X03009Y0308*
X03008Y03075*
X03026*
Y03094*
G37*
G36*
X028D02*
Y03075D01*
X02818*
X02817Y0308*
X02812Y03088*
X02804Y03093*
X028Y03094*
G37*
G36*
X0279D02*
X02786Y03093D01*
X02778Y03088*
X02772Y0308*
X02772Y03075*
X0279*
Y03094*
G37*
G36*
X04078Y03065D02*
X0406D01*
Y03047*
X04064Y03048*
X04072Y03053*
X04077Y03061*
X04078Y03065*
G37*
G36*
X0405D02*
X04031D01*
X04032Y03061*
X04037Y03053*
X04045Y03048*
X0405Y03047*
Y03065*
G37*
G36*
X03999D02*
X03981D01*
Y03047*
X03985Y03048*
X03993Y03053*
X03998Y03061*
X03999Y03065*
G37*
G36*
X0329D02*
X03272D01*
Y03047*
X03277Y03048*
X03284Y03053*
X0329Y03061*
X0329Y03065*
G37*
G36*
X03262D02*
X03244D01*
X03245Y03061*
X0325Y03053*
X03258Y03048*
X03262Y03047*
Y03065*
G37*
G36*
X03054D02*
X03036D01*
Y03047*
X0304Y03048*
X03048Y03053*
X03053Y03061*
X03054Y03065*
G37*
G36*
X03026D02*
X03008D01*
X03009Y03061*
X03014Y03053*
X03022Y03048*
X03026Y03047*
Y03065*
G37*
G36*
X02818D02*
X028D01*
Y03047*
X02804Y03048*
X02812Y03053*
X02817Y03061*
X02818Y03065*
G37*
G36*
X0279D02*
X02772D01*
X02772Y03061*
X02778Y03053*
X02786Y03048*
X0279Y03047*
Y03065*
G37*
G36*
X04246Y03161D02*
X04237Y03159D01*
X04229Y03154*
X04224Y03146*
X04222Y03137*
X04224Y03127*
X04224Y03127*
X04222Y03122*
X04219*
Y03047*
X04276*
Y03122*
X04271*
X04269Y03127*
X04269Y03127*
X04271Y03137*
X04269Y03146*
X04264Y03154*
X04256Y03159*
X04246Y03161*
G37*
G36*
X04432Y03144D02*
X04386D01*
X04387Y0314*
X04392Y03132*
X044Y03127*
X04403Y03126*
X04404Y03121*
X04404Y03121*
X04395Y03114*
X04388Y03105*
X04384Y03095*
X04383Y03085*
X04384Y03074*
X04388Y03064*
X04395Y03055*
X04404Y03048*
X04414Y03044*
X04425Y03043*
X04435Y03044*
X04445Y03048*
X04454Y03055*
X04461Y03064*
X04465Y03074*
X04466Y03085*
X04465Y03095*
X04461Y03105*
X04454Y03114*
X04445Y03121*
X04435Y03125*
X04426Y03126*
X04425Y03131*
X04426Y03132*
X04431Y0314*
X04432Y03144*
G37*
G36*
X04325Y03126D02*
X04314Y03125D01*
X04304Y03121*
X04295Y03114*
X04288Y03105*
X04284Y03095*
X04283Y03085*
X04284Y03074*
X04288Y03064*
X04295Y03055*
X04304Y03048*
X04314Y03044*
X04325Y03043*
X04335Y03044*
X04345Y03048*
X04354Y03055*
X04361Y03064*
X04365Y03074*
X04366Y03085*
X04365Y03095*
X04361Y03105*
X04354Y03114*
X04345Y03121*
X04335Y03125*
X04325Y03126*
G37*
G36*
X02992Y03067D02*
X02948D01*
Y03027*
X02959Y03029*
X0297Y03033*
X02979Y03041*
X02986Y0305*
X02991Y03061*
X02992Y03067*
G37*
G36*
X02938D02*
X02894D01*
X02894Y03061*
X02899Y0305*
X02906Y03041*
X02915Y03033*
X02926Y03029*
X02938Y03027*
Y03067*
G37*
G36*
X03448Y03097D02*
X03301D01*
Y02992*
X03448*
Y03024*
X03545*
X03549Y03022*
X03558Y0302*
X03567Y03022*
X03575Y03027*
X0358Y03035*
X03582Y03045*
X0358Y03054*
X03575Y03062*
X03567Y03067*
X03558Y03069*
X03549Y03067*
X03546Y03065*
X03448*
Y03097*
G37*
G36*
X03731Y03039D02*
X03722Y03037D01*
X03714Y03032*
X03709Y03024*
X03707Y03015*
X03709Y03005*
X03709Y03005*
X03707Y03*
X03699*
X03695Y03004*
X03697Y0301*
X03695Y03019*
X03689Y03027*
X03682Y03032*
X03672Y03034*
X03663Y03032*
X03655Y03027*
X0365Y03019*
X03648Y0301*
X03648Y03007*
X03631Y0299*
X03628Y02985*
X03626Y02979*
Y02969*
X03613*
Y02923*
Y02921*
Y02918*
Y02899*
X0367*
Y029*
X03675Y02902*
X03682Y02896*
Y02839*
X03812*
Y02914*
X03707*
X037Y02921*
X03702Y02925*
X03812*
Y0293*
X03823*
Y02921*
Y02918*
Y02916*
Y02899*
X03852*
Y02894*
X03857*
Y0287*
X0388*
Y0289*
X03885Y02893*
X03888Y0289*
X03892Y0289*
Y02913*
Y02936*
X03888Y02935*
X03885Y02933*
X0388Y02936*
Y02969*
X03823*
Y0296*
X03812*
Y03*
X03782*
X03757Y03026*
X03752Y03029*
X0375Y03029*
X03748Y03032*
X0374Y03037*
X03731Y03039*
G37*
G36*
X0286Y03059D02*
X02851Y03058D01*
X02843Y03054*
X02836Y03049*
X02831Y03042*
X02827Y03034*
X02826Y03025*
X02827Y03016*
X02831Y03008*
X02836Y03001*
X02843Y02996*
X02851Y02992*
X0286Y02991*
X02869Y02992*
X02877Y02996*
X02884Y03001*
X02889Y03008*
X02893Y03016*
X02894Y03025*
X02893Y03034*
X02889Y03042*
X02884Y03049*
X02877Y03054*
X02869Y03058*
X0286Y03059*
G37*
G36*
X0459Y02987D02*
X04571D01*
Y02968*
X04576Y02969*
X04584Y02974*
X04589Y02982*
X0459Y02987*
G37*
G36*
X04525Y03077D02*
X04514Y03076D01*
X04503Y03071*
X04494Y03065*
X04488Y03056*
X04484Y03045*
X04482Y03035*
X04484Y03024*
X04488Y03013*
X04494Y03004*
X04503Y02998*
X04514Y02994*
X04525Y02992*
X04535Y02994*
X04538Y02995*
X0454Y02994*
X04542Y02991*
X04544Y02982*
X04549Y02974*
X04557Y02969*
X04561Y02968*
Y02992*
X04566*
Y02997*
X0459*
X04589Y03001*
X04584Y03009*
X04576Y03014*
X04568Y03016*
X04564Y0302*
X04566Y03024*
X04567Y03035*
X04566Y03045*
X04561Y03056*
X04555Y03065*
X04546Y03071*
X04535Y03076*
X04525Y03077*
G37*
G36*
X02952Y03014D02*
X02933D01*
X02922Y03012*
X02913Y03008*
X02905Y03002*
X02898Y02994*
X02894Y02984*
X02893Y02974*
X02894Y02964*
X02898Y02954*
X02905Y02946*
X02913Y02939*
X02918Y02937*
Y02932*
X02913Y0293*
X02905Y02923*
X02902Y02919*
X02896Y02921*
X02896Y02922*
X02891Y0293*
X02883Y02935*
X02879Y02936*
Y02913*
Y0289*
X02883Y0289*
X02888Y02894*
X02893Y02892*
X02894Y02885*
X02898Y02875*
X02905Y02867*
X02913Y02861*
X02922Y02857*
X02933Y02855*
X02952*
X02963Y02857*
X02972Y02861*
X02981Y02867*
X02987Y02875*
X0299Y02882*
X03077*
Y02875*
X03132*
Y02919*
X03077*
Y02912*
X02988*
X02987Y02915*
X02981Y02923*
X02972Y0293*
X02967Y02932*
Y02937*
X02972Y02939*
X02981Y02946*
X02987Y02954*
X02989Y02959*
X03077*
Y0295*
X03132*
Y02994*
X03077*
Y02989*
X02989*
X02987Y02994*
X02981Y03002*
X02972Y03008*
X02963Y03012*
X02952Y03014*
G37*
G36*
X0454Y02963D02*
Y0294D01*
X04559*
Y02963*
X0454*
G37*
G36*
X03222Y02956D02*
X032D01*
Y0294*
X03222*
Y02956*
G37*
G36*
X0319D02*
X03167D01*
Y0294*
X0319*
Y02956*
G37*
G36*
X03902Y02936D02*
Y02918D01*
X0392*
X0392Y02922*
X03914Y0293*
X03906Y02935*
X03902Y02936*
G37*
G36*
X03587D02*
Y02918D01*
X03605*
X03605Y02922*
X03599Y0293*
X03591Y02935*
X03587Y02936*
G37*
G36*
X03577D02*
X03573Y02935D01*
X03565Y0293*
X0356Y02922*
X03559Y02918*
X03577*
Y02936*
G37*
G36*
X03272D02*
Y02918D01*
X0329*
X0329Y02922*
X03284Y0293*
X03277Y02935*
X03272Y02936*
G37*
G36*
X03262D02*
X03258Y02935D01*
X0325Y0293*
X03245Y02922*
X03244Y02918*
X03262*
Y02936*
G37*
G36*
X02869D02*
X02864Y02935D01*
X02856Y0293*
X02851Y02922*
X0285Y02918*
X02869*
Y02936*
G37*
G36*
X028D02*
Y02918D01*
X02818*
X02817Y02922*
X02812Y0293*
X02804Y02935*
X028Y02936*
G37*
G36*
X0279D02*
X02786Y02935D01*
X02778Y0293*
X02772Y02922*
X02772Y02918*
X0279*
Y02936*
G37*
G36*
X03222Y0293D02*
X032D01*
Y02913*
X03222*
Y0293*
G37*
G36*
X0319D02*
X03167D01*
Y02913*
X0319*
Y0293*
G37*
G36*
X04559D02*
X0454D01*
Y02906*
X04559*
Y0293*
G37*
G36*
X0329Y02908D02*
X03272D01*
Y0289*
X03277Y0289*
X03284Y02896*
X0329Y02904*
X0329Y02908*
G37*
G36*
X03262D02*
X03244D01*
X03245Y02904*
X0325Y02896*
X03258Y0289*
X03262Y0289*
Y02908*
G37*
G36*
X02869D02*
X0285D01*
X02851Y02904*
X02856Y02896*
X02864Y0289*
X02869Y0289*
Y02908*
G37*
G36*
X02818D02*
X028D01*
Y0289*
X02804Y0289*
X02812Y02896*
X02817Y02904*
X02818Y02908*
G37*
G36*
X0279D02*
X02772D01*
X02772Y02904*
X02778Y02896*
X02786Y0289*
X0279Y0289*
Y02908*
G37*
G36*
X0392D02*
X03902D01*
Y0289*
X03906Y0289*
X03914Y02896*
X0392Y02904*
X0392Y02908*
G37*
G36*
X03847Y02889D02*
X03823D01*
Y0287*
X03847*
Y02889*
G37*
G36*
X0367D02*
X03647D01*
Y0287*
X0367*
Y02889*
G37*
G36*
X03637D02*
X03613D01*
Y0287*
X03637*
Y02889*
G37*
G36*
X04225Y03006D02*
X04211Y03005D01*
X04197Y03*
X04185Y02994*
X04174Y02985*
X04165Y02974*
X04159Y02962*
X04155Y02948*
X04153Y02935*
X04155Y02921*
X04159Y02907*
X04165Y02895*
X04174Y02884*
X04185Y02875*
X04197Y02869*
X04211Y02865*
X04225Y02863*
X04238Y02865*
X04252Y02869*
X04264Y02875*
X04275Y02884*
X04284Y02895*
X0429Y02907*
X04295Y02921*
X04296Y02935*
X04295Y02948*
X0429Y02962*
X04284Y02974*
X04275Y02985*
X04264Y02994*
X04252Y03*
X04238Y03005*
X04225Y03006*
G37*
G36*
X04325Y02919D02*
X04315Y02918D01*
X04307Y02915*
X043Y02909*
X04294Y02902*
X04291Y02894*
X0429Y02885*
X0429Y02879*
X04233Y02822*
X04233Y02821*
X04219*
Y02746*
X04276*
Y02807*
X04319Y0285*
X04325Y0285*
X04334Y02851*
X04342Y02854*
X04349Y0286*
X04355Y02867*
X04358Y02875*
X04359Y02885*
X04358Y02894*
X04355Y02902*
X04349Y02909*
X04342Y02915*
X04334Y02918*
X04325Y02919*
G37*
G36*
X03223Y02857D02*
X03219Y02857D01*
X03211Y02851*
X03205Y02843*
X03205Y02839*
X03223*
Y02857*
G37*
G36*
X03535Y0291D02*
X0339D01*
X03384Y02909*
X03379Y02905*
X03369Y02895*
X03365Y0289*
X03364Y02885*
Y02867*
X03345*
Y02762*
X03404*
Y02867*
X03395*
Y02878*
X03396Y02879*
X03527*
X03531Y02875*
Y02848*
Y02846*
Y02843*
Y02841*
Y02824*
X03588*
Y02841*
Y02843*
Y02846*
Y02848*
Y0289*
X03591Y0289*
X03599Y02896*
X03605Y02904*
X03605Y02908*
X03559*
X0356Y02904*
X03562Y02901*
X03559Y02896*
X03556Y02895*
X03546Y02905*
X03541Y02909*
X03535Y0291*
G37*
G36*
X03495Y02867D02*
X0347D01*
Y02819*
X03495*
Y02867*
G37*
G36*
X0346D02*
X03435D01*
Y02819*
X0346*
Y02867*
G37*
G36*
X0286Y02878D02*
X02851Y02877D01*
X02843Y02873*
X02836Y02868*
X02831Y02861*
X02827Y02853*
X02826Y02844*
X02827Y02835*
X02831Y02827*
X02836Y0282*
X02843Y02815*
X02851Y02811*
X0286Y0281*
X02869Y02811*
X02877Y02815*
X02884Y0282*
X02889Y02827*
X02893Y02835*
X02894Y02844*
X02893Y02853*
X02889Y02861*
X02884Y02868*
X02877Y02873*
X02869Y02877*
X0286Y02878*
G37*
G36*
X03588Y02814D02*
X03565D01*
Y02795*
X03588*
Y02814*
G37*
G36*
X03555D02*
X03531D01*
Y02795*
X03555*
Y02814*
G37*
G36*
X03495Y02809D02*
X0347D01*
Y02762*
X03495*
Y02809*
G37*
G36*
X0346D02*
X03435D01*
Y02762*
X0346*
Y02809*
G37*
G36*
X04196Y03144D02*
X04149D01*
X0415Y0314*
X04156Y03132*
X04159Y0313*
X0416Y03123*
X04159Y03122*
X04146*
Y03105*
X0414*
X04133Y03103*
X04126Y03099*
X0411Y03083*
X04106Y03076*
X04104Y03069*
Y02804*
X04104*
X04096Y02803*
X04089Y02798*
X04084Y02792*
X04063*
Y02737*
X04106*
Y02758*
X04112Y02764*
X04146*
Y02746*
X04203*
Y02821*
X04146*
X04145Y02826*
Y03042*
X04146Y03047*
X04203*
Y03122*
X04186*
X04185Y03123*
X04187Y0313*
X0419Y03132*
X04195Y0314*
X04196Y03144*
G37*
G36*
X04325Y02826D02*
X04314Y02825D01*
X04304Y02821*
X04295Y02814*
X04288Y02805*
X04284Y02795*
X04283Y02785*
X04284Y02774*
X04288Y02764*
X04295Y02755*
X04304Y02748*
X04314Y02744*
X04325Y02743*
X04335Y02744*
X04345Y02748*
X04354Y02755*
X04361Y02764*
X04365Y02774*
X04366Y02785*
X04365Y02795*
X04361Y02805*
X04354Y02814*
X04345Y02821*
X04335Y02825*
X04325Y02826*
G37*
G36*
X03212Y0275D02*
X03193D01*
Y02732*
X03198Y02733*
X03206Y02738*
X03211Y02746*
X03212Y0275*
G37*
G36*
X03183D02*
X03165D01*
X03166Y02746*
X03171Y02738*
X03179Y02733*
X03183Y02732*
Y0275*
G37*
G36*
X03054D02*
X03036D01*
Y02732*
X0304Y02733*
X03048Y02738*
X03053Y02746*
X03054Y0275*
G37*
G36*
X03026D02*
X03008D01*
X03009Y02746*
X03014Y02738*
X03022Y02733*
X03026Y02732*
Y0275*
G37*
G36*
X03405Y02743D02*
Y0272D01*
X03424*
Y02743*
X03405*
G37*
G36*
X03513D02*
X03495D01*
Y0272*
X03513*
Y02743*
G37*
G36*
X02899Y02754D02*
X02865D01*
Y02709*
X02948*
X02947Y02717*
X02942Y02729*
X02935Y02739*
X02924Y02747*
X02912Y02752*
X02899Y02754*
G37*
G36*
X02855D02*
X02821D01*
X02808Y02752*
X02796Y02747*
X02785Y02739*
X02777Y02729*
X02772Y02717*
X02771Y02709*
X02855*
Y02754*
G37*
G36*
X03424Y0271D02*
X03405D01*
Y02686*
X03424*
Y0271*
G37*
G36*
X03513D02*
X03495D01*
Y02686*
X03513*
Y0271*
G37*
G36*
X04571Y027D02*
Y02682D01*
X0459*
X04589Y02686*
X04584Y02694*
X04576Y02699*
X04571Y027*
G37*
G36*
X04561D02*
X04557Y02699D01*
X04549Y02694*
X04544Y02686*
X04543Y02682*
X04561*
Y027*
G37*
G36*
X04414D02*
Y02682D01*
X04432*
X04431Y02686*
X04426Y02694*
X04418Y02699*
X04414Y027*
G37*
G36*
X04404D02*
X044Y02699D01*
X04392Y02694*
X04387Y02686*
X04386Y02682*
X04404*
Y027*
G37*
G36*
X04335D02*
Y02682D01*
X04353*
X04353Y02686*
X04347Y02694*
X04339Y02699*
X04335Y027*
G37*
G36*
X04325D02*
X04321Y02699D01*
X04313Y02694*
X04308Y02686*
X04307Y02682*
X04325*
Y027*
G37*
G36*
X04256D02*
Y02682D01*
X04275*
X04274Y02686*
X04269Y02694*
X04261Y02699*
X04256Y027*
G37*
G36*
X04246D02*
X04242Y02699D01*
X04234Y02694*
X04229Y02686*
X04228Y02682*
X04246*
Y027*
G37*
G36*
X04178D02*
Y02682D01*
X04196*
X04195Y02686*
X0419Y02694*
X04182Y02699*
X04178Y027*
G37*
G36*
X03233D02*
Y02682D01*
X03251*
X0325Y02686*
X03245Y02694*
X03237Y02699*
X03233Y027*
G37*
G36*
X03223D02*
X03219Y02699D01*
X03211Y02694*
X03205Y02686*
X03205Y02682*
X03223*
Y027*
G37*
G36*
X03154D02*
Y02682D01*
X03172*
X03172Y02686*
X03166Y02694*
X03158Y02699*
X03154Y027*
G37*
G36*
X03144D02*
X0314Y02699D01*
X03132Y02694*
X03127Y02686*
X03126Y02682*
X03144*
Y027*
G37*
G36*
X02997D02*
Y02682D01*
X03015*
X03014Y02686*
X03009Y02694*
X03001Y02699*
X02997Y027*
G37*
G36*
X02987D02*
X02982Y02699D01*
X02974Y02694*
X02969Y02686*
X02968Y02682*
X02987*
Y027*
G37*
G36*
X03424Y02678D02*
X03405D01*
Y02655*
X03424*
Y02678*
G37*
G36*
X02948Y02699D02*
X02865D01*
Y02654*
X02899*
X02912Y02656*
X02924Y02661*
X02935Y02669*
X02942Y02679*
X02947Y02691*
X02948Y02699*
G37*
G36*
X02855D02*
X02771D01*
X02772Y02691*
X02777Y02679*
X02785Y02669*
X02796Y02661*
X02808Y02656*
X02821Y02654*
X02855*
Y02699*
G37*
G36*
X0459Y02672D02*
X04571D01*
Y02653*
X04576Y02654*
X04584Y0266*
X04589Y02667*
X0459Y02672*
G37*
G36*
X04561D02*
X04543D01*
X04544Y02667*
X04549Y0266*
X04557Y02654*
X04561Y02653*
Y02672*
G37*
G36*
X04432D02*
X04414D01*
Y02653*
X04418Y02654*
X04426Y0266*
X04431Y02667*
X04432Y02672*
G37*
G36*
X04404D02*
X04386D01*
X04387Y02667*
X04392Y0266*
X044Y02654*
X04404Y02653*
Y02672*
G37*
G36*
X04353D02*
X04335D01*
Y02653*
X04339Y02654*
X04347Y0266*
X04353Y02667*
X04353Y02672*
G37*
G36*
X04325D02*
X04307D01*
X04308Y02667*
X04313Y0266*
X04321Y02654*
X04325Y02653*
Y02672*
G37*
G36*
X04275D02*
X04256D01*
Y02653*
X04261Y02654*
X04269Y0266*
X04274Y02667*
X04275Y02672*
G37*
G36*
X04246D02*
X04228D01*
X04229Y02667*
X04234Y0266*
X04242Y02654*
X04246Y02653*
Y02672*
G37*
G36*
X04196D02*
X04178D01*
Y02653*
X04182Y02654*
X0419Y0266*
X04195Y02667*
X04196Y02672*
G37*
G36*
X03302D02*
X03283D01*
X03284Y02667*
X03289Y0266*
X03297Y02654*
X03302Y02653*
Y02672*
G37*
G36*
X03251D02*
X03233D01*
Y02653*
X03237Y02654*
X03245Y0266*
X0325Y02667*
X03251Y02672*
G37*
G36*
X03223D02*
X03205D01*
X03205Y02667*
X03211Y0266*
X03219Y02654*
X03223Y02653*
Y02672*
G37*
G36*
X03172D02*
X03154D01*
Y02653*
X03158Y02654*
X03166Y0266*
X03172Y02667*
X03172Y02672*
G37*
G36*
X03144D02*
X03126D01*
X03127Y02667*
X03132Y0266*
X0314Y02654*
X03144Y02653*
Y02672*
G37*
G36*
X03015D02*
X02997D01*
Y02653*
X03001Y02654*
X03009Y0266*
X03014Y02667*
X03015Y02672*
G37*
G36*
X02987D02*
X02968D01*
X02969Y02667*
X02974Y0266*
X02982Y02654*
X02987Y02653*
Y02672*
G37*
G36*
X0397Y02669D02*
X03946D01*
Y0265*
X0397*
Y02669*
G37*
%LNmidi_stick-3*%
%LPD*%
G54D14*
X03975Y02725D02*
X04034D01*
X04045Y02715*
X0411*
X04122Y02702*
Y02674D02*
Y02702D01*
G54D15*
X03833Y0269D02*
X03856D01*
X03891Y02725*
X03975*
X03746Y03015D02*
X03788Y02973D01*
X03778Y02963D02*
X03788Y02973D01*
X03731Y03015D02*
X03746D01*
X02943Y02895D02*
X02945Y02897D01*
X03104*
X04015Y02674D02*
X04015Y02674D01*
X04047*
X0357Y02625D02*
Y02758D01*
X03642Y02979D02*
X03672Y0301D01*
X03642Y02945D02*
Y02979D01*
X03675Y02925D02*
X03715Y02884D01*
X03662Y02925D02*
X03675D01*
X03715Y02876D02*
Y02884D01*
X03796Y02945D02*
X03852D01*
X03778Y02963D02*
X03796Y02945D01*
X03642D02*
X03662Y02925D01*
X03375Y02814D02*
X0338Y02819D01*
Y02885*
X0339Y02895*
X03535*
X0356Y0287*
X03266Y02797D02*
X03284Y02814D01*
X03102Y02974D02*
X03104Y02972D01*
X02943Y02974D02*
X03102D01*
G54D16*
X03975Y02725D03*
Y02674D03*
X0356Y0287D03*
Y02819D03*
X03852Y02945D03*
Y02894D03*
X03642Y02945D03*
Y02894D03*
G54D17*
X03518Y02715D03*
X0357D03*
X04484Y02935D03*
X04535D03*
X03349Y02715D03*
X034D03*
X03349Y0265D03*
X034D03*
G54D37*
X04246Y03137D02*
X04247Y03136D01*
Y03085D02*
Y03136D01*
X04245Y03087D02*
X04247Y03085D01*
X03845Y0318D02*
X03935Y0309D01*
X0357Y02625D02*
X04431D01*
X0357Y02617D02*
Y02625D01*
X04431D02*
X045Y02693D01*
X0414Y03085D02*
X04175D01*
X04125Y03069D02*
X0414Y03085D01*
X04125Y02784D02*
Y03069D01*
Y02784D02*
X04175D01*
X04104D02*
X04125D01*
X04085Y02765D02*
X04104Y02784D01*
X04247Y02807D02*
X04325Y02885D01*
X04247Y02784D02*
Y02807D01*
X04425Y02985D02*
X0446D01*
X04325D02*
X04425D01*
X0432D02*
X04325D01*
X0446D02*
X04484Y0296D01*
Y02935D02*
Y0296D01*
X045Y02693D02*
Y02784D01*
X04475Y02809D02*
X045Y02784D01*
X04475Y02809D02*
Y0287D01*
X04484Y02879D02*
Y02935D01*
X04475Y0287D02*
X04484Y02879D01*
X0384Y03175D02*
X03845Y0318D01*
X03935Y02975D02*
Y0309D01*
X03557Y02605D02*
X0357Y02617D01*
X0336Y02605D02*
X03557D01*
X03349Y02615D02*
X0336Y02605D01*
X03349Y02615D02*
Y0265D01*
X03558Y03045D02*
X03558Y03045D01*
X03375Y03045D02*
X03558D01*
X02943Y02797D02*
X0315D01*
X03266*
X0331Y02715D02*
X03349D01*
X03284Y0274D02*
X0331Y02715D01*
X03284Y0274D02*
Y02814D01*
X03349Y0265D02*
Y02715D01*
G54D39*
X0311Y03117D03*
G54D40*
X0321Y03117D03*
G54D41*
X04325Y03085D03*
Y02785D03*
X04425D03*
Y03085D03*
G54D42*
X04325Y02985D03*
Y02885D03*
X04425Y02985D03*
Y02885D03*
G54D43*
X04225Y02935D03*
G54D44*
X02943Y03072D03*
Y02797D03*
G54D45*
X02943Y02974D03*
Y02895D03*
G54D46*
X0286Y02704D03*
Y03165D03*
G54D47*
X04246Y03137D03*
X03833Y0269D03*
X03731Y03015D03*
X04566Y03149D03*
Y02992D03*
Y02677D03*
X04527Y03228D03*
X04488Y03149D03*
X04448Y03228D03*
X04409Y03149D03*
Y02677D03*
X0437Y03228D03*
X0433Y02677D03*
X04291Y03228D03*
X04251Y02677D03*
X04212Y03228D03*
X04173Y03149D03*
Y02677D03*
X04094Y03149D03*
X04015D03*
X04055Y0307D03*
X03976D03*
X03897Y02913D03*
X03582D03*
X03503Y03228D03*
X03307Y03149D03*
Y02677D03*
X03267Y0307D03*
Y02913D03*
X03228Y02834D03*
Y02677D03*
X03188Y02755D03*
X03149Y02677D03*
X03031Y03228D03*
X02992Y03149D03*
X03031Y0307D03*
Y02755D03*
X02992Y02677D03*
X02952Y03228D03*
X02874Y02913D03*
X02795Y03228D03*
Y0307D03*
Y02913D03*
X04015Y02674D03*
X0384Y03175D03*
X03935Y02975D03*
X03558Y03045D03*
X0357Y02758D03*
X0315Y02797D03*
X03672Y0301D03*
G54D48*
X0377Y0323D03*
G54D49*
X04247Y03085D03*
X04175D03*
X04247Y02784D03*
X04175D03*
G54D50*
X04085Y02765D03*
X04047Y02674D03*
X04122D03*
G54D51*
X03195Y02935D03*
X03104Y02972D03*
Y02897D03*
G54D52*
X03778Y02876D03*
X03715D03*
X03778Y02963D03*
X03715D03*
G54D53*
X03375Y03045D03*
G54D54*
X03284Y02814D03*
X03375D03*
X03465D03*
M02*