G04*
G04 #@! TF.GenerationSoftware,Altium Limited,Altium Designer,18.1.11 (251)*
G04*
G04 Layer_Color=16711935*
%FSLAX25Y25*%
%MOIN*%
G70*
G01*
G75*
%ADD20R,0.04540X0.03556*%
%ADD21R,0.03556X0.04540*%
%ADD25C,0.06706*%
%ADD26R,0.06706X0.06706*%
%ADD27C,0.07099*%
%ADD28C,0.05721*%
%ADD29C,0.00800*%
%ADD30C,0.06800*%
%ADD31O,0.08674X0.07690*%
%ADD32O,0.08674X0.06706*%
%ADD33O,0.16548X0.08674*%
%ADD34C,0.03556*%
%ADD35C,0.05800*%
%ADD55R,0.04540X0.06312*%
%ADD56R,0.03162X0.04343*%
%ADD57R,0.04343X0.03162*%
%ADD58R,0.05524X0.06312*%
%ADD59R,0.13595X0.09265*%
%ADD60R,0.04737X0.09265*%
D20*
X397500Y272559D02*
D03*
Y267441D02*
D03*
X356000Y287059D02*
D03*
Y281941D02*
D03*
X385221Y294559D02*
D03*
Y289441D02*
D03*
X364220Y294559D02*
D03*
Y289441D02*
D03*
D21*
X351882Y271500D02*
D03*
X357000D02*
D03*
X448441Y293500D02*
D03*
X453559D02*
D03*
X334941Y271500D02*
D03*
X340059D02*
D03*
X334941Y265000D02*
D03*
X340059D02*
D03*
D25*
X311000Y311716D02*
D03*
D26*
X321000D02*
D03*
D27*
X432500Y308500D02*
D03*
Y278500D02*
D03*
X442500D02*
D03*
Y308500D02*
D03*
D28*
X432500Y298500D02*
D03*
Y288500D02*
D03*
X442500Y298500D02*
D03*
Y288500D02*
D03*
D29*
X452500Y303500D02*
D03*
Y283500D02*
D03*
X286043Y284445D02*
D03*
Y302555D02*
D03*
D30*
X422500Y293500D02*
D03*
D31*
X294311Y307279D02*
D03*
Y279720D02*
D03*
D32*
Y297437D02*
D03*
Y289563D02*
D03*
D33*
X286043Y270468D02*
D03*
Y316531D02*
D03*
D34*
X424697Y313713D02*
D03*
X383336Y269010D02*
D03*
X393500Y297500D02*
D03*
X357000Y275870D02*
D03*
X315000Y279720D02*
D03*
D35*
X377000Y323000D02*
D03*
D55*
X424784Y308500D02*
D03*
X417500D02*
D03*
X424784Y278441D02*
D03*
X417500D02*
D03*
D56*
X408500Y276528D02*
D03*
X404760Y267472D02*
D03*
X412240D02*
D03*
D57*
X319528Y293500D02*
D03*
X310472Y297240D02*
D03*
Y289760D02*
D03*
D58*
X377870Y287669D02*
D03*
X371571D02*
D03*
X377870Y296331D02*
D03*
X371571D02*
D03*
D59*
X337500Y304516D02*
D03*
D60*
X328445Y281484D02*
D03*
X337500D02*
D03*
X346555D02*
D03*
M02*
