G04*
G04 #@! TF.GenerationSoftware,Altium Limited,Altium Designer,18.1.11 (251)*
G04*
G04 Layer_Color=8421504*
%FSLAX25Y25*%
%MOIN*%
G70*
G01*
G75*
%ADD16R,0.02756X0.03740*%
%ADD17R,0.03740X0.02756*%
%ADD18C,0.07874*%
%ADD19R,0.01968X0.02362*%
%ADD20O,0.01575X0.06496*%
D16*
X352559Y276000D02*
D03*
X347441D02*
D03*
X394559Y314500D02*
D03*
X389441D02*
D03*
X341059Y320500D02*
D03*
X335941D02*
D03*
X350500Y297500D02*
D03*
X345382D02*
D03*
D17*
X393634Y270059D02*
D03*
Y264941D02*
D03*
X373161Y271059D02*
D03*
Y265941D02*
D03*
X408500Y289441D02*
D03*
Y294559D02*
D03*
X402500Y289441D02*
D03*
Y294559D02*
D03*
X341500Y308441D02*
D03*
Y313559D02*
D03*
X333500Y301618D02*
D03*
Y296500D02*
D03*
X326000Y301618D02*
D03*
Y296500D02*
D03*
X318500Y301618D02*
D03*
Y296500D02*
D03*
Y285500D02*
D03*
Y290618D02*
D03*
X326000Y285500D02*
D03*
Y290618D02*
D03*
X333500Y285500D02*
D03*
Y290618D02*
D03*
D18*
X357000Y323000D02*
D03*
X367000D02*
D03*
X377000D02*
D03*
X387000D02*
D03*
X397000D02*
D03*
D19*
X335500Y313953D02*
D03*
Y308047D02*
D03*
D20*
X360366Y278228D02*
D03*
X362925D02*
D03*
X365484D02*
D03*
X368043D02*
D03*
X370602D02*
D03*
X373161D02*
D03*
X375721D02*
D03*
X378279D02*
D03*
X380839D02*
D03*
X383398D02*
D03*
X385957D02*
D03*
X388516D02*
D03*
X391075D02*
D03*
X393634D02*
D03*
X360366Y306772D02*
D03*
X362925D02*
D03*
X365484D02*
D03*
X368043D02*
D03*
X370602D02*
D03*
X373161D02*
D03*
X375721D02*
D03*
X378279D02*
D03*
X380839D02*
D03*
X383398D02*
D03*
X385957D02*
D03*
X388516D02*
D03*
X391075D02*
D03*
X393634D02*
D03*
M02*
