G04*
G04 #@! TF.GenerationSoftware,Altium Limited,Altium Designer,18.1.11 (251)*
G04*
G04 Layer_Color=65535*
%FSLAX25Y25*%
%MOIN*%
G70*
G01*
G75*
%ADD10C,0.00394*%
%ADD11C,0.02362*%
%ADD12C,0.00984*%
%ADD13C,0.00787*%
%ADD14C,0.01181*%
%ADD15C,0.01000*%
G36*
X322320Y270125D02*
X322459D01*
Y269986D01*
Y269847D01*
Y269708D01*
X322320D01*
Y269569D01*
X319541D01*
Y269708D01*
Y269847D01*
Y269986D01*
Y270125D01*
X319680D01*
Y270264D01*
X322320D01*
Y270125D01*
D02*
G37*
G36*
X321347Y276933D02*
Y276794D01*
Y276655D01*
Y276516D01*
Y276377D01*
Y276238D01*
Y276099D01*
Y275960D01*
Y275821D01*
Y275682D01*
Y275543D01*
Y275405D01*
Y275266D01*
Y275127D01*
Y274988D01*
Y274849D01*
Y274710D01*
Y274571D01*
Y274432D01*
Y274293D01*
Y274154D01*
Y274015D01*
Y273876D01*
X324265D01*
Y273737D01*
X324404D01*
Y273598D01*
X324543D01*
Y273460D01*
Y273321D01*
X324404D01*
Y273182D01*
X317596D01*
Y273321D01*
X317457D01*
Y273460D01*
Y273598D01*
Y273737D01*
X317596D01*
Y273876D01*
X320514D01*
Y274015D01*
Y274154D01*
Y274293D01*
Y274432D01*
Y274571D01*
Y274710D01*
Y274849D01*
Y274988D01*
Y275127D01*
Y275266D01*
Y275405D01*
Y275543D01*
Y275682D01*
Y275821D01*
Y275960D01*
Y276099D01*
Y276238D01*
Y276377D01*
Y276516D01*
Y276655D01*
Y276794D01*
Y276933D01*
Y277072D01*
X321347D01*
Y276933D01*
D02*
G37*
G36*
X323501Y271792D02*
Y271653D01*
Y271514D01*
Y271375D01*
X323362D01*
Y271236D01*
X318777D01*
Y271375D01*
X318638D01*
Y271514D01*
X318499D01*
Y271653D01*
Y271792D01*
X318638D01*
Y271931D01*
X323501D01*
Y271792D01*
D02*
G37*
G36*
X311172Y276019D02*
X311221D01*
X311287Y276002D01*
X311369Y275986D01*
X311459Y275969D01*
X311558Y275937D01*
X311664Y275904D01*
X311779Y275855D01*
X311902Y275797D01*
X312025Y275732D01*
X312156Y275650D01*
X312296Y275551D01*
X312427Y275445D01*
X312566Y275322D01*
X312123Y274879D01*
X312115Y274887D01*
X312099Y274903D01*
X312074Y274928D01*
X312033Y274961D01*
X311984Y275002D01*
X311927Y275043D01*
X311787Y275141D01*
X311631Y275240D01*
X311451Y275322D01*
X311353Y275354D01*
X311262Y275379D01*
X311164Y275395D01*
X311066Y275404D01*
X311008D01*
X310951Y275395D01*
X310869Y275379D01*
X310787Y275346D01*
X310688Y275313D01*
X310590Y275256D01*
X310500Y275182D01*
X310492Y275174D01*
X310467Y275141D01*
X310426Y275100D01*
X310385Y275035D01*
X310344Y274961D01*
X310303Y274871D01*
X310278Y274780D01*
X310270Y274674D01*
Y274666D01*
Y274633D01*
X310278Y274584D01*
X310295Y274518D01*
X310319Y274444D01*
X310352Y274362D01*
X310393Y274272D01*
X310459Y274182D01*
X310467Y274174D01*
X310500Y274141D01*
X310557Y274092D01*
X310639Y274026D01*
X310746Y273944D01*
X310811Y273903D01*
X310885Y273854D01*
X310975Y273805D01*
X311066Y273747D01*
X311164Y273690D01*
X311279Y273632D01*
X311287Y273624D01*
X311312Y273616D01*
X311353Y273591D01*
X311402Y273567D01*
X311459Y273534D01*
X311533Y273493D01*
X311689Y273395D01*
X311861Y273272D01*
X312033Y273149D01*
X312181Y273017D01*
X312246Y272944D01*
X312304Y272878D01*
X312312Y272862D01*
X312345Y272812D01*
X312386Y272739D01*
X312443Y272640D01*
X312492Y272517D01*
X312533Y272370D01*
X312566Y272214D01*
X312574Y272050D01*
Y272042D01*
Y272017D01*
Y271984D01*
X312566Y271943D01*
X312558Y271886D01*
X312550Y271820D01*
X312517Y271664D01*
X312460Y271492D01*
X312378Y271304D01*
X312328Y271213D01*
X312271Y271123D01*
X312197Y271033D01*
X312115Y270943D01*
X312107Y270935D01*
X312091Y270926D01*
X312066Y270902D01*
X312033Y270877D01*
X311992Y270844D01*
X311935Y270803D01*
X311869Y270762D01*
X311804Y270721D01*
X311631Y270639D01*
X311443Y270566D01*
X311221Y270516D01*
X311098Y270508D01*
X310975Y270500D01*
X310902D01*
X310811Y270508D01*
X310697Y270525D01*
X310565Y270549D01*
X310418Y270582D01*
X310262Y270631D01*
X310106Y270697D01*
X310098D01*
X310090Y270705D01*
X310041Y270730D01*
X309959Y270779D01*
X309868Y270836D01*
X309762Y270918D01*
X309647Y271008D01*
X309532Y271115D01*
X309426Y271238D01*
X309844Y271730D01*
X309852Y271722D01*
X309868Y271705D01*
X309893Y271673D01*
X309934Y271640D01*
X309983Y271599D01*
X310041Y271550D01*
X310180Y271443D01*
X310344Y271328D01*
X310533Y271238D01*
X310631Y271205D01*
X310729Y271172D01*
X310836Y271156D01*
X310943Y271148D01*
X310959D01*
X311008Y271156D01*
X311090Y271164D01*
X311180Y271181D01*
X311295Y271213D01*
X311410Y271254D01*
X311525Y271320D01*
X311640Y271402D01*
X311656Y271410D01*
X311689Y271451D01*
X311730Y271500D01*
X311787Y271574D01*
X311836Y271664D01*
X311886Y271771D01*
X311918Y271886D01*
X311927Y272017D01*
Y272033D01*
Y272066D01*
X311918Y272124D01*
X311902Y272189D01*
X311877Y272271D01*
X311845Y272361D01*
X311804Y272452D01*
X311738Y272534D01*
X311730Y272542D01*
X311697Y272575D01*
X311640Y272624D01*
X311558Y272689D01*
X311508Y272730D01*
X311451Y272771D01*
X311377Y272812D01*
X311295Y272870D01*
X311213Y272919D01*
X311115Y272976D01*
X311008Y273034D01*
X310885Y273099D01*
X310877Y273108D01*
X310852Y273116D01*
X310820Y273132D01*
X310770Y273165D01*
X310713Y273198D01*
X310647Y273231D01*
X310500Y273329D01*
X310336Y273436D01*
X310180Y273559D01*
X310032Y273690D01*
X309967Y273755D01*
X309918Y273821D01*
Y273829D01*
X309909Y273837D01*
X309877Y273887D01*
X309836Y273960D01*
X309795Y274059D01*
X309745Y274174D01*
X309704Y274313D01*
X309672Y274469D01*
X309663Y274633D01*
Y274641D01*
Y274657D01*
Y274690D01*
X309672Y274731D01*
X309680Y274780D01*
X309688Y274846D01*
X309713Y274985D01*
X309762Y275141D01*
X309836Y275305D01*
X309877Y275387D01*
X309934Y275469D01*
X309991Y275551D01*
X310065Y275625D01*
X310073Y275633D01*
X310082Y275641D01*
X310106Y275666D01*
X310139Y275691D01*
X310180Y275715D01*
X310229Y275756D01*
X310352Y275830D01*
X310500Y275904D01*
X310672Y275961D01*
X310877Y276010D01*
X310984Y276019D01*
X311098Y276027D01*
X311131D01*
X311172Y276019D01*
D02*
G37*
G36*
X406258Y265224D02*
X406296Y265213D01*
X406334Y265203D01*
X406378Y265181D01*
X406422Y265153D01*
X406465Y265115D01*
X406471Y265110D01*
X406482Y265093D01*
X406504Y265072D01*
X406526Y265044D01*
X406542Y265006D01*
X406564Y264957D01*
X406575Y264908D01*
X406580Y264853D01*
Y264848D01*
Y264831D01*
X406575Y264798D01*
X406564Y264766D01*
X406553Y264727D01*
X406531Y264684D01*
X406504Y264640D01*
X406465Y264597D01*
X406460Y264591D01*
X406444Y264580D01*
X406422Y264564D01*
X406394Y264542D01*
X406356Y264520D01*
X406307Y264504D01*
X406258Y264493D01*
X406203Y264487D01*
X406176D01*
X406149Y264493D01*
X406116Y264504D01*
X406072Y264515D01*
X406029Y264531D01*
X405985Y264558D01*
X405941Y264597D01*
X405936Y264602D01*
X405925Y264618D01*
X405908Y264640D01*
X405887Y264668D01*
X405865Y264706D01*
X405849Y264749D01*
X405837Y264798D01*
X405832Y264853D01*
Y264859D01*
Y264880D01*
X405837Y264908D01*
X405849Y264946D01*
X405859Y264984D01*
X405876Y265028D01*
X405903Y265072D01*
X405941Y265115D01*
X405947Y265121D01*
X405963Y265132D01*
X405985Y265153D01*
X406018Y265175D01*
X406056Y265192D01*
X406100Y265213D01*
X406149Y265224D01*
X406203Y265230D01*
X406231D01*
X406258Y265224D01*
D02*
G37*
G36*
X400416D02*
X400454Y265213D01*
X400492Y265203D01*
X400536Y265181D01*
X400580Y265153D01*
X400623Y265115D01*
X400629Y265110D01*
X400640Y265093D01*
X400662Y265072D01*
X400683Y265044D01*
X400700Y265006D01*
X400722Y264957D01*
X400732Y264908D01*
X400738Y264853D01*
Y264848D01*
Y264831D01*
X400732Y264798D01*
X400722Y264766D01*
X400711Y264727D01*
X400689Y264684D01*
X400662Y264640D01*
X400623Y264597D01*
X400618Y264591D01*
X400601Y264580D01*
X400580Y264564D01*
X400552Y264542D01*
X400514Y264520D01*
X400465Y264504D01*
X400416Y264493D01*
X400361Y264487D01*
X400334D01*
X400307Y264493D01*
X400274Y264504D01*
X400230Y264515D01*
X400186Y264531D01*
X400143Y264558D01*
X400099Y264597D01*
X400094Y264602D01*
X400083Y264618D01*
X400066Y264640D01*
X400044Y264668D01*
X400023Y264706D01*
X400006Y264749D01*
X399995Y264798D01*
X399990Y264853D01*
Y264859D01*
Y264880D01*
X399995Y264908D01*
X400006Y264946D01*
X400017Y264984D01*
X400034Y265028D01*
X400061Y265072D01*
X400099Y265115D01*
X400105Y265121D01*
X400121Y265132D01*
X400143Y265153D01*
X400176Y265175D01*
X400214Y265192D01*
X400257Y265213D01*
X400307Y265224D01*
X400361Y265230D01*
X400388D01*
X400416Y265224D01*
D02*
G37*
G36*
X386351Y265137D02*
X386384Y265132D01*
X386466Y265121D01*
X386564Y265099D01*
X386667Y265072D01*
X386777Y265028D01*
X386886Y264973D01*
X386891D01*
X386897Y264968D01*
X386913Y264957D01*
X386935Y264941D01*
X386995Y264897D01*
X387077Y264837D01*
X387121Y264798D01*
X387170Y264755D01*
X387219Y264700D01*
X387274Y264646D01*
X387328Y264586D01*
X387388Y264515D01*
X387448Y264444D01*
X387508Y264362D01*
X387121Y264072D01*
X387115Y264078D01*
X387110Y264089D01*
X387093Y264105D01*
X387077Y264127D01*
X387028Y264187D01*
X386962Y264263D01*
X386891Y264340D01*
X386815Y264416D01*
X386738Y264482D01*
X386700Y264515D01*
X386662Y264536D01*
X386651Y264542D01*
X386629Y264553D01*
X386591Y264575D01*
X386542Y264597D01*
X386482Y264613D01*
X386411Y264635D01*
X386334Y264646D01*
X386252Y264651D01*
X386203D01*
X386154Y264640D01*
X386089Y264629D01*
X386012Y264607D01*
X385936Y264580D01*
X385859Y264536D01*
X385788Y264476D01*
X385783Y264471D01*
X385761Y264444D01*
X385734Y264405D01*
X385701Y264356D01*
X385663Y264296D01*
X385635Y264220D01*
X385614Y264138D01*
X385608Y264045D01*
Y264040D01*
Y264018D01*
X385614Y263990D01*
Y263952D01*
X385625Y263903D01*
X385635Y263854D01*
X385647Y263799D01*
X385668Y263745D01*
X385674Y263739D01*
X385679Y263717D01*
X385696Y263690D01*
X385723Y263652D01*
X385756Y263603D01*
X385794Y263554D01*
X385843Y263494D01*
X385903Y263428D01*
X385909Y263423D01*
X385925Y263406D01*
X385958Y263379D01*
X385985Y263363D01*
X386012Y263335D01*
X386051Y263308D01*
X386094Y263275D01*
X386143Y263237D01*
X386198Y263193D01*
X386263Y263144D01*
X386340Y263089D01*
X386422Y263030D01*
X386515Y262959D01*
X386520Y262953D01*
X386542Y262937D01*
X386575Y262915D01*
X386613Y262882D01*
X386667Y262844D01*
X386722Y262795D01*
X386788Y262740D01*
X386853Y262685D01*
X386995Y262560D01*
X387132Y262423D01*
X387197Y262352D01*
X387257Y262281D01*
X387312Y262210D01*
X387361Y262145D01*
X387366Y262140D01*
X387372Y262129D01*
X387383Y262112D01*
X387399Y262085D01*
X387416Y262052D01*
X387432Y262014D01*
X387476Y261927D01*
X387519Y261817D01*
X387552Y261697D01*
X387579Y261572D01*
X387590Y261435D01*
Y261430D01*
Y261413D01*
Y261386D01*
X387585Y261348D01*
X387579Y261304D01*
X387568Y261255D01*
X387558Y261195D01*
X387541Y261129D01*
X387519Y261064D01*
X387492Y260993D01*
X387465Y260916D01*
X387426Y260840D01*
X387377Y260764D01*
X387328Y260687D01*
X387268Y260611D01*
X387197Y260540D01*
X387192Y260534D01*
X387181Y260523D01*
X387159Y260507D01*
X387126Y260480D01*
X387088Y260452D01*
X387044Y260420D01*
X386990Y260387D01*
X386930Y260354D01*
X386864Y260316D01*
X386793Y260283D01*
X386711Y260250D01*
X386629Y260223D01*
X386536Y260196D01*
X386444Y260179D01*
X386345Y260168D01*
X386242Y260163D01*
X386198D01*
X386171Y260168D01*
X386132D01*
X386089Y260174D01*
X386040Y260185D01*
X385985Y260190D01*
X385859Y260218D01*
X385728Y260261D01*
X385597Y260316D01*
X385461Y260392D01*
X385455Y260398D01*
X385444Y260403D01*
X385428Y260420D01*
X385401Y260436D01*
X385373Y260463D01*
X385335Y260491D01*
X385292Y260529D01*
X385248Y260573D01*
X385199Y260622D01*
X385150Y260682D01*
X385095Y260742D01*
X385040Y260813D01*
X384986Y260889D01*
X384931Y260971D01*
X384871Y261058D01*
X384817Y261157D01*
X385215Y261402D01*
X385221Y261391D01*
X385237Y261370D01*
X385259Y261331D01*
X385292Y261282D01*
X385330Y261222D01*
X385379Y261157D01*
X385434Y261086D01*
X385499Y261015D01*
X385565Y260938D01*
X385641Y260867D01*
X385723Y260802D01*
X385810Y260742D01*
X385903Y260693D01*
X385996Y260654D01*
X386094Y260632D01*
X386198Y260622D01*
X386242D01*
X386285Y260627D01*
X386345Y260638D01*
X386411Y260649D01*
X386487Y260665D01*
X386569Y260693D01*
X386646Y260731D01*
X386657Y260736D01*
X386678Y260753D01*
X386717Y260774D01*
X386766Y260807D01*
X386815Y260851D01*
X386870Y260900D01*
X386919Y260960D01*
X386962Y261026D01*
X386968Y261037D01*
X386979Y261058D01*
X387000Y261097D01*
X387022Y261146D01*
X387039Y261206D01*
X387061Y261277D01*
X387071Y261348D01*
X387077Y261424D01*
Y261430D01*
Y261435D01*
Y261468D01*
X387066Y261512D01*
X387055Y261572D01*
X387039Y261643D01*
X387006Y261724D01*
X386968Y261806D01*
X386913Y261894D01*
Y261899D01*
X386902Y261910D01*
X386891Y261927D01*
X386870Y261948D01*
X386842Y261981D01*
X386809Y262019D01*
X386771Y262058D01*
X386727Y262107D01*
X386673Y262161D01*
X386618Y262216D01*
X386547Y262281D01*
X386476Y262347D01*
X386395Y262418D01*
X386302Y262494D01*
X386209Y262571D01*
X386100Y262653D01*
X386094Y262658D01*
X386072Y262675D01*
X386045Y262696D01*
X386007Y262724D01*
X385958Y262762D01*
X385903Y262806D01*
X385788Y262904D01*
X385663Y263008D01*
X385543Y263117D01*
X385488Y263166D01*
X385439Y263215D01*
X385395Y263264D01*
X385363Y263302D01*
Y263308D01*
X385352Y263319D01*
X385341Y263335D01*
X385324Y263363D01*
X385308Y263390D01*
X385286Y263428D01*
X385242Y263521D01*
X385193Y263625D01*
X385155Y263750D01*
X385128Y263887D01*
X385122Y263958D01*
X385117Y264029D01*
Y264034D01*
Y264045D01*
Y264061D01*
Y264083D01*
X385122Y264138D01*
X385133Y264214D01*
X385155Y264302D01*
X385177Y264394D01*
X385215Y264493D01*
X385264Y264591D01*
Y264597D01*
X385270Y264602D01*
X385292Y264635D01*
X385324Y264678D01*
X385373Y264738D01*
X385428Y264804D01*
X385499Y264869D01*
X385586Y264935D01*
X385679Y264995D01*
X385685D01*
X385690Y265001D01*
X385706Y265012D01*
X385728Y265017D01*
X385783Y265044D01*
X385854Y265072D01*
X385941Y265093D01*
X386040Y265121D01*
X386149Y265137D01*
X386263Y265142D01*
X386318D01*
X386351Y265137D01*
D02*
G37*
G36*
X441535Y263870D02*
X441584Y263859D01*
X441644Y263848D01*
X441715Y263827D01*
X441786Y263794D01*
X441868Y263756D01*
X441628Y263373D01*
X441622Y263379D01*
X441606Y263384D01*
X441579Y263395D01*
X441546Y263406D01*
X441469Y263428D01*
X441431Y263439D01*
X441355D01*
X441311Y263428D01*
X441251Y263417D01*
X441186Y263395D01*
X441109Y263363D01*
X441033Y263313D01*
X440951Y263253D01*
X440940Y263242D01*
X440918Y263221D01*
X440880Y263172D01*
X440836Y263111D01*
X440781Y263030D01*
X440732Y262931D01*
X440678Y262811D01*
X440634Y262675D01*
Y262669D01*
X440629Y262658D01*
Y262642D01*
X440623Y262614D01*
X440618Y262576D01*
X440607Y262533D01*
X440601Y262478D01*
X440596Y262413D01*
X440585Y262336D01*
X440580Y262249D01*
X440574Y262150D01*
X440563Y262041D01*
X440558Y261916D01*
Y261779D01*
X440552Y261632D01*
Y261468D01*
Y260283D01*
X440094D01*
Y263788D01*
X440552D01*
Y263281D01*
X440563Y263286D01*
X440574Y263302D01*
X440585Y263324D01*
X440629Y263379D01*
X440683Y263444D01*
X440749Y263515D01*
X440820Y263592D01*
X440902Y263663D01*
X440984Y263723D01*
X440995Y263728D01*
X441022Y263745D01*
X441071Y263772D01*
X441131Y263799D01*
X441202Y263827D01*
X441284Y263854D01*
X441371Y263870D01*
X441464Y263876D01*
X441497D01*
X441535Y263870D01*
D02*
G37*
G36*
X424500D02*
X424549Y263859D01*
X424609Y263848D01*
X424680Y263827D01*
X424751Y263794D01*
X424833Y263756D01*
X424593Y263373D01*
X424587Y263379D01*
X424571Y263384D01*
X424544Y263395D01*
X424511Y263406D01*
X424434Y263428D01*
X424396Y263439D01*
X424320D01*
X424276Y263428D01*
X424216Y263417D01*
X424150Y263395D01*
X424074Y263363D01*
X423997Y263313D01*
X423916Y263253D01*
X423905Y263242D01*
X423883Y263221D01*
X423845Y263172D01*
X423801Y263111D01*
X423746Y263030D01*
X423697Y262931D01*
X423643Y262811D01*
X423599Y262675D01*
Y262669D01*
X423594Y262658D01*
Y262642D01*
X423588Y262614D01*
X423583Y262576D01*
X423572Y262533D01*
X423566Y262478D01*
X423561Y262413D01*
X423550Y262336D01*
X423544Y262249D01*
X423539Y262150D01*
X423528Y262041D01*
X423523Y261916D01*
Y261779D01*
X423517Y261632D01*
Y261468D01*
Y260283D01*
X423058D01*
Y263788D01*
X423517D01*
Y263281D01*
X423528Y263286D01*
X423539Y263302D01*
X423550Y263324D01*
X423594Y263379D01*
X423648Y263444D01*
X423714Y263515D01*
X423785Y263592D01*
X423867Y263663D01*
X423948Y263723D01*
X423959Y263728D01*
X423987Y263745D01*
X424036Y263772D01*
X424096Y263799D01*
X424167Y263827D01*
X424249Y263854D01*
X424336Y263870D01*
X424429Y263876D01*
X424462D01*
X424500Y263870D01*
D02*
G37*
G36*
X422512D02*
X422562Y263859D01*
X422622Y263848D01*
X422693Y263827D01*
X422763Y263794D01*
X422845Y263756D01*
X422605Y263373D01*
X422600Y263379D01*
X422583Y263384D01*
X422556Y263395D01*
X422523Y263406D01*
X422447Y263428D01*
X422409Y263439D01*
X422332D01*
X422289Y263428D01*
X422228Y263417D01*
X422163Y263395D01*
X422086Y263363D01*
X422010Y263313D01*
X421928Y263253D01*
X421917Y263242D01*
X421895Y263221D01*
X421857Y263172D01*
X421813Y263111D01*
X421759Y263030D01*
X421710Y262931D01*
X421655Y262811D01*
X421611Y262675D01*
Y262669D01*
X421606Y262658D01*
Y262642D01*
X421601Y262614D01*
X421595Y262576D01*
X421584Y262533D01*
X421579Y262478D01*
X421573Y262413D01*
X421562Y262336D01*
X421557Y262249D01*
X421551Y262150D01*
X421540Y262041D01*
X421535Y261916D01*
Y261779D01*
X421530Y261632D01*
Y261468D01*
Y260283D01*
X421071D01*
Y263788D01*
X421530D01*
Y263281D01*
X421540Y263286D01*
X421551Y263302D01*
X421562Y263324D01*
X421606Y263379D01*
X421661Y263444D01*
X421726Y263515D01*
X421797Y263592D01*
X421879Y263663D01*
X421961Y263723D01*
X421972Y263728D01*
X421999Y263745D01*
X422048Y263772D01*
X422108Y263799D01*
X422179Y263827D01*
X422261Y263854D01*
X422349Y263870D01*
X422441Y263876D01*
X422474D01*
X422512Y263870D01*
D02*
G37*
G36*
X412515D02*
X412548D01*
X412592Y263865D01*
X412684Y263848D01*
X412794Y263827D01*
X412908Y263788D01*
X413028Y263739D01*
X413143Y263674D01*
X413148D01*
X413154Y263663D01*
X413170Y263652D01*
X413192Y263636D01*
X413247Y263592D01*
X413312Y263532D01*
X413389Y263455D01*
X413465Y263363D01*
X413536Y263253D01*
X413596Y263133D01*
Y263128D01*
X413602Y263117D01*
X413613Y263101D01*
X413618Y263068D01*
X413629Y263035D01*
X413645Y262991D01*
X413656Y262937D01*
X413673Y262877D01*
X413684Y262811D01*
X413694Y262729D01*
X413711Y262647D01*
X413722Y262549D01*
X413733Y262445D01*
X413738Y262336D01*
X413744Y262216D01*
Y262085D01*
Y260283D01*
X413290D01*
Y261954D01*
Y261959D01*
Y261981D01*
Y262009D01*
Y262052D01*
Y262101D01*
Y262156D01*
X413285Y262281D01*
X413279Y262418D01*
X413269Y262549D01*
X413263Y262609D01*
X413258Y262669D01*
X413252Y262718D01*
X413241Y262762D01*
Y262767D01*
X413236Y262778D01*
X413230Y262795D01*
X413225Y262817D01*
X413203Y262882D01*
X413176Y262959D01*
X413132Y263040D01*
X413083Y263128D01*
X413017Y263210D01*
X412941Y263281D01*
X412930Y263286D01*
X412903Y263308D01*
X412854Y263335D01*
X412783Y263373D01*
X412701Y263406D01*
X412603Y263434D01*
X412488Y263455D01*
X412362Y263461D01*
X412324D01*
X412291Y263455D01*
X412258D01*
X412215Y263444D01*
X412116Y263428D01*
X412002Y263395D01*
X411876Y263346D01*
X411816Y263313D01*
X411751Y263281D01*
X411685Y263237D01*
X411625Y263188D01*
X411620Y263182D01*
X411609Y263177D01*
X411592Y263160D01*
X411576Y263139D01*
X411549Y263111D01*
X411516Y263079D01*
X411450Y263002D01*
X411379Y262904D01*
X411308Y262789D01*
X411248Y262658D01*
X411199Y262516D01*
Y262511D01*
Y262505D01*
X411194Y262489D01*
X411188Y262467D01*
X411183Y262434D01*
Y262396D01*
X411177Y262352D01*
X411172Y262303D01*
X411166Y262243D01*
X411161Y262172D01*
X411156Y262096D01*
X411150Y262009D01*
X411145Y261910D01*
Y261806D01*
X411139Y261692D01*
Y261566D01*
Y260283D01*
X410686D01*
Y263788D01*
X411139D01*
Y263155D01*
X411145Y263160D01*
X411150Y263172D01*
X411166Y263188D01*
X411188Y263215D01*
X411243Y263281D01*
X411314Y263363D01*
X411401Y263450D01*
X411505Y263537D01*
X411614Y263625D01*
X411734Y263696D01*
X411740D01*
X411751Y263701D01*
X411767Y263712D01*
X411794Y263723D01*
X411822Y263739D01*
X411860Y263750D01*
X411947Y263788D01*
X412051Y263821D01*
X412177Y263848D01*
X412308Y263870D01*
X412450Y263876D01*
X412488D01*
X412515Y263870D01*
D02*
G37*
G36*
X431145D02*
X431199Y263865D01*
X431265Y263859D01*
X431336Y263848D01*
X431423Y263832D01*
X431516Y263810D01*
X431614Y263777D01*
X431712Y263745D01*
X431822Y263701D01*
X431931Y263647D01*
X432035Y263586D01*
X432144Y263515D01*
X432248Y263428D01*
X432351Y263335D01*
X432357Y263330D01*
X432373Y263313D01*
X432400Y263281D01*
X432433Y263242D01*
X432477Y263188D01*
X432521Y263128D01*
X432570Y263057D01*
X432619Y262975D01*
X432668Y262882D01*
X432717Y262784D01*
X432761Y262680D01*
X432804Y262565D01*
X432837Y262445D01*
X432865Y262314D01*
X432881Y262183D01*
X432886Y262041D01*
Y262030D01*
Y262009D01*
X432881Y261965D01*
Y261910D01*
X432870Y261845D01*
X432859Y261768D01*
X432843Y261681D01*
X432821Y261588D01*
X432794Y261490D01*
X432755Y261381D01*
X432717Y261277D01*
X432662Y261162D01*
X432603Y261053D01*
X432531Y260944D01*
X432450Y260835D01*
X432357Y260731D01*
X432351Y260725D01*
X432335Y260709D01*
X432302Y260682D01*
X432264Y260649D01*
X432215Y260605D01*
X432149Y260562D01*
X432084Y260512D01*
X432002Y260463D01*
X431915Y260414D01*
X431816Y260365D01*
X431712Y260321D01*
X431603Y260278D01*
X431483Y260245D01*
X431358Y260218D01*
X431226Y260201D01*
X431090Y260196D01*
X431046D01*
X431019Y260201D01*
X430981D01*
X430937Y260207D01*
X430888Y260212D01*
X430833Y260218D01*
X430719Y260239D01*
X430588Y260267D01*
X430451Y260310D01*
X430315Y260365D01*
X430309D01*
X430298Y260376D01*
X430282Y260381D01*
X430255Y260398D01*
X430227Y260414D01*
X430189Y260436D01*
X430107Y260496D01*
X430009Y260567D01*
X429905Y260660D01*
X429796Y260764D01*
X429687Y260884D01*
Y259000D01*
X429234D01*
Y263788D01*
X429687D01*
Y263139D01*
X429692Y263144D01*
X429698Y263155D01*
X429714Y263177D01*
X429736Y263199D01*
X429791Y263264D01*
X429861Y263346D01*
X429949Y263439D01*
X430058Y263526D01*
X430173Y263614D01*
X430298Y263690D01*
X430304D01*
X430315Y263696D01*
X430331Y263706D01*
X430358Y263718D01*
X430391Y263734D01*
X430429Y263750D01*
X430478Y263767D01*
X430528Y263783D01*
X430642Y263816D01*
X430773Y263848D01*
X430921Y263870D01*
X431074Y263876D01*
X431106D01*
X431145Y263870D01*
D02*
G37*
G36*
X405024Y260283D02*
X404571D01*
Y260884D01*
X404565Y260878D01*
X404560Y260867D01*
X404543Y260851D01*
X404522Y260829D01*
X404462Y260764D01*
X404385Y260693D01*
X404292Y260605D01*
X404183Y260518D01*
X404063Y260436D01*
X403932Y260365D01*
X403927D01*
X403916Y260360D01*
X403899Y260349D01*
X403872Y260338D01*
X403839Y260327D01*
X403801Y260310D01*
X403757Y260294D01*
X403703Y260283D01*
X403588Y260250D01*
X403462Y260223D01*
X403315Y260201D01*
X403162Y260196D01*
X403129D01*
X403091Y260201D01*
X403037Y260207D01*
X402977Y260212D01*
X402900Y260223D01*
X402818Y260239D01*
X402725Y260261D01*
X402627Y260289D01*
X402529Y260327D01*
X402420Y260370D01*
X402316Y260420D01*
X402207Y260485D01*
X402103Y260556D01*
X401994Y260638D01*
X401895Y260731D01*
X401890Y260736D01*
X401874Y260758D01*
X401846Y260785D01*
X401814Y260829D01*
X401775Y260878D01*
X401732Y260944D01*
X401683Y261015D01*
X401633Y261097D01*
X401584Y261190D01*
X401535Y261288D01*
X401491Y261397D01*
X401453Y261512D01*
X401420Y261637D01*
X401393Y261763D01*
X401377Y261899D01*
X401371Y262041D01*
Y262052D01*
Y262074D01*
X401377Y262118D01*
X401382Y262167D01*
X401388Y262232D01*
X401399Y262309D01*
X401415Y262396D01*
X401437Y262489D01*
X401464Y262587D01*
X401502Y262691D01*
X401546Y262800D01*
X401595Y262909D01*
X401655Y263019D01*
X401726Y263128D01*
X401808Y263231D01*
X401901Y263335D01*
X401906Y263341D01*
X401923Y263357D01*
X401956Y263384D01*
X401994Y263423D01*
X402048Y263461D01*
X402108Y263505D01*
X402179Y263554D01*
X402261Y263608D01*
X402349Y263657D01*
X402447Y263706D01*
X402551Y263750D01*
X402660Y263794D01*
X402780Y263827D01*
X402906Y263854D01*
X403037Y263870D01*
X403173Y263876D01*
X403244D01*
X403282Y263870D01*
X403326Y263865D01*
X403380Y263859D01*
X403435Y263854D01*
X403555Y263832D01*
X403686Y263799D01*
X403823Y263750D01*
X403954Y263690D01*
X403959D01*
X403970Y263679D01*
X403987Y263668D01*
X404014Y263657D01*
X404041Y263635D01*
X404079Y263614D01*
X404161Y263554D01*
X404260Y263472D01*
X404363Y263379D01*
X404467Y263270D01*
X404571Y263139D01*
Y265142D01*
X405024D01*
Y260283D01*
D02*
G37*
G36*
X445936Y260283D02*
X445832D01*
X443795Y265022D01*
X444309D01*
X445887Y261353D01*
X447481Y265022D01*
X448000D01*
X445936Y260283D01*
D02*
G37*
G36*
X399351Y260283D02*
X398887D01*
X398412Y263674D01*
X396730Y260283D01*
X396610D01*
X394917Y263701D01*
X394448Y260283D01*
X393995D01*
X394666Y265022D01*
X394754D01*
X396676Y261135D01*
X398592Y265022D01*
X398663D01*
X399351Y260283D01*
D02*
G37*
G36*
X428224Y262069D02*
Y262063D01*
Y262036D01*
Y261998D01*
Y261948D01*
X428218Y261888D01*
X428213Y261817D01*
X428207Y261741D01*
X428202Y261659D01*
X428180Y261484D01*
X428153Y261304D01*
X428109Y261129D01*
X428082Y261048D01*
X428054Y260977D01*
Y260971D01*
X428049Y260960D01*
X428038Y260944D01*
X428021Y260916D01*
X428005Y260884D01*
X427983Y260851D01*
X427929Y260769D01*
X427852Y260676D01*
X427765Y260578D01*
X427661Y260485D01*
X427541Y260403D01*
X427536D01*
X427525Y260392D01*
X427508Y260387D01*
X427481Y260370D01*
X427448Y260354D01*
X427404Y260338D01*
X427361Y260321D01*
X427306Y260299D01*
X427252Y260278D01*
X427186Y260261D01*
X427115Y260245D01*
X427039Y260228D01*
X426875Y260207D01*
X426689Y260196D01*
X426640D01*
X426602Y260201D01*
X426558D01*
X426509Y260207D01*
X426454Y260212D01*
X426389Y260223D01*
X426253Y260245D01*
X426111Y260283D01*
X425969Y260332D01*
X425832Y260403D01*
X425827D01*
X425816Y260414D01*
X425799Y260425D01*
X425777Y260441D01*
X425712Y260491D01*
X425641Y260556D01*
X425554Y260638D01*
X425472Y260736D01*
X425390Y260851D01*
X425319Y260982D01*
Y260987D01*
X425313Y260998D01*
X425302Y261020D01*
X425291Y261053D01*
X425281Y261091D01*
X425270Y261140D01*
X425253Y261195D01*
X425237Y261260D01*
X425220Y261337D01*
X425210Y261419D01*
X425193Y261512D01*
X425182Y261610D01*
X425171Y261719D01*
X425161Y261839D01*
X425155Y261965D01*
Y262101D01*
Y263788D01*
X425608D01*
Y262150D01*
Y262145D01*
Y262123D01*
Y262096D01*
Y262052D01*
Y262003D01*
X425614Y261948D01*
Y261888D01*
Y261823D01*
X425625Y261686D01*
X425635Y261550D01*
X425641Y261484D01*
X425646Y261424D01*
X425657Y261370D01*
X425668Y261326D01*
Y261320D01*
X425674Y261310D01*
X425679Y261293D01*
X425690Y261271D01*
X425712Y261217D01*
X425750Y261140D01*
X425805Y261058D01*
X425865Y260977D01*
X425947Y260895D01*
X426040Y260818D01*
X426045D01*
X426051Y260813D01*
X426067Y260802D01*
X426089Y260791D01*
X426143Y260758D01*
X426225Y260725D01*
X426318Y260693D01*
X426427Y260660D01*
X426553Y260638D01*
X426689Y260632D01*
X426727D01*
X426755Y260638D01*
X426782D01*
X426820Y260644D01*
X426913Y260654D01*
X427011Y260676D01*
X427121Y260709D01*
X427224Y260753D01*
X427328Y260813D01*
X427334D01*
X427339Y260824D01*
X427372Y260845D01*
X427416Y260884D01*
X427476Y260938D01*
X427536Y261009D01*
X427596Y261091D01*
X427650Y261184D01*
X427694Y261288D01*
X427699Y261299D01*
Y261310D01*
X427705Y261331D01*
X427710Y261359D01*
X427716Y261386D01*
X427721Y261430D01*
X427732Y261473D01*
X427738Y261528D01*
X427743Y261588D01*
X427748Y261659D01*
X427754Y261741D01*
X427759Y261828D01*
Y261927D01*
X427765Y262030D01*
Y262150D01*
Y263788D01*
X428224D01*
Y262069D01*
D02*
G37*
G36*
X384139Y262156D02*
Y262150D01*
Y262129D01*
Y262096D01*
Y262052D01*
X384134Y261998D01*
Y261937D01*
X384129Y261866D01*
X384123Y261790D01*
X384107Y261626D01*
X384085Y261457D01*
X384058Y261288D01*
X384036Y261206D01*
X384014Y261129D01*
Y261124D01*
X384009Y261113D01*
X383998Y261091D01*
X383987Y261064D01*
X383976Y261031D01*
X383954Y260993D01*
X383905Y260900D01*
X383839Y260796D01*
X383752Y260682D01*
X383643Y260567D01*
X383583Y260507D01*
X383517Y260452D01*
X383512Y260447D01*
X383501Y260441D01*
X383479Y260425D01*
X383452Y260409D01*
X383413Y260387D01*
X383370Y260360D01*
X383320Y260332D01*
X383266Y260310D01*
X383200Y260283D01*
X383135Y260256D01*
X383058Y260228D01*
X382982Y260207D01*
X382807Y260174D01*
X382714Y260168D01*
X382616Y260163D01*
X382562D01*
X382518Y260168D01*
X382469Y260174D01*
X382414Y260179D01*
X382349Y260185D01*
X382278Y260196D01*
X382125Y260228D01*
X381961Y260278D01*
X381874Y260310D01*
X381792Y260349D01*
X381710Y260387D01*
X381633Y260436D01*
X381628Y260441D01*
X381617Y260447D01*
X381595Y260463D01*
X381568Y260485D01*
X381535Y260512D01*
X381497Y260545D01*
X381453Y260583D01*
X381410Y260627D01*
X381317Y260731D01*
X381229Y260856D01*
X381147Y260998D01*
X381109Y261075D01*
X381082Y261157D01*
Y261162D01*
X381076Y261168D01*
Y261190D01*
X381071Y261211D01*
X381066Y261244D01*
X381055Y261282D01*
X381049Y261331D01*
X381044Y261386D01*
X381033Y261452D01*
X381027Y261523D01*
X381022Y261604D01*
X381011Y261697D01*
X381006Y261795D01*
Y261905D01*
X381000Y262025D01*
Y262156D01*
Y265022D01*
X381475D01*
Y262161D01*
Y262156D01*
Y262140D01*
Y262112D01*
Y262079D01*
Y262041D01*
Y261992D01*
Y261888D01*
X381481Y261779D01*
Y261675D01*
X381486Y261626D01*
Y261588D01*
X381491Y261550D01*
Y261523D01*
Y261517D01*
Y261512D01*
X381497Y261479D01*
X381508Y261424D01*
X381524Y261359D01*
X381546Y261288D01*
X381579Y261206D01*
X381611Y261129D01*
X381655Y261053D01*
X381661Y261048D01*
X381682Y261020D01*
X381710Y260987D01*
X381753Y260944D01*
X381808Y260895D01*
X381879Y260845D01*
X381961Y260791D01*
X382054Y260742D01*
X382059D01*
X382065Y260736D01*
X382081Y260731D01*
X382098Y260720D01*
X382152Y260703D01*
X382223Y260682D01*
X382299Y260654D01*
X382392Y260638D01*
X382491Y260622D01*
X382589Y260616D01*
X382627D01*
X382676Y260622D01*
X382731Y260627D01*
X382802Y260638D01*
X382878Y260660D01*
X382955Y260682D01*
X383037Y260714D01*
X383048Y260720D01*
X383075Y260731D01*
X383113Y260753D01*
X383162Y260785D01*
X383222Y260824D01*
X383282Y260873D01*
X383342Y260927D01*
X383397Y260987D01*
X383402Y260998D01*
X383419Y261020D01*
X383446Y261058D01*
X383479Y261108D01*
X383517Y261173D01*
X383550Y261244D01*
X383588Y261326D01*
X383615Y261419D01*
Y261430D01*
X383621Y261457D01*
X383626Y261479D01*
X383632Y261506D01*
X383637Y261539D01*
X383643Y261577D01*
Y261626D01*
X383648Y261681D01*
X383654Y261741D01*
X383659Y261806D01*
Y261883D01*
X383664Y261970D01*
Y262063D01*
Y262161D01*
Y265022D01*
X384139D01*
Y262156D01*
D02*
G37*
G36*
X455698Y265137D02*
X455753Y265132D01*
X455818Y265121D01*
X455889Y265104D01*
X455966Y265088D01*
X456048Y265066D01*
X456130Y265039D01*
X456217Y265006D01*
X456310Y264962D01*
X456397Y264913D01*
X456479Y264859D01*
X456566Y264793D01*
X456643Y264717D01*
X456648Y264711D01*
X456659Y264700D01*
X456681Y264673D01*
X456708Y264640D01*
X456736Y264602D01*
X456774Y264553D01*
X456812Y264498D01*
X456850Y264433D01*
X456888Y264367D01*
X456921Y264291D01*
X456959Y264209D01*
X456987Y264122D01*
X457014Y264029D01*
X457036Y263930D01*
X457047Y263827D01*
X457052Y263723D01*
Y263718D01*
Y263706D01*
Y263685D01*
X457047Y263652D01*
Y263619D01*
X457041Y263576D01*
X457036Y263526D01*
X457030Y263477D01*
X457003Y263363D01*
X456970Y263231D01*
X456921Y263101D01*
X456856Y262964D01*
Y262959D01*
X456845Y262948D01*
X456834Y262926D01*
X456818Y262898D01*
X456796Y262866D01*
X456768Y262822D01*
X456730Y262767D01*
X456692Y262713D01*
X456643Y262647D01*
X456588Y262576D01*
X456528Y262494D01*
X456457Y262413D01*
X456386Y262320D01*
X456299Y262221D01*
X456206Y262118D01*
X456108Y262009D01*
X454923Y260736D01*
X457118D01*
Y260283D01*
X453897D01*
X455709Y262232D01*
X455715Y262238D01*
X455731Y262260D01*
X455764Y262287D01*
X455796Y262331D01*
X455840Y262380D01*
X455895Y262434D01*
X455949Y262500D01*
X456004Y262565D01*
X456124Y262707D01*
X456244Y262855D01*
X456299Y262926D01*
X456348Y262991D01*
X456392Y263057D01*
X456424Y263111D01*
Y263117D01*
X456430Y263122D01*
X456441Y263139D01*
X456452Y263160D01*
X456479Y263221D01*
X456512Y263292D01*
X456539Y263384D01*
X456566Y263483D01*
X456588Y263597D01*
X456594Y263712D01*
Y263718D01*
Y263728D01*
Y263750D01*
X456588Y263777D01*
X456583Y263816D01*
X456577Y263854D01*
X456556Y263952D01*
X456523Y264061D01*
X456468Y264176D01*
X456435Y264236D01*
X456392Y264291D01*
X456348Y264351D01*
X456293Y264405D01*
X456288Y264411D01*
X456283Y264416D01*
X456261Y264433D01*
X456239Y264449D01*
X456212Y264471D01*
X456173Y264498D01*
X456135Y264526D01*
X456091Y264553D01*
X455982Y264602D01*
X455857Y264651D01*
X455715Y264684D01*
X455644Y264689D01*
X455562Y264695D01*
X455518D01*
X455485Y264689D01*
X455447Y264684D01*
X455403Y264678D01*
X455300Y264657D01*
X455180Y264618D01*
X455049Y264564D01*
X454988Y264531D01*
X454923Y264493D01*
X454863Y264444D01*
X454803Y264389D01*
X454797Y264384D01*
X454792Y264373D01*
X454775Y264356D01*
X454754Y264334D01*
X454732Y264302D01*
X454705Y264264D01*
X454677Y264220D01*
X454650Y264171D01*
X454617Y264116D01*
X454590Y264051D01*
X454563Y263980D01*
X454535Y263903D01*
X454508Y263821D01*
X454492Y263734D01*
X454475Y263641D01*
X454464Y263543D01*
X454011D01*
Y263548D01*
Y263576D01*
X454017Y263608D01*
X454022Y263657D01*
X454028Y263718D01*
X454038Y263788D01*
X454055Y263865D01*
X454077Y263947D01*
X454099Y264040D01*
X454131Y264132D01*
X454170Y264225D01*
X454213Y264323D01*
X454268Y264416D01*
X454328Y264509D01*
X454399Y264602D01*
X454475Y264689D01*
X454481Y264695D01*
X454497Y264711D01*
X454519Y264733D01*
X454557Y264760D01*
X454601Y264793D01*
X454655Y264831D01*
X454715Y264875D01*
X454786Y264919D01*
X454863Y264957D01*
X454945Y265001D01*
X455038Y265039D01*
X455136Y265072D01*
X455240Y265099D01*
X455354Y265121D01*
X455469Y265137D01*
X455589Y265142D01*
X455655D01*
X455698Y265137D01*
D02*
G37*
G36*
X450364Y260283D02*
X449889D01*
Y264558D01*
X449146D01*
X449425Y265022D01*
X450364D01*
Y260283D01*
D02*
G37*
G36*
X434579Y263788D02*
X435294D01*
Y263401D01*
X434579D01*
Y260283D01*
X434126D01*
Y263401D01*
X433509D01*
Y263788D01*
X434126D01*
Y265093D01*
X434579D01*
Y263788D01*
D02*
G37*
G36*
X415556D02*
X416272D01*
Y263401D01*
X415556D01*
Y260283D01*
X415103D01*
Y263401D01*
X414486D01*
Y263788D01*
X415103D01*
Y265093D01*
X415556D01*
Y263788D01*
D02*
G37*
G36*
X409676Y260283D02*
X409201Y260283D01*
Y265022D01*
X409676Y265022D01*
Y260283D01*
D02*
G37*
G36*
X406433Y260283D02*
X405979D01*
Y263788D01*
X406433D01*
Y260283D01*
D02*
G37*
G36*
X400591D02*
X400137D01*
Y263788D01*
X400591D01*
Y260283D01*
D02*
G37*
G36*
X389681Y265017D02*
X389736D01*
X389796Y265012D01*
X389856Y265006D01*
X389998Y264990D01*
X390140Y264962D01*
X390277Y264930D01*
X390342Y264908D01*
X390402Y264886D01*
X390408D01*
X390419Y264880D01*
X390429Y264869D01*
X390451Y264859D01*
X390506Y264831D01*
X390577Y264788D01*
X390653Y264727D01*
X390735Y264657D01*
X390812Y264575D01*
X390883Y264476D01*
Y264471D01*
X390888Y264465D01*
X390899Y264449D01*
X390910Y264427D01*
X390937Y264373D01*
X390975Y264296D01*
X391008Y264203D01*
X391036Y264100D01*
X391057Y263985D01*
X391063Y263859D01*
Y263854D01*
Y263843D01*
Y263827D01*
Y263805D01*
X391057Y263745D01*
X391041Y263668D01*
X391025Y263581D01*
X390997Y263483D01*
X390959Y263379D01*
X390904Y263281D01*
Y263275D01*
X390899Y263270D01*
X390877Y263237D01*
X390839Y263193D01*
X390790Y263133D01*
X390724Y263068D01*
X390648Y262997D01*
X390555Y262931D01*
X390451Y262866D01*
X390457D01*
X390468Y262860D01*
X390490Y262855D01*
X390511Y262844D01*
X390544Y262833D01*
X390577Y262817D01*
X390664Y262784D01*
X390752Y262740D01*
X390850Y262691D01*
X390937Y262631D01*
X391019Y262571D01*
X391030Y262565D01*
X391052Y262544D01*
X391090Y262505D01*
X391134Y262456D01*
X391183Y262396D01*
X391237Y262325D01*
X391287Y262249D01*
X391330Y262161D01*
X391336Y262150D01*
X391347Y262118D01*
X391369Y262069D01*
X391390Y262009D01*
X391407Y261932D01*
X391429Y261839D01*
X391440Y261746D01*
X391445Y261643D01*
Y261637D01*
Y261615D01*
Y261588D01*
X391440Y261550D01*
X391434Y261495D01*
X391423Y261441D01*
X391412Y261375D01*
X391390Y261310D01*
X391369Y261233D01*
X391341Y261157D01*
X391308Y261075D01*
X391270Y260993D01*
X391221Y260911D01*
X391161Y260829D01*
X391101Y260753D01*
X391025Y260676D01*
X391019Y260671D01*
X391008Y260660D01*
X390981Y260638D01*
X390948Y260616D01*
X390904Y260583D01*
X390855Y260551D01*
X390795Y260518D01*
X390730Y260480D01*
X390653Y260441D01*
X390571Y260409D01*
X390479Y260376D01*
X390375Y260343D01*
X390271Y260321D01*
X390156Y260299D01*
X390036Y260289D01*
X389905Y260283D01*
X388606D01*
Y265022D01*
X389632D01*
X389681Y265017D01*
D02*
G37*
G36*
X452925Y260987D02*
X452963Y260977D01*
X453007Y260966D01*
X453050Y260944D01*
X453099Y260911D01*
X453143Y260873D01*
X453148Y260867D01*
X453159Y260851D01*
X453181Y260829D01*
X453203Y260796D01*
X453225Y260753D01*
X453247Y260709D01*
X453258Y260654D01*
X453263Y260594D01*
Y260589D01*
Y260567D01*
X453258Y260534D01*
X453247Y260496D01*
X453236Y260452D01*
X453214Y260403D01*
X453181Y260354D01*
X453143Y260310D01*
X453137Y260305D01*
X453121Y260294D01*
X453099Y260272D01*
X453066Y260256D01*
X453023Y260234D01*
X452979Y260212D01*
X452925Y260201D01*
X452865Y260196D01*
X452837D01*
X452805Y260201D01*
X452766Y260212D01*
X452723Y260223D01*
X452679Y260245D01*
X452630Y260272D01*
X452586Y260310D01*
X452581Y260316D01*
X452570Y260332D01*
X452548Y260354D01*
X452531Y260387D01*
X452510Y260431D01*
X452488Y260480D01*
X452477Y260534D01*
X452471Y260594D01*
Y260600D01*
Y260622D01*
X452477Y260654D01*
X452488Y260693D01*
X452499Y260736D01*
X452521Y260780D01*
X452548Y260829D01*
X452586Y260873D01*
X452592Y260878D01*
X452608Y260889D01*
X452630Y260911D01*
X452663Y260933D01*
X452706Y260955D01*
X452750Y260977D01*
X452805Y260987D01*
X452865Y260993D01*
X452892D01*
X452925Y260987D01*
D02*
G37*
G36*
X437691Y263870D02*
X437751Y263865D01*
X437828Y263854D01*
X437915Y263838D01*
X438013Y263821D01*
X438117Y263788D01*
X438232Y263756D01*
X438346Y263712D01*
X438467Y263652D01*
X438587Y263586D01*
X438701Y263510D01*
X438821Y263417D01*
X438931Y263313D01*
X439034Y263193D01*
X439040Y263188D01*
X439051Y263172D01*
X439073Y263144D01*
X439094Y263106D01*
X439122Y263062D01*
X439154Y263008D01*
X439193Y262942D01*
X439225Y262866D01*
X439264Y262784D01*
X439296Y262696D01*
X439329Y262598D01*
X439362Y262489D01*
X439389Y262380D01*
X439406Y262260D01*
X439422Y262134D01*
X439428Y262003D01*
X436266D01*
Y261998D01*
Y261976D01*
X436272Y261943D01*
Y261899D01*
X436282Y261850D01*
X436288Y261790D01*
X436304Y261719D01*
X436321Y261648D01*
X436364Y261490D01*
X436397Y261408D01*
X436435Y261320D01*
X436479Y261239D01*
X436528Y261157D01*
X436588Y261075D01*
X436654Y260998D01*
X436659Y260993D01*
X436670Y260982D01*
X436692Y260960D01*
X436725Y260938D01*
X436758Y260911D01*
X436807Y260878D01*
X436856Y260840D01*
X436916Y260807D01*
X436981Y260769D01*
X437052Y260731D01*
X437129Y260698D01*
X437211Y260671D01*
X437298Y260649D01*
X437391Y260627D01*
X437484Y260616D01*
X437587Y260611D01*
X437637D01*
X437686Y260616D01*
X437757Y260622D01*
X437833Y260632D01*
X437926Y260649D01*
X438019Y260671D01*
X438112Y260703D01*
X438117D01*
X438123Y260709D01*
X438155Y260720D01*
X438204Y260742D01*
X438265Y260769D01*
X438330Y260802D01*
X438401Y260845D01*
X438472Y260895D01*
X438543Y260949D01*
X438554Y260955D01*
X438576Y260977D01*
X438609Y261015D01*
X438658Y261069D01*
X438718Y261140D01*
X438783Y261222D01*
X438854Y261326D01*
X438931Y261446D01*
X439313Y261244D01*
Y261239D01*
X439302Y261228D01*
X439296Y261211D01*
X439280Y261184D01*
X439264Y261151D01*
X439242Y261119D01*
X439187Y261031D01*
X439122Y260938D01*
X439051Y260840D01*
X438963Y260742D01*
X438876Y260649D01*
X438865Y260638D01*
X438832Y260611D01*
X438783Y260573D01*
X438718Y260523D01*
X438636Y260469D01*
X438538Y260414D01*
X438434Y260360D01*
X438324Y260310D01*
X438319D01*
X438308Y260305D01*
X438292Y260299D01*
X438270Y260294D01*
X438243Y260283D01*
X438210Y260272D01*
X438123Y260256D01*
X438019Y260234D01*
X437904Y260212D01*
X437773Y260201D01*
X437631Y260196D01*
X437593D01*
X437549Y260201D01*
X437489Y260207D01*
X437418Y260212D01*
X437331Y260223D01*
X437238Y260245D01*
X437140Y260267D01*
X437031Y260294D01*
X436921Y260332D01*
X436812Y260376D01*
X436697Y260431D01*
X436588Y260496D01*
X436479Y260567D01*
X436375Y260654D01*
X436282Y260753D01*
X436277Y260758D01*
X436261Y260780D01*
X436239Y260807D01*
X436206Y260851D01*
X436173Y260906D01*
X436130Y260966D01*
X436086Y261042D01*
X436042Y261124D01*
X435999Y261211D01*
X435955Y261310D01*
X435911Y261413D01*
X435879Y261528D01*
X435846Y261643D01*
X435824Y261768D01*
X435808Y261894D01*
X435802Y262025D01*
Y262030D01*
Y262052D01*
X435808Y262090D01*
Y262140D01*
X435813Y262194D01*
X435824Y262265D01*
X435835Y262341D01*
X435851Y262423D01*
X435873Y262511D01*
X435900Y262609D01*
X435933Y262707D01*
X435977Y262806D01*
X436020Y262909D01*
X436075Y263008D01*
X436140Y263111D01*
X436211Y263210D01*
X436217Y263215D01*
X436233Y263237D01*
X436266Y263270D01*
X436304Y263313D01*
X436359Y263363D01*
X436424Y263423D01*
X436495Y263483D01*
X436583Y263543D01*
X436676Y263603D01*
X436779Y263663D01*
X436894Y263723D01*
X437020Y263772D01*
X437151Y263816D01*
X437293Y263848D01*
X437445Y263870D01*
X437604Y263876D01*
X437642D01*
X437691Y263870D01*
D02*
G37*
G36*
X418669D02*
X418729Y263865D01*
X418805Y263854D01*
X418892Y263838D01*
X418991Y263821D01*
X419094Y263788D01*
X419209Y263756D01*
X419324Y263712D01*
X419444Y263652D01*
X419564Y263586D01*
X419679Y263510D01*
X419799Y263417D01*
X419908Y263313D01*
X420012Y263193D01*
X420017Y263188D01*
X420028Y263172D01*
X420050Y263144D01*
X420072Y263106D01*
X420099Y263062D01*
X420132Y263008D01*
X420170Y262942D01*
X420203Y262866D01*
X420241Y262784D01*
X420274Y262696D01*
X420306Y262598D01*
X420339Y262489D01*
X420367Y262380D01*
X420383Y262260D01*
X420399Y262134D01*
X420405Y262003D01*
X417243D01*
Y261998D01*
Y261976D01*
X417249Y261943D01*
Y261899D01*
X417260Y261850D01*
X417265Y261790D01*
X417282Y261719D01*
X417298Y261648D01*
X417342Y261490D01*
X417375Y261408D01*
X417413Y261320D01*
X417456Y261239D01*
X417506Y261157D01*
X417566Y261075D01*
X417631Y260998D01*
X417637Y260993D01*
X417648Y260982D01*
X417669Y260960D01*
X417702Y260938D01*
X417735Y260911D01*
X417784Y260878D01*
X417833Y260840D01*
X417893Y260807D01*
X417959Y260769D01*
X418030Y260731D01*
X418106Y260698D01*
X418188Y260671D01*
X418275Y260649D01*
X418368Y260627D01*
X418461Y260616D01*
X418565Y260611D01*
X418614D01*
X418663Y260616D01*
X418734Y260622D01*
X418811Y260632D01*
X418903Y260649D01*
X418996Y260671D01*
X419089Y260703D01*
X419094D01*
X419100Y260709D01*
X419133Y260720D01*
X419182Y260742D01*
X419242Y260769D01*
X419307Y260802D01*
X419378Y260845D01*
X419449Y260895D01*
X419520Y260949D01*
X419531Y260955D01*
X419553Y260977D01*
X419586Y261015D01*
X419635Y261069D01*
X419695Y261140D01*
X419761Y261222D01*
X419832Y261326D01*
X419908Y261446D01*
X420290Y261244D01*
Y261239D01*
X420279Y261228D01*
X420274Y261211D01*
X420257Y261184D01*
X420241Y261151D01*
X420219Y261119D01*
X420165Y261031D01*
X420099Y260938D01*
X420028Y260840D01*
X419941Y260742D01*
X419853Y260649D01*
X419842Y260638D01*
X419810Y260611D01*
X419761Y260573D01*
X419695Y260523D01*
X419613Y260469D01*
X419515Y260414D01*
X419411Y260360D01*
X419302Y260310D01*
X419296D01*
X419285Y260305D01*
X419269Y260299D01*
X419247Y260294D01*
X419220Y260283D01*
X419187Y260272D01*
X419100Y260256D01*
X418996Y260234D01*
X418882Y260212D01*
X418750Y260201D01*
X418609Y260196D01*
X418570D01*
X418527Y260201D01*
X418467Y260207D01*
X418396Y260212D01*
X418308Y260223D01*
X418215Y260245D01*
X418117Y260267D01*
X418008Y260294D01*
X417899Y260332D01*
X417790Y260376D01*
X417675Y260431D01*
X417566Y260496D01*
X417456Y260567D01*
X417353Y260654D01*
X417260Y260753D01*
X417254Y260758D01*
X417238Y260780D01*
X417216Y260807D01*
X417183Y260851D01*
X417151Y260906D01*
X417107Y260966D01*
X417063Y261042D01*
X417020Y261124D01*
X416976Y261211D01*
X416932Y261310D01*
X416889Y261413D01*
X416856Y261528D01*
X416823Y261643D01*
X416801Y261768D01*
X416785Y261894D01*
X416779Y262025D01*
Y262030D01*
Y262052D01*
X416785Y262090D01*
Y262140D01*
X416790Y262194D01*
X416801Y262265D01*
X416812Y262341D01*
X416828Y262423D01*
X416850Y262511D01*
X416878Y262609D01*
X416910Y262707D01*
X416954Y262806D01*
X416998Y262909D01*
X417052Y263008D01*
X417118Y263111D01*
X417189Y263210D01*
X417194Y263215D01*
X417211Y263237D01*
X417243Y263270D01*
X417282Y263313D01*
X417336Y263363D01*
X417402Y263423D01*
X417473Y263483D01*
X417560Y263543D01*
X417653Y263603D01*
X417757Y263663D01*
X417871Y263723D01*
X417997Y263772D01*
X418128Y263816D01*
X418270Y263848D01*
X418423Y263870D01*
X418581Y263876D01*
X418619D01*
X418669Y263870D01*
D02*
G37*
G36*
X322892Y263803D02*
X324917Y261024D01*
X324089D01*
X322482Y263238D01*
X320883Y261024D01*
X320087D01*
X322080Y263787D01*
X320276Y266288D01*
X321088D01*
X322490Y264353D01*
X323876Y266288D01*
X324679D01*
X322892Y263803D01*
D02*
G37*
G36*
X319366Y263705D02*
Y263697D01*
Y263656D01*
Y263598D01*
Y263525D01*
X319357Y263434D01*
X319349Y263328D01*
X319341Y263213D01*
X319333Y263090D01*
X319300Y262828D01*
X319259Y262557D01*
X319193Y262295D01*
X319152Y262172D01*
X319111Y262065D01*
Y262057D01*
X319103Y262040D01*
X319087Y262016D01*
X319062Y261975D01*
X319038Y261926D01*
X319005Y261876D01*
X318923Y261753D01*
X318808Y261614D01*
X318677Y261466D01*
X318521Y261327D01*
X318341Y261204D01*
X318332D01*
X318316Y261188D01*
X318291Y261179D01*
X318250Y261155D01*
X318201Y261130D01*
X318136Y261106D01*
X318070Y261081D01*
X317988Y261048D01*
X317906Y261015D01*
X317808Y260991D01*
X317701Y260966D01*
X317586Y260942D01*
X317340Y260909D01*
X317061Y260892D01*
X316988D01*
X316930Y260901D01*
X316865D01*
X316791Y260909D01*
X316709Y260917D01*
X316610Y260933D01*
X316405Y260966D01*
X316192Y261024D01*
X315979Y261097D01*
X315774Y261204D01*
X315766D01*
X315749Y261220D01*
X315725Y261237D01*
X315692Y261261D01*
X315594Y261335D01*
X315487Y261434D01*
X315356Y261557D01*
X315233Y261704D01*
X315110Y261876D01*
X315003Y262073D01*
Y262081D01*
X314995Y262098D01*
X314979Y262131D01*
X314962Y262180D01*
X314946Y262237D01*
X314929Y262311D01*
X314905Y262393D01*
X314880Y262491D01*
X314856Y262606D01*
X314839Y262729D01*
X314815Y262869D01*
X314798Y263016D01*
X314782Y263180D01*
X314765Y263361D01*
X314757Y263549D01*
Y263754D01*
Y266288D01*
X315438D01*
Y263828D01*
Y263820D01*
Y263787D01*
Y263746D01*
Y263680D01*
Y263607D01*
X315446Y263525D01*
Y263434D01*
Y263336D01*
X315462Y263131D01*
X315479Y262926D01*
X315487Y262828D01*
X315495Y262737D01*
X315512Y262655D01*
X315528Y262590D01*
Y262582D01*
X315536Y262565D01*
X315544Y262541D01*
X315561Y262508D01*
X315594Y262426D01*
X315651Y262311D01*
X315733Y262188D01*
X315823Y262065D01*
X315946Y261942D01*
X316086Y261827D01*
X316094D01*
X316102Y261819D01*
X316127Y261803D01*
X316159Y261786D01*
X316241Y261737D01*
X316364Y261688D01*
X316504Y261639D01*
X316668Y261589D01*
X316856Y261557D01*
X317061Y261548D01*
X317119D01*
X317160Y261557D01*
X317201D01*
X317258Y261565D01*
X317398Y261581D01*
X317545Y261614D01*
X317709Y261663D01*
X317865Y261729D01*
X318021Y261819D01*
X318029D01*
X318037Y261835D01*
X318086Y261868D01*
X318152Y261926D01*
X318242Y262008D01*
X318332Y262114D01*
X318423Y262237D01*
X318505Y262377D01*
X318570Y262532D01*
X318578Y262549D01*
Y262565D01*
X318587Y262598D01*
X318595Y262639D01*
X318603Y262680D01*
X318611Y262746D01*
X318628Y262811D01*
X318636Y262893D01*
X318644Y262983D01*
X318652Y263090D01*
X318660Y263213D01*
X318669Y263344D01*
Y263492D01*
X318677Y263648D01*
Y263828D01*
Y266288D01*
X319366D01*
Y263705D01*
D02*
G37*
G36*
X313855Y261024D02*
X313084D01*
X311977Y263352D01*
X308886D01*
X307787Y261024D01*
X307000D01*
X310362Y268141D01*
X310534D01*
X313855Y261024D01*
D02*
G37*
%LPC*%
G36*
X431041Y263439D02*
X430986D01*
X430943Y263434D01*
X430894Y263428D01*
X430833Y263417D01*
X430768Y263406D01*
X430697Y263390D01*
X430626Y263368D01*
X430544Y263341D01*
X430462Y263308D01*
X430380Y263264D01*
X430298Y263221D01*
X430216Y263166D01*
X430134Y263101D01*
X430058Y263030D01*
X430053Y263024D01*
X430042Y263013D01*
X430020Y262986D01*
X429998Y262959D01*
X429965Y262915D01*
X429932Y262866D01*
X429894Y262811D01*
X429861Y262751D01*
X429823Y262680D01*
X429785Y262604D01*
X429752Y262516D01*
X429720Y262429D01*
X429698Y262331D01*
X429676Y262232D01*
X429665Y262123D01*
X429660Y262014D01*
Y262009D01*
Y261998D01*
Y261976D01*
X429665Y261948D01*
Y261910D01*
X429670Y261872D01*
X429681Y261774D01*
X429703Y261665D01*
X429736Y261544D01*
X429774Y261419D01*
X429834Y261299D01*
Y261293D01*
X429845Y261282D01*
X429851Y261266D01*
X429867Y261244D01*
X429911Y261190D01*
X429965Y261119D01*
X430036Y261037D01*
X430129Y260955D01*
X430227Y260873D01*
X430347Y260796D01*
X430353D01*
X430364Y260791D01*
X430380Y260780D01*
X430407Y260769D01*
X430435Y260753D01*
X430473Y260736D01*
X430560Y260703D01*
X430664Y260671D01*
X430784Y260638D01*
X430910Y260616D01*
X431046Y260611D01*
X431085D01*
X431106Y260616D01*
X431139D01*
X431177Y260622D01*
X431270Y260632D01*
X431374Y260654D01*
X431489Y260687D01*
X431609Y260736D01*
X431729Y260796D01*
X431734D01*
X431745Y260807D01*
X431762Y260818D01*
X431783Y260829D01*
X431844Y260873D01*
X431915Y260933D01*
X431996Y261004D01*
X432084Y261097D01*
X432166Y261200D01*
X432242Y261320D01*
Y261326D01*
X432253Y261337D01*
X432259Y261353D01*
X432275Y261381D01*
X432286Y261408D01*
X432302Y261446D01*
X432340Y261533D01*
X432373Y261643D01*
X432406Y261763D01*
X432428Y261888D01*
X432433Y262025D01*
Y262030D01*
Y262041D01*
Y262063D01*
X432428Y262090D01*
Y262123D01*
X432422Y262161D01*
X432411Y262254D01*
X432384Y262363D01*
X432351Y262484D01*
X432308Y262609D01*
X432242Y262735D01*
Y262740D01*
X432231Y262751D01*
X432226Y262767D01*
X432209Y262789D01*
X432166Y262849D01*
X432111Y262926D01*
X432035Y263008D01*
X431947Y263095D01*
X431849Y263177D01*
X431734Y263253D01*
X431729D01*
X431718Y263259D01*
X431702Y263270D01*
X431680Y263281D01*
X431647Y263297D01*
X431614Y263313D01*
X431527Y263346D01*
X431429Y263379D01*
X431308Y263412D01*
X431177Y263434D01*
X431041Y263439D01*
D02*
G37*
G36*
X403211Y263439D02*
X403146D01*
X403113Y263434D01*
X403075Y263428D01*
X402982Y263417D01*
X402873Y263395D01*
X402758Y263363D01*
X402633Y263313D01*
X402512Y263253D01*
X402507D01*
X402496Y263242D01*
X402480Y263231D01*
X402458Y263221D01*
X402403Y263177D01*
X402332Y263117D01*
X402250Y263046D01*
X402168Y262959D01*
X402086Y262855D01*
X402010Y262735D01*
Y262729D01*
X402005Y262718D01*
X401994Y262702D01*
X401983Y262675D01*
X401966Y262647D01*
X401950Y262609D01*
X401917Y262522D01*
X401885Y262413D01*
X401852Y262292D01*
X401830Y262161D01*
X401824Y262025D01*
Y262019D01*
Y262009D01*
Y261987D01*
X401830Y261965D01*
Y261932D01*
X401835Y261894D01*
X401846Y261801D01*
X401868Y261692D01*
X401901Y261572D01*
X401950Y261446D01*
X402010Y261320D01*
Y261315D01*
X402021Y261304D01*
X402032Y261288D01*
X402043Y261266D01*
X402086Y261206D01*
X402147Y261129D01*
X402218Y261042D01*
X402305Y260955D01*
X402403Y260873D01*
X402518Y260796D01*
X402523D01*
X402534Y260791D01*
X402551Y260780D01*
X402572Y260769D01*
X402605Y260753D01*
X402638Y260736D01*
X402725Y260703D01*
X402829Y260671D01*
X402944Y260638D01*
X403069Y260616D01*
X403206Y260611D01*
X403244D01*
X403271Y260616D01*
X403304D01*
X403342Y260622D01*
X403435Y260632D01*
X403539Y260654D01*
X403659Y260687D01*
X403779Y260736D01*
X403905Y260796D01*
X403910D01*
X403921Y260807D01*
X403937Y260818D01*
X403959Y260829D01*
X404019Y260873D01*
X404096Y260927D01*
X404178Y260998D01*
X404260Y261086D01*
X404347Y261184D01*
X404418Y261299D01*
Y261304D01*
X404423Y261315D01*
X404434Y261331D01*
X404445Y261353D01*
X404462Y261386D01*
X404472Y261419D01*
X404511Y261506D01*
X404543Y261615D01*
X404571Y261736D01*
X404593Y261866D01*
X404598Y262014D01*
Y262019D01*
Y262041D01*
Y262074D01*
X404593Y262118D01*
X404587Y262167D01*
X404576Y262227D01*
X404565Y262292D01*
X404549Y262369D01*
X404527Y262445D01*
X404500Y262527D01*
X404467Y262614D01*
X404429Y262696D01*
X404380Y262784D01*
X404325Y262871D01*
X404265Y262953D01*
X404194Y263030D01*
X404189Y263035D01*
X404178Y263046D01*
X404156Y263068D01*
X404123Y263095D01*
X404085Y263122D01*
X404036Y263160D01*
X403981Y263199D01*
X403921Y263237D01*
X403856Y263275D01*
X403779Y263308D01*
X403697Y263346D01*
X403610Y263373D01*
X403517Y263401D01*
X403419Y263423D01*
X403321Y263434D01*
X403211Y263439D01*
D02*
G37*
G36*
X389709Y264558D02*
X389070D01*
Y263040D01*
X389419D01*
X389458Y263046D01*
X389507D01*
X389616Y263051D01*
X389731Y263062D01*
X389856Y263079D01*
X389965Y263101D01*
X390020Y263111D01*
X390064Y263128D01*
X390069D01*
X390074Y263133D01*
X390102Y263144D01*
X390145Y263166D01*
X390200Y263199D01*
X390260Y263237D01*
X390320Y263292D01*
X390380Y263346D01*
X390435Y263417D01*
X390440Y263428D01*
X390457Y263455D01*
X390479Y263494D01*
X390506Y263548D01*
X390528Y263614D01*
X390549Y263690D01*
X390566Y263772D01*
X390571Y263859D01*
Y263865D01*
Y263876D01*
Y263892D01*
X390566Y263914D01*
X390561Y263974D01*
X390544Y264045D01*
X390517Y264127D01*
X390473Y264214D01*
X390419Y264296D01*
X390342Y264373D01*
X390331Y264378D01*
X390320Y264389D01*
X390298Y264400D01*
X390277Y264416D01*
X390244Y264433D01*
X390206Y264449D01*
X390167Y264465D01*
X390118Y264482D01*
X390064Y264498D01*
X390003Y264515D01*
X389938Y264531D01*
X389867Y264542D01*
X389791Y264553D01*
X389709Y264558D01*
D02*
G37*
G36*
X389545Y262565D02*
X389070D01*
Y260747D01*
X389741D01*
X389780Y260753D01*
X389829D01*
X389944Y260758D01*
X390069Y260769D01*
X390195Y260791D01*
X390309Y260813D01*
X390364Y260829D01*
X390413Y260845D01*
X390419D01*
X390424Y260851D01*
X390451Y260867D01*
X390500Y260889D01*
X390555Y260922D01*
X390615Y260971D01*
X390681Y261026D01*
X390746Y261086D01*
X390806Y261162D01*
X390812Y261173D01*
X390828Y261200D01*
X390855Y261244D01*
X390883Y261304D01*
X390904Y261375D01*
X390932Y261452D01*
X390948Y261539D01*
X390954Y261632D01*
Y261637D01*
Y261648D01*
Y261665D01*
X390948Y261686D01*
X390943Y261746D01*
X390926Y261817D01*
X390904Y261905D01*
X390866Y261998D01*
X390817Y262090D01*
X390746Y262183D01*
Y262189D01*
X390735Y262194D01*
X390708Y262221D01*
X390664Y262260D01*
X390599Y262314D01*
X390517Y262363D01*
X390419Y262418D01*
X390304Y262467D01*
X390178Y262505D01*
X390167Y262511D01*
X390151D01*
X390129Y262516D01*
X390102Y262522D01*
X390069Y262527D01*
X390031Y262533D01*
X389982Y262538D01*
X389927Y262544D01*
X389867Y262549D01*
X389796D01*
X389725Y262555D01*
X389638Y262560D01*
X389545Y262565D01*
D02*
G37*
G36*
X437609Y263444D02*
X437560D01*
X437522Y263439D01*
X437478Y263434D01*
X437424Y263428D01*
X437369Y263417D01*
X437303Y263401D01*
X437162Y263363D01*
X437091Y263335D01*
X437014Y263302D01*
X436938Y263264D01*
X436867Y263221D01*
X436790Y263172D01*
X436719Y263111D01*
X436714D01*
X436708Y263101D01*
X436692Y263084D01*
X436676Y263068D01*
X436654Y263040D01*
X436626Y263008D01*
X436599Y262975D01*
X436566Y262931D01*
X436534Y262882D01*
X436501Y262827D01*
X436468Y262773D01*
X436430Y262707D01*
X436397Y262636D01*
X436364Y262560D01*
X436337Y262478D01*
X436310Y262391D01*
X438931D01*
Y262396D01*
X438925Y262407D01*
X438920Y262423D01*
X438914Y262451D01*
X438892Y262516D01*
X438865Y262593D01*
X438827Y262685D01*
X438778Y262778D01*
X438723Y262871D01*
X438663Y262959D01*
X438658Y262969D01*
X438630Y262997D01*
X438592Y263035D01*
X438543Y263084D01*
X438477Y263139D01*
X438401Y263199D01*
X438308Y263253D01*
X438204Y263308D01*
X438199D01*
X438194Y263313D01*
X438177Y263319D01*
X438155Y263330D01*
X438101Y263352D01*
X438024Y263379D01*
X437937Y263401D01*
X437833Y263423D01*
X437724Y263439D01*
X437609Y263444D01*
D02*
G37*
G36*
X418587D02*
X418538D01*
X418499Y263439D01*
X418456Y263434D01*
X418401Y263428D01*
X418346Y263417D01*
X418281Y263401D01*
X418139Y263363D01*
X418068Y263335D01*
X417991Y263302D01*
X417915Y263264D01*
X417844Y263221D01*
X417768Y263172D01*
X417697Y263111D01*
X417691D01*
X417686Y263101D01*
X417669Y263084D01*
X417653Y263068D01*
X417631Y263040D01*
X417604Y263008D01*
X417577Y262975D01*
X417544Y262931D01*
X417511Y262882D01*
X417478Y262827D01*
X417446Y262773D01*
X417407Y262707D01*
X417375Y262636D01*
X417342Y262560D01*
X417314Y262478D01*
X417287Y262391D01*
X419908D01*
Y262396D01*
X419903Y262407D01*
X419897Y262423D01*
X419892Y262451D01*
X419870Y262516D01*
X419842Y262593D01*
X419804Y262685D01*
X419755Y262778D01*
X419700Y262871D01*
X419640Y262959D01*
X419635Y262969D01*
X419608Y262997D01*
X419569Y263035D01*
X419520Y263084D01*
X419455Y263139D01*
X419378Y263199D01*
X419285Y263253D01*
X419182Y263308D01*
X419176D01*
X419171Y263313D01*
X419155Y263319D01*
X419133Y263330D01*
X419078Y263352D01*
X419002Y263379D01*
X418914Y263401D01*
X418811Y263423D01*
X418701Y263439D01*
X418587Y263444D01*
D02*
G37*
G36*
X310444Y266641D02*
X309222Y264049D01*
X311658D01*
X310444Y266641D01*
D02*
G37*
%LPD*%
D10*
X337632Y314740D02*
G03*
X337632Y314740I-197J0D01*
G01*
D11*
X394913Y298012D02*
G03*
X394913Y298012I-1181J0D01*
G01*
D12*
X397276Y306772D02*
G03*
X397276Y306772I-492J0D01*
G01*
D13*
X306000Y306716D02*
X326000D01*
Y316716D01*
X306000D02*
X326000D01*
X306000Y306716D02*
Y316716D01*
X344689Y285794D02*
Y287394D01*
X340949Y285795D02*
Y287395D01*
X337189Y285794D02*
Y287394D01*
X333449Y285795D02*
Y287395D01*
X352189Y285794D02*
Y287394D01*
X348448Y285795D02*
Y287395D01*
X403481Y274200D02*
Y275800D01*
X399740Y274200D02*
Y275800D01*
X375032Y267700D02*
Y269300D01*
X371291Y267700D02*
Y269300D01*
X403481Y286306D02*
Y287906D01*
X399740Y286306D02*
Y287906D01*
X399705Y298413D02*
Y300013D01*
X403445Y298413D02*
Y300013D01*
X391200Y312630D02*
X392800D01*
X391200Y316370D02*
X392800D01*
X402000Y318000D02*
Y328000D01*
X352000Y318000D02*
X402000D01*
X352000Y328000D02*
X402000D01*
X352000Y318000D02*
Y328000D01*
X315200Y320130D02*
X316800D01*
X315200Y323870D02*
X316800D01*
X340949Y310200D02*
Y311800D01*
X344689Y310200D02*
Y311800D01*
X348448Y310116D02*
Y311716D01*
X352189Y310116D02*
Y311716D01*
X352189Y297605D02*
Y299205D01*
X348449Y297605D02*
Y299205D01*
X344689Y297605D02*
Y299205D01*
X340949Y297605D02*
Y299205D01*
X337189Y297605D02*
Y299205D01*
X333449Y297605D02*
Y299205D01*
X356331Y283051D02*
Y301949D01*
X397669Y283051D02*
Y301949D01*
X356331Y283051D02*
X397669D01*
X356331Y301949D02*
X397669D01*
D14*
X524587Y276965D02*
Y310035D01*
X467500Y276965D02*
X524587D01*
X467500Y310035D02*
X524587D01*
X467500D02*
Y318500D01*
Y268500D02*
Y276965D01*
X417500Y268500D02*
Y318500D01*
X467500D01*
X417500Y268500D02*
X467500D01*
X275020Y269878D02*
Y317122D01*
D15*
X344500Y264000D02*
Y265312D01*
Y264656D01*
X340564D01*
Y264000D01*
X344500Y269248D02*
Y267936D01*
X343844Y267280D01*
X342532D01*
X341876Y267936D01*
Y269248D01*
X342532Y269904D01*
X343188D01*
Y267280D01*
X340564Y273839D02*
X344500D01*
Y271871D01*
X343844Y271216D01*
X342532D01*
X341876Y271871D01*
Y273839D01*
X337000Y264000D02*
Y265312D01*
Y264656D01*
X333064D01*
Y264000D01*
X337000Y269248D02*
Y267936D01*
X336344Y267280D01*
X335032D01*
X334376Y267936D01*
Y269248D01*
X335032Y269904D01*
X335688D01*
Y267280D01*
X333064Y273839D02*
X337000D01*
Y271871D01*
X336344Y271216D01*
X335032D01*
X334376Y271871D01*
Y273839D01*
X352000Y264000D02*
Y265312D01*
Y264656D01*
X348064D01*
Y264000D01*
X352000Y269248D02*
Y267936D01*
X351344Y267280D01*
X350032D01*
X349376Y267936D01*
Y269248D01*
X350032Y269904D01*
X350688D01*
Y267280D01*
X348064Y273839D02*
X352000D01*
Y271871D01*
X351344Y271216D01*
X350032D01*
X349376Y271871D01*
Y273839D01*
X344830Y279418D02*
Y276795D01*
X342206Y279418D01*
X341550D01*
X340894Y278763D01*
Y277451D01*
X341550Y276795D01*
X337330Y277451D02*
Y278763D01*
Y278106D01*
X333394D01*
X334050Y277451D01*
X349048Y276795D02*
X348392Y277451D01*
Y278763D01*
X349048Y279418D01*
X349704D01*
X350360Y278763D01*
Y278106D01*
Y278763D01*
X351016Y279418D01*
X351672D01*
X352327Y278763D01*
Y277451D01*
X351672Y276795D01*
X417500Y326998D02*
Y321000D01*
X420499D01*
X421499Y322000D01*
Y325998D01*
X420499Y326998D01*
X417500D01*
X423498Y321000D02*
X425497D01*
X424498D01*
Y326998D01*
X423498Y325998D01*
X347220Y319746D02*
X346564Y319090D01*
Y317778D01*
X347220Y317122D01*
X349844D01*
X350500Y317778D01*
Y319090D01*
X349844Y319746D01*
X350500Y321058D02*
Y322370D01*
Y321714D01*
X346564D01*
X347220Y321058D01*
Y324338D02*
X346564Y324993D01*
Y326305D01*
X347220Y326961D01*
X349844D01*
X350500Y326305D01*
Y324993D01*
X349844Y324338D01*
X347220D01*
X379500Y312500D02*
Y316436D01*
X381468D01*
X382124Y315780D01*
Y314468D01*
X381468Y313812D01*
X379500D01*
X380812D02*
X382124Y312500D01*
X383436Y315780D02*
X384092Y316436D01*
X385404D01*
X386060Y315780D01*
Y315124D01*
X385404Y314468D01*
X386060Y313812D01*
Y313156D01*
X385404Y312500D01*
X384092D01*
X383436Y313156D01*
Y313812D01*
X384092Y314468D01*
X383436Y315124D01*
Y315780D01*
X384092Y314468D02*
X385404D01*
X343885Y317500D02*
X339949D01*
Y319468D01*
X340605Y320124D01*
X341917D01*
X342573Y319468D01*
Y317500D01*
Y318812D02*
X343885Y320124D01*
X339949Y324060D02*
X340605Y322748D01*
X341917Y321436D01*
X343229D01*
X343885Y322092D01*
Y323404D01*
X343229Y324060D01*
X342573D01*
X341917Y323404D01*
Y321436D01*
X302953Y320000D02*
Y323936D01*
X304920D01*
X305576Y323280D01*
Y321968D01*
X304920Y321312D01*
X302953D01*
X304264D02*
X305576Y320000D01*
X309512Y323936D02*
X306888D01*
Y321968D01*
X308200Y322624D01*
X308856D01*
X309512Y321968D01*
Y320656D01*
X308856Y320000D01*
X307544D01*
X306888Y320656D01*
X333334Y317500D02*
X337270D01*
Y319468D01*
X336614Y320124D01*
X333990D01*
X333334Y319468D01*
Y317500D01*
Y324060D02*
X333990Y322748D01*
X335302Y321436D01*
X336614D01*
X337270Y322092D01*
Y323404D01*
X336614Y324060D01*
X335958D01*
X335302Y323404D01*
Y321436D01*
X362124Y269780D02*
X361468Y270436D01*
X360156D01*
X359500Y269780D01*
Y267156D01*
X360156Y266500D01*
X361468D01*
X362124Y267156D01*
X363436Y266500D02*
X364748D01*
X364092D01*
Y270436D01*
X363436Y269780D01*
X366716Y266500D02*
X368027D01*
X367372D01*
Y270436D01*
X366716Y269780D01*
X407189Y286537D02*
X406533Y285881D01*
Y284569D01*
X407189Y283913D01*
X409813D01*
X410468Y284569D01*
Y285881D01*
X409813Y286537D01*
Y287849D02*
X410468Y288505D01*
Y289817D01*
X409813Y290473D01*
X407189D01*
X406533Y289817D01*
Y288505D01*
X407189Y287849D01*
X407845D01*
X408501Y288505D01*
Y290473D01*
X407189Y298624D02*
X406533Y297968D01*
Y296656D01*
X407189Y296000D01*
X409813D01*
X410468Y296656D01*
Y297968D01*
X409813Y298624D01*
X407189Y299936D02*
X406533Y300592D01*
Y301904D01*
X407189Y302560D01*
X407845D01*
X408501Y301904D01*
X409157Y302560D01*
X409813D01*
X410468Y301904D01*
Y300592D01*
X409813Y299936D01*
X409157D01*
X408501Y300592D01*
X407845Y299936D01*
X407189D01*
X408501Y300592D02*
Y301904D01*
X407189Y274624D02*
X406533Y273968D01*
Y272656D01*
X407189Y272000D01*
X409813D01*
X410468Y272656D01*
Y273968D01*
X409813Y274624D01*
X406533Y275936D02*
Y278560D01*
X407189D01*
X409813Y275936D01*
X410468D01*
M02*
