G04*
G04 #@! TF.GenerationSoftware,Altium Limited,Altium Designer,18.1.11 (251)*
G04*
G04 Layer_Color=8388736*
%FSLAX25Y25*%
%MOIN*%
G70*
G01*
G75*
%ADD21R,0.03556X0.04540*%
%ADD22R,0.04540X0.03556*%
%ADD23C,0.08674*%
%ADD24R,0.02769X0.03162*%
%ADD25O,0.02375X0.07296*%
%ADD26C,0.05721*%
%ADD27C,0.06800*%
%ADD28C,0.00800*%
%ADD29C,0.07099*%
%ADD30O,0.08674X0.07690*%
%ADD31O,0.08674X0.06706*%
%ADD32O,0.16548X0.08674*%
%ADD33R,0.06706X0.06706*%
%ADD34C,0.06706*%
%ADD35C,0.03556*%
%ADD36C,0.05800*%
D21*
X352559Y276000D02*
D03*
X347441D02*
D03*
X394559Y314500D02*
D03*
X389441D02*
D03*
X341059Y320500D02*
D03*
X335941D02*
D03*
X350500Y297500D02*
D03*
X345382D02*
D03*
D22*
X393634Y270059D02*
D03*
Y264941D02*
D03*
X373161Y271059D02*
D03*
Y265941D02*
D03*
X408500Y289441D02*
D03*
Y294559D02*
D03*
X402500Y289441D02*
D03*
Y294559D02*
D03*
X341500Y308441D02*
D03*
Y313559D02*
D03*
X333500Y301618D02*
D03*
Y296500D02*
D03*
X326000Y301618D02*
D03*
Y296500D02*
D03*
X318500Y301618D02*
D03*
Y296500D02*
D03*
Y285500D02*
D03*
Y290618D02*
D03*
X326000Y285500D02*
D03*
Y290618D02*
D03*
X333500Y285500D02*
D03*
Y290618D02*
D03*
D23*
X357000Y323000D02*
D03*
X367000D02*
D03*
X377000D02*
D03*
X387000D02*
D03*
X397000D02*
D03*
D24*
X335500Y313953D02*
D03*
Y308047D02*
D03*
D25*
X360366Y278228D02*
D03*
X362925D02*
D03*
X365484D02*
D03*
X368043D02*
D03*
X370602D02*
D03*
X373161D02*
D03*
X375721D02*
D03*
X378279D02*
D03*
X380839D02*
D03*
X383398D02*
D03*
X385957D02*
D03*
X388516D02*
D03*
X391075D02*
D03*
X393634D02*
D03*
X360366Y306772D02*
D03*
X362925D02*
D03*
X365484D02*
D03*
X368043D02*
D03*
X370602D02*
D03*
X373161D02*
D03*
X375721D02*
D03*
X378279D02*
D03*
X380839D02*
D03*
X383398D02*
D03*
X385957D02*
D03*
X388516D02*
D03*
X391075D02*
D03*
X393634D02*
D03*
D26*
X442500Y288500D02*
D03*
Y298500D02*
D03*
X432500Y288500D02*
D03*
Y298500D02*
D03*
D27*
X422500Y293500D02*
D03*
D28*
X452500Y283500D02*
D03*
Y303500D02*
D03*
X293917Y284445D02*
D03*
Y302555D02*
D03*
D29*
X442500Y308500D02*
D03*
Y278500D02*
D03*
X432500D02*
D03*
Y308500D02*
D03*
D30*
X302185Y307279D02*
D03*
Y279720D02*
D03*
D31*
Y297437D02*
D03*
Y289563D02*
D03*
D32*
X293917Y270468D02*
D03*
Y316531D02*
D03*
D33*
X313500Y322000D02*
D03*
D34*
X323500D02*
D03*
D35*
X401500Y267462D02*
D03*
X427500Y303000D02*
D03*
X393500Y297500D02*
D03*
X357000Y275870D02*
D03*
X315000Y279720D02*
D03*
X386000Y269370D02*
D03*
D36*
X377000Y323000D02*
D03*
M02*
