G04*
G04 #@! TF.GenerationSoftware,Altium Limited,Altium Designer,18.1.11 (251)*
G04*
G04 Layer_Color=128*
%FSLAX25Y25*%
%MOIN*%
G70*
G01*
G75*
%ADD16R,0.02756X0.03740*%
%ADD17R,0.03740X0.02756*%
%ADD48R,0.03740X0.05512*%
%ADD49R,0.02362X0.03543*%
%ADD50R,0.03543X0.02362*%
%ADD51R,0.04724X0.05512*%
%ADD52R,0.12795X0.08465*%
%ADD53R,0.03937X0.08465*%
D16*
X448441Y293500D02*
D03*
X453559D02*
D03*
X334941Y271500D02*
D03*
X340059D02*
D03*
X334941Y265000D02*
D03*
X340059D02*
D03*
D17*
X397500Y272559D02*
D03*
Y267441D02*
D03*
X356000Y287059D02*
D03*
Y281941D02*
D03*
X385221Y294559D02*
D03*
Y289441D02*
D03*
X364220Y294559D02*
D03*
Y289441D02*
D03*
D48*
X422642Y304500D02*
D03*
X415358D02*
D03*
X422642Y282500D02*
D03*
X415358D02*
D03*
D49*
X408500Y276528D02*
D03*
X404760Y267472D02*
D03*
X412240D02*
D03*
D50*
X319528Y293500D02*
D03*
X310472Y297240D02*
D03*
Y289760D02*
D03*
D51*
X377870Y287669D02*
D03*
X371571D02*
D03*
X377870Y296331D02*
D03*
X371571D02*
D03*
D52*
X337500Y304516D02*
D03*
D53*
X328445Y281484D02*
D03*
X337500D02*
D03*
X346555D02*
D03*
M02*
