G04*
G04 #@! TF.GenerationSoftware,Altium Limited,Altium Designer,18.1.11 (251)*
G04*
G04 Layer_Color=16711935*
%FSLAX25Y25*%
%MOIN*%
G70*
G01*
G75*
%ADD21R,0.03556X0.04540*%
%ADD22R,0.04540X0.03556*%
%ADD26C,0.05721*%
%ADD27C,0.06800*%
%ADD28C,0.00800*%
%ADD29C,0.07099*%
%ADD30O,0.08674X0.07690*%
%ADD31O,0.08674X0.06706*%
%ADD32O,0.16548X0.08674*%
%ADD33R,0.06706X0.06706*%
%ADD34C,0.06706*%
%ADD35C,0.03556*%
%ADD36C,0.05800*%
%ADD54R,0.04540X0.06312*%
%ADD55R,0.03162X0.04343*%
%ADD56R,0.04343X0.03162*%
%ADD57R,0.05524X0.06312*%
%ADD58R,0.13595X0.09265*%
%ADD59R,0.04737X0.09265*%
D21*
X448441Y293500D02*
D03*
X453559D02*
D03*
X334941Y271500D02*
D03*
X340059D02*
D03*
X334941Y265000D02*
D03*
X340059D02*
D03*
D22*
X397500Y272559D02*
D03*
Y267441D02*
D03*
X356000Y287059D02*
D03*
Y281941D02*
D03*
X385221Y294559D02*
D03*
Y289441D02*
D03*
X364220Y294559D02*
D03*
Y289441D02*
D03*
D26*
X442500Y288500D02*
D03*
Y298500D02*
D03*
X432500Y288500D02*
D03*
Y298500D02*
D03*
D27*
X422500Y293500D02*
D03*
D28*
X452500Y283500D02*
D03*
Y303500D02*
D03*
X293917Y284445D02*
D03*
Y302555D02*
D03*
D29*
X442500Y308500D02*
D03*
Y278500D02*
D03*
X432500D02*
D03*
Y308500D02*
D03*
D30*
X302185Y307279D02*
D03*
Y279720D02*
D03*
D31*
Y297437D02*
D03*
Y289563D02*
D03*
D32*
X293917Y270468D02*
D03*
Y316531D02*
D03*
D33*
X313500Y322000D02*
D03*
D34*
X323500D02*
D03*
D35*
X401500Y267462D02*
D03*
X427500Y303000D02*
D03*
X393500Y297500D02*
D03*
X357000Y275870D02*
D03*
X315000Y279720D02*
D03*
X386000Y269370D02*
D03*
D36*
X377000Y323000D02*
D03*
D54*
X422642Y304500D02*
D03*
X415358D02*
D03*
X422642Y282500D02*
D03*
X415358D02*
D03*
D55*
X408500Y276528D02*
D03*
X404760Y267472D02*
D03*
X412240D02*
D03*
D56*
X319528Y293500D02*
D03*
X310472Y297240D02*
D03*
Y289760D02*
D03*
D57*
X377870Y287669D02*
D03*
X371571D02*
D03*
X377870Y296331D02*
D03*
X371571D02*
D03*
D58*
X337500Y304516D02*
D03*
D59*
X328445Y281484D02*
D03*
X337500D02*
D03*
X346555D02*
D03*
M02*
