G04*
G04 #@! TF.GenerationSoftware,Altium Limited,Altium Designer,18.1.11 (251)*
G04*
G04 Layer_Color=8421504*
%FSLAX25Y25*%
%MOIN*%
G70*
G01*
G75*
%ADD16R,0.03740X0.02756*%
%ADD17R,0.02756X0.03740*%
%ADD18R,0.01968X0.02362*%
%ADD19O,0.01575X0.06496*%
D16*
X342819Y289154D02*
D03*
Y284035D02*
D03*
X335319Y289154D02*
D03*
Y284035D02*
D03*
X350319Y289154D02*
D03*
Y284035D02*
D03*
X401610Y277559D02*
D03*
Y272441D02*
D03*
X373161Y271059D02*
D03*
Y265941D02*
D03*
X401610Y289665D02*
D03*
Y284547D02*
D03*
X401575Y296654D02*
D03*
Y301772D02*
D03*
X342819Y308441D02*
D03*
Y313559D02*
D03*
X350319Y308357D02*
D03*
Y313475D02*
D03*
X350319Y300965D02*
D03*
Y295847D02*
D03*
X342819Y300965D02*
D03*
Y295847D02*
D03*
X335319Y300965D02*
D03*
Y295847D02*
D03*
D17*
X394559Y314500D02*
D03*
X389441D02*
D03*
X318559Y322000D02*
D03*
X313441D02*
D03*
D18*
X335270Y313953D02*
D03*
Y308047D02*
D03*
D19*
X360366Y278228D02*
D03*
X362925D02*
D03*
X365484D02*
D03*
X368043D02*
D03*
X370602D02*
D03*
X373161D02*
D03*
X375721D02*
D03*
X378279D02*
D03*
X380839D02*
D03*
X383398D02*
D03*
X385957D02*
D03*
X388516D02*
D03*
X391075D02*
D03*
X393634D02*
D03*
X360366Y306772D02*
D03*
X362925D02*
D03*
X365484D02*
D03*
X368043D02*
D03*
X370602D02*
D03*
X373161D02*
D03*
X375721D02*
D03*
X378279D02*
D03*
X380839D02*
D03*
X383398D02*
D03*
X385957D02*
D03*
X388516D02*
D03*
X391075D02*
D03*
X393634D02*
D03*
M02*
