M48
;Layer_Color=9474304
;FILE_FORMAT=2:5
INCH,LZ
;TYPE=PLATED
T1F00S00C0.01575
T2F00S00C0.01968
T3F00S00C0.02362
T4F00S00C0.02800
T5F00S00C0.03150
T6F00S00C0.03543
T7F00S00C0.03937
T9F00S00C0.04724
T10F00S00C0.06417
T11F00S00C0.12205
%
T01
X0315Y027972
X0357Y027587
X035585Y03045
X036728Y0301
X0378
X03935Y02975
X0386Y026937
X0384Y03175
T02
X0312992Y0307086
X0318898
X0324803
X0386811Y0301181
X0398622
X0404527
X0410433
X040748Y0307086
X0401575
Y0283465
X0404527Y0277559
X0398622
X0419291Y0271654
X0425197
X0431102
X0437008
X0442913
X0454724
X0457677Y0277559
Y028937
Y0301181
Y0265748
X0451771
X0437008Y0283465
X0310039Y0301181
X0295275Y0295275
X028937
X0292323Y028937
X0286417
Y0301181
X028937Y0307086
X0292323Y0277559
X0286417
X0304134Y0265748
Y0312992
X0310039
X0307086Y0318898
X0304134Y0324803
X0298228
X0292323
X0286417
X0318898Y0318898
X032185Y0312992
X0327756
X0315945
X0333661Y0324803
X0339567
X0345472
X0348425Y0318898
X0357283Y0312992
X0398622
X0404527
X0410433
X0416338
X0422244
X042815
X0425197Y0318898
X0431102
X0437008
X0442913
X0448819
X0454724
X0457677Y0324803
X0451771
X0445866
X043996
X0434055
X042815
X0422244
X0416338
X0410433
X0404527
X040748Y0318898
X0413386
X0419291
X0445866Y0312992
X0451771
X0457677
T03
X04325Y02885
X04425
Y02985
X04325
T04
X0377Y0323
T05
X04325Y02785
X04425
Y03085
X04325
T06
X03135Y0322
X03235
T07
X0302185Y027972
Y0289563
Y0297437
Y0307279
T09
X0293917Y0284445
Y0302555
T10
X04525Y02835
Y03035
T11
X04225Y02935
M30
