G04*
G04 #@! TF.GenerationSoftware,Altium Limited,Altium Designer,18.1.11 (251)*
G04*
G04 Layer_Physical_Order=2*
G04 Layer_Color=16711680*
%FSLAX25Y25*%
%MOIN*%
G70*
G01*
G75*
%ADD14C,0.01181*%
%ADD15C,0.01000*%
%ADD16R,0.03740X0.02756*%
%ADD17R,0.02756X0.03740*%
%ADD37C,0.01968*%
%ADD39C,0.05906*%
%ADD40R,0.05906X0.05906*%
%ADD41C,0.06299*%
%ADD42C,0.04921*%
%ADD43C,0.06000*%
%ADD44O,0.07874X0.06890*%
%ADD45O,0.07874X0.05906*%
%ADD46O,0.15748X0.07874*%
%ADD47C,0.02756*%
%ADD48C,0.05000*%
%ADD49R,0.03740X0.05512*%
%ADD50R,0.02362X0.03543*%
%ADD51R,0.03543X0.02362*%
%ADD52R,0.04724X0.05512*%
%ADD53R,0.12795X0.08465*%
%ADD54R,0.03937X0.08465*%
G36*
X460583Y259000D02*
X357783Y259000D01*
X357576Y259500D01*
X358431Y260354D01*
X358512Y260477D01*
X443159D01*
X443934Y260631D01*
X444590Y261069D01*
X451431Y267910D01*
X451869Y268566D01*
X452023Y269340D01*
Y278441D01*
X451947Y278823D01*
X452367Y279273D01*
X452500Y279255D01*
X453599Y279400D01*
X454623Y279824D01*
X455502Y280498D01*
X456176Y281378D01*
X456600Y282401D01*
X456745Y283500D01*
X456600Y284599D01*
X456176Y285623D01*
X455502Y286502D01*
X454623Y287176D01*
X453599Y287600D01*
X452500Y287745D01*
X451401Y287600D01*
X450862Y287377D01*
X450423Y287737D01*
X450464Y287941D01*
Y290276D01*
X450818Y290630D01*
X451181D01*
X451319Y290630D01*
X453059D01*
Y293500D01*
Y296370D01*
X451319D01*
X451181Y296370D01*
X450819D01*
X450681Y296370D01*
X450402D01*
X450310Y296833D01*
X449871Y297490D01*
X447431Y299931D01*
X446774Y300369D01*
X446000Y300523D01*
X445310D01*
X444968Y300968D01*
X444245Y301523D01*
X443403Y301871D01*
X442500Y301991D01*
X441597Y301871D01*
X440755Y301523D01*
X440032Y300968D01*
X439690Y300523D01*
X435310D01*
X434968Y300968D01*
X434245Y301523D01*
X433403Y301871D01*
X432500Y301991D01*
X431597Y301871D01*
X430755Y301523D01*
X430032Y300968D01*
X429477Y300245D01*
X429128Y299403D01*
X429009Y298500D01*
X429128Y297597D01*
X429477Y296755D01*
X430032Y296032D01*
X430755Y295477D01*
X431597Y295128D01*
X432500Y295009D01*
X433403Y295128D01*
X434245Y295477D01*
X434968Y296032D01*
X435310Y296477D01*
X439690D01*
X440032Y296032D01*
X440755Y295477D01*
X441597Y295128D01*
X442500Y295009D01*
X443403Y295128D01*
X444245Y295477D01*
X444968Y296032D01*
X445015Y296093D01*
X445514Y296125D01*
X446063Y295576D01*
Y290630D01*
X446418D01*
Y289085D01*
X445918Y289052D01*
X445872Y289403D01*
X445523Y290245D01*
X444968Y290968D01*
X444245Y291523D01*
X443403Y291872D01*
X442500Y291990D01*
X441597Y291872D01*
X440755Y291523D01*
X440032Y290968D01*
X439477Y290245D01*
X439128Y289403D01*
X439010Y288500D01*
X439128Y287597D01*
X439477Y286755D01*
X440032Y286032D01*
X440755Y285477D01*
X441597Y285128D01*
X442500Y285010D01*
X443403Y285128D01*
X444245Y285477D01*
X444968Y286032D01*
X445003Y286078D01*
X445477Y285917D01*
Y282077D01*
X444977Y281830D01*
X444593Y282125D01*
X443583Y282543D01*
X442500Y282685D01*
X441417Y282543D01*
X440407Y282125D01*
X439540Y281459D01*
X438875Y280593D01*
X438457Y279583D01*
X438315Y278500D01*
X438457Y277417D01*
X438875Y276407D01*
X439540Y275540D01*
X440407Y274875D01*
X441417Y274457D01*
X442500Y274315D01*
X443583Y274457D01*
X444593Y274875D01*
X445460Y275540D01*
X446125Y276407D01*
X446543Y277417D01*
X446649Y278224D01*
X447177Y278403D01*
X447977Y277603D01*
Y270179D01*
X442321Y264523D01*
X414848D01*
X414421Y264701D01*
X414421Y265023D01*
Y267553D01*
X414921Y267602D01*
X414969Y267363D01*
X415083Y266789D01*
X415609Y266002D01*
X416395Y265477D01*
X416823Y265392D01*
Y267717D01*
Y270042D01*
X416395Y269957D01*
X415609Y269431D01*
X415083Y268644D01*
X414969Y268071D01*
X414921Y267831D01*
X414421Y267880D01*
Y270244D01*
X413862D01*
Y270260D01*
X413738Y270880D01*
X413387Y271407D01*
X412147Y272647D01*
X411621Y272998D01*
X411000Y273122D01*
X405172D01*
X404588Y273706D01*
X404062Y274057D01*
X403441Y274181D01*
X400370D01*
Y274937D01*
X394630D01*
Y274088D01*
X389189D01*
X388604Y273972D01*
X388107Y273640D01*
X385179Y270712D01*
X385051Y270724D01*
X384264Y271250D01*
X383336Y271434D01*
X382408Y271250D01*
X381622Y270724D01*
X381096Y269938D01*
X380911Y269010D01*
X381096Y268082D01*
X381622Y267295D01*
X382408Y266770D01*
X383336Y266585D01*
X384264Y266770D01*
X385051Y267295D01*
X385174Y267480D01*
X385640D01*
X386225Y267597D01*
X386721Y267928D01*
X389823Y271030D01*
X394630D01*
Y270181D01*
X394630D01*
Y269819D01*
X394630D01*
Y267941D01*
X397500D01*
Y267441D01*
X398000D01*
Y265063D01*
X400370D01*
X400370Y265063D01*
Y265063D01*
X400870Y265163D01*
X401000Y265137D01*
Y267462D01*
X402000D01*
Y264796D01*
X402159Y264659D01*
X402158Y264643D01*
X402077Y264523D01*
X358529D01*
Y268630D01*
X359378D01*
Y274370D01*
X359378D01*
X359147Y274803D01*
X359240Y274942D01*
X359424Y275870D01*
X359240Y276798D01*
X358714Y277585D01*
X357928Y278110D01*
X357000Y278295D01*
X356072Y278110D01*
X355286Y277585D01*
X354760Y276798D01*
X354575Y275870D01*
X354760Y274942D01*
X354853Y274803D01*
X354622Y274370D01*
X354260D01*
X354122Y274370D01*
X352382D01*
Y271500D01*
Y268630D01*
X354122D01*
X354260Y268630D01*
X354622D01*
X354760Y268630D01*
X355471D01*
Y263783D01*
X355131Y263274D01*
X355007Y262653D01*
X354877Y262523D01*
X342437D01*
Y264500D01*
X340059D01*
Y265000D01*
X339559D01*
Y267870D01*
X337681D01*
Y267870D01*
X337464D01*
X337347Y267952D01*
X337290Y268602D01*
X337318Y268630D01*
X337681D01*
X337819Y268630D01*
X339559D01*
Y271500D01*
Y274370D01*
X337819D01*
X337681Y274370D01*
X337319D01*
X337181Y274370D01*
X332563D01*
Y273523D01*
X331838D01*
X330468Y274893D01*
Y276252D01*
X331413D01*
Y286717D01*
X325476D01*
Y284692D01*
X324976Y284540D01*
X324549Y285179D01*
X323763Y285705D01*
X323335Y285790D01*
Y283465D01*
X322835D01*
Y282965D01*
X320510D01*
X320595Y282537D01*
X320791Y282244D01*
X320524Y281744D01*
X316252D01*
X315928Y281960D01*
X315000Y282145D01*
X314072Y281960D01*
X313748Y281744D01*
X298776D01*
X298686Y281962D01*
X297973Y282891D01*
X297045Y283603D01*
X295964Y284051D01*
X294803Y284204D01*
X293819D01*
X292658Y284051D01*
X291577Y283603D01*
X290649Y282891D01*
X289936Y281962D01*
X289488Y280881D01*
X289336Y279720D01*
X289488Y278560D01*
X289936Y277479D01*
X290649Y276550D01*
X291577Y275838D01*
X292658Y275390D01*
X293819Y275237D01*
X294803D01*
X295964Y275390D01*
X297045Y275838D01*
X297973Y276550D01*
X298686Y277479D01*
X298776Y277697D01*
X301191D01*
X301363Y277197D01*
X300910Y276519D01*
X300825Y276091D01*
X305475D01*
X305390Y276519D01*
X304936Y277197D01*
X305109Y277697D01*
X313748D01*
X314072Y277481D01*
X315000Y277296D01*
X315928Y277481D01*
X316252Y277697D01*
X316939D01*
X317111Y277197D01*
X316658Y276519D01*
X316573Y276091D01*
X321223D01*
X321138Y276519D01*
X320684Y277197D01*
X320857Y277697D01*
X325476D01*
Y276252D01*
X326422D01*
Y274055D01*
X326576Y273281D01*
X327014Y272625D01*
X329361Y270278D01*
X329342Y269664D01*
X328994Y269431D01*
X328469Y268644D01*
X328384Y268217D01*
X330709D01*
Y267717D01*
X331209D01*
Y265392D01*
X331637Y265477D01*
X332063Y265762D01*
X332563Y265494D01*
Y262130D01*
X332918D01*
Y261559D01*
X333072Y260785D01*
X333510Y260128D01*
X334139Y259500D01*
X333932Y259000D01*
X275000Y259000D01*
Y328000D01*
X460583Y328000D01*
Y259000D01*
D02*
G37*
%LPC*%
G36*
X377500Y326464D02*
Y323500D01*
X380464D01*
X380410Y323914D01*
X380057Y324765D01*
X379496Y325496D01*
X378765Y326057D01*
X377914Y326410D01*
X377500Y326464D01*
D02*
G37*
G36*
X376500D02*
X376086Y326410D01*
X375235Y326057D01*
X374504Y325496D01*
X373943Y324765D01*
X373590Y323914D01*
X373536Y323500D01*
X376500D01*
Y326464D01*
D02*
G37*
G36*
X453256Y325160D02*
Y323335D01*
X455081D01*
X454996Y323763D01*
X454471Y324549D01*
X453684Y325075D01*
X453256Y325160D01*
D02*
G37*
G36*
X452256D02*
X451828Y325075D01*
X451042Y324549D01*
X450516Y323763D01*
X450431Y323335D01*
X452256D01*
Y325160D01*
D02*
G37*
G36*
X445382D02*
Y323335D01*
X447207D01*
X447122Y323763D01*
X446596Y324549D01*
X445810Y325075D01*
X445382Y325160D01*
D02*
G37*
G36*
X444382D02*
X443954Y325075D01*
X443168Y324549D01*
X442642Y323763D01*
X442557Y323335D01*
X444382D01*
Y325160D01*
D02*
G37*
G36*
X437508D02*
Y323335D01*
X439333D01*
X439248Y323763D01*
X438723Y324549D01*
X437936Y325075D01*
X437508Y325160D01*
D02*
G37*
G36*
X436508D02*
X436080Y325075D01*
X435294Y324549D01*
X434768Y323763D01*
X434683Y323335D01*
X436508D01*
Y325160D01*
D02*
G37*
G36*
X429634D02*
Y323335D01*
X431459D01*
X431374Y323763D01*
X430849Y324549D01*
X430062Y325075D01*
X429634Y325160D01*
D02*
G37*
G36*
X428634D02*
X428206Y325075D01*
X427420Y324549D01*
X426894Y323763D01*
X426809Y323335D01*
X428634D01*
Y325160D01*
D02*
G37*
G36*
X421760D02*
Y323335D01*
X423585D01*
X423500Y323763D01*
X422974Y324549D01*
X422188Y325075D01*
X421760Y325160D01*
D02*
G37*
G36*
X420760D02*
X420332Y325075D01*
X419546Y324549D01*
X419020Y323763D01*
X418935Y323335D01*
X420760D01*
Y325160D01*
D02*
G37*
G36*
X350894D02*
Y323335D01*
X352719D01*
X352634Y323763D01*
X352108Y324549D01*
X351322Y325075D01*
X350894Y325160D01*
D02*
G37*
G36*
X349894D02*
X349466Y325075D01*
X348679Y324549D01*
X348154Y323763D01*
X348069Y323335D01*
X349894D01*
Y325160D01*
D02*
G37*
G36*
X303650D02*
Y323335D01*
X305475D01*
X305390Y323763D01*
X304864Y324549D01*
X304078Y325075D01*
X303650Y325160D01*
D02*
G37*
G36*
X302650D02*
X302222Y325075D01*
X301435Y324549D01*
X300910Y323763D01*
X300825Y323335D01*
X302650D01*
Y325160D01*
D02*
G37*
G36*
X295776D02*
Y323335D01*
X297601D01*
X297516Y323763D01*
X296990Y324549D01*
X296204Y325075D01*
X295776Y325160D01*
D02*
G37*
G36*
X294776D02*
X294348Y325075D01*
X293561Y324549D01*
X293036Y323763D01*
X292951Y323335D01*
X294776D01*
Y325160D01*
D02*
G37*
G36*
X280028D02*
Y323335D01*
X281853D01*
X281768Y323763D01*
X281242Y324549D01*
X280455Y325075D01*
X280028Y325160D01*
D02*
G37*
G36*
X279028D02*
X278600Y325075D01*
X277813Y324549D01*
X277288Y323763D01*
X277203Y323335D01*
X279028D01*
Y325160D01*
D02*
G37*
G36*
X455081Y322335D02*
X453256D01*
Y320510D01*
X453684Y320595D01*
X454471Y321120D01*
X454996Y321907D01*
X455081Y322335D01*
D02*
G37*
G36*
X452256D02*
X450431D01*
X450516Y321907D01*
X451042Y321120D01*
X451828Y320595D01*
X452256Y320510D01*
Y322335D01*
D02*
G37*
G36*
X447207D02*
X445382D01*
Y320510D01*
X445810Y320595D01*
X446596Y321120D01*
X447122Y321907D01*
X447207Y322335D01*
D02*
G37*
G36*
X444382D02*
X442557D01*
X442642Y321907D01*
X443168Y321120D01*
X443954Y320595D01*
X444382Y320510D01*
Y322335D01*
D02*
G37*
G36*
X439333D02*
X437508D01*
Y320510D01*
X437936Y320595D01*
X438723Y321120D01*
X439248Y321907D01*
X439333Y322335D01*
D02*
G37*
G36*
X436508D02*
X434683D01*
X434768Y321907D01*
X435294Y321120D01*
X436080Y320595D01*
X436508Y320510D01*
Y322335D01*
D02*
G37*
G36*
X431459D02*
X429634D01*
Y320510D01*
X430062Y320595D01*
X430849Y321120D01*
X431374Y321907D01*
X431459Y322335D01*
D02*
G37*
G36*
X428634D02*
X426809D01*
X426894Y321907D01*
X427420Y321120D01*
X428206Y320595D01*
X428634Y320510D01*
Y322335D01*
D02*
G37*
G36*
X423585D02*
X421760D01*
Y320510D01*
X422188Y320595D01*
X422974Y321120D01*
X423500Y321907D01*
X423585Y322335D01*
D02*
G37*
G36*
X420760D02*
X418935D01*
X419020Y321907D01*
X419546Y321120D01*
X420332Y320595D01*
X420760Y320510D01*
Y322335D01*
D02*
G37*
G36*
X352719D02*
X350894D01*
Y320510D01*
X351322Y320595D01*
X352108Y321120D01*
X352634Y321907D01*
X352719Y322335D01*
D02*
G37*
G36*
X349894D02*
X348069D01*
X348154Y321907D01*
X348679Y321120D01*
X349466Y320595D01*
X349894Y320510D01*
Y322335D01*
D02*
G37*
G36*
X305475D02*
X303650D01*
Y320510D01*
X304078Y320595D01*
X304864Y321120D01*
X305390Y321907D01*
X305475Y322335D01*
D02*
G37*
G36*
X302650D02*
X300825D01*
X300910Y321907D01*
X301435Y321120D01*
X302222Y320595D01*
X302650Y320510D01*
Y322335D01*
D02*
G37*
G36*
X297601D02*
X295776D01*
Y320510D01*
X296204Y320595D01*
X296990Y321120D01*
X297516Y321907D01*
X297601Y322335D01*
D02*
G37*
G36*
X294776D02*
X292951D01*
X293036Y321907D01*
X293561Y321120D01*
X294348Y320595D01*
X294776Y320510D01*
Y322335D01*
D02*
G37*
G36*
X384500Y320023D02*
X384002Y319924D01*
X384000Y319924D01*
X383072Y319740D01*
X382286Y319214D01*
X381760Y318428D01*
X381575Y317500D01*
X381760Y316572D01*
X382286Y315786D01*
X383072Y315260D01*
X384000Y315075D01*
X384470Y315169D01*
X391477Y308162D01*
Y298752D01*
X391260Y298428D01*
X391075Y297500D01*
X391260Y296572D01*
X391786Y295786D01*
X392572Y295260D01*
X393500Y295075D01*
X394428Y295260D01*
X395214Y295786D01*
X395740Y296572D01*
X395924Y297500D01*
X395740Y298428D01*
X395523Y298752D01*
Y305140D01*
X396023Y305306D01*
X396710Y304847D01*
X397138Y304762D01*
Y307087D01*
Y309412D01*
X396710Y309327D01*
X396023Y308868D01*
X395692Y308955D01*
X395508Y309079D01*
X395369Y309774D01*
X394931Y310431D01*
X385931Y319431D01*
X385274Y319869D01*
X384500Y320023D01*
D02*
G37*
G36*
X380464Y322500D02*
X377500D01*
Y319536D01*
X377914Y319590D01*
X378765Y319943D01*
X379496Y320504D01*
X380057Y321235D01*
X380410Y322086D01*
X380464Y322500D01*
D02*
G37*
G36*
X376500D02*
X373536D01*
X373590Y322086D01*
X373943Y321235D01*
X374504Y320504D01*
X375235Y319943D01*
X376086Y319590D01*
X376500Y319536D01*
Y322500D01*
D02*
G37*
G36*
X289980Y321511D02*
X286543D01*
Y317032D01*
X294894D01*
X294790Y317820D01*
X294293Y319021D01*
X293501Y320053D01*
X292470Y320844D01*
X291269Y321341D01*
X289980Y321511D01*
D02*
G37*
G36*
X281853Y322335D02*
X277203D01*
X277288Y321907D01*
X277813Y321120D01*
X278531Y320641D01*
X278662Y320111D01*
X278585Y320053D01*
X277794Y319021D01*
X277296Y317820D01*
X277192Y317032D01*
X285543D01*
Y321511D01*
X282106D01*
X282054Y321504D01*
X281781Y321973D01*
X281853Y322335D01*
D02*
G37*
G36*
X457193Y317286D02*
Y315461D01*
X459018D01*
X458933Y315889D01*
X458408Y316675D01*
X457621Y317201D01*
X457193Y317286D01*
D02*
G37*
G36*
X456193D02*
X455765Y317201D01*
X454979Y316675D01*
X454453Y315889D01*
X454368Y315461D01*
X456193D01*
Y317286D01*
D02*
G37*
G36*
X449319D02*
Y315461D01*
X451144D01*
X451059Y315889D01*
X450534Y316675D01*
X449747Y317201D01*
X449319Y317286D01*
D02*
G37*
G36*
X448319D02*
X447891Y317201D01*
X447105Y316675D01*
X446579Y315889D01*
X446494Y315461D01*
X448319D01*
Y317286D01*
D02*
G37*
G36*
X441445D02*
Y315461D01*
X443270D01*
X443185Y315889D01*
X442660Y316675D01*
X441873Y317201D01*
X441445Y317286D01*
D02*
G37*
G36*
X440445D02*
X440017Y317201D01*
X439231Y316675D01*
X438705Y315889D01*
X438620Y315461D01*
X440445D01*
Y317286D01*
D02*
G37*
G36*
X417823D02*
Y315461D01*
X419648D01*
X419563Y315889D01*
X419037Y316675D01*
X418251Y317201D01*
X417823Y317286D01*
D02*
G37*
G36*
X416823D02*
X416395Y317201D01*
X415609Y316675D01*
X415083Y315889D01*
X414998Y315461D01*
X416823D01*
Y317286D01*
D02*
G37*
G36*
X409949D02*
Y315461D01*
X411774D01*
X411689Y315889D01*
X411164Y316675D01*
X410377Y317201D01*
X409949Y317286D01*
D02*
G37*
G36*
X408949D02*
X408521Y317201D01*
X407735Y316675D01*
X407209Y315889D01*
X407124Y315461D01*
X408949D01*
Y317286D01*
D02*
G37*
G36*
X402075D02*
Y315461D01*
X403900D01*
X403815Y315889D01*
X403289Y316675D01*
X402503Y317201D01*
X402075Y317286D01*
D02*
G37*
G36*
X401075D02*
X400647Y317201D01*
X399861Y316675D01*
X399335Y315889D01*
X399250Y315461D01*
X401075D01*
Y317286D01*
D02*
G37*
G36*
X331209D02*
Y315461D01*
X333034D01*
X332949Y315889D01*
X332423Y316675D01*
X331637Y317201D01*
X331209Y317286D01*
D02*
G37*
G36*
X330209D02*
X329781Y317201D01*
X328994Y316675D01*
X328469Y315889D01*
X328384Y315461D01*
X330209D01*
Y317286D01*
D02*
G37*
G36*
X299713D02*
Y315461D01*
X301538D01*
X301453Y315889D01*
X300927Y316675D01*
X300141Y317201D01*
X299713Y317286D01*
D02*
G37*
G36*
X298713D02*
X298285Y317201D01*
X297498Y316675D01*
X296973Y315889D01*
X296888Y315461D01*
X298713D01*
Y317286D01*
D02*
G37*
G36*
X333034Y314461D02*
X331209D01*
Y312636D01*
X331637Y312721D01*
X332423Y313246D01*
X332949Y314033D01*
X333034Y314461D01*
D02*
G37*
G36*
X330209D02*
X328384D01*
X328469Y314033D01*
X328994Y313246D01*
X329781Y312721D01*
X330209Y312636D01*
Y314461D01*
D02*
G37*
G36*
X301538D02*
X299713D01*
Y312636D01*
X300141Y312721D01*
X300927Y313246D01*
X301453Y314033D01*
X301538Y314461D01*
D02*
G37*
G36*
X298713D02*
X296888D01*
X296973Y314033D01*
X297498Y313246D01*
X298285Y312721D01*
X298713Y312636D01*
Y314461D01*
D02*
G37*
G36*
X459018D02*
X457193D01*
Y312636D01*
X457621Y312721D01*
X458408Y313246D01*
X458933Y314033D01*
X459018Y314461D01*
D02*
G37*
G36*
X456193D02*
X454368D01*
X454453Y314033D01*
X454979Y313246D01*
X455765Y312721D01*
X456193Y312636D01*
Y314461D01*
D02*
G37*
G36*
X451144D02*
X449319D01*
Y312636D01*
X449747Y312721D01*
X450534Y313246D01*
X451059Y314033D01*
X451144Y314461D01*
D02*
G37*
G36*
X448319D02*
X446494D01*
X446579Y314033D01*
X447105Y313246D01*
X447891Y312721D01*
X448319Y312636D01*
Y314461D01*
D02*
G37*
G36*
X411774D02*
X409949D01*
Y312636D01*
X410377Y312721D01*
X411164Y313246D01*
X411689Y314033D01*
X411774Y314461D01*
D02*
G37*
G36*
X408949D02*
X407124D01*
X407209Y314033D01*
X407735Y313246D01*
X408521Y312721D01*
X408949Y312636D01*
Y314461D01*
D02*
G37*
G36*
X403900D02*
X402075D01*
Y312636D01*
X402503Y312721D01*
X403289Y313246D01*
X403815Y314033D01*
X403900Y314461D01*
D02*
G37*
G36*
X401075D02*
X399250D01*
X399335Y314033D01*
X399861Y313246D01*
X400647Y312721D01*
X401075Y312636D01*
Y314461D01*
D02*
G37*
G36*
X324953Y315669D02*
X321500D01*
Y312216D01*
X324953D01*
Y315669D01*
D02*
G37*
G36*
X320500D02*
X317047D01*
Y312216D01*
X320500D01*
Y315669D01*
D02*
G37*
G36*
X294894Y316032D02*
X286543D01*
Y311552D01*
X289980D01*
X291269Y311722D01*
X292470Y312219D01*
X293501Y313010D01*
X294293Y314042D01*
X294790Y315243D01*
X294894Y316032D01*
D02*
G37*
G36*
X285543D02*
X277192D01*
X277296Y315243D01*
X277794Y314042D01*
X278585Y313010D01*
X279616Y312219D01*
X280818Y311722D01*
X282106Y311552D01*
X285543D01*
Y316032D01*
D02*
G37*
G36*
X294811Y311762D02*
Y307780D01*
X299221D01*
X299134Y308440D01*
X298686Y309521D01*
X297973Y310450D01*
X297045Y311162D01*
X295964Y311610D01*
X294811Y311762D01*
D02*
G37*
G36*
X293811Y311762D02*
X292658Y311610D01*
X291577Y311162D01*
X290649Y310450D01*
X289936Y309521D01*
X289488Y308440D01*
X289402Y307780D01*
X293811D01*
Y311762D01*
D02*
G37*
G36*
X320500Y311216D02*
X317047D01*
Y307763D01*
X320500D01*
Y311216D01*
D02*
G37*
G36*
X311000Y315703D02*
X309968Y315567D01*
X309007Y315169D01*
X308181Y314535D01*
X307547Y313709D01*
X307149Y312748D01*
X307013Y311716D01*
X307149Y310684D01*
X307547Y309723D01*
X308181Y308897D01*
X309007Y308263D01*
X309968Y307865D01*
X311000Y307729D01*
X312032Y307865D01*
X312993Y308263D01*
X313819Y308897D01*
X314453Y309723D01*
X314851Y310684D01*
X314987Y311716D01*
X314851Y312748D01*
X314453Y313709D01*
X313819Y314535D01*
X312993Y315169D01*
X312032Y315567D01*
X311000Y315703D01*
D02*
G37*
G36*
X406012Y309412D02*
Y307587D01*
X407837D01*
X407752Y308015D01*
X407226Y308801D01*
X406440Y309327D01*
X406012Y309412D01*
D02*
G37*
G36*
X405012D02*
X404584Y309327D01*
X403798Y308801D01*
X403272Y308015D01*
X403187Y307587D01*
X405012D01*
Y309412D01*
D02*
G37*
G36*
X398138D02*
Y307587D01*
X399963D01*
X399878Y308015D01*
X399352Y308801D01*
X398566Y309327D01*
X398138Y309412D01*
D02*
G37*
G36*
X327272D02*
Y307587D01*
X329097D01*
X329012Y308015D01*
X328486Y308801D01*
X327700Y309327D01*
X327272Y309412D01*
D02*
G37*
G36*
X324953Y311216D02*
X321500D01*
Y307763D01*
X324088D01*
X324233Y307587D01*
X326272D01*
Y309412D01*
X325844Y309327D01*
X325453Y309065D01*
X324953Y309333D01*
Y311216D01*
D02*
G37*
G36*
X303650Y309412D02*
Y307587D01*
X305475D01*
X305390Y308015D01*
X304864Y308801D01*
X304078Y309327D01*
X303650Y309412D01*
D02*
G37*
G36*
X302650D02*
X302222Y309327D01*
X301435Y308801D01*
X300910Y308015D01*
X300825Y307587D01*
X302650D01*
Y309412D01*
D02*
G37*
G36*
X280028D02*
Y307587D01*
X281853D01*
X281768Y308015D01*
X281242Y308801D01*
X280455Y309327D01*
X280028Y309412D01*
D02*
G37*
G36*
X279028D02*
X278600Y309327D01*
X277813Y308801D01*
X277288Y308015D01*
X277203Y307587D01*
X279028D01*
Y309412D01*
D02*
G37*
G36*
X407837Y306587D02*
X406012D01*
Y304762D01*
X406440Y304847D01*
X407226Y305372D01*
X407752Y306159D01*
X407837Y306587D01*
D02*
G37*
G36*
X405012D02*
X403187D01*
X403272Y306159D01*
X403798Y305372D01*
X404584Y304847D01*
X405012Y304762D01*
Y306587D01*
D02*
G37*
G36*
X399963D02*
X398138D01*
Y304762D01*
X398566Y304847D01*
X399352Y305372D01*
X399878Y306159D01*
X399963Y306587D01*
D02*
G37*
G36*
X329097D02*
X327272D01*
Y304762D01*
X327700Y304847D01*
X328486Y305372D01*
X329012Y306159D01*
X329097Y306587D01*
D02*
G37*
G36*
X326272D02*
X324447D01*
X324532Y306159D01*
X325057Y305372D01*
X325844Y304847D01*
X326272Y304762D01*
Y306587D01*
D02*
G37*
G36*
X305475D02*
X303650D01*
Y304762D01*
X304078Y304847D01*
X304864Y305372D01*
X305390Y306159D01*
X305475Y306587D01*
D02*
G37*
G36*
X302650D02*
X300825D01*
X300910Y306159D01*
X301435Y305372D01*
X302222Y304847D01*
X302650Y304762D01*
Y306587D01*
D02*
G37*
G36*
X281853D02*
X280028D01*
Y304762D01*
X280455Y304847D01*
X281242Y305372D01*
X281768Y306159D01*
X281853Y306587D01*
D02*
G37*
G36*
X279028D02*
X277203D01*
X277288Y306159D01*
X277813Y305372D01*
X278600Y304847D01*
X279028Y304762D01*
Y306587D01*
D02*
G37*
G36*
X424697Y316138D02*
X423769Y315953D01*
X422983Y315428D01*
X422457Y314641D01*
X422272Y313713D01*
X422457Y312786D01*
X422477Y312756D01*
X422210Y312256D01*
X421913D01*
Y304744D01*
X427654D01*
Y312256D01*
X427138D01*
X426917Y312756D01*
X426937Y312786D01*
X427122Y313713D01*
X426937Y314641D01*
X426411Y315428D01*
X425625Y315953D01*
X424697Y316138D01*
D02*
G37*
G36*
X443270Y314461D02*
X438620D01*
X438705Y314033D01*
X439231Y313246D01*
X440017Y312721D01*
X440370Y312651D01*
X440422Y312131D01*
X440407Y312125D01*
X439540Y311459D01*
X438875Y310593D01*
X438457Y309583D01*
X438315Y308500D01*
X438457Y307417D01*
X438875Y306407D01*
X439540Y305540D01*
X440407Y304875D01*
X441417Y304457D01*
X442500Y304315D01*
X443583Y304457D01*
X444593Y304875D01*
X445460Y305540D01*
X446125Y306407D01*
X446543Y307417D01*
X446685Y308500D01*
X446543Y309583D01*
X446125Y310593D01*
X445460Y311459D01*
X444593Y312125D01*
X443583Y312543D01*
X442684Y312661D01*
X442560Y313180D01*
X442660Y313246D01*
X443185Y314033D01*
X443270Y314461D01*
D02*
G37*
G36*
X432500Y312685D02*
X431417Y312543D01*
X430407Y312125D01*
X429540Y311459D01*
X428875Y310593D01*
X428457Y309583D01*
X428315Y308500D01*
X428457Y307417D01*
X428875Y306407D01*
X429540Y305540D01*
X430407Y304875D01*
X431417Y304457D01*
X432500Y304315D01*
X433583Y304457D01*
X434593Y304875D01*
X435460Y305540D01*
X436125Y306407D01*
X436543Y307417D01*
X436685Y308500D01*
X436543Y309583D01*
X436125Y310593D01*
X435460Y311459D01*
X434593Y312125D01*
X433583Y312543D01*
X432500Y312685D01*
D02*
G37*
G36*
X299221Y306780D02*
X294811D01*
Y302797D01*
X295964Y302949D01*
X297045Y303397D01*
X297973Y304109D01*
X298686Y305038D01*
X299134Y306119D01*
X299221Y306780D01*
D02*
G37*
G36*
X293811D02*
X289402D01*
X289488Y306119D01*
X289936Y305038D01*
X290649Y304109D01*
X291577Y303397D01*
X292658Y302949D01*
X293811Y302797D01*
Y306780D01*
D02*
G37*
G36*
X344898Y309748D02*
X330102D01*
Y299284D01*
X344898D01*
Y302493D01*
X354574D01*
X354923Y302260D01*
X355850Y302076D01*
X356778Y302260D01*
X357565Y302786D01*
X358090Y303572D01*
X358275Y304500D01*
X358090Y305428D01*
X357565Y306214D01*
X356778Y306740D01*
X355850Y306925D01*
X354923Y306740D01*
X354622Y306539D01*
X344898D01*
Y309748D01*
D02*
G37*
G36*
X373161Y303947D02*
X372234Y303763D01*
X371447Y303237D01*
X370921Y302451D01*
X370737Y301523D01*
X370921Y300595D01*
X370967Y300528D01*
X370731Y300087D01*
X369917D01*
X369599Y300473D01*
X369704Y301000D01*
X369519Y301928D01*
X368994Y302714D01*
X368207Y303240D01*
X367280Y303425D01*
X366352Y303240D01*
X365565Y302714D01*
X365039Y301928D01*
X364855Y301000D01*
X364898Y300782D01*
X363139Y299022D01*
X362807Y298526D01*
X362691Y297941D01*
Y296937D01*
X361350D01*
Y292319D01*
X361350Y292181D01*
X361350D01*
Y291819D01*
X361350D01*
Y289941D01*
X367091D01*
Y290093D01*
X367552Y290285D01*
X368209Y289629D01*
Y283913D01*
X381232D01*
Y291425D01*
X370738D01*
X370050Y292113D01*
X370241Y292575D01*
X381232D01*
Y293030D01*
X382350D01*
Y292181D01*
X382350Y292181D01*
Y291819D01*
X382350D01*
X382350Y291681D01*
Y289941D01*
X385221D01*
Y289441D01*
X385720D01*
Y287063D01*
X388090D01*
Y289067D01*
X388531Y289302D01*
X388836Y289099D01*
X389264Y289014D01*
Y291339D01*
Y293664D01*
X388836Y293579D01*
X388531Y293375D01*
X388090Y293611D01*
Y296937D01*
X382350D01*
Y296088D01*
X381232D01*
Y300087D01*
X378230D01*
X375712Y302604D01*
X375216Y302936D01*
X375056Y302968D01*
X374876Y303237D01*
X374089Y303763D01*
X373161Y303947D01*
D02*
G37*
G36*
X286043Y305946D02*
X285166Y305831D01*
X284348Y305492D01*
X283645Y304953D01*
X283106Y304251D01*
X282768Y303433D01*
X282652Y302555D01*
X282768Y301677D01*
X283106Y300859D01*
X283645Y300157D01*
X284348Y299618D01*
X285166Y299279D01*
X286043Y299164D01*
X286921Y299279D01*
X287739Y299618D01*
X288441Y300157D01*
X288980Y300859D01*
X289319Y301677D01*
X289435Y302555D01*
X289319Y303433D01*
X288980Y304251D01*
X288441Y304953D01*
X287739Y305492D01*
X286921Y305831D01*
X286043Y305946D01*
D02*
G37*
G36*
X459018Y298713D02*
X457193D01*
Y296888D01*
X457621Y296973D01*
X458408Y297498D01*
X458933Y298285D01*
X459018Y298713D01*
D02*
G37*
G36*
X452500Y307745D02*
X451401Y307600D01*
X450378Y307176D01*
X449498Y306502D01*
X448824Y305623D01*
X448400Y304599D01*
X448255Y303500D01*
X448400Y302401D01*
X448824Y301378D01*
X449498Y300498D01*
X450378Y299824D01*
X451401Y299400D01*
X452500Y299255D01*
X453599Y299400D01*
X453893Y299521D01*
X454007Y299427D01*
X454283Y299142D01*
X454453Y298285D01*
X454979Y297498D01*
X455765Y296973D01*
X456193Y296888D01*
Y299213D01*
X456693D01*
Y299713D01*
X459018D01*
X458933Y300141D01*
X458408Y300927D01*
X457621Y301453D01*
X456815Y301613D01*
X456460Y302062D01*
X456600Y302401D01*
X456745Y303500D01*
X456600Y304599D01*
X456176Y305623D01*
X455502Y306502D01*
X454623Y307176D01*
X453599Y307600D01*
X452500Y307745D01*
D02*
G37*
G36*
X295295Y301424D02*
X293327D01*
X292295Y301288D01*
X291333Y300890D01*
X290508Y300256D01*
X289874Y299430D01*
X289476Y298469D01*
X289340Y297437D01*
X289476Y296405D01*
X289874Y295444D01*
X290508Y294618D01*
X291333Y293984D01*
X291849Y293771D01*
Y293229D01*
X291333Y293016D01*
X290508Y292382D01*
X290207Y291990D01*
X289672Y292114D01*
X289642Y292267D01*
X289116Y293053D01*
X288330Y293579D01*
X287902Y293664D01*
Y291339D01*
Y289014D01*
X288330Y289099D01*
X288851Y289447D01*
X289387Y289204D01*
X289476Y288531D01*
X289874Y287570D01*
X290508Y286744D01*
X291333Y286110D01*
X292295Y285712D01*
X293327Y285576D01*
X295295D01*
X296327Y285712D01*
X297289Y286110D01*
X298114Y286744D01*
X298748Y287570D01*
X299022Y288230D01*
X307701D01*
Y287579D01*
X313244D01*
Y291941D01*
X307701D01*
Y291289D01*
X298859D01*
X298748Y291556D01*
X298114Y292382D01*
X297289Y293016D01*
X296773Y293229D01*
Y293771D01*
X297289Y293984D01*
X298114Y294618D01*
X298748Y295444D01*
X298940Y295908D01*
X307701D01*
Y295059D01*
X313244D01*
Y299421D01*
X307701D01*
Y298966D01*
X298940D01*
X298748Y299430D01*
X298114Y300256D01*
X297289Y300890D01*
X296327Y301288D01*
X295295Y301424D01*
D02*
G37*
G36*
X454059Y296370D02*
Y294000D01*
X455937D01*
Y296370D01*
X454059D01*
D02*
G37*
G36*
X322299Y295681D02*
X320028D01*
Y294000D01*
X322299D01*
Y295681D01*
D02*
G37*
G36*
X319028D02*
X316756D01*
Y294000D01*
X319028D01*
Y295681D01*
D02*
G37*
G36*
X390264Y293664D02*
Y291839D01*
X392089D01*
X392004Y292267D01*
X391478Y293053D01*
X390692Y293579D01*
X390264Y293664D01*
D02*
G37*
G36*
X358768D02*
Y291839D01*
X360593D01*
X360508Y292267D01*
X359982Y293053D01*
X359196Y293579D01*
X358768Y293664D01*
D02*
G37*
G36*
X357768D02*
X357340Y293579D01*
X356554Y293053D01*
X356028Y292267D01*
X355943Y291839D01*
X357768D01*
Y293664D01*
D02*
G37*
G36*
X327272D02*
Y291839D01*
X329097D01*
X329012Y292267D01*
X328486Y293053D01*
X327700Y293579D01*
X327272Y293664D01*
D02*
G37*
G36*
X326272D02*
X325844Y293579D01*
X325057Y293053D01*
X324532Y292267D01*
X324447Y291839D01*
X326272D01*
Y293664D01*
D02*
G37*
G36*
X286902D02*
X286474Y293579D01*
X285687Y293053D01*
X285162Y292267D01*
X285077Y291839D01*
X286902D01*
Y293664D01*
D02*
G37*
G36*
X280028D02*
Y291839D01*
X281853D01*
X281768Y292267D01*
X281242Y293053D01*
X280455Y293579D01*
X280028Y293664D01*
D02*
G37*
G36*
X279028D02*
X278600Y293579D01*
X277813Y293053D01*
X277288Y292267D01*
X277203Y291839D01*
X279028D01*
Y293664D01*
D02*
G37*
G36*
X322299Y293000D02*
X320028D01*
Y291319D01*
X322299D01*
Y293000D01*
D02*
G37*
G36*
X319028D02*
X316756D01*
Y291319D01*
X319028D01*
Y293000D01*
D02*
G37*
G36*
X455937Y293000D02*
X454059D01*
Y290630D01*
X455937D01*
Y293000D01*
D02*
G37*
G36*
X329097Y290839D02*
X327272D01*
Y289014D01*
X327700Y289099D01*
X328486Y289624D01*
X329012Y290411D01*
X329097Y290839D01*
D02*
G37*
G36*
X326272D02*
X324447D01*
X324532Y290411D01*
X325057Y289624D01*
X325844Y289099D01*
X326272Y289014D01*
Y290839D01*
D02*
G37*
G36*
X286902D02*
X285077D01*
X285162Y290411D01*
X285687Y289624D01*
X286474Y289099D01*
X286902Y289014D01*
Y290839D01*
D02*
G37*
G36*
X281853D02*
X280028D01*
Y289014D01*
X280455Y289099D01*
X281242Y289624D01*
X281768Y290411D01*
X281853Y290839D01*
D02*
G37*
G36*
X279028D02*
X277203D01*
X277288Y290411D01*
X277813Y289624D01*
X278600Y289099D01*
X279028Y289014D01*
Y290839D01*
D02*
G37*
G36*
X392089D02*
X390264D01*
Y289014D01*
X390692Y289099D01*
X391478Y289624D01*
X392004Y290411D01*
X392089Y290839D01*
D02*
G37*
G36*
X384720Y288941D02*
X382350D01*
Y287063D01*
X384720D01*
Y288941D01*
D02*
G37*
G36*
X367091D02*
X364721D01*
Y287063D01*
X367091D01*
Y288941D01*
D02*
G37*
G36*
X363720D02*
X361350D01*
Y287063D01*
X363720D01*
Y288941D01*
D02*
G37*
G36*
X422500Y300637D02*
X421108Y300500D01*
X419769Y300094D01*
X418535Y299434D01*
X417454Y298546D01*
X416566Y297465D01*
X415906Y296231D01*
X415500Y294892D01*
X415363Y293500D01*
X415500Y292108D01*
X415906Y290769D01*
X416566Y289535D01*
X417454Y288454D01*
X418535Y287566D01*
X419769Y286907D01*
X421108Y286500D01*
X422500Y286363D01*
X423892Y286500D01*
X425231Y286907D01*
X426465Y287566D01*
X427546Y288454D01*
X428434Y289535D01*
X429094Y290769D01*
X429500Y292108D01*
X429637Y293500D01*
X429500Y294892D01*
X429094Y296231D01*
X428434Y297465D01*
X427546Y298546D01*
X426465Y299434D01*
X425231Y300094D01*
X423892Y300500D01*
X422500Y300637D01*
D02*
G37*
G36*
X432500Y291990D02*
X431597Y291872D01*
X430755Y291523D01*
X430032Y290968D01*
X429477Y290245D01*
X429128Y289403D01*
X429009Y288500D01*
X429083Y287944D01*
X423353Y282214D01*
X423341Y282197D01*
X421913D01*
Y274685D01*
X427654D01*
Y280792D01*
X431944Y285083D01*
X432500Y285010D01*
X433403Y285128D01*
X434245Y285477D01*
X434968Y286032D01*
X435523Y286755D01*
X435872Y287597D01*
X435990Y288500D01*
X435872Y289403D01*
X435523Y290245D01*
X434968Y290968D01*
X434245Y291523D01*
X433403Y291872D01*
X432500Y291990D01*
D02*
G37*
G36*
X322335Y285790D02*
X321907Y285705D01*
X321120Y285179D01*
X320595Y284392D01*
X320510Y283965D01*
X322335D01*
Y285790D01*
D02*
G37*
G36*
X353559Y291029D02*
X339000D01*
X338415Y290913D01*
X337919Y290581D01*
X336919Y289581D01*
X336587Y289085D01*
X336471Y288500D01*
Y286717D01*
X334531D01*
Y276252D01*
X340469D01*
Y286717D01*
X339529D01*
Y287866D01*
X339633Y287971D01*
X352715D01*
X353130Y287555D01*
Y284819D01*
X353130Y284681D01*
Y284319D01*
X353130Y284181D01*
Y282441D01*
X358870D01*
Y284181D01*
X358870Y284319D01*
Y284681D01*
X358870Y284819D01*
Y289034D01*
X359196Y289099D01*
X359982Y289624D01*
X360508Y290411D01*
X360593Y290839D01*
X355943D01*
X356028Y290411D01*
X356215Y290131D01*
X355971Y289631D01*
X355628Y289593D01*
X354641Y290581D01*
X354144Y290913D01*
X353559Y291029D01*
D02*
G37*
G36*
X349524Y286717D02*
X347055D01*
Y281984D01*
X349524D01*
Y286717D01*
D02*
G37*
G36*
X346055D02*
X343587D01*
Y281984D01*
X346055D01*
Y286717D01*
D02*
G37*
G36*
X286043Y287836D02*
X285166Y287720D01*
X284348Y287382D01*
X283645Y286843D01*
X283106Y286140D01*
X282768Y285323D01*
X282652Y284445D01*
X282768Y283567D01*
X283106Y282749D01*
X283645Y282047D01*
X284348Y281508D01*
X285166Y281169D01*
X286043Y281054D01*
X286921Y281169D01*
X287739Y281508D01*
X288441Y282047D01*
X288980Y282749D01*
X289319Y283567D01*
X289435Y284445D01*
X289319Y285323D01*
X288980Y286140D01*
X288441Y286843D01*
X287739Y287382D01*
X286921Y287720D01*
X286043Y287836D01*
D02*
G37*
G36*
X358870Y281441D02*
X356500D01*
Y279563D01*
X358870D01*
Y281441D01*
D02*
G37*
G36*
X355500D02*
X353130D01*
Y279563D01*
X355500D01*
Y281441D01*
D02*
G37*
G36*
X349524Y280984D02*
X347055D01*
Y276252D01*
X349524D01*
Y280984D01*
D02*
G37*
G36*
X346055D02*
X343587D01*
Y276252D01*
X346055D01*
Y280984D01*
D02*
G37*
G36*
X419648Y314461D02*
X414998D01*
X415083Y314033D01*
X415609Y313246D01*
X415945Y313022D01*
X416056Y312346D01*
X415987Y312256D01*
X414630D01*
Y310523D01*
X414083D01*
X413309Y310369D01*
X412653Y309931D01*
X411069Y308347D01*
X410631Y307691D01*
X410477Y306917D01*
Y280464D01*
X410413D01*
X409639Y280310D01*
X408983Y279872D01*
X408411Y279299D01*
X406319D01*
Y273756D01*
X410681D01*
Y275848D01*
X411251Y276418D01*
X414630D01*
Y274685D01*
X420370D01*
Y282197D01*
X414630D01*
X414523Y282653D01*
Y304288D01*
X414630Y304744D01*
X420370D01*
Y312256D01*
X418659D01*
X418590Y312346D01*
X418701Y313022D01*
X419037Y313246D01*
X419563Y314033D01*
X419648Y314461D01*
D02*
G37*
G36*
X432500Y282685D02*
X431417Y282543D01*
X430407Y282125D01*
X429540Y281459D01*
X428875Y280593D01*
X428457Y279583D01*
X428315Y278500D01*
X428457Y277417D01*
X428875Y276407D01*
X429540Y275540D01*
X430407Y274875D01*
X431417Y274457D01*
X432500Y274315D01*
X433583Y274457D01*
X434593Y274875D01*
X435460Y275540D01*
X436125Y276407D01*
X436543Y277417D01*
X436685Y278500D01*
X436543Y279583D01*
X436125Y280593D01*
X435460Y281459D01*
X434593Y282125D01*
X433583Y282543D01*
X432500Y282685D01*
D02*
G37*
G36*
X321223Y275091D02*
X319398D01*
Y273266D01*
X319826Y273351D01*
X320612Y273876D01*
X321138Y274663D01*
X321223Y275091D01*
D02*
G37*
G36*
X318398D02*
X316573D01*
X316658Y274663D01*
X317183Y273876D01*
X317970Y273351D01*
X318398Y273266D01*
Y275091D01*
D02*
G37*
G36*
X305475D02*
X303650D01*
Y273266D01*
X304078Y273351D01*
X304864Y273876D01*
X305390Y274663D01*
X305475Y275091D01*
D02*
G37*
G36*
X302650D02*
X300825D01*
X300910Y274663D01*
X301435Y273876D01*
X302222Y273351D01*
X302650Y273266D01*
Y275091D01*
D02*
G37*
G36*
X340559Y274370D02*
Y272000D01*
X342437D01*
Y274370D01*
X340559D01*
D02*
G37*
G36*
X351382D02*
X349504D01*
Y272000D01*
X351382D01*
Y274370D01*
D02*
G37*
G36*
X289980Y275448D02*
X286543D01*
Y270969D01*
X294894D01*
X294790Y271757D01*
X294293Y272958D01*
X293501Y273990D01*
X292470Y274781D01*
X291269Y275278D01*
X289980Y275448D01*
D02*
G37*
G36*
X285543D02*
X282106D01*
X280818Y275278D01*
X279616Y274781D01*
X278585Y273990D01*
X277794Y272958D01*
X277296Y271757D01*
X277192Y270969D01*
X285543D01*
Y275448D01*
D02*
G37*
G36*
X342437Y271000D02*
X340559D01*
Y268630D01*
X342437D01*
Y271000D01*
D02*
G37*
G36*
X351382Y271000D02*
X349504D01*
Y268630D01*
X351382D01*
Y271000D01*
D02*
G37*
G36*
X457193Y270042D02*
Y268217D01*
X459018D01*
X458933Y268644D01*
X458408Y269431D01*
X457621Y269957D01*
X457193Y270042D01*
D02*
G37*
G36*
X456193D02*
X455765Y269957D01*
X454979Y269431D01*
X454453Y268644D01*
X454368Y268217D01*
X456193D01*
Y270042D01*
D02*
G37*
G36*
X441445D02*
Y268217D01*
X443270D01*
X443185Y268644D01*
X442660Y269431D01*
X441873Y269957D01*
X441445Y270042D01*
D02*
G37*
G36*
X440445D02*
X440017Y269957D01*
X439231Y269431D01*
X438705Y268644D01*
X438620Y268217D01*
X440445D01*
Y270042D01*
D02*
G37*
G36*
X433571D02*
Y268217D01*
X435396D01*
X435311Y268644D01*
X434786Y269431D01*
X433999Y269957D01*
X433571Y270042D01*
D02*
G37*
G36*
X432571D02*
X432143Y269957D01*
X431357Y269431D01*
X430831Y268644D01*
X430746Y268217D01*
X432571D01*
Y270042D01*
D02*
G37*
G36*
X425697D02*
Y268217D01*
X427522D01*
X427437Y268644D01*
X426911Y269431D01*
X426125Y269957D01*
X425697Y270042D01*
D02*
G37*
G36*
X424697D02*
X424269Y269957D01*
X423483Y269431D01*
X422957Y268644D01*
X422872Y268217D01*
X424697D01*
Y270042D01*
D02*
G37*
G36*
X417823D02*
Y268217D01*
X419648D01*
X419563Y268644D01*
X419037Y269431D01*
X418251Y269957D01*
X417823Y270042D01*
D02*
G37*
G36*
X323335D02*
Y268217D01*
X325160D01*
X325075Y268644D01*
X324549Y269431D01*
X323763Y269957D01*
X323335Y270042D01*
D02*
G37*
G36*
X322335D02*
X321907Y269957D01*
X321120Y269431D01*
X320595Y268644D01*
X320510Y268217D01*
X322335D01*
Y270042D01*
D02*
G37*
G36*
X315461D02*
Y268217D01*
X317286D01*
X317201Y268644D01*
X316675Y269431D01*
X315889Y269957D01*
X315461Y270042D01*
D02*
G37*
G36*
X314461D02*
X314033Y269957D01*
X313246Y269431D01*
X312721Y268644D01*
X312636Y268217D01*
X314461D01*
Y270042D01*
D02*
G37*
G36*
X299713D02*
Y268217D01*
X301538D01*
X301453Y268644D01*
X300927Y269431D01*
X300141Y269957D01*
X299713Y270042D01*
D02*
G37*
G36*
X298713D02*
X298285Y269957D01*
X297498Y269431D01*
X296973Y268644D01*
X296888Y268217D01*
X298713D01*
Y270042D01*
D02*
G37*
G36*
X342437Y267870D02*
X340559D01*
Y265500D01*
X342437D01*
Y267870D01*
D02*
G37*
G36*
X294894Y269969D02*
X286543D01*
Y265489D01*
X289980D01*
X291269Y265659D01*
X292470Y266156D01*
X293501Y266947D01*
X294293Y267979D01*
X294790Y269180D01*
X294894Y269969D01*
D02*
G37*
G36*
X285543D02*
X277192D01*
X277296Y269180D01*
X277794Y267979D01*
X278585Y266947D01*
X279616Y266156D01*
X280818Y265659D01*
X282106Y265489D01*
X285543D01*
Y269969D01*
D02*
G37*
G36*
X459018Y267217D02*
X457193D01*
Y265392D01*
X457621Y265477D01*
X458408Y266002D01*
X458933Y266789D01*
X459018Y267217D01*
D02*
G37*
G36*
X456193D02*
X454368D01*
X454453Y266789D01*
X454979Y266002D01*
X455765Y265477D01*
X456193Y265392D01*
Y267217D01*
D02*
G37*
G36*
X443270D02*
X441445D01*
Y265392D01*
X441873Y265477D01*
X442660Y266002D01*
X443185Y266789D01*
X443270Y267217D01*
D02*
G37*
G36*
X440445D02*
X438620D01*
X438705Y266789D01*
X439231Y266002D01*
X440017Y265477D01*
X440445Y265392D01*
Y267217D01*
D02*
G37*
G36*
X435396D02*
X433571D01*
Y265392D01*
X433999Y265477D01*
X434786Y266002D01*
X435311Y266789D01*
X435396Y267217D01*
D02*
G37*
G36*
X432571D02*
X430746D01*
X430831Y266789D01*
X431357Y266002D01*
X432143Y265477D01*
X432571Y265392D01*
Y267217D01*
D02*
G37*
G36*
X427522D02*
X425697D01*
Y265392D01*
X426125Y265477D01*
X426911Y266002D01*
X427437Y266789D01*
X427522Y267217D01*
D02*
G37*
G36*
X424697D02*
X422872D01*
X422957Y266789D01*
X423483Y266002D01*
X424269Y265477D01*
X424697Y265392D01*
Y267217D01*
D02*
G37*
G36*
X419648D02*
X417823D01*
Y265392D01*
X418251Y265477D01*
X419037Y266002D01*
X419563Y266789D01*
X419648Y267217D01*
D02*
G37*
G36*
X330209D02*
X328384D01*
X328469Y266789D01*
X328994Y266002D01*
X329781Y265477D01*
X330209Y265392D01*
Y267217D01*
D02*
G37*
G36*
X325160D02*
X323335D01*
Y265392D01*
X323763Y265477D01*
X324549Y266002D01*
X325075Y266789D01*
X325160Y267217D01*
D02*
G37*
G36*
X322335D02*
X320510D01*
X320595Y266789D01*
X321120Y266002D01*
X321907Y265477D01*
X322335Y265392D01*
Y267217D01*
D02*
G37*
G36*
X317286D02*
X315461D01*
Y265392D01*
X315889Y265477D01*
X316675Y266002D01*
X317201Y266789D01*
X317286Y267217D01*
D02*
G37*
G36*
X314461D02*
X312636D01*
X312721Y266789D01*
X313246Y266002D01*
X314033Y265477D01*
X314461Y265392D01*
Y267217D01*
D02*
G37*
G36*
X301538D02*
X299713D01*
Y265392D01*
X300141Y265477D01*
X300927Y266002D01*
X301453Y266789D01*
X301538Y267217D01*
D02*
G37*
G36*
X298713D02*
X296888D01*
X296973Y266789D01*
X297498Y266002D01*
X298285Y265477D01*
X298713Y265392D01*
Y267217D01*
D02*
G37*
G36*
X397000Y266941D02*
X394630D01*
Y265063D01*
X397000D01*
Y266941D01*
D02*
G37*
%LPD*%
D14*
X397500Y272559D02*
X403441D01*
X404500Y271500D01*
X411000D01*
X412240Y270260D01*
Y267472D02*
Y270260D01*
D15*
X383336Y269010D02*
X385640D01*
X389189Y272559D01*
X397500D01*
X374630Y301523D02*
X378846Y297307D01*
X377870Y296331D02*
X378846Y297307D01*
X373161Y301523D02*
X374630D01*
X294311Y289563D02*
X294508Y289760D01*
X310472D01*
X401500Y267462D02*
X401510Y267472D01*
X404760D01*
X357000Y262500D02*
Y275870D01*
X364220Y297941D02*
X367280Y301000D01*
X364220Y294559D02*
Y297941D01*
X367500Y292500D02*
X371571Y288429D01*
X366280Y292500D02*
X367500D01*
X371571Y287669D02*
Y288429D01*
X379642Y294559D02*
X385221D01*
X377870Y296331D02*
X379642Y294559D01*
X364220D02*
X366280Y292500D01*
X337500Y281484D02*
X338000Y281984D01*
Y288500D01*
X339000Y289500D01*
X353559D01*
X356000Y287059D01*
X326681Y279720D02*
X328445Y281484D01*
X310276Y297437D02*
X310472Y297240D01*
X294311Y297437D02*
X310276D01*
D16*
X397500Y272559D02*
D03*
Y267441D02*
D03*
X356000Y287059D02*
D03*
Y281941D02*
D03*
X385221Y294559D02*
D03*
Y289441D02*
D03*
X364220Y294559D02*
D03*
Y289441D02*
D03*
D17*
X351882Y271500D02*
D03*
X357000D02*
D03*
X448441Y293500D02*
D03*
X453559D02*
D03*
X334941Y271500D02*
D03*
X340059D02*
D03*
X334941Y265000D02*
D03*
X340059D02*
D03*
D37*
X424697Y313713D02*
X424784Y313627D01*
Y308500D02*
Y313627D01*
X424500Y308784D02*
X424784Y308500D01*
X384500Y318000D02*
X393500Y309000D01*
X357000Y262500D02*
X443159D01*
X357000Y261785D02*
Y262500D01*
X443159D02*
X450000Y269340D01*
X414083Y308500D02*
X417500D01*
X412500Y306917D02*
X414083Y308500D01*
X412500Y278441D02*
Y306917D01*
Y278441D02*
X417500D01*
X410413D02*
X412500D01*
X408500Y276528D02*
X410413Y278441D01*
X424784Y280784D02*
X432500Y288500D01*
X424784Y278441D02*
Y280784D01*
X442500Y298500D02*
X446000D01*
X432500D02*
X442500D01*
X432000D02*
X432500D01*
X446000D02*
X448441Y296059D01*
Y293500D02*
Y296059D01*
X450000Y269340D02*
Y278441D01*
X447500Y280941D02*
X450000Y278441D01*
X447500Y280941D02*
Y287000D01*
X448441Y287941D02*
Y293500D01*
X447500Y287000D02*
X448441Y287941D01*
X384000Y317500D02*
X384500Y318000D01*
X393500Y297500D02*
Y309000D01*
X355715Y260500D02*
X357000Y261785D01*
X336000Y260500D02*
X355715D01*
X334941Y261559D02*
X336000Y260500D01*
X334941Y261559D02*
Y265000D01*
X355835Y304516D02*
X355850Y304500D01*
X337500Y304516D02*
X355835D01*
X294311Y279720D02*
X315000D01*
X326681D01*
X331000Y271500D02*
X334941D01*
X328445Y274055D02*
X331000Y271500D01*
X328445Y274055D02*
Y281484D01*
X334941Y265000D02*
Y271500D01*
D39*
X311000Y311716D02*
D03*
D40*
X321000D02*
D03*
D41*
X432500Y308500D02*
D03*
Y278500D02*
D03*
X442500D02*
D03*
Y308500D02*
D03*
D42*
X432500Y298500D02*
D03*
Y288500D02*
D03*
X442500Y298500D02*
D03*
Y288500D02*
D03*
D43*
X422500Y293500D02*
D03*
D44*
X294311Y307279D02*
D03*
Y279720D02*
D03*
D45*
Y297437D02*
D03*
Y289563D02*
D03*
D46*
X286043Y270468D02*
D03*
Y316531D02*
D03*
D47*
X424697Y313713D02*
D03*
X383336Y269010D02*
D03*
X373161Y301523D02*
D03*
X456693Y314961D02*
D03*
Y299213D02*
D03*
Y267717D02*
D03*
X452756Y322835D02*
D03*
X448819Y314961D02*
D03*
X444882Y322835D02*
D03*
X440945Y314961D02*
D03*
Y267717D02*
D03*
X437008Y322835D02*
D03*
X433071Y267717D02*
D03*
X429134Y322835D02*
D03*
X425197Y267717D02*
D03*
X421260Y322835D02*
D03*
X417323Y314961D02*
D03*
Y267717D02*
D03*
X409449Y314961D02*
D03*
X401575D02*
D03*
X405512Y307087D02*
D03*
X397638D02*
D03*
X389764Y291339D02*
D03*
X358268D02*
D03*
X350394Y322835D02*
D03*
X330709Y314961D02*
D03*
Y267717D02*
D03*
X326772Y307087D02*
D03*
Y291339D02*
D03*
X322835Y283465D02*
D03*
Y267717D02*
D03*
X318898Y275591D02*
D03*
X314961Y267717D02*
D03*
X303150Y322835D02*
D03*
X299213Y314961D02*
D03*
X303150Y307087D02*
D03*
Y275591D02*
D03*
X299213Y267717D02*
D03*
X295276Y322835D02*
D03*
X287402Y291339D02*
D03*
X279528Y322835D02*
D03*
Y307087D02*
D03*
Y291339D02*
D03*
X401500Y267462D02*
D03*
X384000Y317500D02*
D03*
X393500Y297500D02*
D03*
X355850Y304500D02*
D03*
X357000Y275870D02*
D03*
X315000Y279720D02*
D03*
X367280Y301000D02*
D03*
D48*
X377000Y323000D02*
D03*
D49*
X424784Y308500D02*
D03*
X417500D02*
D03*
X424784Y278441D02*
D03*
X417500D02*
D03*
D50*
X408500Y276528D02*
D03*
X404760Y267472D02*
D03*
X412240D02*
D03*
D51*
X319528Y293500D02*
D03*
X310472Y297240D02*
D03*
Y289760D02*
D03*
D52*
X377870Y287669D02*
D03*
X371571D02*
D03*
X377870Y296331D02*
D03*
X371571D02*
D03*
D53*
X337500Y304516D02*
D03*
D54*
X328445Y281484D02*
D03*
X337500D02*
D03*
X346555D02*
D03*
M02*
