G04*
G04 #@! TF.GenerationSoftware,Altium Limited,Altium Designer,18.1.11 (251)*
G04*
G04 Layer_Physical_Order=2*
G04 Layer_Color=16711680*
%FSLAX25Y25*%
%MOIN*%
G70*
G01*
G75*
%ADD13C,0.01181*%
%ADD15C,0.01000*%
%ADD16R,0.02756X0.03740*%
%ADD17R,0.03740X0.02756*%
%ADD37C,0.01968*%
%ADD38C,0.04921*%
%ADD39C,0.06000*%
%ADD40C,0.06299*%
%ADD41O,0.07874X0.06890*%
%ADD42O,0.07874X0.05906*%
%ADD43O,0.15748X0.07874*%
%ADD44R,0.05906X0.05906*%
%ADD45C,0.05906*%
%ADD46C,0.02756*%
%ADD47C,0.05000*%
%ADD48R,0.03740X0.05512*%
%ADD49R,0.02362X0.03543*%
%ADD50R,0.03543X0.02362*%
%ADD51R,0.04724X0.05512*%
%ADD52R,0.12795X0.08465*%
%ADD53R,0.03937X0.08465*%
G36*
X460583Y324947D02*
X460083Y324898D01*
X460028Y325174D01*
X459917Y325731D01*
X459391Y326518D01*
X458605Y327043D01*
X458177Y327128D01*
Y324803D01*
Y322478D01*
X458605Y322563D01*
X459391Y323089D01*
X459917Y323875D01*
X460028Y324432D01*
X460083Y324708D01*
X460583Y324659D01*
Y313136D01*
X460083Y313087D01*
X460028Y313363D01*
X459917Y313920D01*
X459391Y314706D01*
X458605Y315232D01*
X458177Y315317D01*
Y312992D01*
Y310667D01*
X458605Y310752D01*
X459391Y311278D01*
X459917Y312064D01*
X460028Y312621D01*
X460083Y312897D01*
X460583Y312848D01*
Y301325D01*
X460083Y301276D01*
X460028Y301552D01*
X459917Y302109D01*
X459391Y302895D01*
X458605Y303421D01*
X458177Y303506D01*
Y301181D01*
Y298856D01*
X458605Y298941D01*
X459391Y299467D01*
X459917Y300253D01*
X460028Y300810D01*
X460083Y301086D01*
X460583Y301037D01*
Y289514D01*
X460083Y289465D01*
X459917Y290298D01*
X459391Y291084D01*
X458605Y291610D01*
X458177Y291695D01*
Y289370D01*
Y287045D01*
X458605Y287130D01*
X459391Y287656D01*
X459917Y288442D01*
X460083Y289275D01*
X460583Y289226D01*
Y277703D01*
X460083Y277654D01*
X460028Y277930D01*
X459917Y278487D01*
X459391Y279273D01*
X458605Y279799D01*
X458177Y279884D01*
Y277559D01*
Y275234D01*
X458605Y275319D01*
X459391Y275845D01*
X459917Y276631D01*
X460028Y277188D01*
X460083Y277464D01*
X460583Y277415D01*
Y265892D01*
X460083Y265843D01*
X460028Y266119D01*
X459917Y266676D01*
X459391Y267462D01*
X458605Y267988D01*
X458177Y268073D01*
Y265748D01*
Y263423D01*
X458605Y263508D01*
X459391Y264034D01*
X459917Y264820D01*
X460028Y265377D01*
X460083Y265653D01*
X460583Y265604D01*
Y259000D01*
X357783D01*
X357576Y259500D01*
X358431Y260354D01*
X358512Y260477D01*
X443159D01*
X443934Y260631D01*
X444590Y261069D01*
X448909Y265388D01*
X449451Y265224D01*
X449532Y264820D01*
X450057Y264034D01*
X450844Y263508D01*
X451271Y263423D01*
Y265748D01*
X451771D01*
Y266248D01*
X454097D01*
X454011Y266676D01*
X453486Y267462D01*
X452699Y267988D01*
X452156Y268096D01*
X451869Y268566D01*
X452023Y269340D01*
Y270291D01*
X452121Y270370D01*
X452790Y270269D01*
X453010Y269939D01*
X453796Y269413D01*
X454224Y269328D01*
Y271654D01*
Y273978D01*
X453796Y273893D01*
X453010Y273368D01*
X452790Y273038D01*
X452121Y272937D01*
X452023Y273016D01*
Y278441D01*
X451947Y278823D01*
X452367Y279273D01*
X452500Y279255D01*
X453599Y279400D01*
X454623Y279824D01*
X455502Y280498D01*
X456176Y281378D01*
X456600Y282401D01*
X456745Y283500D01*
X456600Y284599D01*
X456176Y285623D01*
X455502Y286502D01*
X454623Y287176D01*
X453599Y287600D01*
X452500Y287745D01*
X451401Y287600D01*
X450862Y287377D01*
X450423Y287737D01*
X450464Y287941D01*
Y290276D01*
X450818Y290630D01*
X451181D01*
X451319Y290630D01*
X453059D01*
Y293500D01*
Y296370D01*
X451319D01*
X451181Y296370D01*
X450819D01*
X450681Y296370D01*
X450402D01*
X450310Y296833D01*
X449871Y297490D01*
X447431Y299931D01*
X446774Y300369D01*
X446000Y300523D01*
X445310D01*
X444968Y300968D01*
X444245Y301523D01*
X443403Y301871D01*
X442500Y301991D01*
X441597Y301871D01*
X440755Y301523D01*
X440032Y300968D01*
X439690Y300523D01*
X435310D01*
X434968Y300968D01*
X434245Y301523D01*
X433403Y301871D01*
X432500Y301991D01*
X431597Y301871D01*
X430755Y301523D01*
X430032Y300968D01*
X429477Y300245D01*
X429128Y299403D01*
X429009Y298500D01*
X429128Y297597D01*
X429477Y296755D01*
X430032Y296032D01*
X430755Y295477D01*
X431597Y295128D01*
X432500Y295009D01*
X433403Y295128D01*
X434245Y295477D01*
X434968Y296032D01*
X435310Y296477D01*
X439690D01*
X440032Y296032D01*
X440755Y295477D01*
X441597Y295128D01*
X442500Y295009D01*
X443403Y295128D01*
X444245Y295477D01*
X444968Y296032D01*
X445015Y296093D01*
X445514Y296125D01*
X446063Y295576D01*
Y290630D01*
X446418D01*
Y289085D01*
X445918Y289052D01*
X445872Y289403D01*
X445523Y290245D01*
X444968Y290968D01*
X444245Y291523D01*
X443403Y291872D01*
X442500Y291990D01*
X441597Y291872D01*
X440755Y291523D01*
X440032Y290968D01*
X439477Y290245D01*
X439128Y289403D01*
X439010Y288500D01*
X439128Y287597D01*
X439477Y286755D01*
X440032Y286032D01*
X440755Y285477D01*
X441597Y285128D01*
X442500Y285010D01*
X443403Y285128D01*
X444245Y285477D01*
X444968Y286032D01*
X445003Y286078D01*
X445477Y285917D01*
Y282077D01*
X444977Y281830D01*
X444593Y282125D01*
X443583Y282543D01*
X442500Y282685D01*
X441417Y282543D01*
X440407Y282125D01*
X439540Y281459D01*
X438875Y280593D01*
X438457Y279583D01*
X438315Y278500D01*
X438457Y277417D01*
X438875Y276407D01*
X439540Y275540D01*
X440407Y274875D01*
X441417Y274457D01*
X441849Y274400D01*
X441973Y273926D01*
X441966Y273881D01*
X441199Y273368D01*
X440673Y272581D01*
X440588Y272153D01*
X445238D01*
X445153Y272581D01*
X444628Y273368D01*
X443841Y273893D01*
X443559Y273950D01*
X443575Y274456D01*
X443583Y274457D01*
X444593Y274875D01*
X445460Y275540D01*
X446125Y276407D01*
X446543Y277417D01*
X446649Y278224D01*
X447177Y278403D01*
X447977Y277603D01*
Y270179D01*
X442321Y264523D01*
X414848D01*
X414421Y264701D01*
X414421Y265023D01*
Y270244D01*
X413862D01*
Y270260D01*
X413738Y270880D01*
X413387Y271407D01*
X412147Y272647D01*
X411621Y272998D01*
X411000Y273122D01*
X405172D01*
X404588Y273706D01*
X404062Y274057D01*
X403441Y274181D01*
X400370D01*
Y274937D01*
X399878D01*
X399726Y275437D01*
X400336Y275845D01*
X400862Y276631D01*
X400947Y277059D01*
X396297D01*
X396382Y276631D01*
X396907Y275845D01*
X397517Y275437D01*
X397366Y274937D01*
X394630D01*
Y274088D01*
X389189D01*
X388604Y273972D01*
X388107Y273640D01*
X386218Y271751D01*
X386000Y271795D01*
X385072Y271610D01*
X384286Y271084D01*
X383760Y270298D01*
X383576Y269370D01*
X383760Y268442D01*
X384286Y267656D01*
X385072Y267130D01*
X386000Y266946D01*
X386928Y267130D01*
X387714Y267656D01*
X388240Y268442D01*
X388424Y269370D01*
X388381Y269588D01*
X389823Y271030D01*
X394630D01*
Y270319D01*
X394630Y270181D01*
Y269819D01*
X394630Y269681D01*
Y267941D01*
X400370D01*
Y269681D01*
X400370Y269819D01*
Y270181D01*
X400370Y270319D01*
Y270937D01*
X402502D01*
X402646Y270744D01*
X402579Y270244D01*
X402579D01*
Y267972D01*
X404760D01*
Y266972D01*
X402579D01*
Y265023D01*
X402579Y264701D01*
X402152Y264523D01*
X358529D01*
Y274032D01*
X358714Y274156D01*
X359240Y274942D01*
X359424Y275870D01*
X359240Y276798D01*
X358714Y277585D01*
X357928Y278110D01*
X357000Y278295D01*
X356072Y278110D01*
X355286Y277585D01*
X354760Y276798D01*
X354575Y275870D01*
X354760Y274942D01*
X355286Y274156D01*
X355471Y274032D01*
Y263783D01*
X355131Y263274D01*
X355007Y262653D01*
X354877Y262523D01*
X342437D01*
Y264500D01*
X340059D01*
Y265000D01*
X339559D01*
Y267870D01*
X337681D01*
Y267870D01*
X337464D01*
X337347Y267952D01*
X337290Y268602D01*
X337318Y268630D01*
X337681D01*
X337819Y268630D01*
X339559D01*
Y271500D01*
Y274370D01*
X337819D01*
X337681Y274370D01*
X337319D01*
X337181Y274370D01*
X332563D01*
Y273523D01*
X331838D01*
X330468Y274893D01*
Y276252D01*
X331413D01*
Y286717D01*
X325476D01*
Y281744D01*
X316252D01*
X315928Y281960D01*
X315000Y282145D01*
X314072Y281960D01*
X313748Y281744D01*
X306650D01*
X306560Y281962D01*
X305847Y282891D01*
X304919Y283603D01*
X303837Y284051D01*
X302677Y284204D01*
X301693D01*
X300533Y284051D01*
X299451Y283603D01*
X298523Y282891D01*
X297810Y281962D01*
X297362Y280881D01*
X297210Y279720D01*
X297362Y278560D01*
X297810Y277479D01*
X298523Y276550D01*
X299451Y275838D01*
X300533Y275390D01*
X301693Y275237D01*
X302677D01*
X303837Y275390D01*
X304919Y275838D01*
X305847Y276550D01*
X306560Y277479D01*
X306650Y277697D01*
X313748D01*
X314072Y277481D01*
X315000Y277296D01*
X315928Y277481D01*
X316252Y277697D01*
X325476D01*
Y276252D01*
X326422D01*
Y274055D01*
X326576Y273281D01*
X327014Y272625D01*
X329569Y270069D01*
X330226Y269631D01*
X331000Y269477D01*
X332563D01*
Y268630D01*
X332918D01*
Y267870D01*
X332563D01*
Y262130D01*
X332918D01*
Y261559D01*
X333072Y260785D01*
X333510Y260128D01*
X334139Y259500D01*
X333932Y259000D01*
X283417D01*
Y328000D01*
X460583D01*
Y324947D01*
D02*
G37*
%LPC*%
G36*
X457177Y327128D02*
X456749Y327043D01*
X455963Y326518D01*
X455437Y325731D01*
X455352Y325303D01*
X457177D01*
Y327128D01*
D02*
G37*
G36*
X452272D02*
Y325303D01*
X454097D01*
X454011Y325731D01*
X453486Y326518D01*
X452699Y327043D01*
X452272Y327128D01*
D02*
G37*
G36*
X451271D02*
X450844Y327043D01*
X450057Y326518D01*
X449532Y325731D01*
X449446Y325303D01*
X451271D01*
Y327128D01*
D02*
G37*
G36*
X446366D02*
Y325303D01*
X448191D01*
X448106Y325731D01*
X447580Y326518D01*
X446794Y327043D01*
X446366Y327128D01*
D02*
G37*
G36*
X445366D02*
X444938Y327043D01*
X444152Y326518D01*
X443626Y325731D01*
X443541Y325303D01*
X445366D01*
Y327128D01*
D02*
G37*
G36*
X440460D02*
Y325303D01*
X442286D01*
X442201Y325731D01*
X441675Y326518D01*
X440888Y327043D01*
X440460Y327128D01*
D02*
G37*
G36*
X439461D02*
X439033Y327043D01*
X438246Y326518D01*
X437720Y325731D01*
X437635Y325303D01*
X439461D01*
Y327128D01*
D02*
G37*
G36*
X434555D02*
Y325303D01*
X436380D01*
X436295Y325731D01*
X435769Y326518D01*
X434983Y327043D01*
X434555Y327128D01*
D02*
G37*
G36*
X433555D02*
X433127Y327043D01*
X432341Y326518D01*
X431815Y325731D01*
X431730Y325303D01*
X433555D01*
Y327128D01*
D02*
G37*
G36*
X428650D02*
Y325303D01*
X430475D01*
X430389Y325731D01*
X429864Y326518D01*
X429077Y327043D01*
X428650Y327128D01*
D02*
G37*
G36*
X427649D02*
X427222Y327043D01*
X426435Y326518D01*
X425910Y325731D01*
X425824Y325303D01*
X427649D01*
Y327128D01*
D02*
G37*
G36*
X422744D02*
Y325303D01*
X424569D01*
X424484Y325731D01*
X423958Y326518D01*
X423172Y327043D01*
X422744Y327128D01*
D02*
G37*
G36*
X421744D02*
X421316Y327043D01*
X420530Y326518D01*
X420004Y325731D01*
X419919Y325303D01*
X421744D01*
Y327128D01*
D02*
G37*
G36*
X416839D02*
Y325303D01*
X418664D01*
X418578Y325731D01*
X418053Y326518D01*
X417266Y327043D01*
X416839Y327128D01*
D02*
G37*
G36*
X415838D02*
X415411Y327043D01*
X414624Y326518D01*
X414099Y325731D01*
X414013Y325303D01*
X415838D01*
Y327128D01*
D02*
G37*
G36*
X410933D02*
Y325303D01*
X412758D01*
X412673Y325731D01*
X412147Y326518D01*
X411361Y327043D01*
X410933Y327128D01*
D02*
G37*
G36*
X409933D02*
X409505Y327043D01*
X408718Y326518D01*
X408193Y325731D01*
X408108Y325303D01*
X409933D01*
Y327128D01*
D02*
G37*
G36*
X405027D02*
Y325303D01*
X406852D01*
X406767Y325731D01*
X406242Y326518D01*
X405455Y327043D01*
X405027Y327128D01*
D02*
G37*
G36*
X404027D02*
X403600Y327043D01*
X402813Y326518D01*
X402287Y325731D01*
X402202Y325303D01*
X404027D01*
Y327128D01*
D02*
G37*
G36*
X345972D02*
Y325303D01*
X347797D01*
X347712Y325731D01*
X347187Y326518D01*
X346400Y327043D01*
X345972Y327128D01*
D02*
G37*
G36*
X344972D02*
X344545Y327043D01*
X343758Y326518D01*
X343232Y325731D01*
X343147Y325303D01*
X344972D01*
Y327128D01*
D02*
G37*
G36*
X340067D02*
Y325303D01*
X341892D01*
X341807Y325731D01*
X341281Y326518D01*
X340495Y327043D01*
X340067Y327128D01*
D02*
G37*
G36*
X339067D02*
X338639Y327043D01*
X337852Y326518D01*
X337327Y325731D01*
X337242Y325303D01*
X339067D01*
Y327128D01*
D02*
G37*
G36*
X334161D02*
Y325303D01*
X335986D01*
X335901Y325731D01*
X335376Y326518D01*
X334589Y327043D01*
X334161Y327128D01*
D02*
G37*
G36*
X333161D02*
X332733Y327043D01*
X331947Y326518D01*
X331421Y325731D01*
X331336Y325303D01*
X333161D01*
Y327128D01*
D02*
G37*
G36*
X304634D02*
Y325303D01*
X306459D01*
X306374Y325731D01*
X305848Y326518D01*
X305062Y327043D01*
X304634Y327128D01*
D02*
G37*
G36*
X303634D02*
X303206Y327043D01*
X302419Y326518D01*
X301894Y325731D01*
X301809Y325303D01*
X303634D01*
Y327128D01*
D02*
G37*
G36*
X298728D02*
Y325303D01*
X300553D01*
X300468Y325731D01*
X299943Y326518D01*
X299156Y327043D01*
X298728Y327128D01*
D02*
G37*
G36*
X297728D02*
X297300Y327043D01*
X296514Y326518D01*
X295988Y325731D01*
X295903Y325303D01*
X297728D01*
Y327128D01*
D02*
G37*
G36*
X292823D02*
Y325303D01*
X294648D01*
X294563Y325731D01*
X294037Y326518D01*
X293251Y327043D01*
X292823Y327128D01*
D02*
G37*
G36*
X291823D02*
X291395Y327043D01*
X290608Y326518D01*
X290083Y325731D01*
X289998Y325303D01*
X291823D01*
Y327128D01*
D02*
G37*
G36*
X286917D02*
Y325303D01*
X288742D01*
X288657Y325731D01*
X288132Y326518D01*
X287345Y327043D01*
X286917Y327128D01*
D02*
G37*
G36*
X285917D02*
X285489Y327043D01*
X284703Y326518D01*
X284177Y325731D01*
X284092Y325303D01*
X285917D01*
Y327128D01*
D02*
G37*
G36*
X377500Y326464D02*
Y323500D01*
X380464D01*
X380410Y323914D01*
X380057Y324765D01*
X379496Y325496D01*
X378765Y326057D01*
X377914Y326410D01*
X377500Y326464D01*
D02*
G37*
G36*
X376500D02*
X376086Y326410D01*
X375235Y326057D01*
X374504Y325496D01*
X373943Y324765D01*
X373590Y323914D01*
X373536Y323500D01*
X376500D01*
Y326464D01*
D02*
G37*
G36*
X317453Y325953D02*
X314000D01*
Y322500D01*
X317453D01*
Y325953D01*
D02*
G37*
G36*
X313000D02*
X309547D01*
Y322500D01*
X313000D01*
Y325953D01*
D02*
G37*
G36*
X335986Y324303D02*
X334161D01*
Y322478D01*
X334589Y322563D01*
X335376Y323089D01*
X335901Y323875D01*
X335986Y324303D01*
D02*
G37*
G36*
X333161D02*
X331336D01*
X331421Y323875D01*
X331947Y323089D01*
X332733Y322563D01*
X333161Y322478D01*
Y324303D01*
D02*
G37*
G36*
X306459D02*
X304634D01*
Y322478D01*
X305062Y322563D01*
X305848Y323089D01*
X306374Y323875D01*
X306459Y324303D01*
D02*
G37*
G36*
X303634D02*
X301809D01*
X301894Y323875D01*
X302419Y323089D01*
X303206Y322563D01*
X303634Y322478D01*
Y324303D01*
D02*
G37*
G36*
X300553D02*
X298728D01*
Y322478D01*
X299156Y322563D01*
X299943Y323089D01*
X300468Y323875D01*
X300553Y324303D01*
D02*
G37*
G36*
X297728D02*
X295903D01*
X295988Y323875D01*
X296514Y323089D01*
X297300Y322563D01*
X297728Y322478D01*
Y324303D01*
D02*
G37*
G36*
X294648D02*
X292823D01*
Y322478D01*
X293251Y322563D01*
X294037Y323089D01*
X294563Y323875D01*
X294648Y324303D01*
D02*
G37*
G36*
X291823D02*
X289998D01*
X290083Y323875D01*
X290608Y323089D01*
X291395Y322563D01*
X291823Y322478D01*
Y324303D01*
D02*
G37*
G36*
X288742D02*
X286917D01*
Y322478D01*
X287345Y322563D01*
X288132Y323089D01*
X288657Y323875D01*
X288742Y324303D01*
D02*
G37*
G36*
X285917D02*
X284092D01*
X284177Y323875D01*
X284703Y323089D01*
X285489Y322563D01*
X285917Y322478D01*
Y324303D01*
D02*
G37*
G36*
X457177D02*
X455352D01*
X455437Y323875D01*
X455963Y323089D01*
X456749Y322563D01*
X457177Y322478D01*
Y324303D01*
D02*
G37*
G36*
X454097D02*
X452272D01*
Y322478D01*
X452699Y322563D01*
X453486Y323089D01*
X454011Y323875D01*
X454097Y324303D01*
D02*
G37*
G36*
X451271D02*
X449446D01*
X449532Y323875D01*
X450057Y323089D01*
X450844Y322563D01*
X451271Y322478D01*
Y324303D01*
D02*
G37*
G36*
X448191D02*
X446366D01*
Y322478D01*
X446794Y322563D01*
X447580Y323089D01*
X448106Y323875D01*
X448191Y324303D01*
D02*
G37*
G36*
X445366D02*
X443541D01*
X443626Y323875D01*
X444152Y323089D01*
X444938Y322563D01*
X445366Y322478D01*
Y324303D01*
D02*
G37*
G36*
X442286D02*
X440460D01*
Y322478D01*
X440888Y322563D01*
X441675Y323089D01*
X442201Y323875D01*
X442286Y324303D01*
D02*
G37*
G36*
X439461D02*
X437635D01*
X437720Y323875D01*
X438246Y323089D01*
X439033Y322563D01*
X439461Y322478D01*
Y324303D01*
D02*
G37*
G36*
X436380D02*
X434555D01*
Y322478D01*
X434983Y322563D01*
X435769Y323089D01*
X436295Y323875D01*
X436380Y324303D01*
D02*
G37*
G36*
X433555D02*
X431730D01*
X431815Y323875D01*
X432341Y323089D01*
X433127Y322563D01*
X433555Y322478D01*
Y324303D01*
D02*
G37*
G36*
X430475D02*
X428650D01*
Y322478D01*
X429077Y322563D01*
X429864Y323089D01*
X430389Y323875D01*
X430475Y324303D01*
D02*
G37*
G36*
X427649D02*
X425824D01*
X425910Y323875D01*
X426435Y323089D01*
X427222Y322563D01*
X427649Y322478D01*
Y324303D01*
D02*
G37*
G36*
X424569D02*
X422744D01*
Y322478D01*
X423172Y322563D01*
X423958Y323089D01*
X424484Y323875D01*
X424569Y324303D01*
D02*
G37*
G36*
X421744D02*
X419919D01*
X420004Y323875D01*
X420530Y323089D01*
X421316Y322563D01*
X421744Y322478D01*
Y324303D01*
D02*
G37*
G36*
X418664D02*
X416839D01*
Y322478D01*
X417266Y322563D01*
X418053Y323089D01*
X418578Y323875D01*
X418664Y324303D01*
D02*
G37*
G36*
X415838D02*
X414013D01*
X414099Y323875D01*
X414624Y323089D01*
X415411Y322563D01*
X415838Y322478D01*
Y324303D01*
D02*
G37*
G36*
X412758D02*
X410933D01*
Y322478D01*
X411361Y322563D01*
X412147Y323089D01*
X412673Y323875D01*
X412758Y324303D01*
D02*
G37*
G36*
X409933D02*
X408108D01*
X408193Y323875D01*
X408718Y323089D01*
X409505Y322563D01*
X409933Y322478D01*
Y324303D01*
D02*
G37*
G36*
X406852D02*
X405027D01*
Y322478D01*
X405455Y322563D01*
X406242Y323089D01*
X406767Y323875D01*
X406852Y324303D01*
D02*
G37*
G36*
X404027D02*
X402202D01*
X402287Y323875D01*
X402813Y323089D01*
X403600Y322563D01*
X404027Y322478D01*
Y324303D01*
D02*
G37*
G36*
X347797D02*
X345972D01*
Y322478D01*
X346400Y322563D01*
X347187Y323089D01*
X347712Y323875D01*
X347797Y324303D01*
D02*
G37*
G36*
X344972D02*
X343147D01*
X343232Y323875D01*
X343758Y323089D01*
X344545Y322563D01*
X344972Y322478D01*
Y324303D01*
D02*
G37*
G36*
X341892D02*
X340067D01*
Y322478D01*
X340495Y322563D01*
X341281Y323089D01*
X341807Y323875D01*
X341892Y324303D01*
D02*
G37*
G36*
X339067D02*
X337242D01*
X337327Y323875D01*
X337852Y323089D01*
X338639Y322563D01*
X339067Y322478D01*
Y324303D01*
D02*
G37*
G36*
X313000Y321500D02*
X309547D01*
Y320395D01*
X309047Y320243D01*
X308801Y320612D01*
X308014Y321137D01*
X307587Y321223D01*
Y318898D01*
Y316572D01*
X308014Y316658D01*
X308801Y317183D01*
X309174Y317741D01*
X309483Y317995D01*
X309813Y318047D01*
X313000D01*
Y321500D01*
D02*
G37*
G36*
X384500Y320023D02*
X384002Y319924D01*
X384000Y319924D01*
X383072Y319740D01*
X382286Y319214D01*
X381760Y318428D01*
X381575Y317500D01*
X381760Y316572D01*
X382286Y315786D01*
X383072Y315260D01*
X384000Y315075D01*
X384470Y315169D01*
X391477Y308162D01*
Y298752D01*
X391260Y298428D01*
X391075Y297500D01*
X391260Y296572D01*
X391786Y295786D01*
X392572Y295260D01*
X393500Y295075D01*
X394428Y295260D01*
X395214Y295786D01*
X395740Y296572D01*
X395924Y297500D01*
X395740Y298428D01*
X395523Y298752D01*
Y309000D01*
X395369Y309774D01*
X394931Y310431D01*
X385931Y319431D01*
X385274Y319869D01*
X384500Y320023D01*
D02*
G37*
G36*
X380464Y322500D02*
X377500D01*
Y319536D01*
X377914Y319590D01*
X378765Y319943D01*
X379496Y320504D01*
X380057Y321235D01*
X380410Y322086D01*
X380464Y322500D01*
D02*
G37*
G36*
X376500D02*
X373536D01*
X373590Y322086D01*
X373943Y321235D01*
X374504Y320504D01*
X375235Y319943D01*
X376086Y319590D01*
X376500Y319536D01*
Y322500D01*
D02*
G37*
G36*
X455224Y321223D02*
Y319397D01*
X457049D01*
X456964Y319825D01*
X456439Y320612D01*
X455652Y321137D01*
X455224Y321223D01*
D02*
G37*
G36*
X454224D02*
X453796Y321137D01*
X453010Y320612D01*
X452484Y319825D01*
X452399Y319397D01*
X454224D01*
Y321223D01*
D02*
G37*
G36*
X449319D02*
Y319397D01*
X451144D01*
X451059Y319825D01*
X450533Y320612D01*
X449747Y321137D01*
X449319Y321223D01*
D02*
G37*
G36*
X448319D02*
X447891Y321137D01*
X447104Y320612D01*
X446579Y319825D01*
X446494Y319397D01*
X448319D01*
Y321223D01*
D02*
G37*
G36*
X443413D02*
Y319397D01*
X445238D01*
X445153Y319825D01*
X444628Y320612D01*
X443841Y321137D01*
X443413Y321223D01*
D02*
G37*
G36*
X442413D02*
X441985Y321137D01*
X441199Y320612D01*
X440673Y319825D01*
X440588Y319397D01*
X442413D01*
Y321223D01*
D02*
G37*
G36*
X437508D02*
Y319397D01*
X439333D01*
X439248Y319825D01*
X438722Y320612D01*
X437936Y321137D01*
X437508Y321223D01*
D02*
G37*
G36*
X436508D02*
X436080Y321137D01*
X435293Y320612D01*
X434768Y319825D01*
X434683Y319397D01*
X436508D01*
Y321223D01*
D02*
G37*
G36*
X431602D02*
Y319397D01*
X433427D01*
X433342Y319825D01*
X432817Y320612D01*
X432030Y321137D01*
X431602Y321223D01*
D02*
G37*
G36*
X430602D02*
X430174Y321137D01*
X429388Y320612D01*
X428862Y319825D01*
X428777Y319397D01*
X430602D01*
Y321223D01*
D02*
G37*
G36*
X425697D02*
Y319397D01*
X427522D01*
X427437Y319825D01*
X426911Y320612D01*
X426124Y321137D01*
X425697Y321223D01*
D02*
G37*
G36*
X424697D02*
X424269Y321137D01*
X423482Y320612D01*
X422957Y319825D01*
X422872Y319397D01*
X424697D01*
Y321223D01*
D02*
G37*
G36*
X419791D02*
Y319397D01*
X421616D01*
X421531Y319825D01*
X421006Y320612D01*
X420219Y321137D01*
X419791Y321223D01*
D02*
G37*
G36*
X418791D02*
X418363Y321137D01*
X417577Y320612D01*
X417051Y319825D01*
X416966Y319397D01*
X418791D01*
Y321223D01*
D02*
G37*
G36*
X413886D02*
Y319397D01*
X415711D01*
X415626Y319825D01*
X415100Y320612D01*
X414314Y321137D01*
X413886Y321223D01*
D02*
G37*
G36*
X412886D02*
X412458Y321137D01*
X411671Y320612D01*
X411146Y319825D01*
X411061Y319397D01*
X412886D01*
Y321223D01*
D02*
G37*
G36*
X407980D02*
Y319397D01*
X409805D01*
X409720Y319825D01*
X409195Y320612D01*
X408408Y321137D01*
X407980Y321223D01*
D02*
G37*
G36*
X406980D02*
X406552Y321137D01*
X405766Y320612D01*
X405240Y319825D01*
X405155Y319397D01*
X406980D01*
Y321223D01*
D02*
G37*
G36*
X348925D02*
Y319397D01*
X350750D01*
X350665Y319825D01*
X350139Y320612D01*
X349353Y321137D01*
X348925Y321223D01*
D02*
G37*
G36*
X347925D02*
X347497Y321137D01*
X346711Y320612D01*
X346185Y319825D01*
X346100Y319397D01*
X347925D01*
Y321223D01*
D02*
G37*
G36*
X306587D02*
X306159Y321137D01*
X305372Y320612D01*
X304847Y319825D01*
X304761Y319397D01*
X306587D01*
Y321223D01*
D02*
G37*
G36*
X323500Y325987D02*
X322468Y325851D01*
X321507Y325453D01*
X320681Y324819D01*
X320047Y323993D01*
X319649Y323032D01*
X319513Y322000D01*
X319565Y321604D01*
X319397Y321446D01*
Y318898D01*
Y316572D01*
X319825Y316658D01*
X320612Y317183D01*
X321137Y317970D01*
X321186Y318214D01*
X321743Y318449D01*
X322468Y318149D01*
X323500Y318013D01*
X324532Y318149D01*
X325493Y318547D01*
X326319Y319181D01*
X326953Y320007D01*
X327351Y320968D01*
X327487Y322000D01*
X327351Y323032D01*
X326953Y323993D01*
X326319Y324819D01*
X325493Y325453D01*
X324532Y325851D01*
X323500Y325987D01*
D02*
G37*
G36*
X297854Y321511D02*
X294417D01*
Y317032D01*
X302768D01*
X302664Y317820D01*
X302167Y319021D01*
X301375Y320053D01*
X300344Y320844D01*
X299143Y321341D01*
X297854Y321511D01*
D02*
G37*
G36*
X293417D02*
X289980D01*
X288691Y321341D01*
X287491Y320844D01*
X286459Y320053D01*
X285668Y319021D01*
X285170Y317820D01*
X285067Y317032D01*
X293417D01*
Y321511D01*
D02*
G37*
G36*
X317453Y321500D02*
X314000D01*
Y318047D01*
X316642D01*
X316658Y317970D01*
X317183Y317183D01*
X317970Y316658D01*
X318397Y316572D01*
Y318898D01*
Y321223D01*
X317970Y321137D01*
X317894Y321087D01*
X317453Y321322D01*
Y321500D01*
D02*
G37*
G36*
X306587Y318397D02*
X304761D01*
X304847Y317970D01*
X305372Y317183D01*
X306159Y316658D01*
X306587Y316572D01*
Y318397D01*
D02*
G37*
G36*
X457049D02*
X455224D01*
Y316572D01*
X455652Y316658D01*
X456439Y317183D01*
X456964Y317970D01*
X457049Y318397D01*
D02*
G37*
G36*
X454224D02*
X452399D01*
X452484Y317970D01*
X453010Y317183D01*
X453796Y316658D01*
X454224Y316572D01*
Y318397D01*
D02*
G37*
G36*
X451144D02*
X449319D01*
Y316572D01*
X449747Y316658D01*
X450533Y317183D01*
X451059Y317970D01*
X451144Y318397D01*
D02*
G37*
G36*
X448319D02*
X446494D01*
X446579Y317970D01*
X447104Y317183D01*
X447891Y316658D01*
X448319Y316572D01*
Y318397D01*
D02*
G37*
G36*
X445238D02*
X443413D01*
Y316572D01*
X443841Y316658D01*
X444628Y317183D01*
X445153Y317970D01*
X445238Y318397D01*
D02*
G37*
G36*
X442413D02*
X440588D01*
X440673Y317970D01*
X441199Y317183D01*
X441985Y316658D01*
X442413Y316572D01*
Y318397D01*
D02*
G37*
G36*
X439333D02*
X437508D01*
Y316572D01*
X437936Y316658D01*
X438722Y317183D01*
X439248Y317970D01*
X439333Y318397D01*
D02*
G37*
G36*
X436508D02*
X434683D01*
X434768Y317970D01*
X435293Y317183D01*
X436080Y316658D01*
X436508Y316572D01*
Y318397D01*
D02*
G37*
G36*
X433427D02*
X431602D01*
Y316572D01*
X432030Y316658D01*
X432817Y317183D01*
X433342Y317970D01*
X433427Y318397D01*
D02*
G37*
G36*
X430602D02*
X428777D01*
X428862Y317970D01*
X429388Y317183D01*
X430174Y316658D01*
X430602Y316572D01*
Y318397D01*
D02*
G37*
G36*
X427522D02*
X425697D01*
Y316572D01*
X426124Y316658D01*
X426911Y317183D01*
X427437Y317970D01*
X427522Y318397D01*
D02*
G37*
G36*
X424697D02*
X422872D01*
X422957Y317970D01*
X423482Y317183D01*
X424269Y316658D01*
X424697Y316572D01*
Y318397D01*
D02*
G37*
G36*
X421616D02*
X419791D01*
Y316572D01*
X420219Y316658D01*
X421006Y317183D01*
X421531Y317970D01*
X421616Y318397D01*
D02*
G37*
G36*
X418791D02*
X416966D01*
X417051Y317970D01*
X417577Y317183D01*
X418363Y316658D01*
X418791Y316572D01*
Y318397D01*
D02*
G37*
G36*
X415711D02*
X413886D01*
Y316572D01*
X414314Y316658D01*
X415100Y317183D01*
X415626Y317970D01*
X415711Y318397D01*
D02*
G37*
G36*
X412886D02*
X411061D01*
X411146Y317970D01*
X411671Y317183D01*
X412458Y316658D01*
X412886Y316572D01*
Y318397D01*
D02*
G37*
G36*
X409805D02*
X407980D01*
Y316572D01*
X408408Y316658D01*
X409195Y317183D01*
X409720Y317970D01*
X409805Y318397D01*
D02*
G37*
G36*
X406980D02*
X405155D01*
X405240Y317970D01*
X405766Y317183D01*
X406552Y316658D01*
X406980Y316572D01*
Y318397D01*
D02*
G37*
G36*
X350750D02*
X348925D01*
Y316572D01*
X349353Y316658D01*
X350139Y317183D01*
X350665Y317970D01*
X350750Y318397D01*
D02*
G37*
G36*
X347925D02*
X346100D01*
X346185Y317970D01*
X346711Y317183D01*
X347497Y316658D01*
X347925Y316572D01*
Y318397D01*
D02*
G37*
G36*
X457177Y315317D02*
X456749Y315232D01*
X455963Y314706D01*
X455437Y313920D01*
X455352Y313492D01*
X457177D01*
Y315317D01*
D02*
G37*
G36*
X452272D02*
Y313492D01*
X454097D01*
X454011Y313920D01*
X453486Y314706D01*
X452699Y315232D01*
X452272Y315317D01*
D02*
G37*
G36*
X451271D02*
X450844Y315232D01*
X450057Y314706D01*
X449532Y313920D01*
X449446Y313492D01*
X451271D01*
Y315317D01*
D02*
G37*
G36*
X446366D02*
Y313492D01*
X448191D01*
X448106Y313920D01*
X447580Y314706D01*
X446794Y315232D01*
X446366Y315317D01*
D02*
G37*
G36*
X428650D02*
Y313492D01*
X430475D01*
X430389Y313920D01*
X429864Y314706D01*
X429077Y315232D01*
X428650Y315317D01*
D02*
G37*
G36*
X427649D02*
X427222Y315232D01*
X426435Y314706D01*
X425910Y313920D01*
X425824Y313492D01*
X427649D01*
Y315317D01*
D02*
G37*
G36*
X422744D02*
Y313492D01*
X424569D01*
X424484Y313920D01*
X423958Y314706D01*
X423172Y315232D01*
X422744Y315317D01*
D02*
G37*
G36*
X421744D02*
X421316Y315232D01*
X420530Y314706D01*
X420004Y313920D01*
X419919Y313492D01*
X421744D01*
Y315317D01*
D02*
G37*
G36*
X416839D02*
Y313492D01*
X418664D01*
X418578Y313920D01*
X418053Y314706D01*
X417266Y315232D01*
X416839Y315317D01*
D02*
G37*
G36*
X415838D02*
X415411Y315232D01*
X414624Y314706D01*
X414099Y313920D01*
X414013Y313492D01*
X415838D01*
Y315317D01*
D02*
G37*
G36*
X410933D02*
Y313492D01*
X412758D01*
X412673Y313920D01*
X412147Y314706D01*
X411361Y315232D01*
X410933Y315317D01*
D02*
G37*
G36*
X409933D02*
X409505Y315232D01*
X408718Y314706D01*
X408193Y313920D01*
X408108Y313492D01*
X409933D01*
Y315317D01*
D02*
G37*
G36*
X405027D02*
Y313492D01*
X406852D01*
X406767Y313920D01*
X406242Y314706D01*
X405455Y315232D01*
X405027Y315317D01*
D02*
G37*
G36*
X404027D02*
X403600Y315232D01*
X402813Y314706D01*
X402287Y313920D01*
X402202Y313492D01*
X404027D01*
Y315317D01*
D02*
G37*
G36*
X399122D02*
Y313492D01*
X400947D01*
X400862Y313920D01*
X400336Y314706D01*
X399550Y315232D01*
X399122Y315317D01*
D02*
G37*
G36*
X398122D02*
X397694Y315232D01*
X396907Y314706D01*
X396382Y313920D01*
X396297Y313492D01*
X398122D01*
Y315317D01*
D02*
G37*
G36*
X357783D02*
Y313492D01*
X359608D01*
X359523Y313920D01*
X358998Y314706D01*
X358211Y315232D01*
X357783Y315317D01*
D02*
G37*
G36*
X356783D02*
X356356Y315232D01*
X355569Y314706D01*
X355043Y313920D01*
X354958Y313492D01*
X356783D01*
Y315317D01*
D02*
G37*
G36*
X328256D02*
Y313492D01*
X330081D01*
X329996Y313920D01*
X329470Y314706D01*
X328684Y315232D01*
X328256Y315317D01*
D02*
G37*
G36*
X327256D02*
X326828Y315232D01*
X326041Y314706D01*
X325516Y313920D01*
X325431Y313492D01*
X327256D01*
Y315317D01*
D02*
G37*
G36*
X322350D02*
Y313492D01*
X324175D01*
X324090Y313920D01*
X323565Y314706D01*
X322778Y315232D01*
X322350Y315317D01*
D02*
G37*
G36*
X321350D02*
X320922Y315232D01*
X320136Y314706D01*
X319610Y313920D01*
X319525Y313492D01*
X321350D01*
Y315317D01*
D02*
G37*
G36*
X316445D02*
Y313492D01*
X318270D01*
X318185Y313920D01*
X317659Y314706D01*
X316873Y315232D01*
X316445Y315317D01*
D02*
G37*
G36*
X315445D02*
X315017Y315232D01*
X314230Y314706D01*
X313705Y313920D01*
X313620Y313492D01*
X315445D01*
Y315317D01*
D02*
G37*
G36*
X310539D02*
Y313492D01*
X312364D01*
X312279Y313920D01*
X311754Y314706D01*
X310967Y315232D01*
X310539Y315317D01*
D02*
G37*
G36*
X309539D02*
X309111Y315232D01*
X308325Y314706D01*
X307799Y313920D01*
X307714Y313492D01*
X309539D01*
Y315317D01*
D02*
G37*
G36*
X304634D02*
Y313492D01*
X306459D01*
X306374Y313920D01*
X305848Y314706D01*
X305062Y315232D01*
X304634Y315317D01*
D02*
G37*
G36*
X445366D02*
X444938Y315232D01*
X444152Y314706D01*
X443626Y313920D01*
X443441Y312992D01*
X443446Y312971D01*
X443104Y312606D01*
X442500Y312685D01*
X441417Y312543D01*
X440407Y312125D01*
X439540Y311459D01*
X438875Y310593D01*
X438457Y309583D01*
X438315Y308500D01*
X438457Y307417D01*
X438875Y306407D01*
X439540Y305540D01*
X440407Y304875D01*
X441417Y304457D01*
X442500Y304315D01*
X443583Y304457D01*
X444593Y304875D01*
X445460Y305540D01*
X446125Y306407D01*
X446543Y307417D01*
X446685Y308500D01*
X446543Y309583D01*
X446310Y310146D01*
X446615Y310716D01*
X446794Y310752D01*
X447580Y311278D01*
X448106Y312064D01*
X448191Y312492D01*
X445866D01*
Y312992D01*
X445366D01*
Y315317D01*
D02*
G37*
G36*
X432500Y312685D02*
X431417Y312543D01*
X430957Y312352D01*
X430786Y312492D01*
X428650D01*
Y310227D01*
X428699Y310167D01*
X428457Y309583D01*
X428315Y308500D01*
X428457Y307417D01*
X428875Y306407D01*
X429540Y305540D01*
X430407Y304875D01*
X431417Y304457D01*
X432500Y304315D01*
X433583Y304457D01*
X434593Y304875D01*
X435460Y305540D01*
X436125Y306407D01*
X436543Y307417D01*
X436685Y308500D01*
X436543Y309583D01*
X436125Y310593D01*
X435460Y311459D01*
X434593Y312125D01*
X433583Y312543D01*
X432500Y312685D01*
D02*
G37*
G36*
X293417Y316032D02*
X285067D01*
X285170Y315243D01*
X285668Y314042D01*
X286459Y313010D01*
X287491Y312219D01*
X288691Y311722D01*
X289980Y311552D01*
X293417D01*
Y316032D01*
D02*
G37*
G36*
X457177Y312492D02*
X455352D01*
X455437Y312064D01*
X455963Y311278D01*
X456749Y310752D01*
X457177Y310667D01*
Y312492D01*
D02*
G37*
G36*
X454097D02*
X452272D01*
Y310667D01*
X452699Y310752D01*
X453486Y311278D01*
X454011Y312064D01*
X454097Y312492D01*
D02*
G37*
G36*
X451271D02*
X449446D01*
X449532Y312064D01*
X450057Y311278D01*
X450844Y310752D01*
X451271Y310667D01*
Y312492D01*
D02*
G37*
G36*
X427649D02*
X425824D01*
X425910Y312064D01*
X426435Y311278D01*
X427222Y310752D01*
X427649Y310667D01*
Y312492D01*
D02*
G37*
G36*
X424569D02*
X422744D01*
Y310667D01*
X423172Y310752D01*
X423958Y311278D01*
X424484Y312064D01*
X424569Y312492D01*
D02*
G37*
G36*
X421744D02*
X419919D01*
X420004Y312064D01*
X420530Y311278D01*
X421316Y310752D01*
X421744Y310667D01*
Y312492D01*
D02*
G37*
G36*
X418664D02*
X416839D01*
Y310667D01*
X417266Y310752D01*
X418053Y311278D01*
X418578Y312064D01*
X418664Y312492D01*
D02*
G37*
G36*
X415838D02*
X414013D01*
X414099Y312064D01*
X414624Y311278D01*
X415411Y310752D01*
X415838Y310667D01*
Y312492D01*
D02*
G37*
G36*
X412758D02*
X410933D01*
Y310667D01*
X411361Y310752D01*
X412147Y311278D01*
X412673Y312064D01*
X412758Y312492D01*
D02*
G37*
G36*
X409933D02*
X408108D01*
X408193Y312064D01*
X408718Y311278D01*
X409505Y310752D01*
X409933Y310667D01*
Y312492D01*
D02*
G37*
G36*
X406852D02*
X405027D01*
Y310667D01*
X405455Y310752D01*
X406242Y311278D01*
X406767Y312064D01*
X406852Y312492D01*
D02*
G37*
G36*
X404027D02*
X402202D01*
X402287Y312064D01*
X402813Y311278D01*
X403600Y310752D01*
X404027Y310667D01*
Y312492D01*
D02*
G37*
G36*
X400947D02*
X399122D01*
Y310667D01*
X399550Y310752D01*
X400336Y311278D01*
X400862Y312064D01*
X400947Y312492D01*
D02*
G37*
G36*
X398122D02*
X396297D01*
X396382Y312064D01*
X396907Y311278D01*
X397694Y310752D01*
X398122Y310667D01*
Y312492D01*
D02*
G37*
G36*
X359608D02*
X357783D01*
Y310667D01*
X358211Y310752D01*
X358998Y311278D01*
X359523Y312064D01*
X359608Y312492D01*
D02*
G37*
G36*
X356783D02*
X354958D01*
X355043Y312064D01*
X355569Y311278D01*
X356356Y310752D01*
X356783Y310667D01*
Y312492D01*
D02*
G37*
G36*
X330081D02*
X328256D01*
Y310667D01*
X328684Y310752D01*
X329470Y311278D01*
X329996Y312064D01*
X330081Y312492D01*
D02*
G37*
G36*
X327256D02*
X325431D01*
X325516Y312064D01*
X326041Y311278D01*
X326828Y310752D01*
X327256Y310667D01*
Y312492D01*
D02*
G37*
G36*
X324175D02*
X322350D01*
Y310667D01*
X322778Y310752D01*
X323565Y311278D01*
X324090Y312064D01*
X324175Y312492D01*
D02*
G37*
G36*
X321350D02*
X319525D01*
X319610Y312064D01*
X320136Y311278D01*
X320922Y310752D01*
X321350Y310667D01*
Y312492D01*
D02*
G37*
G36*
X318270D02*
X316445D01*
Y310667D01*
X316873Y310752D01*
X317659Y311278D01*
X318185Y312064D01*
X318270Y312492D01*
D02*
G37*
G36*
X315445D02*
X313620D01*
X313705Y312064D01*
X314230Y311278D01*
X315017Y310752D01*
X315445Y310667D01*
Y312492D01*
D02*
G37*
G36*
X312364D02*
X310539D01*
Y310667D01*
X310967Y310752D01*
X311754Y311278D01*
X312279Y312064D01*
X312364Y312492D01*
D02*
G37*
G36*
X309539D02*
X307714D01*
X307799Y312064D01*
X308325Y311278D01*
X309111Y310752D01*
X309539Y310667D01*
Y312492D01*
D02*
G37*
G36*
X302768Y316032D02*
X294417D01*
Y311552D01*
X297854D01*
X299143Y311722D01*
X300344Y312219D01*
X301220Y312891D01*
X301684Y312768D01*
X301767Y312703D01*
X301854Y312263D01*
X301802Y312100D01*
X301604Y311819D01*
X301510Y311739D01*
X300533Y311610D01*
X299451Y311162D01*
X298523Y310450D01*
X297810Y309521D01*
X297362Y308440D01*
X297275Y307780D01*
X302185D01*
X307095D01*
X307008Y308440D01*
X306560Y309521D01*
X305847Y310450D01*
X305611Y310631D01*
X305628Y311130D01*
X305848Y311278D01*
X306374Y312064D01*
X306459Y312492D01*
X304134D01*
Y312992D01*
X303634D01*
Y315317D01*
X303206Y315232D01*
X303163Y315204D01*
X302697Y315493D01*
X302768Y316032D01*
D02*
G37*
G36*
X407980Y309412D02*
Y307587D01*
X409805D01*
X409720Y308014D01*
X409195Y308801D01*
X408408Y309327D01*
X407980Y309412D01*
D02*
G37*
G36*
X406980D02*
X406552Y309327D01*
X405766Y308801D01*
X405240Y308014D01*
X405155Y307587D01*
X406980D01*
Y309412D01*
D02*
G37*
G36*
X402075D02*
Y307587D01*
X403900D01*
X403815Y308014D01*
X403289Y308801D01*
X402502Y309327D01*
X402075Y309412D01*
D02*
G37*
G36*
X401075D02*
X400647Y309327D01*
X399860Y308801D01*
X399335Y308014D01*
X399250Y307587D01*
X401075D01*
Y309412D01*
D02*
G37*
G36*
X325303D02*
Y307587D01*
X327128D01*
X327043Y308014D01*
X326518Y308801D01*
X325731Y309327D01*
X325303Y309412D01*
D02*
G37*
G36*
X324303D02*
X323875Y309327D01*
X323089Y308801D01*
X322563Y308014D01*
X322478Y307587D01*
X324303D01*
Y309412D01*
D02*
G37*
G36*
X319397D02*
Y307587D01*
X321223D01*
X321137Y308014D01*
X320612Y308801D01*
X319825Y309327D01*
X319397Y309412D01*
D02*
G37*
G36*
X318397D02*
X317970Y309327D01*
X317183Y308801D01*
X316658Y308014D01*
X316572Y307587D01*
X318397D01*
Y309412D01*
D02*
G37*
G36*
X313492D02*
Y307587D01*
X315317D01*
X315232Y308014D01*
X314706Y308801D01*
X313920Y309327D01*
X313492Y309412D01*
D02*
G37*
G36*
X312492D02*
X312064Y309327D01*
X311278Y308801D01*
X310752Y308014D01*
X310667Y307587D01*
X312492D01*
Y309412D01*
D02*
G37*
G36*
X289870D02*
Y307587D01*
X291695D01*
X291610Y308014D01*
X291084Y308801D01*
X290298Y309327D01*
X289870Y309412D01*
D02*
G37*
G36*
X288870D02*
X288442Y309327D01*
X287656Y308801D01*
X287130Y308014D01*
X287045Y307587D01*
X288870D01*
Y309412D01*
D02*
G37*
G36*
X409805Y306587D02*
X407980D01*
Y304761D01*
X408408Y304847D01*
X409195Y305372D01*
X409720Y306159D01*
X409805Y306587D01*
D02*
G37*
G36*
X406980D02*
X405155D01*
X405240Y306159D01*
X405766Y305372D01*
X406552Y304847D01*
X406980Y304761D01*
Y306587D01*
D02*
G37*
G36*
X403900D02*
X402075D01*
Y304761D01*
X402502Y304847D01*
X403289Y305372D01*
X403815Y306159D01*
X403900Y306587D01*
D02*
G37*
G36*
X401075D02*
X399250D01*
X399335Y306159D01*
X399860Y305372D01*
X400647Y304847D01*
X401075Y304761D01*
Y306587D01*
D02*
G37*
G36*
X327128D02*
X325303D01*
Y304761D01*
X325731Y304847D01*
X326518Y305372D01*
X327043Y306159D01*
X327128Y306587D01*
D02*
G37*
G36*
X324303D02*
X322478D01*
X322563Y306159D01*
X323089Y305372D01*
X323875Y304847D01*
X324303Y304761D01*
Y306587D01*
D02*
G37*
G36*
X321223D02*
X319397D01*
Y304761D01*
X319825Y304847D01*
X320612Y305372D01*
X321137Y306159D01*
X321223Y306587D01*
D02*
G37*
G36*
X318397D02*
X316572D01*
X316658Y306159D01*
X317183Y305372D01*
X317970Y304847D01*
X318397Y304761D01*
Y306587D01*
D02*
G37*
G36*
X315317D02*
X313492D01*
Y304761D01*
X313920Y304847D01*
X314706Y305372D01*
X315232Y306159D01*
X315317Y306587D01*
D02*
G37*
G36*
X312492D02*
X310667D01*
X310752Y306159D01*
X311278Y305372D01*
X312064Y304847D01*
X312492Y304761D01*
Y306587D01*
D02*
G37*
G36*
X291695D02*
X289870D01*
Y304761D01*
X290298Y304847D01*
X291084Y305372D01*
X291610Y306159D01*
X291695Y306587D01*
D02*
G37*
G36*
X288870D02*
X287045D01*
X287130Y306159D01*
X287656Y305372D01*
X288442Y304847D01*
X288870Y304761D01*
Y306587D01*
D02*
G37*
G36*
X307095Y306780D02*
X302685D01*
Y302797D01*
X303837Y302949D01*
X304919Y303397D01*
X305847Y304109D01*
X306560Y305038D01*
X307008Y306119D01*
X307095Y306780D01*
D02*
G37*
G36*
X301685D02*
X297275D01*
X297362Y306119D01*
X297810Y305038D01*
X298523Y304109D01*
X299451Y303397D01*
X300533Y302949D01*
X301685Y302797D01*
Y306780D01*
D02*
G37*
G36*
X344898Y309748D02*
X330102D01*
Y299284D01*
X344898D01*
Y302493D01*
X354574D01*
X354923Y302260D01*
X355850Y302076D01*
X356778Y302260D01*
X357565Y302786D01*
X358090Y303572D01*
X358275Y304500D01*
X358090Y305428D01*
X357565Y306214D01*
X356778Y306740D01*
X355850Y306925D01*
X354923Y306740D01*
X354622Y306539D01*
X344898D01*
Y309748D01*
D02*
G37*
G36*
X409933Y303506D02*
X409505Y303421D01*
X408718Y302895D01*
X408193Y302109D01*
X408108Y301681D01*
X409933D01*
Y303506D01*
D02*
G37*
G36*
X405027D02*
Y301681D01*
X406852D01*
X406767Y302109D01*
X406242Y302895D01*
X405455Y303421D01*
X405027Y303506D01*
D02*
G37*
G36*
X404027D02*
X403600Y303421D01*
X402813Y302895D01*
X402287Y302109D01*
X402202Y301681D01*
X404027D01*
Y303506D01*
D02*
G37*
G36*
X399122D02*
Y301681D01*
X400947D01*
X400862Y302109D01*
X400336Y302895D01*
X399550Y303421D01*
X399122Y303506D01*
D02*
G37*
G36*
X398122D02*
X397694Y303421D01*
X396907Y302895D01*
X396382Y302109D01*
X396297Y301681D01*
X398122D01*
Y303506D01*
D02*
G37*
G36*
X387311D02*
Y301681D01*
X389136D01*
X389051Y302109D01*
X388525Y302895D01*
X387739Y303421D01*
X387311Y303506D01*
D02*
G37*
G36*
X386311D02*
X385883Y303421D01*
X385097Y302895D01*
X384571Y302109D01*
X384486Y301681D01*
X386311D01*
Y303506D01*
D02*
G37*
G36*
X310539D02*
Y301681D01*
X312364D01*
X312279Y302109D01*
X311754Y302895D01*
X310967Y303421D01*
X310539Y303506D01*
D02*
G37*
G36*
X309539D02*
X309111Y303421D01*
X308325Y302895D01*
X307799Y302109D01*
X307714Y301681D01*
X309539D01*
Y303506D01*
D02*
G37*
G36*
X286917D02*
Y301681D01*
X288742D01*
X288657Y302109D01*
X288132Y302895D01*
X287345Y303421D01*
X286917Y303506D01*
D02*
G37*
G36*
X285917D02*
X285489Y303421D01*
X284703Y302895D01*
X284177Y302109D01*
X284092Y301681D01*
X285917D01*
Y303506D01*
D02*
G37*
G36*
X378000Y303425D02*
X377072Y303240D01*
X376286Y302714D01*
X375760Y301928D01*
X375575Y301000D01*
X375680Y300473D01*
X375363Y300087D01*
X369917D01*
X369599Y300473D01*
X369704Y301000D01*
X369519Y301928D01*
X368994Y302714D01*
X368207Y303240D01*
X367280Y303425D01*
X366352Y303240D01*
X365565Y302714D01*
X365039Y301928D01*
X364855Y301000D01*
X364898Y300782D01*
X363139Y299022D01*
X362807Y298526D01*
X362691Y297941D01*
Y296937D01*
X361350D01*
Y292319D01*
X361350Y292181D01*
X361350D01*
Y291819D01*
X361350D01*
Y289941D01*
X367091D01*
Y290093D01*
X367552Y290285D01*
X368209Y289629D01*
Y283913D01*
X381232D01*
Y291425D01*
X370738D01*
X370050Y292113D01*
X370241Y292575D01*
X381232D01*
Y293030D01*
X382350D01*
Y292319D01*
X382350Y292181D01*
Y291819D01*
X382350Y291681D01*
Y289941D01*
X388090D01*
Y291681D01*
X388091Y291819D01*
Y292181D01*
X388090Y292319D01*
Y296937D01*
X382350D01*
Y296088D01*
X381232D01*
Y300087D01*
X380637D01*
X380320Y300473D01*
X380424Y301000D01*
X380240Y301928D01*
X379714Y302714D01*
X378928Y303240D01*
X378000Y303425D01*
D02*
G37*
G36*
X293917Y305946D02*
X293040Y305831D01*
X292222Y305492D01*
X291519Y304953D01*
X290981Y304251D01*
X290642Y303433D01*
X290526Y302555D01*
X290642Y301677D01*
X290981Y300859D01*
X291519Y300157D01*
X292222Y299618D01*
X293040Y299279D01*
X293917Y299164D01*
X294795Y299279D01*
X295613Y299618D01*
X296315Y300157D01*
X296854Y300859D01*
X297193Y301677D01*
X297308Y302555D01*
X297193Y303433D01*
X296854Y304251D01*
X296315Y304953D01*
X295613Y305492D01*
X294795Y305831D01*
X293917Y305946D01*
D02*
G37*
G36*
X288742Y300681D02*
X286917D01*
Y298856D01*
X287345Y298941D01*
X288132Y299467D01*
X288657Y300253D01*
X288742Y300681D01*
D02*
G37*
G36*
X285917D02*
X284092D01*
X284177Y300253D01*
X284703Y299467D01*
X285489Y298941D01*
X285917Y298856D01*
Y300681D01*
D02*
G37*
G36*
X452500Y307745D02*
X451401Y307600D01*
X450378Y307176D01*
X449498Y306502D01*
X448824Y305623D01*
X448400Y304599D01*
X448255Y303500D01*
X448400Y302401D01*
X448824Y301378D01*
X449498Y300498D01*
X450378Y299824D01*
X451401Y299400D01*
X452500Y299255D01*
X453599Y299400D01*
X454623Y299824D01*
X454995Y300109D01*
X455629Y299966D01*
X455963Y299467D01*
X456749Y298941D01*
X457177Y298856D01*
Y301181D01*
Y303554D01*
X456690Y303919D01*
X456600Y304599D01*
X456176Y305623D01*
X455502Y306502D01*
X454623Y307176D01*
X453599Y307600D01*
X452500Y307745D01*
D02*
G37*
G36*
X409933Y300681D02*
X408108D01*
X408193Y300253D01*
X408718Y299467D01*
X409505Y298941D01*
X409933Y298856D01*
Y300681D01*
D02*
G37*
G36*
X406852D02*
X405027D01*
Y298856D01*
X405455Y298941D01*
X406242Y299467D01*
X406767Y300253D01*
X406852Y300681D01*
D02*
G37*
G36*
X404027D02*
X402202D01*
X402287Y300253D01*
X402813Y299467D01*
X403600Y298941D01*
X404027Y298856D01*
Y300681D01*
D02*
G37*
G36*
X400947D02*
X399122D01*
Y298856D01*
X399550Y298941D01*
X400336Y299467D01*
X400862Y300253D01*
X400947Y300681D01*
D02*
G37*
G36*
X398122D02*
X396297D01*
X396382Y300253D01*
X396907Y299467D01*
X397694Y298941D01*
X398122Y298856D01*
Y300681D01*
D02*
G37*
G36*
X389136D02*
X387311D01*
Y298856D01*
X387739Y298941D01*
X388525Y299467D01*
X389051Y300253D01*
X389136Y300681D01*
D02*
G37*
G36*
X386311D02*
X384486D01*
X384571Y300253D01*
X385097Y299467D01*
X385883Y298941D01*
X386311Y298856D01*
Y300681D01*
D02*
G37*
G36*
X425512Y308256D02*
X419772D01*
Y300744D01*
X420191D01*
X420265Y300244D01*
X419769Y300094D01*
X418535Y299434D01*
X417454Y298546D01*
X416566Y297465D01*
X416508Y297357D01*
X416023Y297478D01*
Y300744D01*
X418228D01*
Y308256D01*
X412488D01*
Y304309D01*
X412131Y303774D01*
X412066Y303450D01*
X411604Y303258D01*
X411361Y303421D01*
X410933Y303506D01*
Y301181D01*
Y298856D01*
X411361Y298941D01*
X411536Y299058D01*
X411977Y298822D01*
Y290169D01*
X412131Y289395D01*
X412569Y288739D01*
X413477Y287831D01*
Y286256D01*
X412488D01*
Y284523D01*
X411000D01*
X410226Y284369D01*
X409569Y283931D01*
X407069Y281431D01*
X406631Y280774D01*
X406477Y280000D01*
Y279718D01*
X405991Y279458D01*
X405902Y279500D01*
X405455Y279799D01*
X405027Y279884D01*
Y277559D01*
Y275234D01*
X405455Y275319D01*
X405819Y275562D01*
X406319Y275295D01*
Y273756D01*
X410681D01*
Y279299D01*
X410681Y279299D01*
X410681D01*
X411004Y279643D01*
X411838Y280477D01*
X412488D01*
Y278744D01*
X418228D01*
Y286256D01*
X417523D01*
Y287812D01*
X417975Y288026D01*
X418535Y287566D01*
X419769Y286907D01*
X420265Y286756D01*
X420191Y286256D01*
X419772D01*
Y278744D01*
X425512D01*
Y280477D01*
X426500D01*
X427274Y280631D01*
X427931Y281069D01*
X431944Y285083D01*
X432500Y285010D01*
X433403Y285128D01*
X434245Y285477D01*
X434968Y286032D01*
X435523Y286755D01*
X435872Y287597D01*
X435990Y288500D01*
X435872Y289403D01*
X435523Y290245D01*
X434968Y290968D01*
X434245Y291523D01*
X433403Y291872D01*
X432500Y291990D01*
X431597Y291872D01*
X430755Y291523D01*
X430032Y290968D01*
X429477Y290245D01*
X429128Y289403D01*
X429009Y288500D01*
X429083Y287944D01*
X426012Y284873D01*
X425512Y285080D01*
Y286256D01*
X424809D01*
X424735Y286756D01*
X425231Y286907D01*
X426465Y287566D01*
X427546Y288454D01*
X428434Y289535D01*
X429094Y290769D01*
X429500Y292108D01*
X429637Y293500D01*
X429500Y294892D01*
X429094Y296231D01*
X428434Y297465D01*
X427546Y298546D01*
X426465Y299434D01*
X425231Y300094D01*
X424735Y300244D01*
X424809Y300744D01*
X425512D01*
Y300867D01*
X426012Y301134D01*
X426572Y300760D01*
X427500Y300575D01*
X428428Y300760D01*
X429214Y301286D01*
X429740Y302072D01*
X429924Y303000D01*
X429740Y303928D01*
X429214Y304714D01*
X428428Y305240D01*
X428045Y305316D01*
X427431Y305931D01*
X426774Y306369D01*
X426000Y306523D01*
X425512D01*
Y308256D01*
D02*
G37*
G36*
X303169Y301424D02*
X301201D01*
X300169Y301288D01*
X299207Y300890D01*
X298382Y300256D01*
X297748Y299430D01*
X297350Y298469D01*
X297214Y297437D01*
X296747Y297152D01*
X296203Y297516D01*
X295776Y297601D01*
Y295275D01*
Y292950D01*
X296203Y293036D01*
X296990Y293561D01*
X297516Y294348D01*
X297607Y294806D01*
X298141Y294931D01*
X298382Y294618D01*
X299207Y293984D01*
X299723Y293771D01*
Y293229D01*
X299207Y293016D01*
X298382Y292382D01*
X297748Y291556D01*
X297350Y290595D01*
X297214Y289563D01*
X297350Y288531D01*
X297748Y287570D01*
X298382Y286744D01*
X299207Y286110D01*
X300169Y285712D01*
X301201Y285576D01*
X303169D01*
X304201Y285712D01*
X305163Y286110D01*
X305988Y286744D01*
X306622Y287570D01*
X306896Y288230D01*
X307701D01*
Y287579D01*
X313244D01*
Y291941D01*
X307701D01*
Y291289D01*
X306733D01*
X306622Y291556D01*
X305988Y292382D01*
X305163Y293016D01*
X304647Y293229D01*
Y293771D01*
X305163Y293984D01*
X305988Y294618D01*
X306622Y295444D01*
X306814Y295908D01*
X307701D01*
Y295059D01*
X313244D01*
Y299421D01*
X312325D01*
X312057Y299921D01*
X312279Y300253D01*
X312364Y300681D01*
X307714D01*
X307799Y300253D01*
X308021Y299921D01*
X307754Y299421D01*
X307701D01*
Y298966D01*
X306814D01*
X306622Y299430D01*
X305988Y300256D01*
X305163Y300890D01*
X304201Y301288D01*
X303169Y301424D01*
D02*
G37*
G36*
X294776Y297601D02*
X294348Y297516D01*
X293561Y296990D01*
X293036Y296203D01*
X292950Y295776D01*
X294776D01*
Y297601D01*
D02*
G37*
G36*
X289870D02*
Y295776D01*
X291695D01*
X291610Y296203D01*
X291084Y296990D01*
X290298Y297516D01*
X289870Y297601D01*
D02*
G37*
G36*
X288870D02*
X288442Y297516D01*
X287656Y296990D01*
X287130Y296203D01*
X287045Y295776D01*
X288870D01*
Y297601D01*
D02*
G37*
G36*
X454059Y296370D02*
Y294000D01*
X455937D01*
Y296370D01*
X454059D01*
D02*
G37*
G36*
X322299Y295681D02*
X320028D01*
Y294000D01*
X322299D01*
Y295681D01*
D02*
G37*
G36*
X319028D02*
X316756D01*
Y294000D01*
X319028D01*
Y295681D01*
D02*
G37*
G36*
X294776Y294776D02*
X292950D01*
X293036Y294348D01*
X293561Y293561D01*
X294348Y293036D01*
X294776Y292950D01*
Y294776D01*
D02*
G37*
G36*
X291695D02*
X289870D01*
Y292950D01*
X290298Y293036D01*
X291084Y293561D01*
X291610Y294348D01*
X291695Y294776D01*
D02*
G37*
G36*
X288870D02*
X287045D01*
X287130Y294348D01*
X287656Y293561D01*
X288442Y293036D01*
X288870Y292950D01*
Y294776D01*
D02*
G37*
G36*
X322299Y293000D02*
X320028D01*
Y291319D01*
X322299D01*
Y293000D01*
D02*
G37*
G36*
X319028D02*
X316756D01*
Y291319D01*
X319028D01*
Y293000D01*
D02*
G37*
G36*
X455937Y293000D02*
X454059D01*
Y290630D01*
X455103D01*
X455404Y290130D01*
X455352Y289870D01*
X457177D01*
Y291695D01*
X456749Y291610D01*
X456437Y291401D01*
X455937Y291669D01*
Y293000D01*
D02*
G37*
G36*
X292823Y291695D02*
Y289870D01*
X294648D01*
X294563Y290298D01*
X294037Y291084D01*
X293251Y291610D01*
X292823Y291695D01*
D02*
G37*
G36*
X291823D02*
X291395Y291610D01*
X290608Y291084D01*
X290083Y290298D01*
X289998Y289870D01*
X291823D01*
Y291695D01*
D02*
G37*
G36*
X286917D02*
Y289870D01*
X288742D01*
X288657Y290298D01*
X288132Y291084D01*
X287345Y291610D01*
X286917Y291695D01*
D02*
G37*
G36*
X285917D02*
X285489Y291610D01*
X284703Y291084D01*
X284177Y290298D01*
X284092Y289870D01*
X285917D01*
Y291695D01*
D02*
G37*
G36*
X388090Y288941D02*
X385720D01*
Y287063D01*
X388090D01*
Y288941D01*
D02*
G37*
G36*
X384720D02*
X382350D01*
Y287063D01*
X384720D01*
Y288941D01*
D02*
G37*
G36*
X367091D02*
X364721D01*
Y287063D01*
X367091D01*
Y288941D01*
D02*
G37*
G36*
X363720D02*
X361350D01*
Y287063D01*
X363720D01*
Y288941D01*
D02*
G37*
G36*
X457177Y288870D02*
X455352D01*
X455437Y288442D01*
X455963Y287656D01*
X456749Y287130D01*
X457177Y287045D01*
Y288870D01*
D02*
G37*
G36*
X288742D02*
X286917D01*
Y287045D01*
X287345Y287130D01*
X288132Y287656D01*
X288657Y288442D01*
X288742Y288870D01*
D02*
G37*
G36*
X285917D02*
X284092D01*
X284177Y288442D01*
X284703Y287656D01*
X285489Y287130D01*
X285917Y287045D01*
Y288870D01*
D02*
G37*
G36*
X437508Y285790D02*
Y283964D01*
X439333D01*
X439248Y284392D01*
X438722Y285179D01*
X437936Y285704D01*
X437508Y285790D01*
D02*
G37*
G36*
X436508D02*
X436080Y285704D01*
X435293Y285179D01*
X434768Y284392D01*
X434683Y283964D01*
X436508D01*
Y285790D01*
D02*
G37*
G36*
X402075D02*
Y283964D01*
X403900D01*
X403815Y284392D01*
X403289Y285179D01*
X402502Y285704D01*
X402075Y285790D01*
D02*
G37*
G36*
X401075D02*
X400647Y285704D01*
X399860Y285179D01*
X399335Y284392D01*
X399250Y283964D01*
X401075D01*
Y285790D01*
D02*
G37*
G36*
X353559Y291029D02*
X339000D01*
X338415Y290913D01*
X337919Y290581D01*
X336919Y289581D01*
X336587Y289085D01*
X336471Y288500D01*
Y286717D01*
X334531D01*
Y276252D01*
X340469D01*
Y286717D01*
X339529D01*
Y287866D01*
X339633Y287971D01*
X352715D01*
X353130Y287555D01*
Y284819D01*
X353130Y284681D01*
Y284319D01*
X353130Y284181D01*
Y282441D01*
X358870D01*
Y284181D01*
X358870Y284319D01*
Y284681D01*
X358870Y284819D01*
Y289437D01*
X355785D01*
X354641Y290581D01*
X354144Y290913D01*
X353559Y291029D01*
D02*
G37*
G36*
X436508Y282964D02*
X434683D01*
X434756Y282598D01*
X434609Y282402D01*
X434384Y282211D01*
X433583Y282543D01*
X432500Y282685D01*
X431417Y282543D01*
X430407Y282125D01*
X429540Y281459D01*
X428875Y280593D01*
X428457Y279583D01*
X428315Y278500D01*
X428457Y277417D01*
X428875Y276407D01*
X429540Y275540D01*
X430407Y274875D01*
X430942Y274654D01*
X430964Y274556D01*
X430589Y273976D01*
X430174Y273893D01*
X429388Y273368D01*
X428862Y272581D01*
X428777Y272153D01*
X433427D01*
X433342Y272581D01*
X432817Y273368D01*
X432030Y273893D01*
X432165Y274359D01*
X432500Y274315D01*
X433583Y274457D01*
X434593Y274875D01*
X435460Y275540D01*
X436125Y276407D01*
X436543Y277417D01*
X436685Y278500D01*
X436543Y279583D01*
X436125Y280593D01*
X436022Y280726D01*
X436304Y281180D01*
X436508Y281139D01*
Y282964D01*
D02*
G37*
G36*
X349524Y286717D02*
X347055D01*
Y281984D01*
X349524D01*
Y286717D01*
D02*
G37*
G36*
X346055D02*
X343587D01*
Y281984D01*
X346055D01*
Y286717D01*
D02*
G37*
G36*
X439333Y282964D02*
X437508D01*
Y281139D01*
X437936Y281224D01*
X438722Y281750D01*
X439248Y282537D01*
X439333Y282964D01*
D02*
G37*
G36*
X403900D02*
X402075D01*
Y281139D01*
X402502Y281224D01*
X403289Y281750D01*
X403815Y282537D01*
X403900Y282964D01*
D02*
G37*
G36*
X401075D02*
X399250D01*
X399335Y282537D01*
X399860Y281750D01*
X400647Y281224D01*
X401075Y281139D01*
Y282964D01*
D02*
G37*
G36*
X294648Y288870D02*
X289998D01*
X290083Y288442D01*
X290608Y287656D01*
X291222Y287245D01*
X291262Y287192D01*
X291364Y286738D01*
X291355Y286628D01*
X290981Y286140D01*
X290642Y285323D01*
X290526Y284445D01*
X290642Y283567D01*
X290981Y282749D01*
X291519Y282047D01*
X292222Y281508D01*
X293040Y281169D01*
X293917Y281054D01*
X294795Y281169D01*
X295613Y281508D01*
X296315Y282047D01*
X296854Y282749D01*
X297193Y283567D01*
X297308Y284445D01*
X297193Y285323D01*
X296854Y286140D01*
X296315Y286843D01*
X295613Y287382D01*
X294795Y287720D01*
X294608Y287745D01*
X294401Y288201D01*
X294563Y288442D01*
X294648Y288870D01*
D02*
G37*
G36*
X358870Y281441D02*
X356500D01*
Y279563D01*
X358870D01*
Y281441D01*
D02*
G37*
G36*
X355500D02*
X353130D01*
Y279563D01*
X355500D01*
Y281441D01*
D02*
G37*
G36*
X457177Y279884D02*
X456749Y279799D01*
X455963Y279273D01*
X455437Y278487D01*
X455352Y278059D01*
X457177D01*
Y279884D01*
D02*
G37*
G36*
X404027D02*
X403600Y279799D01*
X402813Y279273D01*
X402287Y278487D01*
X402202Y278059D01*
X404027D01*
Y279884D01*
D02*
G37*
G36*
X399122D02*
Y278059D01*
X400947D01*
X400862Y278487D01*
X400336Y279273D01*
X399550Y279799D01*
X399122Y279884D01*
D02*
G37*
G36*
X398122D02*
X397694Y279799D01*
X396907Y279273D01*
X396382Y278487D01*
X396297Y278059D01*
X398122D01*
Y279884D01*
D02*
G37*
G36*
X292823D02*
Y278059D01*
X294648D01*
X294563Y278487D01*
X294037Y279273D01*
X293251Y279799D01*
X292823Y279884D01*
D02*
G37*
G36*
X291823D02*
X291395Y279799D01*
X290608Y279273D01*
X290083Y278487D01*
X289998Y278059D01*
X291823D01*
Y279884D01*
D02*
G37*
G36*
X286917D02*
Y278059D01*
X288742D01*
X288657Y278487D01*
X288132Y279273D01*
X287345Y279799D01*
X286917Y279884D01*
D02*
G37*
G36*
X285917D02*
X285489Y279799D01*
X284703Y279273D01*
X284177Y278487D01*
X284092Y278059D01*
X285917D01*
Y279884D01*
D02*
G37*
G36*
X349524Y280984D02*
X347055D01*
Y276252D01*
X349524D01*
Y280984D01*
D02*
G37*
G36*
X346055D02*
X343587D01*
Y276252D01*
X346055D01*
Y280984D01*
D02*
G37*
G36*
X457177Y277059D02*
X455352D01*
X455437Y276631D01*
X455963Y275845D01*
X456749Y275319D01*
X457177Y275234D01*
Y277059D01*
D02*
G37*
G36*
X404027D02*
X402202D01*
X402287Y276631D01*
X402813Y275845D01*
X403600Y275319D01*
X404027Y275234D01*
Y277059D01*
D02*
G37*
G36*
X288742D02*
X286917D01*
Y275234D01*
X287345Y275319D01*
X288132Y275845D01*
X288657Y276631D01*
X288742Y277059D01*
D02*
G37*
G36*
X285917D02*
X284092D01*
X284177Y276631D01*
X284703Y275845D01*
X285489Y275319D01*
X285917Y275234D01*
Y277059D01*
D02*
G37*
G36*
X455224Y273978D02*
Y272153D01*
X457049D01*
X456964Y272581D01*
X456439Y273368D01*
X455652Y273893D01*
X455224Y273978D01*
D02*
G37*
G36*
X437508D02*
Y272153D01*
X439333D01*
X439248Y272581D01*
X438722Y273368D01*
X437936Y273893D01*
X437508Y273978D01*
D02*
G37*
G36*
X436508D02*
X436080Y273893D01*
X435293Y273368D01*
X434768Y272581D01*
X434683Y272153D01*
X436508D01*
Y273978D01*
D02*
G37*
G36*
X425697D02*
Y272153D01*
X427522D01*
X427437Y272581D01*
X426911Y273368D01*
X426124Y273893D01*
X425697Y273978D01*
D02*
G37*
G36*
X424697D02*
X424269Y273893D01*
X423482Y273368D01*
X422957Y272581D01*
X422872Y272153D01*
X424697D01*
Y273978D01*
D02*
G37*
G36*
X419791D02*
Y272153D01*
X421616D01*
X421531Y272581D01*
X421006Y273368D01*
X420219Y273893D01*
X419791Y273978D01*
D02*
G37*
G36*
X418791D02*
X418363Y273893D01*
X417577Y273368D01*
X417051Y272581D01*
X416966Y272153D01*
X418791D01*
Y273978D01*
D02*
G37*
G36*
X340559Y274370D02*
Y272000D01*
X342437D01*
Y274370D01*
X340559D01*
D02*
G37*
G36*
X294648Y277059D02*
X289998D01*
X290083Y276631D01*
X290539Y275948D01*
X290370Y275448D01*
X289980D01*
X288691Y275278D01*
X287491Y274781D01*
X286459Y273990D01*
X285668Y272958D01*
X285170Y271757D01*
X285067Y270969D01*
X302768D01*
X302664Y271757D01*
X302167Y272958D01*
X301375Y273990D01*
X300344Y274781D01*
X299143Y275278D01*
X297854Y275448D01*
X294275D01*
X294106Y275948D01*
X294563Y276631D01*
X294648Y277059D01*
D02*
G37*
G36*
X457049Y271153D02*
X455224D01*
Y269328D01*
X455652Y269413D01*
X456439Y269939D01*
X456964Y270726D01*
X457049Y271153D01*
D02*
G37*
G36*
X445238D02*
X443413D01*
Y269328D01*
X443841Y269413D01*
X444628Y269939D01*
X445153Y270726D01*
X445238Y271153D01*
D02*
G37*
G36*
X442413D02*
X440588D01*
X440673Y270726D01*
X441199Y269939D01*
X441985Y269413D01*
X442413Y269328D01*
Y271153D01*
D02*
G37*
G36*
X439333D02*
X437508D01*
Y269328D01*
X437936Y269413D01*
X438722Y269939D01*
X439248Y270726D01*
X439333Y271153D01*
D02*
G37*
G36*
X436508D02*
X434683D01*
X434768Y270726D01*
X435293Y269939D01*
X436080Y269413D01*
X436508Y269328D01*
Y271153D01*
D02*
G37*
G36*
X433427D02*
X431602D01*
Y269328D01*
X432030Y269413D01*
X432817Y269939D01*
X433342Y270726D01*
X433427Y271153D01*
D02*
G37*
G36*
X430602D02*
X428777D01*
X428862Y270726D01*
X429388Y269939D01*
X430174Y269413D01*
X430602Y269328D01*
Y271153D01*
D02*
G37*
G36*
X427522D02*
X425697D01*
Y269328D01*
X426124Y269413D01*
X426911Y269939D01*
X427437Y270726D01*
X427522Y271153D01*
D02*
G37*
G36*
X424697D02*
X422872D01*
X422957Y270726D01*
X423482Y269939D01*
X424269Y269413D01*
X424697Y269328D01*
Y271153D01*
D02*
G37*
G36*
X421616D02*
X419791D01*
Y269328D01*
X420219Y269413D01*
X421006Y269939D01*
X421531Y270726D01*
X421616Y271153D01*
D02*
G37*
G36*
X418791D02*
X416966D01*
X417051Y270726D01*
X417577Y269939D01*
X418363Y269413D01*
X418791Y269328D01*
Y271153D01*
D02*
G37*
G36*
X342437Y271000D02*
X340559D01*
Y268630D01*
X342437D01*
Y271000D01*
D02*
G37*
G36*
X457177Y268073D02*
X456749Y267988D01*
X455963Y267462D01*
X455437Y266676D01*
X455352Y266248D01*
X457177D01*
Y268073D01*
D02*
G37*
G36*
X304634D02*
Y266248D01*
X306459D01*
X306374Y266676D01*
X305848Y267462D01*
X305062Y267988D01*
X304634Y268073D01*
D02*
G37*
G36*
X303634D02*
X303206Y267988D01*
X302419Y267462D01*
X301894Y266676D01*
X301809Y266248D01*
X303634D01*
Y268073D01*
D02*
G37*
G36*
X342437Y267870D02*
X340559D01*
Y265500D01*
X342437D01*
Y267870D01*
D02*
G37*
G36*
X302768Y269969D02*
X294417D01*
Y265489D01*
X297854D01*
X299143Y265659D01*
X300344Y266156D01*
X301375Y266947D01*
X302167Y267979D01*
X302664Y269180D01*
X302768Y269969D01*
D02*
G37*
G36*
X293417D02*
X285067D01*
X285170Y269180D01*
X285668Y267979D01*
X286459Y266947D01*
X287491Y266156D01*
X288691Y265659D01*
X289980Y265489D01*
X293417D01*
Y269969D01*
D02*
G37*
G36*
X400370Y266941D02*
X398000D01*
Y265063D01*
X400370D01*
Y266941D01*
D02*
G37*
G36*
X397000D02*
X394630D01*
Y265063D01*
X397000D01*
Y266941D01*
D02*
G37*
G36*
X457177Y265248D02*
X455352D01*
X455437Y264820D01*
X455963Y264034D01*
X456749Y263508D01*
X457177Y263423D01*
Y265248D01*
D02*
G37*
G36*
X454097D02*
X452272D01*
Y263423D01*
X452699Y263508D01*
X453486Y264034D01*
X454011Y264820D01*
X454097Y265248D01*
D02*
G37*
G36*
X306459D02*
X304634D01*
Y263423D01*
X305062Y263508D01*
X305848Y264034D01*
X306374Y264820D01*
X306459Y265248D01*
D02*
G37*
G36*
X303634D02*
X301809D01*
X301894Y264820D01*
X302419Y264034D01*
X303206Y263508D01*
X303634Y263423D01*
Y265248D01*
D02*
G37*
%LPD*%
D13*
X397500Y272559D02*
X403441D01*
X404500Y271500D01*
X411000D01*
X412240Y270260D01*
Y267472D02*
Y270260D01*
D15*
X389189Y272559D02*
X397500D01*
X386000Y269370D02*
X389189Y272559D01*
X357000Y262500D02*
Y275870D01*
X378000Y296461D02*
Y301000D01*
X377870Y296331D02*
X378000Y296461D01*
X364220Y297941D02*
X367280Y301000D01*
X364220Y294559D02*
Y297941D01*
X367500Y292500D02*
X371571Y288429D01*
X366280Y292500D02*
X367500D01*
X371571Y287669D02*
Y288429D01*
X379642Y294559D02*
X385221D01*
X377870Y296331D02*
X379642Y294559D01*
X364220D02*
X366280Y292500D01*
X337500Y281484D02*
X338000Y281984D01*
Y288500D01*
X339000Y289500D01*
X353559D01*
X356000Y287059D01*
X326681Y279720D02*
X328445Y281484D01*
X310276Y297437D02*
X310472Y297240D01*
X302185Y297437D02*
X310276D01*
X302185Y289563D02*
X302382Y289760D01*
X310472D01*
D16*
X448441Y293500D02*
D03*
X453559D02*
D03*
X334941Y271500D02*
D03*
X340059D02*
D03*
X334941Y265000D02*
D03*
X340059D02*
D03*
D17*
X397500Y272559D02*
D03*
Y267441D02*
D03*
X356000Y287059D02*
D03*
Y281941D02*
D03*
X385221Y294559D02*
D03*
Y289441D02*
D03*
X364220Y294559D02*
D03*
Y289441D02*
D03*
D37*
X422642Y282500D02*
X426500D01*
X422500D02*
X422642D01*
X414000Y303000D02*
X415500Y304500D01*
Y282500D02*
Y288669D01*
X415358Y282500D02*
X415500D01*
X411000D02*
X415358D01*
X414000Y290169D02*
X415500Y288669D01*
X426000Y304500D02*
X427500Y303000D01*
X422642Y304500D02*
X426000D01*
X414000Y290169D02*
Y303000D01*
X442500Y298500D02*
X446000D01*
X432500D02*
X442500D01*
X432000D02*
X432500D01*
X446000D02*
X448441Y296059D01*
Y293500D02*
Y296059D01*
X450000Y269340D02*
Y278441D01*
X447500Y280941D02*
X450000Y278441D01*
X447500Y280941D02*
Y287000D01*
X448441Y287941D02*
Y293500D01*
X447500Y287000D02*
X448441Y287941D01*
X443159Y262500D02*
X450000Y269340D01*
X408500Y276528D02*
Y280000D01*
X411000Y282500D01*
X426500D02*
X432500Y288500D01*
X357000Y261785D02*
Y262500D01*
X443159D01*
X384000Y317500D02*
X384500Y318000D01*
X393500Y309000D01*
Y297500D02*
Y309000D01*
X355715Y260500D02*
X357000Y261785D01*
X336000Y260500D02*
X355715D01*
X334941Y261559D02*
X336000Y260500D01*
X334941Y261559D02*
Y265000D01*
X355835Y304516D02*
X355850Y304500D01*
X337500Y304516D02*
X355835D01*
X302185Y279720D02*
X315000D01*
X326681D01*
X331000Y271500D02*
X334941D01*
X328445Y274055D02*
X331000Y271500D01*
X328445Y274055D02*
Y281484D01*
X334941Y265000D02*
Y271500D01*
D38*
X442500Y288500D02*
D03*
Y298500D02*
D03*
X432500Y288500D02*
D03*
Y298500D02*
D03*
D39*
X422500Y293500D02*
D03*
D40*
X442500Y308500D02*
D03*
Y278500D02*
D03*
X432500D02*
D03*
Y308500D02*
D03*
D41*
X302185Y307279D02*
D03*
Y279720D02*
D03*
D42*
Y297437D02*
D03*
Y289563D02*
D03*
D43*
X293917Y270468D02*
D03*
Y316531D02*
D03*
D44*
X313500Y322000D02*
D03*
D45*
X323500D02*
D03*
D46*
X401500Y267462D02*
D03*
X427500Y303000D02*
D03*
X457677Y324803D02*
D03*
X454724Y318898D02*
D03*
X457677Y312992D02*
D03*
Y301181D02*
D03*
Y289370D02*
D03*
Y277559D02*
D03*
X454724Y271654D02*
D03*
X457677Y265748D02*
D03*
X451771Y324803D02*
D03*
X448819Y318898D02*
D03*
X451771Y312992D02*
D03*
Y265748D02*
D03*
X445866Y324803D02*
D03*
X442913Y318898D02*
D03*
X445866Y312992D02*
D03*
X442913Y271654D02*
D03*
X439960Y324803D02*
D03*
X437008Y318898D02*
D03*
Y283465D02*
D03*
Y271654D02*
D03*
X434055Y324803D02*
D03*
X431102Y318898D02*
D03*
Y271654D02*
D03*
X428150Y324803D02*
D03*
X425197Y318898D02*
D03*
X428150Y312992D02*
D03*
X425197Y271654D02*
D03*
X422244Y324803D02*
D03*
X419291Y318898D02*
D03*
X422244Y312992D02*
D03*
X419291Y271654D02*
D03*
X416338Y324803D02*
D03*
X413386Y318898D02*
D03*
X416338Y312992D02*
D03*
X410433Y324803D02*
D03*
X407480Y318898D02*
D03*
X410433Y312992D02*
D03*
X407480Y307086D02*
D03*
X410433Y301181D02*
D03*
X404527Y324803D02*
D03*
Y312992D02*
D03*
X401575Y307086D02*
D03*
X404527Y301181D02*
D03*
X401575Y283465D02*
D03*
X404527Y277559D02*
D03*
X398622Y312992D02*
D03*
Y301181D02*
D03*
Y277559D02*
D03*
X386811Y301181D02*
D03*
X357283Y312992D02*
D03*
X348425Y318898D02*
D03*
X345472Y324803D02*
D03*
X339567D02*
D03*
X333661D02*
D03*
X327756Y312992D02*
D03*
X324803Y307086D02*
D03*
X318898Y318898D02*
D03*
X321850Y312992D02*
D03*
X318898Y307086D02*
D03*
X315945Y312992D02*
D03*
X312992Y307086D02*
D03*
X307086Y318898D02*
D03*
X310039Y312992D02*
D03*
Y301181D02*
D03*
X304134Y324803D02*
D03*
Y312992D02*
D03*
Y265748D02*
D03*
X298228Y324803D02*
D03*
X295275Y295275D02*
D03*
X292323Y324803D02*
D03*
X289370Y307086D02*
D03*
Y295275D02*
D03*
X292323Y289370D02*
D03*
Y277559D02*
D03*
X286417Y324803D02*
D03*
Y301181D02*
D03*
Y289370D02*
D03*
Y277559D02*
D03*
X384000Y317500D02*
D03*
X393500Y297500D02*
D03*
X355850Y304500D02*
D03*
X357000Y275870D02*
D03*
X315000Y279720D02*
D03*
X386000Y269370D02*
D03*
X378000Y301000D02*
D03*
X367280D02*
D03*
D47*
X377000Y323000D02*
D03*
D48*
X422642Y304500D02*
D03*
X415358D02*
D03*
X422642Y282500D02*
D03*
X415358D02*
D03*
D49*
X408500Y276528D02*
D03*
X404760Y267472D02*
D03*
X412240D02*
D03*
D50*
X319528Y293500D02*
D03*
X310472Y297240D02*
D03*
Y289760D02*
D03*
D51*
X377870Y287669D02*
D03*
X371571D02*
D03*
X377870Y296331D02*
D03*
X371571D02*
D03*
D52*
X337500Y304516D02*
D03*
D53*
X328445Y281484D02*
D03*
X337500D02*
D03*
X346555D02*
D03*
M02*
