M48
;Layer_Color=9474304
;FILE_FORMAT=2:5
INCH,LZ
;TYPE=PLATED
T1F00S00C0.01575
T2F00S00C0.01968
T3F00S00C0.02362
T4F00S00C0.02800
T5F00S00C0.03150
T6F00S00C0.03543
T7F00S00C0.03937
T9F00S00C0.04724
T10F00S00C0.06417
T11F00S00C0.12205
%
T01
X0315Y027972
X0357Y027587
X035585Y03045
X036728Y0301
X0373161Y0301523
X03935Y02975
X04015Y0267462
X0383336Y026901
X0384Y03175
X0424697Y0313713
T02
X0314961Y0267717
X0322835
X0330709
X0318898Y0275591
X0322835Y0283465
X0326772Y0291339
Y0307087
X0358268Y0291339
X0389764
X0397638Y0307087
X0405512
X0417323Y0267717
X0425197
X0433071
X0440945
X0456693
Y0299213
X030315Y0307087
X0279528
Y0291339
X0287402
X030315Y0275591
X0299213Y0267717
Y0314961
X030315Y0322835
X0295276
X0279528
X0330709Y0314961
X0350394Y0322835
X0401575Y0314961
X0409449
X0417323
X042126Y0322835
X0429134
X0437008
X0444882
X0452756
X0456693Y0314961
X0448819
X0440945
T03
X04325Y02885
Y02985
X04425
Y02885
T04
X0377Y0323
T05
X04325Y02785
X04425
Y03085
X04325
T06
X0321Y0311716
X0311
T07
X0294311Y027972
Y0289563
Y0297437
Y0307279
T09
X0286043Y0284445
Y0302555
T10
X04525Y02835
Y03035
T11
X04225Y02935
M30
